<svg width="26" height="26" viewBox="0 0 26 26" fill="none" xmlns="http://www.w3.org/2000/svg">
<rect width="26" height="26" rx="10" fill="#FAD24B"/>
<path d="M10.732 17L8.812 13.664H7.768V17H6.4V8.66H9.28C9.92 8.66 10.46 8.772 10.9 8.996C11.348 9.22 11.68 9.52 11.896 9.896C12.12 10.272 12.232 10.692 12.232 11.156C12.232 11.7 12.072 12.196 11.752 12.644C11.44 13.084 10.956 13.384 10.3 13.544L12.364 17H10.732ZM7.768 12.572H9.28C9.792 12.572 10.176 12.444 10.432 12.188C10.696 11.932 10.828 11.588 10.828 11.156C10.828 10.724 10.7 10.388 10.444 10.148C10.188 9.9 9.8 9.776 9.28 9.776H7.768V12.572ZM19.814 11.144C19.814 11.568 19.714 11.968 19.514 12.344C19.314 12.72 18.994 13.028 18.554 13.268C18.114 13.5 17.55 13.616 16.862 13.616H15.35V17H13.982V8.66H16.862C17.502 8.66 18.042 8.772 18.482 8.996C18.93 9.212 19.262 9.508 19.478 9.884C19.702 10.26 19.814 10.68 19.814 11.144ZM16.862 12.5C17.382 12.5 17.77 12.384 18.026 12.152C18.282 11.912 18.41 11.576 18.41 11.144C18.41 10.232 17.894 9.776 16.862 9.776H15.35V12.5H16.862Z" fill="#44475B"/>
</svg>
