<svg width="26" height="26" viewBox="0 0 26 26" fill="none" xmlns="http://www.w3.org/2000/svg">
<path d="M13.4885 8.93535L21.8442 23.4117C22.0517 23.7795 22.5798 23.7889 22.8156 23.44L25.9089 18.6586C26.0221 18.4794 26.0315 18.253 25.9277 18.0644L16.6667 2.06027C16.4497 1.68304 15.9028 1.68304 15.6858 2.06027L12.9603 6.75683C12.8566 6.93601 12.668 7.03975 12.4699 7.03975H6.7737C6.56622 7.03975 6.38704 7.14349 6.2833 7.32268L0.0778044 18.0927C-0.0259348 18.2719 -0.0259348 18.4794 0.0778044 18.6586L3.11454 23.9398C3.21828 24.119 3.40689 24.2227 3.60494 24.2227H15.7896C16.2234 24.2227 16.4969 23.7512 16.28 23.374L13.479 18.536C13.2621 18.1587 12.7151 18.1587 12.4982 18.536L10.3197 22.3272C10.1028 22.7044 9.5558 22.7044 9.33889 22.3272L7.22638 18.6586C7.12264 18.4794 7.12264 18.2719 7.22638 18.0927L12.4982 8.94478C12.7151 8.56755 13.2621 8.56755 13.479 8.94478L13.4885 8.93535Z" fill="#FF802C"/>
</svg>
