<svg xmlns="http://www.w3.org/2000/svg" width="35" height="35" fill="none"><circle cx="17.5" cy="17.5" r="17.5" fill="#FCF7D0"/><path fill="#000" d="M6.36 16v-1.29h2.41V22H7.33v-6h-.97Zm3.793 2.26c0-1.154.207-2.057.62-2.71.42-.654 1.113-.98 2.08-.98.967 0 1.657.326 2.07.98.42.653.63 1.556.63 2.71 0 1.16-.21 2.07-.63 2.73-.413.66-1.103.99-2.07.99-.967 0-1.66-.33-2.08-.99-.413-.66-.62-1.57-.62-2.73Zm4.02 0a6.46 6.46 0 0 0-.1-1.24c-.06-.34-.187-.617-.38-.83-.187-.214-.467-.32-.84-.32-.373 0-.657.106-.85.32-.187.213-.313.49-.38.83-.06.333-.09.746-.09 1.24 0 .506.03.933.09 1.28.06.34.187.616.38.83.193.206.477.31.85.31s.657-.104.85-.31c.193-.214.32-.49.38-.83.06-.347.09-.774.09-1.28ZM20.718 22l-2.54-3.11V22h-1.4v-6.98h1.4v3.13l2.54-3.13h1.69l-2.88 3.46 2.96 3.52h-1.77Zm7.92-2.95h-1.89v1.94h-1.32v-1.94h-1.89v-1.22h1.89v-1.94h1.32v1.94h1.89v1.22Z"/></svg>