<svg xmlns="http://www.w3.org/2000/svg" width="110" height="110" fill="none"><g filter="url(#a)"><rect width="70" height="70" x="20" y="10" fill="url(#b)" rx="20"/></g><circle cx="55" cy="45.5" r="16" stroke="#fff" stroke-width="3"/><path fill="#fff" d="M48.382 49.154c-.557 0-1.02-.169-1.386-.506a1.764 1.764 0 0 1-.528-1.298c0-.513.176-.939.528-1.276.367-.352.829-.528 1.386-.528.543 0 .99.176 1.342.528.352.337.528.763.528 1.276s-.176.946-.528 1.298c-.352.337-.8.506-1.342.506Zm6.155 0c-.557 0-1.02-.169-1.386-.506a1.764 1.764 0 0 1-.528-1.298c0-.513.176-.939.528-1.276.366-.352.828-.528 1.386-.528.543 0 .99.176 1.342.528.352.337.528.763.528 1.276s-.176.946-.528 1.298c-.352.337-.8.506-1.342.506Zm6.155 0c-.558 0-1.02-.169-1.386-.506a1.764 1.764 0 0 1-.528-1.298c0-.513.176-.939.528-1.276.366-.352.828-.528 1.386-.528.542 0 .99.176 1.342.528.352.337.528.763.528 1.276s-.176.946-.528 1.298c-.352.337-.8.506-1.342.506Z"/><defs><linearGradient id="b" x1="20" x2="90" y1="10" y2="80" gradientUnits="userSpaceOnUse"><stop stop-color="#5CA1FE"/><stop offset="1" stop-color="#217BF4"/></linearGradient><filter id="a" width="110" height="110" x="0" y="0" color-interpolation-filters="sRGB" filterUnits="userSpaceOnUse"><feFlood flood-opacity="0" result="BackgroundImageFix"/><feColorMatrix in="SourceAlpha" result="hardAlpha" values="0 0 0 0 0 0 0 0 0 0 0 0 0 0 0 0 0 0 127 0"/><feMorphology in="SourceAlpha" radius="2" result="effect1_dropShadow_245_2467"/><feOffset dy="10"/><feGaussianBlur stdDeviation="11"/><feComposite in2="hardAlpha" operator="out"/><feColorMatrix values="0 0 0 0 0.427451 0 0 0 0 0.670588 0 0 0 0 1 0 0 0 0.36 0"/><feBlend in2="BackgroundImageFix" result="effect1_dropShadow_245_2467"/><feBlend in="SourceGraphic" in2="effect1_dropShadow_245_2467" result="shape"/></filter></defs></svg>