<svg xmlns="http://www.w3.org/2000/svg" width="61" height="34" fill="none"><path stroke="#8F8F8F" stroke-width=".908" d="m23.48 7.591-.752-.655v11.311h.908V8.93l6.566 5.72.291.253.298-.247 6.914-5.755v9.345h.907V6.965l-.744.62-7.361 6.127-7.027-6.12Zm7.448-3.521-.43-1.213-.426 1.215-2.354 6.715.856.3 1.929-5.5 1.952 5.501.855-.303-2.382-6.715ZM25.99 18.405l1.957-5.27-.85-.316-1.958 5.27.851.316Zm7.119-5.272 1.929 5.27.852-.312-1.929-5.27-.852.312Zm9.19-.893c0 6.509-5.282 11.786-11.799 11.786-6.517 0-11.8-5.277-11.8-11.786C18.7 5.731 23.983.454 30.5.454S42.3 5.73 42.3 12.24Z"/><path fill="#8F8F8F" d="M4.36 32.444H1.65l-.5 1.381H.294l2.247-6.177h.936l2.237 6.177h-.856l-.499-1.382Zm-.233-.66-1.123-3.138-1.123 3.138h2.246Zm3.6-1.07c0-.606.137-1.15.41-1.631a2.98 2.98 0 0 1 1.114-1.141 3.109 3.109 0 0 1 1.578-.41c.678 0 1.27.163 1.774.49.505.327.874.79 1.106 1.39h-.972a1.943 1.943 0 0 0-.749-.864c-.32-.202-.707-.303-1.159-.303-.434 0-.823.1-1.167.303-.345.202-.616.49-.812.865-.196.368-.294.802-.294 1.301 0 .493.098.927.294 1.302.196.368.467.653.812.855.344.202.733.303 1.167.303.452 0 .838-.098 1.16-.294.326-.202.576-.49.748-.864h.972a2.813 2.813 0 0 1-1.106 1.381c-.505.321-1.096.482-1.774.482a3.162 3.162 0 0 1-1.578-.401 3.007 3.007 0 0 1-1.114-1.133 3.244 3.244 0 0 1-.41-1.63Zm9.337-2.442v2.077h2.265v.668h-2.265v2.14h2.532v.668h-3.343v-6.222h3.343v.669h-2.532Zm7.637 2.451 1.908 3.102h-.918L24.202 31.4l-1.417 2.425h-.9l1.898-3.102-1.908-3.111h.91l1.497 2.434 1.427-2.434h.909L24.7 30.723Zm10.636-3.066v6.168h-.811v-4.6l-2.05 4.6h-.571l-2.06-4.609v4.61h-.81v-6.17h.873l2.282 5.1 2.282-5.1h.865Zm3.524.615v2.077h2.264v.668h-2.264v2.14h2.532v.668H38.05v-6.222h3.343v.669H38.86Zm7.03-.66c.678 0 1.264.128 1.757.383.499.25.88.61 1.14 1.079.268.47.402 1.022.402 1.658 0 .636-.134 1.189-.401 1.658-.262.463-.642.82-1.141 1.07-.494.243-1.079.365-1.756.365h-1.935v-6.213h1.935Zm0 5.545c.803 0 1.415-.211 1.837-.633.422-.428.633-1.025.633-1.792 0-.773-.214-1.376-.642-1.81-.422-.434-1.031-.65-1.827-.65h-1.123v4.885h1.123Zm6.517-5.545v6.213h-.81v-6.213h.81Zm6.393 4.832h-2.71l-.5 1.381h-.855l2.246-6.177h.936l2.238 6.177H59.3l-.5-1.382Zm-.232-.66-1.123-3.138-1.123 3.138h2.246Z"/></svg>