<svg width="586" height="425" viewBox="0 0 586 425" fill="none" xmlns="http://www.w3.org/2000/svg">
<rect x="11.3042" y="0.698698" width="437.392" height="327.892" rx="12.6736" fill="#CFEDFF"/>
<rect x="11.3042" y="0.698698" width="437.392" height="327.892" rx="12.6736" stroke="#D8E4FF" stroke-width="0.608333"/>
<g filter="url(#filter0_d_174_1646)">
<rect x="336.256" y="60.417" width="51.9111" height="51.9111" rx="6.48889" fill="white"/>
</g>
<path d="M362.307 75.0859C358.806 75.0859 355.448 76.4768 352.972 78.9526C350.497 81.4283 349.106 84.7862 349.106 88.2874C349.106 91.7886 350.497 95.1466 352.972 97.6223C355.448 100.098 358.806 101.489 362.307 101.489C365.808 101.489 369.166 100.098 371.642 97.6223C374.118 95.1466 375.509 91.7886 375.509 88.2874C375.509 84.7862 374.118 81.4283 371.642 78.9526C369.166 76.4768 365.808 75.0859 362.307 75.0859Z" fill="url(#paint0_linear_174_1646)"/>
<path d="M366.389 81.6857C362.762 81.6857 362.308 84.6957 362.308 84.6957C362.308 84.6957 361.856 81.6857 358.229 81.6857C354.741 81.6857 353.724 85.3524 354.15 87.3129C355.272 92.4944 362.308 96.1248 362.308 96.1248C362.308 96.1248 369.346 92.4944 370.469 87.3129C370.893 85.3524 369.875 81.6857 366.389 81.6857Z" fill="white"/>
<g filter="url(#filter1_d_174_1646)">
<rect x="39.3889" y="130.984" width="222.244" height="225.489" rx="9.73333" fill="white"/>
</g>
<g clip-path="url(#clip0_174_1646)">
<path d="M68.319 152.046C68.319 151.451 67.8324 150.965 67.2375 150.965H58.5857C57.9909 150.965 57.5042 151.451 57.5042 152.046V158.535C57.5042 159.13 57.9909 159.616 58.5857 159.616H67.2375C67.8324 159.616 68.319 159.13 68.319 158.535V152.046ZM67.2375 152.046L62.9116 154.75L58.5857 152.046H67.2375ZM67.2375 158.535H58.5857V153.128L62.9116 155.831L67.2375 153.128V158.535Z" fill="#5F6DFF"/>
</g>
<path d="M75.9202 158.802V151.134H78.6537C79.2503 151.134 79.7446 151.242 80.1365 151.46C80.5284 151.677 80.8218 151.974 81.0165 152.351C81.2112 152.725 81.3085 153.147 81.3085 153.616C81.3085 154.088 81.2099 154.513 81.0127 154.89C80.818 155.264 80.5234 155.561 80.129 155.781C79.7371 155.998 79.2441 156.106 78.65 156.106H76.7702V155.125H78.5451C78.9221 155.125 79.2279 155.061 79.4625 154.931C79.6972 154.798 79.8694 154.619 79.9792 154.391C80.0891 154.164 80.144 153.906 80.144 153.616C80.144 153.327 80.0891 153.07 79.9792 152.845C79.8694 152.62 79.6959 152.444 79.4588 152.317C79.2241 152.19 78.9146 152.126 78.5301 152.126H77.0773V158.802H75.9202ZM82.5751 158.802V153.051H83.6573V153.965H83.7172C83.822 153.655 84.0067 153.412 84.2714 153.234C84.5385 153.055 84.8405 152.965 85.1775 152.965C85.2474 152.965 85.3298 152.967 85.4247 152.972C85.522 152.977 85.5981 152.984 85.6531 152.991V154.062C85.6081 154.05 85.5282 154.036 85.4134 154.021C85.2986 154.003 85.1838 153.995 85.0689 153.995C84.8043 153.995 84.5684 154.051 84.3612 154.163C84.1565 154.273 83.9943 154.426 83.8744 154.624C83.7546 154.818 83.6947 155.041 83.6947 155.29V158.802H82.5751ZM88.8387 158.919C88.2995 158.919 87.8289 158.795 87.427 158.548C87.0251 158.301 86.7131 157.955 86.4909 157.511C86.2687 157.066 86.1576 156.547 86.1576 155.953C86.1576 155.356 86.2687 154.835 86.4909 154.388C86.7131 153.941 87.0251 153.594 87.427 153.347C87.8289 153.1 88.2995 152.976 88.8387 152.976C89.3779 152.976 89.8484 153.1 90.2503 153.347C90.6523 153.594 90.9643 153.941 91.1865 154.388C91.4086 154.835 91.5197 155.356 91.5197 155.953C91.5197 156.547 91.4086 157.066 91.1865 157.511C90.9643 157.955 90.6523 158.301 90.2503 158.548C89.8484 158.795 89.3779 158.919 88.8387 158.919ZM88.8424 157.979C89.1919 157.979 89.4815 157.886 89.7111 157.702C89.9408 157.517 90.1106 157.271 90.2204 156.964C90.3327 156.657 90.3889 156.319 90.3889 155.949C90.3889 155.582 90.3327 155.245 90.2204 154.938C90.1106 154.629 89.9408 154.38 89.7111 154.193C89.4815 154.006 89.1919 153.912 88.8424 153.912C88.4904 153.912 88.1984 154.006 87.9662 154.193C87.7366 154.38 87.5656 154.629 87.4532 154.938C87.3434 155.245 87.2885 155.582 87.2885 155.949C87.2885 156.319 87.3434 156.657 87.4532 156.964C87.5656 157.271 87.7366 157.517 87.9662 157.702C88.1984 157.886 88.4904 157.979 88.8424 157.979ZM97.0793 154.455L96.0646 154.635C96.0221 154.505 95.9547 154.382 95.8624 154.264C95.7725 154.147 95.6502 154.051 95.4954 153.976C95.3406 153.901 95.1472 153.864 94.915 153.864C94.598 153.864 94.3334 153.935 94.1212 154.077C93.909 154.217 93.8029 154.398 93.8029 154.62C93.8029 154.812 93.8741 154.967 94.0164 155.084C94.1586 155.202 94.3883 155.298 94.7053 155.373L95.619 155.582C96.1482 155.705 96.5426 155.893 96.8022 156.148C97.0619 156.402 97.1917 156.733 97.1917 157.14C97.1917 157.484 97.0918 157.791 96.8921 158.061C96.6949 158.328 96.4191 158.538 96.0646 158.69C95.7126 158.842 95.3044 158.919 94.8401 158.919C94.1961 158.919 93.6706 158.781 93.2637 158.507C92.8568 158.23 92.6072 157.836 92.5148 157.327L93.597 157.162C93.6644 157.444 93.8029 157.658 94.0126 157.803C94.2223 157.945 94.4956 158.016 94.8326 158.016C95.1996 158.016 95.4929 157.94 95.7126 157.788C95.9323 157.633 96.0421 157.444 96.0421 157.222C96.0421 157.043 95.9747 156.892 95.8399 156.769C95.7076 156.647 95.5042 156.555 95.2296 156.492L94.256 156.279C93.7193 156.156 93.3224 155.962 93.0653 155.695C92.8106 155.427 92.6833 155.089 92.6833 154.68C92.6833 154.34 92.7782 154.043 92.9679 153.789C93.1576 153.534 93.4197 153.336 93.7542 153.193C94.0887 153.048 94.4719 152.976 94.9038 152.976C95.5254 152.976 96.0147 153.111 96.3716 153.38C96.7286 153.648 96.9645 154.006 97.0793 154.455ZM98.4227 160.959V153.051H99.516V153.983H99.6097C99.6746 153.864 99.7682 153.725 99.8905 153.568C100.013 153.41 100.183 153.273 100.4 153.156C100.617 153.036 100.904 152.976 101.261 152.976C101.725 152.976 102.14 153.093 102.504 153.328C102.869 153.563 103.154 153.901 103.362 154.343C103.571 154.785 103.676 155.316 103.676 155.938C103.676 156.56 103.573 157.093 103.365 157.537C103.158 157.979 102.874 158.319 102.512 158.559C102.15 158.796 101.737 158.915 101.272 158.915C100.923 158.915 100.637 158.856 100.415 158.739C100.195 158.622 100.023 158.484 99.898 158.327C99.7732 158.17 99.6771 158.03 99.6097 157.908H99.5423V160.959H98.4227ZM99.5198 155.927C99.5198 156.331 99.5785 156.686 99.6958 156.99C99.8131 157.295 99.9829 157.533 100.205 157.705C100.427 157.875 100.699 157.96 101.021 157.96C101.356 157.96 101.635 157.871 101.86 157.694C102.085 157.514 102.255 157.271 102.369 156.964C102.487 156.657 102.545 156.311 102.545 155.927C102.545 155.547 102.488 155.207 102.373 154.904C102.261 154.602 102.091 154.364 101.864 154.189C101.639 154.015 101.358 153.927 101.021 153.927C100.697 153.927 100.422 154.011 100.198 154.178C99.9754 154.345 99.8069 154.579 99.692 154.878C99.5772 155.178 99.5198 155.527 99.5198 155.927ZM107.409 158.919C106.843 158.919 106.355 158.797 105.945 158.555C105.538 158.311 105.224 157.967 105.002 157.526C104.782 157.081 104.672 156.561 104.672 155.964C104.672 155.375 104.782 154.856 105.002 154.406C105.224 153.957 105.533 153.606 105.93 153.354C106.33 153.102 106.797 152.976 107.331 152.976C107.655 152.976 107.97 153.03 108.274 153.137C108.579 153.244 108.852 153.413 109.094 153.643C109.337 153.872 109.528 154.171 109.667 154.538C109.807 154.902 109.877 155.345 109.877 155.867V156.264H105.305V155.425H108.78C108.78 155.13 108.72 154.87 108.6 154.642C108.48 154.413 108.312 154.232 108.095 154.099C107.88 153.967 107.628 153.901 107.338 153.901C107.024 153.901 106.749 153.978 106.514 154.133C106.282 154.285 106.103 154.485 105.975 154.732C105.85 154.977 105.788 155.243 105.788 155.53V156.185C105.788 156.57 105.855 156.897 105.99 157.166C106.128 157.436 106.319 157.642 106.563 157.784C106.808 157.924 107.094 157.994 107.421 157.994C107.633 157.994 107.826 157.964 108.001 157.904C108.176 157.841 108.327 157.749 108.454 157.627C108.581 157.504 108.679 157.353 108.746 157.174L109.806 157.365C109.721 157.677 109.569 157.95 109.349 158.185C109.132 158.417 108.859 158.598 108.529 158.728C108.202 158.855 107.829 158.919 107.409 158.919ZM113.542 158.919C112.985 158.919 112.506 158.793 112.104 158.54C111.705 158.286 111.398 157.935 111.183 157.488C110.968 157.041 110.861 156.53 110.861 155.953C110.861 155.369 110.971 154.853 111.19 154.406C111.41 153.957 111.72 153.606 112.119 153.354C112.518 153.102 112.989 152.976 113.531 152.976C113.968 152.976 114.357 153.057 114.699 153.219C115.041 153.379 115.317 153.604 115.526 153.893C115.739 154.183 115.865 154.521 115.905 154.908H114.815C114.755 154.639 114.618 154.406 114.403 154.212C114.191 154.017 113.906 153.92 113.549 153.92C113.237 153.92 112.964 154.002 112.729 154.167C112.497 154.329 112.316 154.561 112.186 154.863C112.057 155.163 111.992 155.517 111.992 155.927C111.992 156.346 112.055 156.708 112.183 157.013C112.31 157.317 112.49 157.553 112.722 157.72C112.957 157.888 113.232 157.971 113.549 157.971C113.762 157.971 113.954 157.933 114.126 157.855C114.301 157.775 114.447 157.662 114.564 157.514C114.684 157.367 114.768 157.19 114.815 156.983H115.905C115.865 157.355 115.744 157.687 115.541 157.979C115.339 158.271 115.068 158.5 114.729 158.668C114.392 158.835 113.996 158.919 113.542 158.919ZM119.787 153.051V153.95H116.645V153.051H119.787ZM117.488 151.673H118.607V157.114C118.607 157.331 118.64 157.494 118.705 157.604C118.77 157.712 118.853 157.785 118.955 157.825C119.06 157.863 119.174 157.881 119.296 157.881C119.386 157.881 119.465 157.875 119.532 157.863C119.6 157.85 119.652 157.84 119.689 157.833L119.892 158.758C119.827 158.783 119.734 158.807 119.615 158.832C119.495 158.86 119.345 158.875 119.165 158.877C118.871 158.882 118.596 158.83 118.341 158.72C118.087 158.61 117.881 158.441 117.724 158.211C117.566 157.981 117.488 157.693 117.488 157.346V151.673ZM125.242 154.455L124.228 154.635C124.185 154.505 124.118 154.382 124.026 154.264C123.936 154.147 123.813 154.051 123.659 153.976C123.504 153.901 123.31 153.864 123.078 153.864C122.761 153.864 122.497 153.935 122.284 154.077C122.072 154.217 121.966 154.398 121.966 154.62C121.966 154.812 122.037 154.967 122.179 155.084C122.322 155.202 122.551 155.298 122.868 155.373L123.782 155.582C124.311 155.705 124.706 155.893 124.965 156.148C125.225 156.402 125.355 156.733 125.355 157.14C125.355 157.484 125.255 157.791 125.055 158.061C124.858 158.328 124.582 158.538 124.228 158.69C123.876 158.842 123.468 158.919 123.003 158.919C122.359 158.919 121.834 158.781 121.427 158.507C121.02 158.23 120.77 157.836 120.678 157.327L121.76 157.162C121.828 157.444 121.966 157.658 122.176 157.803C122.385 157.945 122.659 158.016 122.996 158.016C123.363 158.016 123.656 157.94 123.876 157.788C124.095 157.633 124.205 157.444 124.205 157.222C124.205 157.043 124.138 156.892 124.003 156.769C123.871 156.647 123.667 156.555 123.393 156.492L122.419 156.279C121.882 156.156 121.486 155.962 121.228 155.695C120.974 155.427 120.846 155.089 120.846 154.68C120.846 154.34 120.941 154.043 121.131 153.789C121.321 153.534 121.583 153.336 121.917 153.193C122.252 153.048 122.635 152.976 123.067 152.976C123.689 152.976 124.178 153.111 124.535 153.38C124.892 153.648 125.128 154.006 125.242 154.455Z" fill="#333333"/>
<path d="M232.829 149.476C232.829 149.118 232.51 148.827 232.116 148.827C231.722 148.827 231.403 149.118 231.403 149.476V156.085L230.053 154.857C229.775 154.604 229.323 154.604 229.045 154.857C228.766 155.111 228.766 155.521 229.045 155.775L231.612 158.111C231.688 158.18 231.777 158.23 231.872 158.262C231.948 158.287 232.03 158.301 232.116 158.301C232.228 158.301 232.333 158.278 232.427 158.236C232.47 158.217 232.512 158.194 232.551 158.166C232.578 158.148 232.603 158.127 232.626 158.105L235.187 155.775C235.466 155.521 235.466 155.111 235.187 154.857C234.909 154.604 234.457 154.604 234.179 154.857L232.829 156.085V149.476Z" fill="#666666"/>
<path d="M226.34 157.587C226.734 157.587 227.053 157.878 227.053 158.236V159.988C227.053 160.126 227.113 160.258 227.22 160.355C227.327 160.452 227.473 160.507 227.624 160.507H236.608C236.76 160.507 236.905 160.452 237.012 160.355C237.119 160.258 237.179 160.126 237.179 159.988V158.236C237.179 157.878 237.498 157.587 237.892 157.587C238.286 157.587 238.605 157.878 238.605 158.236V159.988C238.605 160.47 238.395 160.932 238.02 161.273C237.646 161.613 237.138 161.805 236.608 161.805H227.624C227.094 161.805 226.586 161.613 226.212 161.273C225.838 160.932 225.627 160.47 225.627 159.988V158.236C225.627 157.878 225.947 157.587 226.34 157.587Z" fill="#666666"/>
<circle cx="232.065" cy="155.464" r="11.9489" stroke="#EEF0F2" stroke-width="0.730709"/>
<circle cx="150.376" cy="254.636" r="53.1458" stroke="#F5F5F5" stroke-width="12.4221"/>
<path d="M148.269 193.629C181.691 193.077 209.232 219.723 209.784 253.145C210.335 286.567 183.689 314.108 150.267 314.66C116.846 315.212 89.3047 288.565 88.7528 255.144C88.2009 221.722 114.847 194.181 148.269 193.629ZM149.992 298.006C174.216 297.606 193.53 277.644 193.129 253.42C192.729 229.196 172.768 209.883 148.544 210.283C124.32 210.683 105.007 230.645 105.407 254.869C105.807 279.093 125.769 298.406 149.992 298.006Z" fill="#009379"/>
<path d="M148.269 193.629C162.64 193.392 176.626 198.276 187.724 207.408C198.822 216.541 206.309 229.324 208.843 243.472C211.378 257.619 208.795 272.207 201.557 284.624C194.319 297.041 182.898 306.477 169.339 311.243C155.78 316.009 140.967 315.795 127.551 310.638C114.136 305.481 102.994 295.718 96.1184 283.096C89.2432 270.475 87.084 255.818 90.0272 241.75C92.9705 227.682 100.824 215.121 112.182 206.314L122.389 219.477C114.156 225.86 108.464 234.965 106.331 245.161C104.197 255.358 105.762 265.98 110.745 275.128C115.728 284.277 123.804 291.353 133.528 295.091C143.252 298.828 153.988 298.984 163.816 295.529C173.643 292.075 181.921 285.235 187.167 276.236C192.413 267.236 194.285 256.663 192.448 246.409C190.611 236.155 185.185 226.889 177.141 220.27C169.097 213.651 158.96 210.111 148.544 210.283L148.269 193.629Z" fill="#009379"/>
<path d="M148.269 193.629C158.432 193.461 168.474 195.856 177.468 200.592C186.462 205.328 194.118 212.253 199.731 220.728C205.343 229.203 208.73 238.955 209.58 249.084C210.43 259.213 208.715 269.393 204.593 278.685C200.472 287.977 194.076 296.081 185.997 302.249C177.918 308.418 168.416 312.452 158.367 313.98C148.317 315.508 138.045 314.481 128.498 310.992C118.95 307.504 110.435 301.667 103.738 294.021L116.268 283.047C121.122 288.589 127.294 292.819 134.214 295.348C141.134 297.876 148.579 298.621 155.863 297.513C163.146 296.406 170.034 293.482 175.889 289.011C181.745 284.54 186.38 278.666 189.368 271.931C192.355 265.197 193.598 257.818 192.982 250.477C192.366 243.135 189.911 236.067 185.843 229.924C181.775 223.782 176.226 218.762 169.707 215.33C163.189 211.897 155.91 210.161 148.544 210.283L148.269 193.629Z" fill="#009379"/>
<path d="M148.269 193.629C156.761 193.489 165.188 195.138 173.002 198.468C180.815 201.799 187.84 206.737 193.62 212.961C199.399 219.185 203.804 226.556 206.547 234.594C209.291 242.633 210.312 251.159 209.544 259.617C208.776 268.076 206.236 276.279 202.089 283.692C197.943 291.104 192.282 297.561 185.476 302.643C178.67 307.724 170.871 311.316 162.585 313.185C154.3 315.054 145.714 315.158 137.385 313.49L140.656 297.158C146.692 298.367 152.915 298.291 158.92 296.937C164.926 295.582 170.579 292.979 175.512 289.296C180.445 285.613 184.547 280.933 187.553 275.56C190.558 270.187 192.399 264.242 192.956 258.111C193.512 251.98 192.772 245.801 190.784 239.975C188.795 234.148 185.603 228.806 181.414 224.295C177.225 219.784 172.133 216.205 166.47 213.791C160.807 211.376 154.699 210.181 148.544 210.283L148.269 193.629Z" fill="#9BE1F8"/>
<path d="M148.269 193.629C157.127 193.483 165.909 195.283 173.996 198.903C182.082 202.522 189.275 207.873 195.067 214.577C200.859 221.281 205.108 229.175 207.515 237.701C209.922 246.227 210.428 255.178 208.997 263.921L192.559 261.23C193.597 254.893 193.23 248.406 191.485 242.226C189.741 236.047 186.661 230.325 182.463 225.466C178.265 220.607 173.052 216.729 167.191 214.105C161.33 211.482 154.964 210.177 148.544 210.283L148.269 193.629Z" fill="#FAAD13"/>
<path d="M141.18 240.821H67.3764C65.3586 240.821 63.7228 242.457 63.7228 244.475V268.736C63.7228 270.754 65.3586 272.39 67.3764 272.39H98.7915L101.893 275.699L104.994 272.39H141.18C143.198 272.39 144.834 270.754 144.834 268.736V244.475C144.834 242.457 143.198 240.821 141.18 240.821Z" fill="#293134"/>
<path d="M87.4632 259.635C87.1021 259.635 86.7776 259.566 86.4896 259.428C86.2035 259.288 85.975 259.096 85.8041 258.852C85.6332 258.608 85.542 258.33 85.5304 258.017H86.3945C86.4157 258.27 86.528 258.478 86.7315 258.642C86.9351 258.805 87.179 258.886 87.4632 258.886C87.6897 258.886 87.8904 258.835 88.0652 258.731C88.2418 258.625 88.3801 258.48 88.4799 258.296C88.5817 258.112 88.6326 257.901 88.6326 257.665C88.6326 257.425 88.5807 257.211 88.477 257.023C88.3734 256.835 88.2303 256.687 88.0479 256.579C87.8674 256.472 87.66 256.417 87.4257 256.415C87.2471 256.415 87.0676 256.446 86.8871 256.507C86.7066 256.569 86.5606 256.649 86.4493 256.749L85.6341 256.628L85.9654 253.656H89.2087V254.419H86.7056L86.5184 256.069H86.553C86.6682 255.958 86.8208 255.865 87.0109 255.79C87.203 255.715 87.4084 255.678 87.6273 255.678C87.9864 255.678 88.3061 255.763 88.5865 255.934C88.8688 256.105 89.0906 256.338 89.2519 256.634C89.4151 256.928 89.4957 257.266 89.4938 257.648C89.4957 258.03 89.4093 258.371 89.2346 258.67C89.0618 258.97 88.8217 259.206 88.5145 259.379C88.2092 259.55 87.8587 259.635 87.4632 259.635ZM92.5185 259.653C92.0634 259.651 91.6745 259.531 91.3519 259.293C91.0293 259.054 90.7826 258.708 90.6117 258.253C90.4408 257.798 90.3553 257.249 90.3553 256.608C90.3553 255.969 90.4408 255.422 90.6117 254.969C90.7845 254.516 91.0322 254.17 91.3548 253.932C91.6793 253.694 92.0672 253.575 92.5185 253.575C92.9697 253.575 93.3566 253.695 93.6792 253.935C94.0018 254.173 94.2486 254.519 94.4195 254.972C94.5923 255.423 94.6787 255.969 94.6787 256.608C94.6787 257.251 94.5933 257.801 94.4224 258.256C94.2515 258.709 94.0047 259.055 93.6821 259.295C93.3595 259.534 92.9716 259.653 92.5185 259.653ZM92.5185 258.884C92.9179 258.884 93.2299 258.689 93.4546 258.299C93.6812 257.909 93.7945 257.345 93.7945 256.608C93.7945 256.118 93.7426 255.705 93.6389 255.367C93.5371 255.027 93.3902 254.769 93.1982 254.595C93.0081 254.418 92.7815 254.33 92.5185 254.33C92.121 254.33 91.8089 254.526 91.5823 254.917C91.3557 255.309 91.2415 255.873 91.2396 256.608C91.2396 257.1 91.2905 257.515 91.3922 257.855C91.4959 258.193 91.6428 258.45 91.8329 258.624C92.023 258.797 92.2515 258.884 92.5185 258.884ZM98.6985 258.449V258.138C98.6985 257.915 98.7446 257.711 98.8368 257.527C98.9309 257.341 99.0672 257.192 99.2458 257.08C99.4263 256.967 99.6443 256.911 99.8997 256.911C100.161 256.911 100.38 256.966 100.556 257.078C100.733 257.189 100.866 257.338 100.957 257.524C101.049 257.71 101.095 257.915 101.095 258.138V258.449C101.095 258.671 101.049 258.876 100.957 259.062C100.865 259.246 100.729 259.395 100.551 259.509C100.374 259.62 100.157 259.676 99.8997 259.676C99.6404 259.676 99.4215 259.62 99.2429 259.509C99.0643 259.395 98.929 259.246 98.8368 259.062C98.7446 258.876 98.6985 258.671 98.6985 258.449ZM99.3697 258.138V258.449C99.3697 258.614 99.409 258.764 99.4878 258.898C99.5665 259.032 99.7038 259.1 99.8997 259.1C100.094 259.1 100.229 259.032 100.306 258.898C100.383 258.764 100.421 258.614 100.421 258.449V258.138C100.421 257.972 100.384 257.823 100.309 257.688C100.236 257.554 100.099 257.487 99.8997 257.487C99.7076 257.487 99.5713 257.554 99.4906 257.688C99.41 257.823 99.3697 257.972 99.3697 258.138ZM95.7318 255.073V254.762C95.7318 254.539 95.7778 254.335 95.87 254.148C95.9641 253.962 96.1005 253.813 96.279 253.702C96.4595 253.59 96.6775 253.535 96.9329 253.535C97.194 253.535 97.4129 253.59 97.5896 253.702C97.7663 253.813 97.8997 253.962 97.99 254.148C98.0802 254.335 98.1253 254.539 98.1253 254.762V255.073C98.1253 255.296 98.0793 255.5 97.9871 255.686C97.8968 255.871 97.7624 256.02 97.5838 256.133C97.4072 256.244 97.1902 256.3 96.9329 256.3C96.6717 256.3 96.4519 256.244 96.2733 256.133C96.0966 256.02 95.9622 255.871 95.87 255.686C95.7778 255.5 95.7318 255.296 95.7318 255.073ZM96.4058 254.762V255.073C96.4058 255.238 96.4442 255.388 96.521 255.522C96.5997 255.657 96.737 255.724 96.9329 255.724C97.1249 255.724 97.2593 255.657 97.3361 255.522C97.4149 255.388 97.4542 255.238 97.4542 255.073V254.762C97.4542 254.597 97.4168 254.447 97.3419 254.312C97.267 254.178 97.1307 254.111 96.9329 254.111C96.7409 254.111 96.6045 254.178 96.5239 254.312C96.4451 254.447 96.4058 254.597 96.4058 254.762ZM96.0054 259.555L100.061 253.656H100.749L96.6938 259.555H96.0054ZM109.301 255.574H108.402C108.368 255.382 108.303 255.213 108.209 255.067C108.115 254.921 108 254.797 107.864 254.696C107.727 254.594 107.575 254.517 107.406 254.465C107.239 254.413 107.061 254.387 106.873 254.387C106.533 254.387 106.229 254.473 105.96 254.644C105.693 254.815 105.482 255.065 105.326 255.395C105.172 255.726 105.096 256.129 105.096 256.605C105.096 257.085 105.172 257.49 105.326 257.821C105.482 258.151 105.694 258.401 105.963 258.57C106.231 258.739 106.534 258.823 106.87 258.823C107.056 258.823 107.233 258.798 107.4 258.748C107.569 258.696 107.722 258.62 107.858 258.521C107.994 258.421 108.109 258.299 108.204 258.155C108.3 258.009 108.366 257.842 108.402 257.654L109.301 257.657C109.253 257.946 109.16 258.213 109.022 258.457C108.885 258.699 108.71 258.909 108.494 259.085C108.281 259.26 108.037 259.395 107.763 259.491C107.488 259.587 107.189 259.635 106.864 259.635C106.353 259.635 105.898 259.514 105.499 259.272C105.099 259.029 104.785 258.68 104.554 258.227C104.326 257.774 104.211 257.233 104.211 256.605C104.211 255.975 104.327 255.435 104.557 254.984C104.787 254.53 105.102 254.183 105.502 253.941C105.901 253.697 106.355 253.575 106.864 253.575C107.177 253.575 107.469 253.62 107.74 253.71C108.012 253.799 108.257 253.929 108.474 254.102C108.691 254.273 108.871 254.482 109.013 254.73C109.155 254.976 109.251 255.257 109.301 255.574ZM110.285 259.555V253.656H113.983V254.422H111.175V256.219H113.79V256.983H111.175V258.789H114.018V259.555H110.285ZM120.215 256.605C120.215 257.235 120.1 257.777 119.87 258.23C119.639 258.681 119.323 259.029 118.922 259.272C118.522 259.514 118.068 259.635 117.559 259.635C117.049 259.635 116.593 259.514 116.191 259.272C115.792 259.029 115.477 258.68 115.247 258.227C115.016 257.774 114.901 257.233 114.901 256.605C114.901 255.975 115.016 255.435 115.247 254.984C115.477 254.53 115.792 254.183 116.191 253.941C116.593 253.697 117.049 253.575 117.559 253.575C118.068 253.575 118.522 253.697 118.922 253.941C119.323 254.183 119.639 254.53 119.87 254.984C120.1 255.435 120.215 255.975 120.215 256.605ZM119.334 256.605C119.334 256.125 119.256 255.721 119.1 255.393C118.947 255.062 118.736 254.813 118.467 254.644C118.2 254.473 117.897 254.387 117.559 254.387C117.22 254.387 116.916 254.473 116.649 254.644C116.382 254.813 116.171 255.062 116.016 255.393C115.862 255.721 115.785 256.125 115.785 256.605C115.785 257.085 115.862 257.49 116.016 257.821C116.171 258.149 116.382 258.399 116.649 258.57C116.916 258.739 117.22 258.823 117.559 258.823C117.897 258.823 118.2 258.739 118.467 258.57C118.736 258.399 118.947 258.149 119.1 257.821C119.256 257.49 119.334 257.085 119.334 256.605Z" fill="white"/>
<path d="M233.647 192.966H159.843C157.825 192.966 156.19 194.601 156.19 196.619V220.88C156.19 222.898 157.825 224.534 159.843 224.534H191.258L194.359 227.843L197.461 224.534H233.647C235.665 224.534 237.301 222.898 237.301 220.88V196.619C237.301 194.601 235.665 192.966 233.647 192.966Z" fill="#293134"/>
<path d="M179.802 210.077V209.432L181.798 207.363C182.011 207.139 182.187 206.942 182.325 206.773C182.465 206.602 182.57 206.44 182.639 206.286C182.708 206.133 182.743 205.969 182.743 205.797C182.743 205.601 182.697 205.432 182.605 205.29C182.512 205.146 182.387 205.035 182.227 204.958C182.068 204.88 181.888 204.84 181.689 204.84C181.477 204.84 181.293 204.883 181.136 204.97C180.978 205.056 180.857 205.178 180.773 205.336C180.688 205.493 180.646 205.678 180.646 205.889H179.796C179.796 205.53 179.879 205.216 180.044 204.947C180.209 204.678 180.436 204.47 180.724 204.322C181.012 204.172 181.339 204.097 181.706 204.097C182.077 204.097 182.403 204.171 182.685 204.319C182.969 204.465 183.191 204.665 183.351 204.918C183.51 205.17 183.59 205.454 183.59 205.771C183.59 205.99 183.548 206.204 183.466 206.413C183.385 206.622 183.244 206.856 183.042 207.113C182.841 207.368 182.56 207.678 182.201 208.043L181.029 209.27V209.313H183.685V210.077H179.802ZM186.642 210.157C186.281 210.157 185.957 210.088 185.669 209.95C185.383 209.81 185.154 209.618 184.983 209.374C184.812 209.13 184.721 208.852 184.71 208.539H185.574C185.595 208.792 185.707 209 185.911 209.164C186.114 209.327 186.358 209.409 186.642 209.409C186.869 209.409 187.07 209.357 187.244 209.253C187.421 209.147 187.559 209.002 187.659 208.818C187.761 208.634 187.812 208.423 187.812 208.187C187.812 207.947 187.76 207.733 187.656 207.545C187.553 207.357 187.41 207.209 187.227 207.101C187.047 206.994 186.839 206.939 186.605 206.937C186.426 206.937 186.247 206.968 186.066 207.029C185.886 207.091 185.74 207.171 185.629 207.271L184.813 207.15L185.145 204.178H188.388V204.941H185.885L185.698 206.592H185.732C185.847 206.48 186 206.387 186.19 206.312C186.382 206.237 186.588 206.2 186.807 206.2C187.166 206.2 187.485 206.285 187.766 206.456C188.048 206.627 188.27 206.86 188.431 207.156C188.594 207.45 188.675 207.788 188.673 208.17C188.675 208.552 188.589 208.893 188.414 209.193C188.241 209.492 188.001 209.728 187.694 209.901C187.388 210.072 187.038 210.157 186.642 210.157ZM192.723 208.971V208.66C192.723 208.437 192.769 208.233 192.861 208.049C192.955 207.863 193.092 207.714 193.27 207.603C193.451 207.489 193.669 207.433 193.924 207.433C194.185 207.433 194.404 207.488 194.581 207.6C194.758 207.711 194.891 207.86 194.981 208.046C195.074 208.232 195.12 208.437 195.12 208.66V208.971C195.12 209.193 195.074 209.398 194.981 209.584C194.889 209.769 194.754 209.917 194.575 210.031C194.399 210.142 194.182 210.198 193.924 210.198C193.665 210.198 193.446 210.142 193.268 210.031C193.089 209.917 192.954 209.769 192.861 209.584C192.769 209.398 192.723 209.193 192.723 208.971ZM193.394 208.66V208.971C193.394 209.136 193.434 209.286 193.512 209.42C193.591 209.554 193.728 209.622 193.924 209.622C194.118 209.622 194.254 209.554 194.33 209.42C194.407 209.286 194.446 209.136 194.446 208.971V208.66C194.446 208.495 194.408 208.345 194.333 208.21C194.26 208.076 194.124 208.009 193.924 208.009C193.732 208.009 193.596 208.076 193.515 208.21C193.435 208.345 193.394 208.495 193.394 208.66ZM189.756 205.595V205.284C189.756 205.061 189.802 204.857 189.895 204.67C189.989 204.484 190.125 204.335 190.304 204.224C190.484 204.113 190.702 204.057 190.957 204.057C191.219 204.057 191.438 204.113 191.614 204.224C191.791 204.335 191.924 204.484 192.015 204.67C192.105 204.857 192.15 205.061 192.15 205.284V205.595C192.15 205.818 192.104 206.022 192.012 206.208C191.921 206.393 191.787 206.542 191.608 206.655C191.432 206.766 191.215 206.822 190.957 206.822C190.696 206.822 190.476 206.766 190.298 206.655C190.121 206.542 189.987 206.393 189.895 206.208C189.802 206.022 189.756 205.818 189.756 205.595ZM190.43 205.284V205.595C190.43 205.76 190.469 205.91 190.546 206.044C190.624 206.179 190.762 206.246 190.957 206.246C191.149 206.246 191.284 206.179 191.361 206.044C191.439 205.91 191.479 205.76 191.479 205.595V205.284C191.479 205.119 191.441 204.969 191.366 204.835C191.292 204.7 191.155 204.633 190.957 204.633C190.765 204.633 190.629 204.7 190.548 204.835C190.47 204.969 190.43 205.119 190.43 205.284ZM190.03 210.077L194.086 204.178H194.774L190.718 210.077H190.03ZM203.326 206.096H202.427C202.392 205.904 202.328 205.735 202.234 205.589C202.14 205.443 202.025 205.319 201.888 205.218C201.752 205.116 201.599 205.039 201.43 204.987C201.263 204.935 201.086 204.909 200.897 204.909C200.558 204.909 200.253 204.995 199.984 205.166C199.717 205.337 199.506 205.587 199.351 205.918C199.197 206.248 199.12 206.651 199.12 207.127C199.12 207.607 199.197 208.013 199.351 208.343C199.506 208.673 199.718 208.923 199.987 209.092C200.256 209.261 200.558 209.345 200.895 209.345C201.081 209.345 201.257 209.32 201.425 209.27C201.593 209.218 201.746 209.143 201.882 209.043C202.019 208.943 202.134 208.821 202.228 208.677C202.324 208.531 202.39 208.364 202.427 208.176L203.326 208.179C203.278 208.469 203.184 208.735 203.046 208.979C202.91 209.221 202.734 209.431 202.519 209.607C202.306 209.782 202.062 209.917 201.787 210.013C201.513 210.109 201.213 210.157 200.889 210.157C200.378 210.157 199.923 210.036 199.523 209.795C199.124 209.551 198.809 209.202 198.579 208.749C198.35 208.296 198.236 207.755 198.236 207.127C198.236 206.497 198.351 205.957 198.582 205.506C198.812 205.052 199.127 204.705 199.526 204.463C199.926 204.219 200.38 204.097 200.889 204.097C201.202 204.097 201.494 204.142 201.764 204.233C202.037 204.321 202.282 204.451 202.499 204.624C202.716 204.795 202.895 205.004 203.038 205.252C203.18 205.498 203.276 205.779 203.326 206.096ZM204.309 210.077V204.178H207.968V204.944H205.199V206.741H207.705V207.505H205.199V210.077H204.309ZM214.105 207.127C214.105 207.757 213.99 208.299 213.759 208.752C213.529 209.203 213.213 209.551 212.812 209.795C212.412 210.036 211.958 210.157 211.449 210.157C210.939 210.157 210.483 210.036 210.081 209.795C209.682 209.551 209.367 209.202 209.136 208.749C208.906 208.296 208.791 207.755 208.791 207.127C208.791 206.497 208.906 205.957 209.136 205.506C209.367 205.052 209.682 204.705 210.081 204.463C210.483 204.219 210.939 204.097 211.449 204.097C211.958 204.097 212.412 204.219 212.812 204.463C213.213 204.705 213.529 205.052 213.759 205.506C213.99 205.957 214.105 206.497 214.105 207.127ZM213.224 207.127C213.224 206.647 213.146 206.243 212.99 205.915C212.837 205.584 212.626 205.335 212.357 205.166C212.09 204.995 211.787 204.909 211.449 204.909C211.11 204.909 210.806 204.995 210.539 205.166C210.272 205.335 210.061 205.584 209.906 205.915C209.752 206.243 209.675 206.647 209.675 207.127C209.675 207.607 209.752 208.013 209.906 208.343C210.061 208.671 210.272 208.921 210.539 209.092C210.806 209.261 211.11 209.345 211.449 209.345C211.787 209.345 212.09 209.261 212.357 209.092C212.626 208.921 212.837 208.671 212.99 208.343C213.146 208.013 213.224 207.607 213.224 207.127Z" fill="white"/>
<path d="M119.287 343.021H193.091C195.108 343.021 196.744 341.385 196.744 339.368V315.107C196.744 313.089 195.108 311.453 193.091 311.453H161.675L158.574 308.143L155.473 311.453H119.287C117.269 311.453 115.633 313.089 115.633 315.107V339.368C115.633 341.385 117.269 343.021 119.287 343.021Z" fill="#293134"/>
<path d="M139.245 327.688V327.043L141.242 324.975C141.455 324.75 141.63 324.554 141.769 324.385C141.909 324.214 142.013 324.051 142.083 323.898C142.152 323.744 142.186 323.581 142.186 323.408C142.186 323.212 142.14 323.043 142.048 322.901C141.956 322.757 141.83 322.647 141.671 322.57C141.511 322.491 141.332 322.452 141.132 322.452C140.921 322.452 140.736 322.495 140.579 322.582C140.422 322.668 140.301 322.79 140.216 322.947C140.132 323.105 140.089 323.289 140.089 323.5H139.24C139.24 323.141 139.322 322.827 139.487 322.558C139.653 322.29 139.879 322.081 140.167 321.933C140.455 321.784 140.783 321.709 141.149 321.709C141.52 321.709 141.846 321.783 142.129 321.931C142.413 322.077 142.635 322.276 142.794 322.53C142.953 322.781 143.033 323.065 143.033 323.382C143.033 323.601 142.992 323.815 142.909 324.025C142.829 324.234 142.687 324.467 142.486 324.725C142.284 324.98 142.004 325.29 141.645 325.655L140.472 326.882V326.925H143.128V327.688H139.245ZM146.086 327.769C145.725 327.769 145.4 327.7 145.112 327.562C144.826 327.422 144.598 327.229 144.427 326.986C144.256 326.742 144.165 326.463 144.153 326.15H145.017C145.038 326.404 145.151 326.612 145.354 326.775C145.558 326.939 145.802 327.02 146.086 327.02C146.312 327.02 146.513 326.968 146.688 326.865C146.864 326.759 147.003 326.614 147.103 326.43C147.204 326.245 147.255 326.035 147.255 325.799C147.255 325.559 147.203 325.345 147.1 325.157C146.996 324.968 146.853 324.821 146.671 324.713C146.49 324.605 146.283 324.551 146.048 324.549C145.87 324.549 145.69 324.58 145.51 324.641C145.329 324.702 145.183 324.783 145.072 324.883L144.257 324.762L144.588 321.789H147.831V322.553H145.328L145.141 324.203H145.176C145.291 324.092 145.444 323.999 145.634 323.924C145.826 323.849 146.031 323.811 146.25 323.811C146.609 323.811 146.929 323.897 147.209 324.068C147.491 324.239 147.713 324.472 147.875 324.768C148.038 325.062 148.118 325.399 148.116 325.782C148.118 326.164 148.032 326.505 147.857 326.804C147.684 327.104 147.444 327.34 147.137 327.513C146.832 327.684 146.481 327.769 146.086 327.769ZM152.167 326.582V326.271C152.167 326.049 152.213 325.845 152.305 325.661C152.399 325.474 152.535 325.326 152.714 325.214C152.894 325.101 153.112 325.044 153.368 325.044C153.629 325.044 153.848 325.1 154.024 325.211C154.201 325.323 154.334 325.471 154.425 325.658C154.517 325.844 154.563 326.049 154.563 326.271V326.582C154.563 326.805 154.517 327.01 154.425 327.196C154.333 327.38 154.197 327.529 154.019 327.642C153.842 327.754 153.625 327.809 153.368 327.809C153.108 327.809 152.89 327.754 152.711 327.642C152.532 327.529 152.397 327.38 152.305 327.196C152.213 327.01 152.167 326.805 152.167 326.582ZM152.838 326.271V326.582C152.838 326.747 152.877 326.897 152.956 327.032C153.034 327.166 153.172 327.233 153.368 327.233C153.562 327.233 153.697 327.166 153.774 327.032C153.851 326.897 153.889 326.747 153.889 326.582V326.271C153.889 326.106 153.852 325.956 153.777 325.822C153.704 325.688 153.567 325.62 153.368 325.62C153.176 325.62 153.039 325.688 152.959 325.822C152.878 325.956 152.838 326.106 152.838 326.271ZM149.2 323.207V322.895C149.2 322.673 149.246 322.468 149.338 322.282C149.432 322.096 149.568 321.947 149.747 321.836C149.928 321.724 150.145 321.668 150.401 321.668C150.662 321.668 150.881 321.724 151.058 321.836C151.234 321.947 151.368 322.096 151.458 322.282C151.548 322.468 151.593 322.673 151.593 322.895V323.207C151.593 323.429 151.547 323.634 151.455 323.82C151.365 324.004 151.23 324.153 151.052 324.267C150.875 324.378 150.658 324.434 150.401 324.434C150.14 324.434 149.92 324.378 149.741 324.267C149.565 324.153 149.43 324.004 149.338 323.82C149.246 323.634 149.2 323.429 149.2 323.207ZM149.874 322.895V323.207C149.874 323.372 149.912 323.521 149.989 323.656C150.068 323.79 150.205 323.858 150.401 323.858C150.593 323.858 150.727 323.79 150.804 323.656C150.883 323.521 150.922 323.372 150.922 323.207V322.895C150.922 322.73 150.885 322.581 150.81 322.446C150.735 322.312 150.599 322.245 150.401 322.245C150.209 322.245 150.073 322.312 149.992 322.446C149.913 322.581 149.874 322.73 149.874 322.895ZM149.473 327.688L153.529 321.789H154.217L150.162 327.688H149.473ZM162.769 323.708H161.87C161.836 323.516 161.771 323.347 161.677 323.201C161.583 323.055 161.468 322.931 161.332 322.829C161.195 322.727 161.043 322.651 160.874 322.599C160.707 322.547 160.529 322.521 160.341 322.521C160.001 322.521 159.697 322.606 159.428 322.777C159.161 322.948 158.95 323.199 158.794 323.529C158.64 323.859 158.564 324.263 158.564 324.739C158.564 325.219 158.64 325.624 158.794 325.954C158.95 326.285 159.162 326.534 159.431 326.703C159.699 326.872 160.002 326.957 160.338 326.957C160.524 326.957 160.701 326.932 160.868 326.882C161.037 326.83 161.19 326.754 161.326 326.654C161.462 326.555 161.577 326.433 161.672 326.289C161.768 326.143 161.834 325.976 161.87 325.787L162.769 325.79C162.721 326.08 162.628 326.347 162.49 326.591C162.353 326.833 162.178 327.042 161.962 327.219C161.749 327.394 161.505 327.529 161.231 327.625C160.956 327.721 160.657 327.769 160.332 327.769C159.821 327.769 159.366 327.648 158.967 327.406C158.567 327.162 158.253 326.814 158.022 326.361C157.794 325.907 157.679 325.367 157.679 324.739C157.679 324.109 157.795 323.569 158.025 323.117C158.255 322.664 158.57 322.317 158.97 322.075C159.369 321.831 159.823 321.709 160.332 321.709C160.645 321.709 160.937 321.754 161.208 321.844C161.48 321.932 161.725 322.063 161.942 322.236C162.159 322.407 162.339 322.616 162.481 322.864C162.623 323.11 162.719 323.391 162.769 323.708ZM163.753 327.688V321.789H167.411V322.556H164.643V324.353H167.149V325.116H164.643V327.688H163.753ZM173.549 324.739C173.549 325.369 173.433 325.91 173.203 326.363C172.972 326.815 172.657 327.162 172.255 327.406C171.856 327.648 171.402 327.769 170.893 327.769C170.382 327.769 169.926 327.648 169.525 327.406C169.125 327.162 168.81 326.814 168.58 326.361C168.349 325.907 168.234 325.367 168.234 324.739C168.234 324.109 168.349 323.569 168.58 323.117C168.81 322.664 169.125 322.317 169.525 322.075C169.926 321.831 170.382 321.709 170.893 321.709C171.402 321.709 171.856 321.831 172.255 322.075C172.657 322.317 172.972 322.664 173.203 323.117C173.433 323.569 173.549 324.109 173.549 324.739ZM172.667 324.739C172.667 324.259 172.589 323.855 172.434 323.526C172.28 323.196 172.069 322.946 171.8 322.777C171.533 322.606 171.231 322.521 170.893 322.521C170.553 322.521 170.25 322.606 169.983 322.777C169.716 322.946 169.505 323.196 169.349 323.526C169.195 323.855 169.119 324.259 169.119 324.739C169.119 325.219 169.195 325.624 169.349 325.954C169.505 326.283 169.716 326.532 169.983 326.703C170.25 326.872 170.553 326.957 170.893 326.957C171.231 326.957 171.533 326.872 171.8 326.703C172.069 326.532 172.28 326.283 172.434 325.954C172.589 325.624 172.667 325.219 172.667 324.739Z" fill="white"/>
<rect x="282.518" y="139.703" width="272.168" height="80.0794" rx="9.125" fill="white" stroke="#EEF0F2" stroke-width="1.21667"/>
<path d="M389.294 169.521V161.262H394.472V162.335H390.54V164.851H394.202V165.919H390.54V168.448H394.52V169.521H389.294ZM396.039 169.521V163.327H397.197V164.335H397.273C397.402 163.993 397.613 163.727 397.906 163.536C398.2 163.343 398.55 163.246 398.959 163.246C399.373 163.246 399.72 163.343 399.999 163.536C400.282 163.73 400.49 163.996 400.624 164.335H400.689C400.837 164.004 401.072 163.741 401.395 163.544C401.717 163.345 402.102 163.246 402.548 163.246C403.11 163.246 403.568 163.422 403.923 163.774C404.281 164.126 404.459 164.657 404.459 165.367V169.521H403.254V165.48C403.254 165.061 403.139 164.757 402.911 164.569C402.682 164.38 402.409 164.286 402.092 164.286C401.7 164.286 401.395 164.407 401.177 164.649C400.959 164.888 400.85 165.196 400.85 165.573V169.521H399.649V165.403C399.649 165.067 399.544 164.797 399.334 164.593C399.124 164.388 398.851 164.286 398.515 164.286C398.287 164.286 398.076 164.347 397.882 164.468C397.691 164.586 397.537 164.751 397.419 164.964C397.303 165.176 397.245 165.422 397.245 165.702V169.521H396.039ZM407.878 169.658C407.485 169.658 407.131 169.585 406.813 169.44C406.496 169.292 406.245 169.078 406.059 168.799C405.876 168.519 405.785 168.176 405.785 167.77C405.785 167.421 405.852 167.133 405.987 166.907C406.121 166.682 406.303 166.503 406.531 166.371C406.76 166.239 407.015 166.14 407.297 166.073C407.579 166.006 407.867 165.954 408.16 165.919C408.531 165.876 408.832 165.842 409.063 165.815C409.295 165.785 409.463 165.738 409.567 165.673C409.672 165.609 409.725 165.504 409.725 165.359V165.331C409.725 164.979 409.625 164.706 409.426 164.512C409.23 164.319 408.937 164.222 408.547 164.222C408.141 164.222 407.821 164.312 407.588 164.492C407.356 164.669 407.196 164.867 407.108 165.085L405.975 164.827C406.109 164.45 406.305 164.147 406.563 163.915C406.824 163.681 407.124 163.512 407.463 163.407C407.801 163.3 408.157 163.246 408.531 163.246C408.778 163.246 409.041 163.275 409.317 163.335C409.597 163.391 409.858 163.496 410.1 163.649C410.344 163.802 410.545 164.022 410.701 164.306C410.857 164.589 410.935 164.956 410.935 165.407V169.521H409.757V168.674H409.709C409.631 168.83 409.514 168.983 409.358 169.133C409.202 169.284 409.002 169.409 408.757 169.508C408.512 169.608 408.219 169.658 407.878 169.658ZM408.14 168.69C408.473 168.69 408.758 168.624 408.995 168.492C409.234 168.36 409.416 168.188 409.539 167.976C409.666 167.761 409.729 167.531 409.729 167.286V166.488C409.686 166.531 409.602 166.571 409.479 166.609C409.358 166.644 409.219 166.675 409.063 166.702C408.908 166.726 408.756 166.749 408.608 166.77C408.46 166.789 408.336 166.805 408.237 166.819C408.003 166.848 407.789 166.898 407.596 166.968C407.405 167.038 407.251 167.139 407.136 167.27C407.023 167.399 406.967 167.571 406.967 167.787C406.967 168.085 407.077 168.311 407.297 168.464C407.518 168.615 407.799 168.69 408.14 168.69ZM412.54 169.521V163.327H413.746V169.521H412.54ZM413.149 162.371C412.94 162.371 412.76 162.301 412.609 162.161C412.461 162.019 412.387 161.849 412.387 161.653C412.387 161.454 412.461 161.285 412.609 161.145C412.76 161.002 412.94 160.931 413.149 160.931C413.359 160.931 413.538 161.002 413.686 161.145C413.836 161.285 413.912 161.454 413.912 161.653C413.912 161.849 413.836 162.019 413.686 162.161C413.538 162.301 413.359 162.371 413.149 162.371ZM416.574 161.262V169.521H415.368V161.262H416.574ZM422.02 161.262L424.318 167.988H424.411L426.71 161.262H428.057L425.085 169.521H423.645L420.673 161.262H422.02ZM431.201 169.646C430.591 169.646 430.065 169.515 429.624 169.254C429.186 168.991 428.847 168.621 428.608 168.145C428.371 167.667 428.253 167.106 428.253 166.464C428.253 165.829 428.371 165.27 428.608 164.786C428.847 164.302 429.181 163.925 429.608 163.653C430.038 163.382 430.541 163.246 431.116 163.246C431.466 163.246 431.804 163.304 432.132 163.419C432.46 163.535 432.755 163.716 433.016 163.964C433.276 164.211 433.482 164.532 433.633 164.927C433.783 165.32 433.858 165.797 433.858 166.359V166.786H428.935V165.883H432.677C432.677 165.566 432.612 165.285 432.483 165.04C432.354 164.793 432.173 164.598 431.939 164.456C431.708 164.313 431.436 164.242 431.124 164.242C430.786 164.242 430.49 164.325 430.237 164.492C429.987 164.656 429.794 164.871 429.656 165.137C429.522 165.401 429.455 165.687 429.455 165.996V166.702C429.455 167.116 429.527 167.468 429.673 167.758C429.82 168.049 430.026 168.27 430.29 168.424C430.553 168.574 430.861 168.649 431.213 168.649C431.442 168.649 431.65 168.617 431.838 168.553C432.026 168.485 432.189 168.386 432.326 168.254C432.463 168.123 432.568 167.96 432.641 167.766L433.782 167.972C433.69 168.308 433.526 168.602 433.29 168.855C433.056 169.105 432.761 169.3 432.407 169.44C432.054 169.577 431.653 169.646 431.201 169.646ZM435.196 169.521V163.327H436.362V164.311H436.426C436.539 163.977 436.738 163.715 437.023 163.524C437.311 163.331 437.636 163.234 437.999 163.234C438.074 163.234 438.163 163.237 438.265 163.242C438.37 163.247 438.452 163.254 438.511 163.262V164.415C438.462 164.402 438.376 164.387 438.253 164.371C438.129 164.352 438.005 164.343 437.882 164.343C437.597 164.343 437.343 164.403 437.12 164.524C436.899 164.643 436.724 164.808 436.595 165.02C436.466 165.23 436.402 165.469 436.402 165.738V169.521H435.196ZM439.554 169.521V163.327H440.76V169.521H439.554ZM440.163 162.371C439.953 162.371 439.773 162.301 439.623 162.161C439.475 162.019 439.401 161.849 439.401 161.653C439.401 161.454 439.475 161.285 439.623 161.145C439.773 161.002 439.953 160.931 440.163 160.931C440.373 160.931 440.552 161.002 440.699 161.145C440.85 161.285 440.925 161.454 440.925 161.653C440.925 161.849 440.85 162.019 440.699 162.161C440.552 162.301 440.373 162.371 440.163 162.371ZM445.33 163.327V164.294H441.83V163.327H445.33ZM442.789 169.521V162.609C442.789 162.222 442.874 161.9 443.043 161.645C443.213 161.387 443.437 161.195 443.717 161.068C443.996 160.939 444.3 160.875 444.628 160.875C444.87 160.875 445.077 160.895 445.249 160.935C445.421 160.973 445.549 161.008 445.632 161.04L445.35 162.016C445.294 162 445.221 161.981 445.132 161.96C445.044 161.935 444.936 161.923 444.81 161.923C444.517 161.923 444.307 161.996 444.181 162.141C444.057 162.286 443.995 162.496 443.995 162.77V169.521H442.789ZM446.574 169.521V163.327H447.78V169.521H446.574ZM447.183 162.371C446.973 162.371 446.793 162.301 446.642 162.161C446.495 162.019 446.421 161.849 446.421 161.653C446.421 161.454 446.495 161.285 446.642 161.145C446.793 161.002 446.973 160.931 447.183 160.931C447.392 160.931 447.571 161.002 447.719 161.145C447.87 161.285 447.945 161.454 447.945 161.653C447.945 161.849 447.87 162.019 447.719 162.161C447.571 162.301 447.392 162.371 447.183 162.371ZM452.071 169.646C451.461 169.646 450.935 169.515 450.494 169.254C450.056 168.991 449.718 168.621 449.478 168.145C449.242 167.667 449.123 167.106 449.123 166.464C449.123 165.829 449.242 165.27 449.478 164.786C449.718 164.302 450.051 163.925 450.478 163.653C450.908 163.382 451.411 163.246 451.987 163.246C452.336 163.246 452.675 163.304 453.003 163.419C453.331 163.535 453.625 163.716 453.886 163.964C454.147 164.211 454.352 164.532 454.503 164.927C454.653 165.32 454.729 165.797 454.729 166.359V166.786H449.805V165.883H453.547C453.547 165.566 453.483 165.285 453.354 165.04C453.224 164.793 453.043 164.598 452.809 164.456C452.578 164.313 452.306 164.242 451.995 164.242C451.656 164.242 451.36 164.325 451.107 164.492C450.857 164.656 450.664 164.871 450.527 165.137C450.392 165.401 450.325 165.687 450.325 165.996V166.702C450.325 167.116 450.398 167.468 450.543 167.758C450.691 168.049 450.896 168.27 451.16 168.424C451.423 168.574 451.731 168.649 452.083 168.649C452.312 168.649 452.52 168.617 452.708 168.553C452.897 168.485 453.059 168.386 453.196 168.254C453.333 168.123 453.438 167.96 453.511 167.766L454.652 167.972C454.561 168.308 454.397 168.602 454.16 168.855C453.926 169.105 453.632 169.3 453.277 169.44C452.925 169.577 452.523 169.646 452.071 169.646ZM458.385 169.641C457.885 169.641 457.439 169.514 457.046 169.258C456.656 169 456.35 168.633 456.127 168.158C455.906 167.679 455.796 167.105 455.796 166.436C455.796 165.766 455.908 165.194 456.131 164.718C456.357 164.242 456.666 163.878 457.058 163.625C457.451 163.372 457.896 163.246 458.393 163.246C458.778 163.246 459.087 163.31 459.321 163.439C459.557 163.566 459.74 163.714 459.869 163.883C460.001 164.052 460.103 164.202 460.176 164.331H460.248V161.262H461.454V169.521H460.276V168.557H460.176C460.103 168.688 459.998 168.839 459.861 169.008C459.727 169.178 459.541 169.326 459.305 169.452C459.068 169.578 458.761 169.641 458.385 169.641ZM458.651 168.613C458.998 168.613 459.291 168.522 459.53 168.339C459.772 168.153 459.955 167.897 460.079 167.569C460.205 167.241 460.268 166.859 460.268 166.424C460.268 165.993 460.206 165.617 460.083 165.294C459.959 164.972 459.778 164.72 459.538 164.54C459.299 164.36 459.003 164.27 458.651 164.27C458.288 164.27 457.986 164.364 457.744 164.552C457.502 164.741 457.319 164.997 457.195 165.323C457.075 165.648 457.014 166.015 457.014 166.424C457.014 166.838 457.076 167.21 457.2 167.541C457.323 167.871 457.506 168.133 457.748 168.327C457.993 168.518 458.294 168.613 458.651 168.613Z" fill="#8A8E97"/>
<rect x="296.299" y="153.483" width="74.8211" height="52.5187" rx="4.86667" fill="#F3F5FA"/>
<path d="M350.15 177.934V179.427C350.148 182.925 349.015 186.329 346.921 189.13C344.826 191.932 341.882 193.982 338.527 194.974C335.173 195.966 331.587 195.847 328.306 194.634C325.024 193.422 322.223 191.181 320.319 188.247C318.415 185.312 317.51 181.841 317.741 178.35C317.971 174.859 319.323 171.537 321.596 168.877C323.869 166.218 326.94 164.365 330.353 163.594C333.765 162.823 337.335 163.176 340.53 164.599" stroke="#009379" stroke-width="1.62222" stroke-linecap="round" stroke-linejoin="round"/>
<path d="M350.15 166.449L333.928 182.687L329.061 177.821" stroke="#009379" stroke-width="1.62222" stroke-linecap="round" stroke-linejoin="round"/>
<rect x="388.387" y="194.491" width="96.4041" height="5.75547" rx="2.87774" fill="#F3F5FA"/>
<rect x="388.387" y="182.98" width="149.642" height="5.75547" rx="2.87774" fill="#F3F5FA"/>
<rect x="37.5634" y="31.825" width="272.168" height="80.0794" rx="9.125" fill="white" stroke="#EEF0F2" stroke-width="1.21667"/>
<path d="M144.432 61.6425V53.3839H147.222C147.87 53.3839 148.4 53.5008 148.811 53.7347C149.225 53.9659 149.531 54.2791 149.73 54.6743C149.929 55.0695 150.029 55.5103 150.029 55.9969C150.029 56.4835 149.929 56.9258 149.73 57.3236C149.534 57.7215 149.23 58.0387 148.819 58.2753C148.408 58.5092 147.881 58.6261 147.238 58.6261H145.238V57.739H147.206C147.65 57.739 148.006 57.6624 148.275 57.5091C148.544 57.3559 148.738 57.1489 148.859 56.8881C148.983 56.6247 149.045 56.3276 149.045 55.9969C149.045 55.6663 148.983 55.3706 148.859 55.1098C148.738 54.849 148.542 54.6447 148.271 54.4968C147.999 54.3463 147.639 54.271 147.19 54.271H145.432V61.6425H144.432ZM151.511 61.6425V55.4485H152.43V56.3841H152.495C152.608 56.0776 152.812 55.8289 153.108 55.638C153.403 55.4472 153.737 55.3517 154.108 55.3517C154.178 55.3517 154.265 55.3531 154.37 55.3558C154.475 55.3585 154.554 55.3625 154.608 55.3679V56.3357C154.575 56.3276 154.502 56.3155 154.386 56.2994C154.273 56.2806 154.153 56.2711 154.027 56.2711C153.726 56.2711 153.457 56.3343 153.221 56.4607C152.987 56.5843 152.801 56.7564 152.664 56.9768C152.53 57.1946 152.462 57.4433 152.462 57.7229V61.6425H151.511ZM158.064 61.7715C157.504 61.7715 157.014 61.6384 156.592 61.3723C156.172 61.1061 155.844 60.7338 155.608 60.2553C155.374 59.7767 155.257 59.2176 155.257 58.5777C155.257 57.9325 155.374 57.3693 155.608 56.8881C155.844 56.4069 156.172 56.0332 156.592 55.7671C157.014 55.5009 157.504 55.3679 158.064 55.3679C158.623 55.3679 159.112 55.5009 159.531 55.7671C159.954 56.0332 160.281 56.4069 160.515 56.8881C160.752 57.3693 160.87 57.9325 160.87 58.5777C160.87 59.2176 160.752 59.7767 160.515 60.2553C160.281 60.7338 159.954 61.1061 159.531 61.3723C159.112 61.6384 158.623 61.7715 158.064 61.7715ZM158.064 60.9166C158.488 60.9166 158.838 60.8077 159.112 60.59C159.386 60.3722 159.589 60.0859 159.721 59.731C159.853 59.3762 159.919 58.9918 159.919 58.5777C159.919 58.1637 159.853 57.778 159.721 57.4204C159.589 57.0629 159.386 56.7739 159.112 56.5534C158.838 56.333 158.488 56.2228 158.064 56.2228C157.639 56.2228 157.289 56.333 157.015 56.5534C156.741 56.7739 156.538 57.0629 156.406 57.4204C156.275 57.778 156.209 58.1637 156.209 58.5777C156.209 58.9918 156.275 59.3762 156.406 59.731C156.538 60.0859 156.741 60.3722 157.015 60.59C157.289 60.8077 157.639 60.9166 158.064 60.9166ZM165.081 55.4485V56.255H161.742V55.4485H165.081ZM162.742 61.6425V54.5936C162.742 54.2388 162.826 53.943 162.992 53.7065C163.159 53.4699 163.375 53.2925 163.642 53.1742C163.908 53.0559 164.189 52.9967 164.484 52.9967C164.718 52.9967 164.909 53.0156 165.057 53.0532C165.205 53.0908 165.315 53.1258 165.388 53.158L165.113 53.9807C165.065 53.9646 164.998 53.9444 164.912 53.9202C164.828 53.896 164.718 53.8839 164.581 53.8839C164.267 53.8839 164.039 53.9632 163.9 54.1218C163.763 54.2804 163.694 54.513 163.694 54.8194V61.6425H162.742ZM168.757 61.7715C168.16 61.7715 167.645 61.6398 167.212 61.3763C166.782 61.1102 166.45 60.7392 166.216 60.2633C165.985 59.7848 165.87 59.2283 165.87 58.5939C165.87 57.9594 165.985 57.4003 166.216 56.9164C166.45 56.4298 166.776 56.0507 167.192 55.7792C167.612 55.505 168.101 55.3679 168.66 55.3679C168.983 55.3679 169.301 55.4216 169.616 55.5292C169.93 55.6367 170.217 55.8114 170.475 56.0534C170.733 56.2927 170.938 56.6099 171.092 57.0051C171.245 57.4003 171.322 57.8868 171.322 58.4648V58.8681H166.547V58.0455H170.354C170.354 57.696 170.284 57.3841 170.144 57.1099C170.007 56.8357 169.811 56.6193 169.555 56.4607C169.303 56.3021 169.004 56.2228 168.66 56.2228C168.281 56.2228 167.953 56.3169 167.676 56.505C167.402 56.6905 167.191 56.9325 167.043 57.2309C166.895 57.5293 166.821 57.8492 166.821 58.1906V58.739C166.821 59.2068 166.902 59.6033 167.063 59.9286C167.227 60.2512 167.454 60.4972 167.745 60.6666C168.035 60.8333 168.372 60.9166 168.757 60.9166C169.007 60.9166 169.233 60.8817 169.434 60.8118C169.639 60.7392 169.815 60.6316 169.963 60.4892C170.11 60.344 170.225 60.1639 170.305 59.9488L171.225 60.2069C171.128 60.5187 170.965 60.7929 170.737 61.0295C170.508 61.2634 170.226 61.4462 169.89 61.5779C169.554 61.707 169.176 61.7715 168.757 61.7715ZM177.157 56.8357L176.302 57.0777C176.248 56.9352 176.169 56.7967 176.064 56.6623C175.962 56.5252 175.822 56.4123 175.644 56.3236C175.467 56.2349 175.24 56.1905 174.963 56.1905C174.584 56.1905 174.268 56.2779 174.015 56.4526C173.765 56.6247 173.64 56.8438 173.64 57.1099C173.64 57.3465 173.726 57.5333 173.898 57.6704C174.07 57.8075 174.339 57.9218 174.705 58.0132L175.624 58.239C176.178 58.3734 176.591 58.5791 176.862 58.856C177.134 59.1302 177.269 59.4837 177.269 59.9165C177.269 60.2714 177.167 60.5886 176.963 60.8682C176.761 61.1478 176.479 61.3682 176.116 61.5295C175.753 61.6908 175.331 61.7715 174.85 61.7715C174.218 61.7715 173.695 61.6344 173.281 61.3602C172.867 61.086 172.605 60.6854 172.495 60.1585L173.398 59.9327C173.484 60.266 173.647 60.516 173.886 60.6827C174.128 60.8494 174.444 60.9327 174.834 60.9327C175.277 60.9327 175.63 60.8386 175.89 60.6505C176.154 60.4596 176.286 60.2311 176.286 59.9649C176.286 59.7499 176.21 59.5697 176.06 59.4246C175.909 59.2767 175.678 59.1665 175.366 59.0939L174.334 58.852C173.767 58.7175 173.35 58.5092 173.084 58.2269C172.82 57.942 172.689 57.5857 172.689 57.1583C172.689 56.8088 172.787 56.4997 172.983 56.2308C173.182 55.962 173.452 55.751 173.793 55.5977C174.138 55.4445 174.527 55.3679 174.963 55.3679C175.576 55.3679 176.057 55.5023 176.407 55.7711C176.759 56.04 177.009 56.3948 177.157 56.8357ZM183.089 56.8357L182.234 57.0777C182.181 56.9352 182.101 56.7967 181.997 56.6623C181.894 56.5252 181.755 56.4123 181.577 56.3236C181.4 56.2349 181.173 56.1905 180.896 56.1905C180.517 56.1905 180.201 56.2779 179.948 56.4526C179.698 56.6247 179.573 56.8438 179.573 57.1099C179.573 57.3465 179.659 57.5333 179.831 57.6704C180.003 57.8075 180.272 57.9218 180.638 58.0132L181.557 58.239C182.111 58.3734 182.523 58.5791 182.795 58.856C183.067 59.1302 183.202 59.4837 183.202 59.9165C183.202 60.2714 183.1 60.5886 182.896 60.8682C182.694 61.1478 182.412 61.3682 182.049 61.5295C181.686 61.6908 181.264 61.7715 180.783 61.7715C180.151 61.7715 179.628 61.6344 179.214 61.3602C178.8 61.086 178.538 60.6854 178.428 60.1585L179.331 59.9327C179.417 60.266 179.58 60.516 179.819 60.6827C180.061 60.8494 180.377 60.9327 180.767 60.9327C181.21 60.9327 181.562 60.8386 181.823 60.6505C182.087 60.4596 182.218 60.2311 182.218 59.9649C182.218 59.7499 182.143 59.5697 181.993 59.4246C181.842 59.2767 181.611 59.1665 181.299 59.0939L180.267 58.852C179.699 58.7175 179.283 58.5092 179.017 58.2269C178.753 57.942 178.621 57.5857 178.621 57.1583C178.621 56.8088 178.719 56.4997 178.916 56.2308C179.115 55.962 179.385 55.751 179.726 55.5977C180.07 55.4445 180.46 55.3679 180.896 55.3679C181.509 55.3679 181.99 55.5023 182.339 55.7711C182.692 56.04 182.942 56.3948 183.089 56.8357ZM184.635 61.6425V55.4485H185.587V61.6425H184.635ZM185.119 54.4162C184.933 54.4162 184.773 54.353 184.639 54.2267C184.507 54.1003 184.441 53.9484 184.441 53.771C184.441 53.5936 184.507 53.4417 184.639 53.3153C184.773 53.189 184.933 53.1258 185.119 53.1258C185.304 53.1258 185.463 53.189 185.595 53.3153C185.729 53.4417 185.796 53.5936 185.796 53.771C185.796 53.9484 185.729 54.1003 185.595 54.2267C185.463 54.353 185.304 54.4162 185.119 54.4162ZM189.846 61.7715C189.287 61.7715 188.796 61.6384 188.374 61.3723C187.955 61.1061 187.627 60.7338 187.39 60.2553C187.156 59.7767 187.039 59.2176 187.039 58.5777C187.039 57.9325 187.156 57.3693 187.39 56.8881C187.627 56.4069 187.955 56.0332 188.374 55.7671C188.796 55.5009 189.287 55.3679 189.846 55.3679C190.405 55.3679 190.894 55.5009 191.314 55.7671C191.736 56.0332 192.064 56.4069 192.298 56.8881C192.534 57.3693 192.652 57.9325 192.652 58.5777C192.652 59.2176 192.534 59.7767 192.298 60.2553C192.064 60.7338 191.736 61.1061 191.314 61.3723C190.894 61.6384 190.405 61.7715 189.846 61.7715ZM189.846 60.9166C190.271 60.9166 190.62 60.8077 190.894 60.59C191.169 60.3722 191.371 60.0859 191.503 59.731C191.635 59.3762 191.701 58.9918 191.701 58.5777C191.701 58.1637 191.635 57.778 191.503 57.4204C191.371 57.0629 191.169 56.7739 190.894 56.5534C190.62 56.333 190.271 56.2228 189.846 56.2228C189.421 56.2228 189.072 56.333 188.797 56.5534C188.523 56.7739 188.32 57.0629 188.188 57.4204C188.057 57.778 187.991 58.1637 187.991 58.5777C187.991 58.9918 188.057 59.3762 188.188 59.731C188.32 60.0859 188.523 60.3722 188.797 60.59C189.072 60.8077 189.421 60.9166 189.846 60.9166ZM195.057 57.9164V61.6425H194.105V55.4485H195.025V56.4163H195.105C195.25 56.1018 195.471 55.8491 195.767 55.6582C196.062 55.4646 196.444 55.3679 196.912 55.3679C197.331 55.3679 197.698 55.4539 198.013 55.6259C198.327 55.7953 198.572 56.0534 198.747 56.4002C198.921 56.7443 199.009 57.1798 199.009 57.7067V61.6425H198.057V57.7712C198.057 57.2847 197.931 56.9056 197.678 56.6341C197.425 56.3599 197.079 56.2228 196.638 56.2228C196.334 56.2228 196.062 56.2886 195.823 56.4204C195.586 56.5521 195.4 56.7443 195.263 56.997C195.125 57.2497 195.057 57.5562 195.057 57.9164ZM202.57 61.7876C202.178 61.7876 201.822 61.7137 201.502 61.5658C201.182 61.4153 200.928 61.1989 200.74 60.9166C200.552 60.6316 200.457 60.2875 200.457 59.8843C200.457 59.5294 200.527 59.2418 200.667 59.0213C200.807 58.7982 200.994 58.6234 201.228 58.4971C201.462 58.3707 201.72 58.2767 202.002 58.2148C202.287 58.1503 202.573 58.0992 202.861 58.0616C203.237 58.0132 203.542 57.9769 203.776 57.9527C204.013 57.9258 204.185 57.8815 204.292 57.8196C204.403 57.7578 204.458 57.6503 204.458 57.497V57.4648C204.458 57.0669 204.349 56.7577 204.131 56.5373C203.916 56.3169 203.589 56.2066 203.151 56.2066C202.697 56.2066 202.341 56.3061 202.083 56.505C201.824 56.704 201.643 56.9164 201.538 57.1422L200.635 56.8196C200.796 56.4432 201.011 56.1502 201.28 55.9405C201.552 55.7281 201.847 55.5802 202.167 55.4969C202.49 55.4109 202.807 55.3679 203.119 55.3679C203.318 55.3679 203.546 55.3921 203.804 55.4405C204.065 55.4862 204.317 55.5816 204.558 55.7268C204.803 55.8719 205.006 56.091 205.167 56.3841C205.329 56.6771 205.409 57.0696 205.409 57.5616V61.6425H204.458V60.8037H204.409C204.345 60.9381 204.237 61.0819 204.087 61.2352C203.936 61.3884 203.736 61.5188 203.486 61.6263C203.236 61.7339 202.931 61.7876 202.57 61.7876ZM202.716 60.9327C203.092 60.9327 203.409 60.8588 203.667 60.7109C203.928 60.5631 204.124 60.3722 204.256 60.1383C204.39 59.9044 204.458 59.6585 204.458 59.4004V58.5294C204.417 58.5777 204.329 58.6221 204.192 58.6624C204.057 58.7001 203.901 58.7337 203.724 58.7632C203.549 58.7901 203.378 58.8143 203.212 58.8358C203.048 58.8546 202.915 58.8708 202.812 58.8842C202.565 58.9165 202.334 58.9689 202.119 59.0415C201.906 59.1114 201.734 59.2176 201.603 59.3601C201.474 59.4998 201.409 59.6907 201.409 59.9327C201.409 60.2633 201.531 60.5134 201.776 60.6827C202.023 60.8494 202.337 60.9327 202.716 60.9327ZM208.098 53.3839V61.6425H207.146V53.3839H208.098ZM215.712 61.6425H213.164V53.3839H215.825C216.626 53.3839 217.312 53.5492 217.882 53.8799C218.452 54.2078 218.889 54.6797 219.192 55.2953C219.496 55.9082 219.648 56.6421 219.648 57.497C219.648 58.3573 219.495 59.0979 219.188 59.7189C218.882 60.3373 218.436 60.8131 217.85 61.1465C217.264 61.4771 216.551 61.6425 215.712 61.6425ZM214.164 60.7553H215.648C216.331 60.7553 216.897 60.6236 217.346 60.3601C217.795 60.0967 218.129 59.7216 218.35 59.235C218.57 58.7485 218.68 58.1691 218.68 57.497C218.68 56.8303 218.571 56.2564 218.354 55.7751C218.136 55.2912 217.811 54.9203 217.378 54.6622C216.945 54.4014 216.406 54.271 215.761 54.271H214.164V60.7553ZM223.794 61.7715C223.197 61.7715 222.682 61.6398 222.249 61.3763C221.819 61.1102 221.487 60.7392 221.253 60.2633C221.022 59.7848 220.906 59.2283 220.906 58.5939C220.906 57.9594 221.022 57.4003 221.253 56.9164C221.487 56.4298 221.812 56.0507 222.229 55.7792C222.648 55.505 223.138 55.3679 223.697 55.3679C224.019 55.3679 224.338 55.4216 224.652 55.5292C224.967 55.6367 225.253 55.8114 225.511 56.0534C225.769 56.2927 225.975 56.6099 226.128 57.0051C226.282 57.4003 226.358 57.8868 226.358 58.4648V58.8681H221.584V58.0455H225.39C225.39 57.696 225.321 57.3841 225.181 57.1099C225.044 56.8357 224.847 56.6193 224.592 56.4607C224.339 56.3021 224.041 56.2228 223.697 56.2228C223.318 56.2228 222.99 56.3169 222.713 56.505C222.439 56.6905 222.228 56.9325 222.08 57.2309C221.932 57.5293 221.858 57.8492 221.858 58.1906V58.739C221.858 59.2068 221.939 59.6033 222.1 59.9286C222.264 60.2512 222.491 60.4972 222.781 60.6666C223.072 60.8333 223.409 60.9166 223.794 60.9166C224.044 60.9166 224.269 60.8817 224.471 60.8118C224.675 60.7392 224.851 60.6316 224.999 60.4892C225.147 60.344 225.261 60.1639 225.342 59.9488L226.261 60.2069C226.165 60.5187 226.002 60.7929 225.774 61.0295C225.545 61.2634 225.263 61.4462 224.927 61.5779C224.591 61.707 224.213 61.7715 223.794 61.7715ZM230.322 61.7715C229.742 61.7715 229.241 61.6344 228.822 61.3602C228.403 61.086 228.08 60.7083 227.854 60.227C227.628 59.7458 227.516 59.1961 227.516 58.5777C227.516 57.9487 227.631 57.3935 227.862 56.9123C228.096 56.4284 228.422 56.0507 228.838 55.7792C229.258 55.505 229.747 55.3679 230.306 55.3679C230.742 55.3679 231.134 55.4485 231.484 55.6098C231.833 55.7711 232.119 55.9969 232.342 56.2873C232.566 56.5776 232.704 56.9164 232.758 57.3035H231.806C231.734 57.0212 231.572 56.7712 231.322 56.5534C231.075 56.333 230.742 56.2228 230.322 56.2228C229.951 56.2228 229.626 56.3195 229.346 56.5131C229.069 56.704 228.853 56.9742 228.697 57.3236C228.544 57.6704 228.467 58.0777 228.467 58.5455C228.467 59.024 228.543 59.4407 228.693 59.7956C228.846 60.1504 229.061 60.426 229.338 60.6222C229.618 60.8185 229.946 60.9166 230.322 60.9166C230.57 60.9166 230.794 60.8736 230.996 60.7876C231.197 60.7015 231.368 60.5779 231.508 60.4166C231.648 60.2553 231.747 60.0617 231.806 59.8359H232.758C232.704 60.2015 232.571 60.5308 232.359 60.8239C232.149 61.1142 231.871 61.3454 231.524 61.5174C231.18 61.6868 230.779 61.7715 230.322 61.7715ZM234.149 61.6425V55.4485H235.101V61.6425H234.149ZM234.633 54.4162C234.447 54.4162 234.288 54.353 234.153 54.2267C234.021 54.1003 233.956 53.9484 233.956 53.771C233.956 53.5936 234.021 53.4417 234.153 53.3153C234.288 53.189 234.447 53.1258 234.633 53.1258C234.818 53.1258 234.977 53.189 235.109 53.3153C235.243 53.4417 235.31 53.5936 235.31 53.771C235.31 53.9484 235.243 54.1003 235.109 54.2267C234.977 54.353 234.818 54.4162 234.633 54.4162ZM241.231 56.8357L240.376 57.0777C240.323 56.9352 240.243 56.7967 240.138 56.6623C240.036 56.5252 239.896 56.4123 239.719 56.3236C239.542 56.2349 239.314 56.1905 239.037 56.1905C238.658 56.1905 238.343 56.2779 238.09 56.4526C237.84 56.6247 237.715 56.8438 237.715 57.1099C237.715 57.3465 237.801 57.5333 237.973 57.6704C238.145 57.8075 238.414 57.9218 238.779 58.0132L239.699 58.239C240.253 58.3734 240.665 58.5791 240.937 58.856C241.208 59.1302 241.344 59.4837 241.344 59.9165C241.344 60.2714 241.242 60.5886 241.038 60.8682C240.836 61.1478 240.554 61.3682 240.191 61.5295C239.828 61.6908 239.406 61.7715 238.925 61.7715C238.293 61.7715 237.77 61.6344 237.356 61.3602C236.942 61.086 236.68 60.6854 236.57 60.1585L237.473 59.9327C237.559 60.266 237.722 60.516 237.961 60.6827C238.203 60.8494 238.519 60.9327 238.908 60.9327C239.352 60.9327 239.704 60.8386 239.965 60.6505C240.228 60.4596 240.36 60.2311 240.36 59.9649C240.36 59.7499 240.285 59.5697 240.134 59.4246C239.984 59.2767 239.753 59.1665 239.441 59.0939L238.408 58.852C237.841 58.7175 237.424 58.5092 237.158 58.2269C236.895 57.942 236.763 57.5857 236.763 57.1583C236.763 56.8088 236.861 56.4997 237.058 56.2308C237.256 55.962 237.527 55.751 237.868 55.5977C238.212 55.4445 238.602 55.3679 239.037 55.3679C239.65 55.3679 240.132 55.5023 240.481 55.7711C240.833 56.04 241.083 56.3948 241.231 56.8357ZM242.777 61.6425V55.4485H243.728V61.6425H242.777ZM243.261 54.4162C243.075 54.4162 242.915 54.353 242.781 54.2267C242.649 54.1003 242.583 53.9484 242.583 53.771C242.583 53.5936 242.649 53.4417 242.781 53.3153C242.915 53.189 243.075 53.1258 243.261 53.1258C243.446 53.1258 243.605 53.189 243.736 53.3153C243.871 53.4417 243.938 53.5936 243.938 53.771C243.938 53.9484 243.871 54.1003 243.736 54.2267C243.605 54.353 243.446 54.4162 243.261 54.4162ZM247.988 61.7715C247.428 61.7715 246.938 61.6384 246.516 61.3723C246.096 61.1061 245.768 60.7338 245.532 60.2553C245.298 59.7767 245.181 59.2176 245.181 58.5777C245.181 57.9325 245.298 57.3693 245.532 56.8881C245.768 56.4069 246.096 56.0332 246.516 55.7671C246.938 55.5009 247.428 55.3679 247.988 55.3679C248.547 55.3679 249.036 55.5009 249.455 55.7671C249.878 56.0332 250.206 56.4069 250.439 56.8881C250.676 57.3693 250.794 57.9325 250.794 58.5777C250.794 59.2176 250.676 59.7767 250.439 60.2553C250.206 60.7338 249.878 61.1061 249.455 61.3723C249.036 61.6384 248.547 61.7715 247.988 61.7715ZM247.988 60.9166C248.412 60.9166 248.762 60.8077 249.036 60.59C249.31 60.3722 249.513 60.0859 249.645 59.731C249.777 59.3762 249.843 58.9918 249.843 58.5777C249.843 58.1637 249.777 57.778 249.645 57.4204C249.513 57.0629 249.31 56.7739 249.036 56.5534C248.762 56.333 248.412 56.2228 247.988 56.2228C247.563 56.2228 247.213 56.333 246.939 56.5534C246.665 56.7739 246.462 57.0629 246.33 57.4204C246.199 57.778 246.133 58.1637 246.133 58.5777C246.133 58.9918 246.199 59.3762 246.33 59.731C246.462 60.0859 246.665 60.3722 246.939 60.59C247.213 60.8077 247.563 60.9166 247.988 60.9166ZM253.199 57.9164V61.6425H252.247V55.4485H253.166V56.4163H253.247C253.392 56.1018 253.613 55.8491 253.908 55.6582C254.204 55.4646 254.586 55.3679 255.054 55.3679C255.473 55.3679 255.84 55.4539 256.154 55.6259C256.469 55.7953 256.714 56.0534 256.888 56.4002C257.063 56.7443 257.151 57.1798 257.151 57.7067V61.6425H256.199V57.7712C256.199 57.2847 256.072 56.9056 255.82 56.6341C255.567 56.3599 255.22 56.2228 254.779 56.2228C254.476 56.2228 254.204 56.2886 253.965 56.4204C253.728 56.5521 253.541 56.7443 253.404 56.997C253.267 57.2497 253.199 57.5562 253.199 57.9164ZM262.212 53.3839H263.406L266.213 60.2391H266.309L269.116 53.3839H270.31V61.6425H269.374V55.3679H269.293L266.713 61.6425H265.809L263.229 55.3679H263.148V61.6425H262.212V53.3839ZM274.008 61.7876C273.616 61.7876 273.26 61.7137 272.94 61.5658C272.62 61.4153 272.366 61.1989 272.178 60.9166C271.989 60.6316 271.895 60.2875 271.895 59.8843C271.895 59.5294 271.965 59.2418 272.105 59.0213C272.245 58.7982 272.432 58.6234 272.666 58.4971C272.899 58.3707 273.158 58.2767 273.44 58.2148C273.725 58.1503 274.011 58.0992 274.299 58.0616C274.675 58.0132 274.98 57.9769 275.214 57.9527C275.451 57.9258 275.623 57.8815 275.73 57.8196C275.841 57.7578 275.896 57.6503 275.896 57.497V57.4648C275.896 57.0669 275.787 56.7577 275.569 56.5373C275.354 56.3169 275.027 56.2066 274.589 56.2066C274.135 56.2066 273.779 56.3061 273.52 56.505C273.262 56.704 273.081 56.9164 272.976 57.1422L272.073 56.8196C272.234 56.4432 272.449 56.1502 272.718 55.9405C272.99 55.7281 273.285 55.5802 273.605 55.4969C273.928 55.4109 274.245 55.3679 274.557 55.3679C274.756 55.3679 274.984 55.3921 275.242 55.4405C275.503 55.4862 275.755 55.5816 275.996 55.7268C276.241 55.8719 276.444 56.091 276.605 56.3841C276.767 56.6771 276.847 57.0696 276.847 57.5616V61.6425H275.896V60.8037H275.847C275.783 60.9381 275.675 61.0819 275.525 61.2352C275.374 61.3884 275.174 61.5188 274.924 61.6263C274.674 61.7339 274.369 61.7876 274.008 61.7876ZM274.154 60.9327C274.53 60.9327 274.847 60.8588 275.105 60.7109C275.366 60.5631 275.562 60.3722 275.694 60.1383C275.828 59.9044 275.896 59.6585 275.896 59.4004V58.5294C275.855 58.5777 275.767 58.6221 275.63 58.6624C275.495 58.7001 275.339 58.7337 275.162 58.7632C274.987 58.7901 274.816 58.8143 274.65 58.8358C274.486 58.8546 274.353 58.8708 274.25 58.8842C274.003 58.9165 273.772 58.9689 273.557 59.0415C273.344 59.1114 273.172 59.2176 273.041 59.3601C272.912 59.4998 272.847 59.6907 272.847 59.9327C272.847 60.2633 272.969 60.5134 273.214 60.6827C273.461 60.8494 273.775 60.9327 274.154 60.9327ZM279.471 59.3842L279.455 58.2068H279.649L282.359 55.4485H283.536L280.649 58.3681H280.568L279.471 59.3842ZM278.584 61.6425V53.3839H279.536V61.6425H278.584ZM282.52 61.6425L280.101 58.5777L280.778 57.9164L283.73 61.6425H282.52ZM287.103 61.7715C286.506 61.7715 285.991 61.6398 285.559 61.3763C285.128 61.1102 284.796 60.7392 284.563 60.2633C284.331 59.7848 284.216 59.2283 284.216 58.5939C284.216 57.9594 284.331 57.4003 284.563 56.9164C284.796 56.4298 285.122 56.0507 285.538 55.7792C285.958 55.505 286.447 55.3679 287.006 55.3679C287.329 55.3679 287.647 55.4216 287.962 55.5292C288.276 55.6367 288.563 55.8114 288.821 56.0534C289.079 56.2927 289.285 56.6099 289.438 57.0051C289.591 57.4003 289.668 57.8868 289.668 58.4648V58.8681H284.893V58.0455H288.7C288.7 57.696 288.63 57.3841 288.49 57.1099C288.353 56.8357 288.157 56.6193 287.901 56.4607C287.649 56.3021 287.35 56.2228 287.006 56.2228C286.627 56.2228 286.299 56.3169 286.022 56.505C285.748 56.6905 285.537 56.9325 285.389 57.2309C285.241 57.5293 285.167 57.8492 285.167 58.1906V58.739C285.167 59.2068 285.248 59.6033 285.409 59.9286C285.573 60.2512 285.8 60.4972 286.091 60.6666C286.381 60.8333 286.719 60.9166 287.103 60.9166C287.353 60.9166 287.579 60.8817 287.78 60.8118C287.985 60.7392 288.161 60.6316 288.309 60.4892C288.457 60.344 288.571 60.1639 288.651 59.9488L289.571 60.2069C289.474 60.5187 289.311 60.7929 289.083 61.0295C288.854 61.2634 288.572 61.4462 288.236 61.5779C287.9 61.707 287.522 61.7715 287.103 61.7715ZM291.115 61.6425V55.4485H292.035V56.3841H292.099C292.212 56.0776 292.417 55.8289 292.712 55.638C293.008 55.4472 293.341 55.3517 293.712 55.3517C293.782 55.3517 293.87 55.3531 293.974 55.3558C294.079 55.3585 294.159 55.3625 294.212 55.3679V56.3357C294.18 56.3276 294.106 56.3155 293.991 56.2994C293.878 56.2806 293.758 56.2711 293.632 56.2711C293.331 56.2711 293.062 56.3343 292.825 56.4607C292.591 56.5843 292.406 56.7564 292.269 56.9768C292.134 57.1946 292.067 57.4433 292.067 57.7229V61.6425H291.115Z" fill="#8A8E97"/>
<rect x="51.3437" y="45.6063" width="74.8211" height="52.5187" rx="4.86667" fill="#F3F5FA"/>
<path d="M101.95 63.4384H75.9947C74.2029 63.4384 72.7503 64.891 72.7503 66.6829V82.9051C72.7503 84.6969 74.2029 86.1495 75.9947 86.1495H101.95C103.742 86.1495 105.195 84.6969 105.195 82.9051V66.6829C105.195 64.891 103.742 63.4384 101.95 63.4384Z" stroke="#009379" stroke-width="1.62222" stroke-linecap="round" stroke-linejoin="round"/>
<path d="M95.4614 86.1495V60.194C95.4614 59.3335 95.1196 58.5083 94.5111 57.8998C93.9027 57.2913 93.0774 56.9495 92.2169 56.9495H85.7281C84.8676 56.9495 84.0423 57.2913 83.4339 57.8998C82.8254 58.5083 82.4836 59.3335 82.4836 60.194V86.1495" stroke="#009379" stroke-width="1.62222" stroke-linecap="round" stroke-linejoin="round"/>
<rect x="143.432" y="86.6132" width="96.4041" height="5.75547" rx="2.87774" fill="#F3F5FA"/>
<rect x="143.432" y="75.1024" width="149.642" height="5.75547" rx="2.87774" fill="#F3F5FA"/>
<rect x="312.53" y="237.848" width="272.168" height="80.0794" rx="9.125" fill="white" stroke="#EEF0F2" stroke-width="1.21667"/>
<path d="M419.306 267.665V259.406H422.249C422.889 259.406 423.42 259.517 423.842 259.737C424.267 259.958 424.584 260.263 424.794 260.652C425.004 261.04 425.109 261.487 425.109 261.995C425.109 262.501 425.002 262.946 424.79 263.33C424.58 263.712 424.263 264.009 423.838 264.221C423.416 264.434 422.885 264.54 422.245 264.54H420.015V263.467H422.133C422.536 263.467 422.864 263.409 423.116 263.294C423.372 263.178 423.559 263.01 423.677 262.79C423.795 262.569 423.854 262.304 423.854 261.995C423.854 261.683 423.794 261.413 423.673 261.185C423.555 260.956 423.368 260.782 423.112 260.661C422.86 260.537 422.528 260.475 422.116 260.475H420.552V267.665H419.306ZM423.383 263.939L425.423 267.665H424.004L422.004 263.939H423.383ZM429.12 267.79C428.51 267.79 427.984 267.66 427.543 267.399C427.105 267.135 426.766 266.766 426.527 266.29C426.29 265.811 426.172 265.251 426.172 264.608C426.172 263.974 426.29 263.415 426.527 262.931C426.766 262.447 427.1 262.069 427.527 261.798C427.957 261.526 428.46 261.39 429.035 261.39C429.385 261.39 429.723 261.448 430.051 261.564C430.379 261.679 430.674 261.861 430.935 262.108C431.195 262.356 431.401 262.677 431.551 263.072C431.702 263.465 431.777 263.942 431.777 264.504V264.931H426.854V264.028H430.596C430.596 263.71 430.531 263.43 430.402 263.185C430.273 262.938 430.092 262.743 429.858 262.6C429.627 262.458 429.355 262.386 429.043 262.386C428.705 262.386 428.409 262.47 428.156 262.636C427.906 262.8 427.713 263.016 427.575 263.282C427.441 263.545 427.374 263.831 427.374 264.141V264.846C427.374 265.26 427.446 265.612 427.592 265.903C427.739 266.193 427.945 266.415 428.209 266.568C428.472 266.719 428.78 266.794 429.132 266.794C429.36 266.794 429.569 266.762 429.757 266.697C429.945 266.63 430.108 266.531 430.245 266.399C430.382 266.267 430.487 266.104 430.559 265.911L431.701 266.117C431.609 266.453 431.445 266.747 431.209 267C430.975 267.25 430.68 267.445 430.326 267.584C429.973 267.721 429.572 267.79 429.12 267.79ZM434.918 267.802C434.525 267.802 434.17 267.73 433.853 267.584C433.536 267.437 433.284 267.223 433.099 266.943C432.916 266.664 432.825 266.321 432.825 265.915C432.825 265.565 432.892 265.278 433.026 265.052C433.161 264.826 433.342 264.647 433.571 264.516C433.799 264.384 434.055 264.284 434.337 264.217C434.619 264.15 434.907 264.099 435.2 264.064C435.571 264.021 435.872 263.986 436.103 263.959C436.334 263.93 436.502 263.883 436.607 263.818C436.712 263.754 436.765 263.649 436.765 263.503V263.475C436.765 263.123 436.665 262.85 436.466 262.657C436.27 262.463 435.977 262.366 435.587 262.366C435.181 262.366 434.861 262.456 434.627 262.636C434.396 262.814 434.236 263.012 434.147 263.229L433.014 262.971C433.149 262.595 433.345 262.291 433.603 262.06C433.864 261.826 434.164 261.657 434.502 261.552C434.841 261.444 435.197 261.39 435.571 261.39C435.818 261.39 436.08 261.42 436.357 261.479C436.637 261.536 436.898 261.64 437.14 261.794C437.384 261.947 437.584 262.166 437.74 262.451C437.896 262.733 437.974 263.1 437.974 263.552V267.665H436.797V266.818H436.748C436.67 266.974 436.553 267.127 436.398 267.278C436.242 267.428 436.041 267.553 435.797 267.653C435.552 267.752 435.259 267.802 434.918 267.802ZM435.18 266.834C435.513 266.834 435.798 266.768 436.035 266.637C436.274 266.505 436.455 266.333 436.579 266.121C436.705 265.906 436.769 265.676 436.769 265.431V264.633C436.726 264.676 436.642 264.716 436.519 264.754C436.398 264.789 436.259 264.819 436.103 264.846C435.947 264.871 435.795 264.893 435.648 264.915C435.5 264.934 435.376 264.95 435.277 264.963C435.043 264.993 434.829 265.043 434.635 265.112C434.444 265.182 434.291 265.283 434.176 265.415C434.063 265.544 434.006 265.716 434.006 265.931C434.006 266.229 434.117 266.455 434.337 266.609C434.557 266.759 434.838 266.834 435.18 266.834ZM440.786 259.406V267.665H439.58V259.406H440.786ZM445.103 260.479V259.406H451.494V260.479H448.918V267.665H447.675V260.479H445.103ZM452.81 267.665V261.471H454.016V267.665H452.81ZM453.419 260.515C453.209 260.515 453.029 260.445 452.878 260.306C452.731 260.163 452.657 259.994 452.657 259.798C452.657 259.599 452.731 259.429 452.878 259.29C453.029 259.147 453.209 259.076 453.419 259.076C453.628 259.076 453.807 259.147 453.955 259.29C454.106 259.429 454.181 259.599 454.181 259.798C454.181 259.994 454.106 260.163 453.955 260.306C453.807 260.445 453.628 260.515 453.419 260.515ZM455.638 267.665V261.471H456.795V262.479H456.872C457.001 262.138 457.212 261.872 457.505 261.681C457.798 261.487 458.149 261.39 458.557 261.39C458.971 261.39 459.318 261.487 459.598 261.681C459.88 261.874 460.088 262.14 460.223 262.479H460.287C460.435 262.149 460.67 261.885 460.993 261.689C461.315 261.49 461.7 261.39 462.146 261.39C462.708 261.39 463.166 261.567 463.521 261.919C463.879 262.271 464.058 262.802 464.058 263.512V267.665H462.852V263.624C462.852 263.205 462.738 262.901 462.509 262.713C462.281 262.525 462.008 262.431 461.69 262.431C461.298 262.431 460.993 262.552 460.775 262.794C460.557 263.033 460.448 263.341 460.448 263.717V267.665H459.247V263.548C459.247 263.212 459.142 262.942 458.932 262.737C458.723 262.533 458.45 262.431 458.114 262.431C457.885 262.431 457.674 262.491 457.481 262.612C457.29 262.731 457.135 262.896 457.017 263.108C456.901 263.321 456.843 263.567 456.843 263.846V267.665H455.638ZM468.343 267.79C467.733 267.79 467.207 267.66 466.766 267.399C466.328 267.135 465.989 266.766 465.75 266.29C465.514 265.811 465.395 265.251 465.395 264.608C465.395 263.974 465.514 263.415 465.75 262.931C465.989 262.447 466.323 262.069 466.75 261.798C467.18 261.526 467.683 261.39 468.258 261.39C468.608 261.39 468.947 261.448 469.275 261.564C469.603 261.679 469.897 261.861 470.158 262.108C470.419 262.356 470.624 262.677 470.775 263.072C470.925 263.465 471.001 263.942 471.001 264.504V264.931H466.077V264.028H469.819C469.819 263.71 469.755 263.43 469.625 263.185C469.496 262.938 469.315 262.743 469.081 262.6C468.85 262.458 468.578 262.386 468.267 262.386C467.928 262.386 467.632 262.47 467.379 262.636C467.129 262.8 466.936 263.016 466.799 263.282C466.664 263.545 466.597 263.831 466.597 264.141V264.846C466.597 265.26 466.67 265.612 466.815 265.903C466.963 266.193 467.168 266.415 467.432 266.568C467.695 266.719 468.003 266.794 468.355 266.794C468.584 266.794 468.792 266.762 468.98 266.697C469.168 266.63 469.331 266.531 469.468 266.399C469.605 266.267 469.71 266.104 469.783 265.911L470.924 266.117C470.833 266.453 470.669 266.747 470.432 267C470.198 267.25 469.904 267.445 469.549 267.584C469.197 267.721 468.795 267.79 468.343 267.79ZM479.945 261.576C479.902 261.194 479.724 260.898 479.412 260.689C479.101 260.476 478.708 260.37 478.235 260.37C477.896 260.37 477.603 260.424 477.356 260.532C477.108 260.636 476.916 260.782 476.779 260.967C476.645 261.15 476.578 261.358 476.578 261.592C476.578 261.788 476.623 261.958 476.715 262.1C476.809 262.243 476.931 262.362 477.082 262.459C477.235 262.553 477.399 262.632 477.574 262.697C477.748 262.759 477.916 262.81 478.078 262.85L478.884 263.06C479.148 263.124 479.418 263.212 479.695 263.322C479.972 263.432 480.228 263.577 480.465 263.758C480.701 263.938 480.892 264.161 481.037 264.427C481.185 264.693 481.259 265.012 481.259 265.383C481.259 265.85 481.138 266.266 480.896 266.629C480.657 266.992 480.309 267.278 479.852 267.488C479.398 267.697 478.848 267.802 478.203 267.802C477.584 267.802 477.049 267.704 476.598 267.508C476.146 267.312 475.793 267.033 475.537 266.673C475.282 266.31 475.141 265.88 475.114 265.383H476.364C476.388 265.681 476.485 265.93 476.654 266.129C476.826 266.325 477.045 266.471 477.311 266.568C477.58 266.662 477.875 266.709 478.195 266.709C478.547 266.709 478.86 266.654 479.134 266.544C479.411 266.431 479.629 266.275 479.787 266.076C479.946 265.875 480.025 265.639 480.025 265.371C480.025 265.126 479.955 264.926 479.816 264.77C479.679 264.614 479.492 264.485 479.255 264.383C479.021 264.28 478.756 264.19 478.461 264.112L477.485 263.846C476.823 263.666 476.299 263.401 475.912 263.052C475.528 262.702 475.335 262.24 475.335 261.665C475.335 261.189 475.465 260.773 475.723 260.419C475.981 260.064 476.33 259.788 476.771 259.592C477.212 259.393 477.709 259.294 478.263 259.294C478.822 259.294 479.316 259.392 479.743 259.588C480.173 259.784 480.512 260.054 480.759 260.398C481.007 260.74 481.136 261.132 481.146 261.576H479.945ZM485.321 267.79C484.711 267.79 484.185 267.66 483.744 267.399C483.306 267.135 482.967 266.766 482.728 266.29C482.492 265.811 482.373 265.251 482.373 264.608C482.373 263.974 482.492 263.415 482.728 262.931C482.967 262.447 483.301 262.069 483.728 261.798C484.158 261.526 484.661 261.39 485.236 261.39C485.586 261.39 485.925 261.448 486.253 261.564C486.58 261.679 486.875 261.861 487.136 262.108C487.396 262.356 487.602 262.677 487.753 263.072C487.903 263.465 487.978 263.942 487.978 264.504V264.931H483.055V264.028H486.797C486.797 263.71 486.732 263.43 486.603 263.185C486.474 262.938 486.293 262.743 486.059 262.6C485.828 262.458 485.556 262.386 485.244 262.386C484.906 262.386 484.61 262.47 484.357 262.636C484.107 262.8 483.914 263.016 483.777 263.282C483.642 263.545 483.575 263.831 483.575 264.141V264.846C483.575 265.26 483.648 265.612 483.793 265.903C483.941 266.193 484.146 266.415 484.41 266.568C484.673 266.719 484.981 266.794 485.333 266.794C485.562 266.794 485.77 266.762 485.958 266.697C486.146 266.63 486.309 266.531 486.446 266.399C486.583 266.267 486.688 266.104 486.761 265.911L487.902 266.117C487.81 266.453 487.646 266.747 487.41 267C487.176 267.25 486.882 267.445 486.527 267.584C486.175 267.721 485.773 267.79 485.321 267.79ZM491.119 267.802C490.726 267.802 490.371 267.73 490.054 267.584C489.737 267.437 489.486 267.223 489.3 266.943C489.117 266.664 489.026 266.321 489.026 265.915C489.026 265.565 489.093 265.278 489.228 265.052C489.362 264.826 489.543 264.647 489.772 264.516C490 264.384 490.256 264.284 490.538 264.217C490.82 264.15 491.108 264.099 491.401 264.064C491.772 264.021 492.073 263.986 492.304 263.959C492.536 263.93 492.704 263.883 492.808 263.818C492.913 263.754 492.966 263.649 492.966 263.503V263.475C492.966 263.123 492.866 262.85 492.667 262.657C492.471 262.463 492.178 262.366 491.788 262.366C491.382 262.366 491.062 262.456 490.828 262.636C490.597 262.814 490.437 263.012 490.349 263.229L489.215 262.971C489.35 262.595 489.546 262.291 489.804 262.06C490.065 261.826 490.365 261.657 490.703 261.552C491.042 261.444 491.398 261.39 491.772 261.39C492.019 261.39 492.281 261.42 492.558 261.479C492.838 261.536 493.099 261.64 493.341 261.794C493.585 261.947 493.786 262.166 493.942 262.451C494.097 262.733 494.175 263.1 494.175 263.552V267.665H492.998V266.818H492.95C492.872 266.974 492.755 267.127 492.599 267.278C492.443 267.428 492.242 267.553 491.998 267.653C491.753 267.752 491.46 267.802 491.119 267.802ZM491.381 266.834C491.714 266.834 491.999 266.768 492.236 266.637C492.475 266.505 492.656 266.333 492.78 266.121C492.906 265.906 492.97 265.676 492.97 265.431V264.633C492.927 264.676 492.843 264.716 492.72 264.754C492.599 264.789 492.46 264.819 492.304 264.846C492.148 264.871 491.996 264.893 491.849 264.915C491.701 264.934 491.577 264.95 491.478 264.963C491.244 264.993 491.03 265.043 490.836 265.112C490.646 265.182 490.492 265.283 490.377 265.415C490.264 265.544 490.207 265.716 490.207 265.931C490.207 266.229 490.318 266.455 490.538 266.609C490.759 266.759 491.039 266.834 491.381 266.834ZM495.781 267.665V261.471H496.947V262.455H497.011C497.124 262.122 497.323 261.86 497.608 261.669C497.896 261.475 498.221 261.378 498.584 261.378C498.659 261.378 498.748 261.381 498.85 261.386C498.955 261.392 499.037 261.399 499.096 261.407V262.56C499.048 262.546 498.962 262.532 498.838 262.516C498.714 262.497 498.591 262.487 498.467 262.487C498.182 262.487 497.928 262.548 497.705 262.669C497.484 262.787 497.31 262.952 497.181 263.165C497.052 263.374 496.987 263.614 496.987 263.883V267.665H495.781ZM502.527 267.79C501.927 267.79 501.411 267.654 500.978 267.383C500.548 267.109 500.217 266.731 499.986 266.25C499.755 265.768 499.639 265.217 499.639 264.596C499.639 263.967 499.758 263.412 499.994 262.931C500.231 262.447 500.564 262.069 500.994 261.798C501.425 261.526 501.931 261.39 502.515 261.39C502.985 261.39 503.404 261.478 503.773 261.653C504.141 261.825 504.438 262.067 504.664 262.378C504.892 262.69 505.028 263.055 505.071 263.471H503.898C503.833 263.181 503.685 262.931 503.454 262.721C503.226 262.511 502.919 262.407 502.535 262.407C502.199 262.407 501.904 262.495 501.652 262.673C501.402 262.848 501.207 263.098 501.067 263.423C500.927 263.745 500.857 264.127 500.857 264.568C500.857 265.02 500.926 265.41 501.063 265.737C501.2 266.065 501.394 266.32 501.644 266.5C501.896 266.68 502.193 266.77 502.535 266.77C502.763 266.77 502.97 266.728 503.156 266.645C503.344 266.559 503.501 266.436 503.628 266.278C503.757 266.119 503.847 265.928 503.898 265.705H505.071C505.028 266.106 504.898 266.463 504.68 266.778C504.462 267.092 504.171 267.34 503.805 267.52C503.442 267.7 503.016 267.79 502.527 267.79ZM507.566 263.987V267.665H506.361V259.406H507.55V262.479H507.627C507.772 262.146 507.994 261.881 508.292 261.685C508.591 261.489 508.98 261.39 509.462 261.39C509.886 261.39 510.257 261.478 510.575 261.653C510.895 261.827 511.142 262.088 511.317 262.435C511.494 262.779 511.583 263.209 511.583 263.725V267.665H510.377V263.87C510.377 263.416 510.26 263.064 510.026 262.814C509.792 262.561 509.467 262.435 509.05 262.435C508.765 262.435 508.51 262.495 508.284 262.616C508.061 262.737 507.885 262.915 507.756 263.149C507.63 263.38 507.566 263.659 507.566 263.987Z" fill="#8A8E97"/>
<rect x="326.31" y="251.628" width="74.8211" height="52.5187" rx="4.86667" fill="#F3F5FA"/>
<path d="M362.212 289.149C369.379 289.149 375.189 283.339 375.189 276.172C375.189 269.004 369.379 263.194 362.212 263.194C355.044 263.194 349.234 269.004 349.234 276.172C349.234 283.339 355.044 289.149 362.212 289.149Z" stroke="#009379" stroke-width="1.62222" stroke-linecap="round" stroke-linejoin="round"/>
<path d="M378.434 292.394L371.377 285.337" stroke="#009379" stroke-width="1.62222" stroke-linecap="round" stroke-linejoin="round"/>
<rect x="418.398" y="292.636" width="96.4041" height="5.75547" rx="2.87774" fill="#F3F5FA"/>
<rect x="418.398" y="281.125" width="149.642" height="5.75547" rx="2.87774" fill="#F3F5FA"/>
<path d="M224.265 413.194H218.853L217.958 415.783H215.096L219.982 402.176H223.155L228.041 415.783H225.16L224.265 413.194ZM223.525 411.014L221.559 405.33L219.593 411.014H223.525ZM234.423 407.237H232.535V415.783H229.77V407.237H228.544V404.999H229.77V404.454C229.77 403.13 230.147 402.157 230.899 401.534C231.652 400.911 232.788 400.619 234.306 400.658V402.955C233.644 402.942 233.184 403.052 232.924 403.286C232.664 403.519 232.535 403.941 232.535 404.551V404.999H234.423V407.237ZM238.973 407.237V412.455C238.973 412.818 239.057 413.084 239.226 413.253C239.408 413.408 239.706 413.486 240.121 413.486H241.387V415.783H239.674C237.376 415.783 236.228 414.667 236.228 412.435V407.237H234.943V404.999H236.228V402.332H238.973V404.999H241.387V407.237H238.973ZM252.983 410.157C252.983 410.547 252.957 410.897 252.905 411.209H245.021C245.086 411.987 245.358 412.597 245.839 413.039C246.319 413.48 246.909 413.7 247.61 413.7C248.622 413.7 249.343 413.266 249.771 412.396H252.71C252.399 413.434 251.802 414.291 250.919 414.966C250.037 415.628 248.953 415.959 247.668 415.959C246.63 415.959 245.696 415.731 244.865 415.277C244.048 414.81 243.405 414.155 242.938 413.311C242.484 412.468 242.257 411.494 242.257 410.391C242.257 409.275 242.484 408.295 242.938 407.452C243.392 406.608 244.028 405.959 244.846 405.505C245.663 405.051 246.604 404.824 247.668 404.824C248.694 404.824 249.609 405.044 250.413 405.485C251.231 405.927 251.86 406.556 252.301 407.374C252.756 408.178 252.983 409.106 252.983 410.157ZM250.16 409.379C250.147 408.678 249.894 408.12 249.401 407.705C248.908 407.276 248.304 407.062 247.591 407.062C246.916 407.062 246.345 407.27 245.877 407.685C245.423 408.088 245.144 408.652 245.04 409.379H250.16ZM257.308 406.673C257.658 406.102 258.113 405.654 258.671 405.33C259.242 405.005 259.891 404.843 260.617 404.843V407.705H259.897C259.041 407.705 258.392 407.906 257.95 408.308C257.522 408.71 257.308 409.411 257.308 410.411V415.783H254.583V404.999H257.308V406.673Z" fill="#2196F3"/>
<defs>
<filter id="filter0_d_174_1646" x="282.723" y="35.2725" width="158.978" height="158.978" filterUnits="userSpaceOnUse" color-interpolation-filters="sRGB">
<feFlood flood-opacity="0" result="BackgroundImageFix"/>
<feColorMatrix in="SourceAlpha" type="matrix" values="0 0 0 0 0 0 0 0 0 0 0 0 0 0 0 0 0 0 127 0" result="hardAlpha"/>
<feMorphology radius="11.3556" operator="erode" in="SourceAlpha" result="effect1_dropShadow_174_1646"/>
<feOffset dy="28.3889"/>
<feGaussianBlur stdDeviation="32.4444"/>
<feColorMatrix type="matrix" values="0 0 0 0 0 0 0 0 0 0 0 0 0 0 0 0 0 0 0.08 0"/>
<feBlend mode="normal" in2="BackgroundImageFix" result="effect1_dropShadow_174_1646"/>
<feBlend mode="normal" in="SourceGraphic" in2="effect1_dropShadow_174_1646" result="shape"/>
</filter>
<filter id="filter1_d_174_1646" x="0.455524" y="114.762" width="300.111" height="303.356" filterUnits="userSpaceOnUse" color-interpolation-filters="sRGB">
<feFlood flood-opacity="0" result="BackgroundImageFix"/>
<feColorMatrix in="SourceAlpha" type="matrix" values="0 0 0 0 0 0 0 0 0 0 0 0 0 0 0 0 0 0 127 0" result="hardAlpha"/>
<feMorphology radius="9.73333" operator="erode" in="SourceAlpha" result="effect1_dropShadow_174_1646"/>
<feOffset dy="22.7111"/>
<feGaussianBlur stdDeviation="24.3333"/>
<feColorMatrix type="matrix" values="0 0 0 0 0 0 0 0 0 0 0 0 0 0 0 0 0 0 0.05 0"/>
<feBlend mode="normal" in2="BackgroundImageFix" result="effect1_dropShadow_174_1646"/>
<feBlend mode="normal" in="SourceGraphic" in2="effect1_dropShadow_174_1646" result="shape"/>
</filter>
<linearGradient id="paint0_linear_174_1646" x1="362.307" y1="75.0859" x2="362.307" y2="101.489" gradientUnits="userSpaceOnUse">
<stop stop-color="#FF6680"/>
<stop offset="1" stop-color="#E61739"/>
</linearGradient>
<clipPath id="clip0_174_1646">
<rect width="12.9778" height="12.9778" fill="white" transform="translate(56.4222 148.802)"/>
</clipPath>
</defs>
</svg>
