<svg xmlns="http://www.w3.org/2000/svg" width="110" height="110" fill="none"><g filter="url(#a)"><rect width="70" height="70" x="20" y="10" fill="url(#b)" rx="20"/></g><path fill="#fff" fill-rule="evenodd" d="M52.08 35.083h6.284v1.797h-6.283v-1.797Zm-.45 2.691h8.53v14.22a11.44 11.44 0 0 1-9.875 0v-14.22h1.346Zm3.14 13.01v-4.486a.448.448 0 0 0-.45-.45h-2.24a.45.45 0 0 0-.45.45v4.487a.452.452 0 0 0 .45.45h2.242a.45.45 0 0 0 .45-.45h-.001Zm0-6.282v-4.487a.448.448 0 0 0-.45-.451h-2.24a.447.447 0 0 0-.416.278.45.45 0 0 0-.034.172v4.488a.451.451 0 0 0 .45.45h2.242a.45.45 0 0 0 .45-.45h-.001Zm4.045 6.283v-4.487a.45.45 0 0 0-.45-.45h-2.241a.452.452 0 0 0-.451.45v4.487a.45.45 0 0 0 .45.45h2.241a.45.45 0 0 0 .45-.45Zm0-10.77a.452.452 0 0 0-.45-.451h-2.241a.448.448 0 0 0-.451.45v4.488a.45.45 0 0 0 .45.45h2.241a.45.45 0 0 0 .45-.45v-4.487ZM52.53 50.34h1.346v-3.592H52.53v3.592Zm0-6.283h1.346v-3.593H52.53v3.593Zm8.524 7.457a11.524 11.524 0 0 0 2.691-2.21v-4.488l-2.69-1.008v7.706Zm-4.487-7.457h1.346v-3.593h-1.346v3.593ZM55.222 25a16.668 16.668 0 0 1 16.651 16.65c0 8.436-14.41 21.388-16.65 23.35-2.242-1.962-16.651-14.908-16.651-23.35A16.669 16.669 0 0 1 55.222 25Zm12.36 16.65a12.36 12.36 0 1 0-12.36 12.36 12.371 12.371 0 0 0 12.36-12.36ZM43.106 60.21a2.691 2.691 0 1 0-5.382 0 2.691 2.691 0 0 0 5.382 0Zm29.17-1.796a1.797 1.797 0 1 0-3.593 0 1.797 1.797 0 0 0 3.593 0ZM46.7 49.304c.78.868 1.687 1.614 2.69 2.21v-7.706l-2.69 1.007v4.488Zm9.87 1.036h1.345v-3.592h-1.346v3.592Z" clip-rule="evenodd"/><defs><linearGradient id="b" x1="20" x2="90" y1="10" y2="80" gradientUnits="userSpaceOnUse"><stop stop-color="#5CA1FE"/><stop offset="1" stop-color="#217BF4"/></linearGradient><filter id="a" width="110" height="110" x="0" y="0" color-interpolation-filters="sRGB" filterUnits="userSpaceOnUse"><feFlood flood-opacity="0" result="BackgroundImageFix"/><feColorMatrix in="SourceAlpha" result="hardAlpha" values="0 0 0 0 0 0 0 0 0 0 0 0 0 0 0 0 0 0 127 0"/><feMorphology in="SourceAlpha" radius="2" result="effect1_dropShadow_245_2440"/><feOffset dy="10"/><feGaussianBlur stdDeviation="11"/><feComposite in2="hardAlpha" operator="out"/><feColorMatrix values="0 0 0 0 0.427451 0 0 0 0 0.670588 0 0 0 0 1 0 0 0 0.36 0"/><feBlend in2="BackgroundImageFix" result="effect1_dropShadow_245_2440"/><feBlend in="SourceGraphic" in2="effect1_dropShadow_245_2440" result="shape"/></filter></defs></svg>