<svg xmlns="http://www.w3.org/2000/svg" width="110" height="110" fill="none"><g filter="url(#a)"><rect width="70" height="70" x="20" y="10" fill="url(#b)" rx="20"/></g><path fill="#fff" d="M60.945 41.441c.233.483.39.968.615 1.43a1.905 1.905 0 0 0 3.416-.229 31.652 31.652 0 0 1 3.248-6.21 5.874 5.874 0 1 0-10.828-3.857 5.8 5.8 0 0 0 .85 3.923 37.99 37.99 0 0 1 2.699 4.943Zm2.27-11.6a3.525 3.525 0 1 1-2.578 5.927 3.54 3.54 0 0 1 2.577-5.927Zm-.001 1.207a2.32 2.32 0 0 1 0 4.641 2.32 2.32 0 0 1 0-4.641Zm8.003 17.033a16.16 16.16 0 0 1-4.007 8.962c-1.21-3.019-2.98-6.987-6.772-6.959a5.112 5.112 0 0 0-4.986 4.171l-.314 1.744a2.171 2.171 0 0 1-1.907 1.78l-.779.085c-1.026.103-2.878.296-3.748 2.065a4.509 4.509 0 0 0-.362 1.158c-.925-.407-1.81-.9-2.643-1.472v-1.497c-.044-.903.008-1.922.718-2.577a2.576 2.576 0 0 1 2.167-.719 3.068 3.068 0 0 0 2.704-1.623 4.054 4.054 0 0 0-1.244-5.227l-4.158-2.921a.36.36 0 0 1 .15-.652 2.815 2.815 0 0 0 2.337-3.477 1.605 1.605 0 0 1 1.472-1.997l1.593-.079a3.231 3.231 0 0 0 .514-6.38c-1.008-.266-3.048-.806-4.05-1.074a16.29 16.29 0 0 1 8.92-1.509l.218.036a7.05 7.05 0 0 0 .187 7.225 34.55 34.55 0 0 1 3.06 5.843 6.021 6.021 0 0 0 .241 3.416c1.771 4.012 5.986 3.43 9.416 2.112l1.273-.434Zm.109-1.334c-3.114 1.09-7.8 3.25-9.675-.791a4.433 4.433 0 0 1-.296-1.527 3.114 3.114 0 0 0 4.744-1.346 29.49 29.49 0 0 1 2.83-5.517l.834 1.576a15.934 15.934 0 0 1 1.563 7.605Zm-26.834 10.58v1.376c-8.573-6.967-7.484-20.857 1.877-26.472 1.083.292 4.177 1.115 5.305 1.412a2.036 2.036 0 0 1 .9 3.525c-.613.61-1.998.482-2.783.55a2.82 2.82 0 0 0-2.59 3.494 1.606 1.606 0 0 1-1.333 1.992 1.58 1.58 0 0 0-.676 2.837l4.158 2.915c1.834 1.13 1.578 4.73-.911 4.653a3.714 3.714 0 0 0-3.947 3.718Zm21.806.658a16.479 16.479 0 0 1-16.447 3.688c-.65-.058-.234-.726-.018-1.286.592-1.098 1.756-1.219 2.752-1.322l.773-.084a3.388 3.388 0 0 0 2.97-2.77l.313-1.739a3.89 3.89 0 0 1 3.797-3.18c2.138-.047 3.616 1.853 4.508 3.585.307.727 1.058 2.395 1.352 3.108Z"/><defs><linearGradient id="b" x1="20" x2="90" y1="10" y2="80" gradientUnits="userSpaceOnUse"><stop stop-color="#5CA1FE"/><stop offset="1" stop-color="#217BF4"/></linearGradient><filter id="a" width="110" height="110" x="0" y="0" color-interpolation-filters="sRGB" filterUnits="userSpaceOnUse"><feFlood flood-opacity="0" result="BackgroundImageFix"/><feColorMatrix in="SourceAlpha" result="hardAlpha" values="0 0 0 0 0 0 0 0 0 0 0 0 0 0 0 0 0 0 127 0"/><feMorphology in="SourceAlpha" radius="2" result="effect1_dropShadow_245_2448"/><feOffset dy="10"/><feGaussianBlur stdDeviation="11"/><feComposite in2="hardAlpha" operator="out"/><feColorMatrix values="0 0 0 0 0.427451 0 0 0 0 0.670588 0 0 0 0 1 0 0 0 0.36 0"/><feBlend in2="BackgroundImageFix" result="effect1_dropShadow_245_2448"/><feBlend in="SourceGraphic" in2="effect1_dropShadow_245_2448" result="shape"/></filter></defs></svg>