<svg xmlns="http://www.w3.org/2000/svg" width="50" height="50" fill="none"><rect width="50" height="50" fill="#C1E4FF" rx="14"/><path fill="#004DFF" d="M40 24.996a14.99 14.99 0 0 1-8.983 13.746 14.997 14.997 0 0 1-16.195-2.73l.137 1.711a.47.47 0 1 1-.936.075l-.238-2.964a.469.469 0 0 1 .505-.506l2.966.238a.469.469 0 1 1-.075.936l-1.669-.134A14.111 14.111 0 0 0 25 39.054c7.753 0 14.06-6.306 14.06-14.058a14.002 14.002 0 0 0-2.257-7.644.47.47 0 0 1 .788-.511A14.94 14.94 0 0 1 40 24.996Zm-29.061 0c0-7.752 6.308-14.058 14.06-14.058a14.112 14.112 0 0 1 9.49 3.686l-1.67-.134a.47.47 0 0 0-.075.936l2.965.238.038.002a.47.47 0 0 0 .468-.508l-.238-2.964a.469.469 0 1 0-.936.075l.137 1.71a15.002 15.002 0 0 0-25.014 8.806c-.539 3.614.26 7.3 2.246 10.366a.47.47 0 0 0 .788-.511 14.002 14.002 0 0 1-2.259-7.644Zm21.952-6.073v12.146c0 .628-.432 1.523-2.493 2.22-1.449.49-3.366.76-5.398.76-2.032 0-3.95-.27-5.399-.76-2.06-.697-2.493-1.592-2.493-2.22V18.923c0-.628.433-1.523 2.493-2.22 1.45-.49 3.367-.76 5.399-.76s3.95.27 5.398.76c2.06.697 2.493 1.592 2.493 2.22Zm-.939 12.146v-2.57c-.369.258-.871.51-1.554.741-1.449.49-3.366.76-5.398.76-2.032 0-3.95-.27-5.399-.76-.682-.23-1.185-.483-1.553-.74v2.569c0 .324.485.867 1.854 1.33 1.355.458 3.165.71 5.098.71 1.932 0 3.743-.252 5.097-.71 1.37-.463 1.855-1.006 1.855-1.33Zm0-4.049v-2.569c-.369.257-.871.51-1.554.74-1.449.49-3.366.76-5.398.76-2.032 0-3.95-.27-5.399-.76-.682-.23-1.185-.483-1.553-.74v2.57c0 .323.485.866 1.854 1.33 1.355.458 3.165.71 5.098.71 1.933 0 3.743-.253 5.097-.71 1.37-.463 1.855-1.006 1.855-1.33Zm0-4.048v-2.57c-.369.258-.871.51-1.554.74-1.449.49-3.366.76-5.398.76-2.032 0-3.95-.27-5.399-.76-.682-.23-1.185-.483-1.553-.74v2.57c0 .324.485.866 1.854 1.33 1.355.457 3.165.71 5.098.71 1.933 0 3.743-.253 5.097-.71 1.37-.463 1.855-1.006 1.855-1.33Zm0-4.05c0-.323-.486-.866-1.855-1.33-1.354-.457-3.165-.71-5.097-.71-1.933 0-3.743.253-5.098.71-1.369.464-1.854 1.007-1.854 1.33 0 .325.485.868 1.854 1.331 1.355.458 3.165.71 5.098.71 1.932 0 3.743-.252 5.097-.71 1.37-.463 1.855-1.006 1.855-1.33Zm-6.378 4.066h-1.148a.47.47 0 0 0 0 .939h1.148a.47.47 0 1 0 0-.94Zm0 4.049h-1.148a.47.47 0 0 0 0 .939h1.148a.47.47 0 1 0 0-.94Zm0 4.048h-1.148a.47.47 0 1 0 0 .94h1.148a.47.47 0 1 0 0-.94Z"/></svg>