<svg xmlns="http://www.w3.org/2000/svg" width="110" height="110" fill="none"><g filter="url(#a)"><rect width="70" height="70" x="20" y="10" fill="url(#b)" rx="20"/></g><path fill="#fff" d="M42.5 46.25c-2.757 0-5-2.242-5-5s2.243-5 5-5 5 2.242 5 5-2.243 5-5 5Zm2.212.837c-1.425.55-3 .55-4.425 0a1.261 1.261 0 0 0-1.1.113c-1.837 1.163-2.937 3.137-2.937 5.3v5c0 .687.563 1.25 1.25 1.25h6.25V52.5c0-1.937.513-3.825 1.437-5.475a.878.878 0 0 0-.474.062ZM67.5 46.25c2.757 0 5-2.242 5-5s-2.243-5-5-5-5 2.242-5 5 2.243 5 5 5Zm3.312.95c-.324-.2-.737-.25-1.1-.113-1.425.55-3 .55-4.425 0a.878.878 0 0 0-.474-.062A11.223 11.223 0 0 1 66.25 52.5v6.25h6.25c.687 0 1.25-.563 1.25-1.25v-5c0-2.163-1.1-4.137-2.938-5.3ZM55 43.75a6.257 6.257 0 0 1-6.25-6.25A6.257 6.257 0 0 1 55 31.25a6.257 6.257 0 0 1 6.25 6.25A6.257 6.257 0 0 1 55 43.75Zm8.75 8.75a8.725 8.725 0 0 0-3.588-7.05 1.258 1.258 0 0 0-1.287-.113 8.267 8.267 0 0 1-2.625.813v6.35c0 .687-.563 1.25-1.25 1.25s-1.25-.563-1.25-1.25v-6.35a8.267 8.267 0 0 1-2.625-.813 1.258 1.258 0 0 0-1.287.113 8.725 8.725 0 0 0-3.588 7.05v6.25h17.5V52.5Z"/><defs><linearGradient id="b" x1="20" x2="90" y1="10" y2="80" gradientUnits="userSpaceOnUse"><stop stop-color="#5CA1FE"/><stop offset="1" stop-color="#217BF4"/></linearGradient><filter id="a" width="110" height="110" x="0" y="0" color-interpolation-filters="sRGB" filterUnits="userSpaceOnUse"><feFlood flood-opacity="0" result="BackgroundImageFix"/><feColorMatrix in="SourceAlpha" result="hardAlpha" values="0 0 0 0 0 0 0 0 0 0 0 0 0 0 0 0 0 0 127 0"/><feMorphology in="SourceAlpha" radius="2" result="effect1_dropShadow_245_2454"/><feOffset dy="10"/><feGaussianBlur stdDeviation="11"/><feComposite in2="hardAlpha" operator="out"/><feColorMatrix values="0 0 0 0 0.427451 0 0 0 0 0.670588 0 0 0 0 1 0 0 0 0.36 0"/><feBlend in2="BackgroundImageFix" result="effect1_dropShadow_245_2454"/><feBlend in="SourceGraphic" in2="effect1_dropShadow_245_2454" result="shape"/></filter></defs></svg>