<svg xmlns="http://www.w3.org/2000/svg" width="488" height="413" fill="none"><g filter="url(#a)"><path fill="#EFF6FE" d="M92.84 361.94c23.748 22.995 59.541 25.286 132.575 25.044 40.92-1.588 67.744-5.175 113.503-10.124 33.561 0 91.861-29.92 112.999-55.977 1.293-1.592 2.384-3.029 3.218-4.262 51.887-76.744 11.034-177.423-77.89-198.021-45.78-10.605-56.791-16.781-75.086-44.314C271.226 27.731 165.077-16.21 91.945 18.438-6.09 64.883-33.4 236.185 92.844 361.94h-.003Z"/></g><circle cx="379.5" cy="159.5" r="1.5" fill="#77ADF8"/><circle cx="393.5" cy="159.5" r="1.5" fill="#77ADF8"/><circle cx="407.5" cy="159.5" r="1.5" fill="#77ADF8"/><circle cx="421.5" cy="159.5" r="1.5" fill="#77ADF8"/><circle cx="435.5" cy="159.5" r="1.5" fill="#77ADF8"/><circle cx="449.5" cy="159.5" r="1.5" fill="#77ADF8"/><circle cx="463.5" cy="159.5" r="1.5" fill="#77ADF8"/><circle cx="477.5" cy="159.5" r="1.5" fill="#77ADF8"/><circle cx="379.5" cy="215.5" r="1.5" fill="#77ADF8"/><circle cx="393.5" cy="215.5" r="1.5" fill="#77ADF8"/><circle cx="407.5" cy="215.5" r="1.5" fill="#77ADF8"/><circle cx="421.5" cy="215.5" r="1.5" fill="#77ADF8"/><circle cx="435.5" cy="215.5" r="1.5" fill="#77ADF8"/><circle cx="449.5" cy="215.5" r="1.5" fill="#77ADF8"/><circle cx="463.5" cy="215.5" r="1.5" fill="#77ADF8"/><circle cx="477.5" cy="215.5" r="1.5" fill="#77ADF8"/><circle cx="379.5" cy="271.5" r="1.5" fill="#77ADF8"/><circle cx="393.5" cy="271.5" r="1.5" fill="#77ADF8"/><circle cx="407.5" cy="271.5" r="1.5" fill="#77ADF8"/><circle cx="421.5" cy="271.5" r="1.5" fill="#77ADF8"/><circle cx="435.5" cy="271.5" r="1.5" fill="#77ADF8"/><circle cx="449.5" cy="271.5" r="1.5" fill="#77ADF8"/><circle cx="463.5" cy="271.5" r="1.5" fill="#77ADF8"/><circle cx="477.5" cy="271.5" r="1.5" fill="#77ADF8"/><circle cx="379.5" cy="327.5" r="1.5" fill="#77ADF8"/><circle cx="393.5" cy="327.5" r="1.5" fill="#77ADF8"/><circle cx="407.5" cy="327.5" r="1.5" fill="#77ADF8"/><circle cx="421.5" cy="327.5" r="1.5" fill="#77ADF8"/><circle cx="435.5" cy="327.5" r="1.5" fill="#77ADF8"/><circle cx="449.5" cy="327.5" r="1.5" fill="#77ADF8"/><circle cx="463.5" cy="327.5" r="1.5" fill="#77ADF8"/><circle cx="477.5" cy="327.5" r="1.5" fill="#77ADF8"/><circle cx="379.5" cy="383.5" r="1.5" fill="#77ADF8"/><circle cx="393.5" cy="383.5" r="1.5" fill="#77ADF8"/><circle cx="407.5" cy="383.5" r="1.5" fill="#77ADF8"/><circle cx="421.5" cy="383.5" r="1.5" fill="#77ADF8"/><circle cx="435.5" cy="383.5" r="1.5" fill="#77ADF8"/><circle cx="449.5" cy="383.5" r="1.5" fill="#77ADF8"/><circle cx="463.5" cy="383.5" r="1.5" fill="#77ADF8"/><circle cx="477.5" cy="383.5" r="1.5" fill="#77ADF8"/><circle cx="379.5" cy="173.5" r="1.5" fill="#77ADF8"/><circle cx="393.5" cy="173.5" r="1.5" fill="#77ADF8"/><circle cx="407.5" cy="173.5" r="1.5" fill="#77ADF8"/><circle cx="421.5" cy="173.5" r="1.5" fill="#77ADF8"/><circle cx="435.5" cy="173.5" r="1.5" fill="#77ADF8"/><circle cx="449.5" cy="173.5" r="1.5" fill="#77ADF8"/><circle cx="463.5" cy="173.5" r="1.5" fill="#77ADF8"/><circle cx="477.5" cy="173.5" r="1.5" fill="#77ADF8"/><circle cx="379.5" cy="229.5" r="1.5" fill="#77ADF8"/><circle cx="393.5" cy="229.5" r="1.5" fill="#77ADF8"/><circle cx="407.5" cy="229.5" r="1.5" fill="#77ADF8"/><circle cx="421.5" cy="229.5" r="1.5" fill="#77ADF8"/><circle cx="435.5" cy="229.5" r="1.5" fill="#77ADF8"/><circle cx="449.5" cy="229.5" r="1.5" fill="#77ADF8"/><circle cx="463.5" cy="229.5" r="1.5" fill="#77ADF8"/><circle cx="477.5" cy="229.5" r="1.5" fill="#77ADF8"/><circle cx="379.5" cy="285.5" r="1.5" fill="#77ADF8"/><circle cx="393.5" cy="285.5" r="1.5" fill="#77ADF8"/><circle cx="407.5" cy="285.5" r="1.5" fill="#77ADF8"/><circle cx="421.5" cy="285.5" r="1.5" fill="#77ADF8"/><circle cx="435.5" cy="285.5" r="1.5" fill="#77ADF8"/><circle cx="449.5" cy="285.5" r="1.5" fill="#77ADF8"/><circle cx="463.5" cy="285.5" r="1.5" fill="#77ADF8"/><circle cx="477.5" cy="285.5" r="1.5" fill="#77ADF8"/><circle cx="379.5" cy="341.5" r="1.5" fill="#77ADF8"/><circle cx="393.5" cy="341.5" r="1.5" fill="#77ADF8"/><circle cx="407.5" cy="341.5" r="1.5" fill="#77ADF8"/><circle cx="421.5" cy="341.5" r="1.5" fill="#77ADF8"/><circle cx="435.5" cy="341.5" r="1.5" fill="#77ADF8"/><circle cx="449.5" cy="341.5" r="1.5" fill="#77ADF8"/><circle cx="463.5" cy="341.5" r="1.5" fill="#77ADF8"/><circle cx="477.5" cy="341.5" r="1.5" fill="#77ADF8"/><circle cx="379.5" cy="397.5" r="1.5" fill="#77ADF8"/><circle cx="393.5" cy="397.5" r="1.5" fill="#77ADF8"/><circle cx="407.5" cy="397.5" r="1.5" fill="#77ADF8"/><circle cx="421.5" cy="397.5" r="1.5" fill="#77ADF8"/><circle cx="435.5" cy="397.5" r="1.5" fill="#77ADF8"/><circle cx="449.5" cy="397.5" r="1.5" fill="#77ADF8"/><circle cx="463.5" cy="397.5" r="1.5" fill="#77ADF8"/><circle cx="477.5" cy="397.5" r="1.5" fill="#77ADF8"/><circle cx="379.5" cy="187.5" r="1.5" fill="#77ADF8"/><circle cx="393.5" cy="187.5" r="1.5" fill="#77ADF8"/><circle cx="407.5" cy="187.5" r="1.5" fill="#77ADF8"/><circle cx="421.5" cy="187.5" r="1.5" fill="#77ADF8"/><circle cx="435.5" cy="187.5" r="1.5" fill="#77ADF8"/><circle cx="449.5" cy="187.5" r="1.5" fill="#77ADF8"/><circle cx="463.5" cy="187.5" r="1.5" fill="#77ADF8"/><circle cx="477.5" cy="187.5" r="1.5" fill="#77ADF8"/><circle cx="379.5" cy="243.5" r="1.5" fill="#77ADF8"/><circle cx="393.5" cy="243.5" r="1.5" fill="#77ADF8"/><circle cx="407.5" cy="243.5" r="1.5" fill="#77ADF8"/><circle cx="421.5" cy="243.5" r="1.5" fill="#77ADF8"/><circle cx="435.5" cy="243.5" r="1.5" fill="#77ADF8"/><circle cx="449.5" cy="243.5" r="1.5" fill="#77ADF8"/><circle cx="463.5" cy="243.5" r="1.5" fill="#77ADF8"/><circle cx="477.5" cy="243.5" r="1.5" fill="#77ADF8"/><circle cx="379.5" cy="299.5" r="1.5" fill="#77ADF8"/><circle cx="393.5" cy="299.5" r="1.5" fill="#77ADF8"/><circle cx="407.5" cy="299.5" r="1.5" fill="#77ADF8"/><circle cx="421.5" cy="299.5" r="1.5" fill="#77ADF8"/><circle cx="435.5" cy="299.5" r="1.5" fill="#77ADF8"/><circle cx="449.5" cy="299.5" r="1.5" fill="#77ADF8"/><circle cx="463.5" cy="299.5" r="1.5" fill="#77ADF8"/><circle cx="477.5" cy="299.5" r="1.5" fill="#77ADF8"/><circle cx="379.5" cy="355.5" r="1.5" fill="#77ADF8"/><circle cx="393.5" cy="355.5" r="1.5" fill="#77ADF8"/><circle cx="407.5" cy="355.5" r="1.5" fill="#77ADF8"/><circle cx="421.5" cy="355.5" r="1.5" fill="#77ADF8"/><circle cx="435.5" cy="355.5" r="1.5" fill="#77ADF8"/><circle cx="449.5" cy="355.5" r="1.5" fill="#77ADF8"/><circle cx="463.5" cy="355.5" r="1.5" fill="#77ADF8"/><circle cx="477.5" cy="355.5" r="1.5" fill="#77ADF8"/><circle cx="379.5" cy="411.5" r="1.5" fill="#77ADF8"/><circle cx="393.5" cy="411.5" r="1.5" fill="#77ADF8"/><circle cx="407.5" cy="411.5" r="1.5" fill="#77ADF8"/><circle cx="421.5" cy="411.5" r="1.5" fill="#77ADF8"/><circle cx="435.5" cy="411.5" r="1.5" fill="#77ADF8"/><circle cx="449.5" cy="411.5" r="1.5" fill="#77ADF8"/><circle cx="463.5" cy="411.5" r="1.5" fill="#77ADF8"/><circle cx="477.5" cy="411.5" r="1.5" fill="#77ADF8"/><circle cx="379.5" cy="201.5" r="1.5" fill="#77ADF8"/><circle cx="393.5" cy="201.5" r="1.5" fill="#77ADF8"/><circle cx="407.5" cy="201.5" r="1.5" fill="#77ADF8"/><circle cx="421.5" cy="201.5" r="1.5" fill="#77ADF8"/><circle cx="435.5" cy="201.5" r="1.5" fill="#77ADF8"/><circle cx="449.5" cy="201.5" r="1.5" fill="#77ADF8"/><circle cx="463.5" cy="201.5" r="1.5" fill="#77ADF8"/><circle cx="477.5" cy="201.5" r="1.5" fill="#77ADF8"/><circle cx="379.5" cy="257.5" r="1.5" fill="#77ADF8"/><circle cx="393.5" cy="257.5" r="1.5" fill="#77ADF8"/><circle cx="407.5" cy="257.5" r="1.5" fill="#77ADF8"/><circle cx="421.5" cy="257.5" r="1.5" fill="#77ADF8"/><circle cx="435.5" cy="257.5" r="1.5" fill="#77ADF8"/><circle cx="449.5" cy="257.5" r="1.5" fill="#77ADF8"/><circle cx="463.5" cy="257.5" r="1.5" fill="#77ADF8"/><circle cx="477.5" cy="257.5" r="1.5" fill="#77ADF8"/><circle cx="379.5" cy="313.5" r="1.5" fill="#77ADF8"/><circle cx="393.5" cy="313.5" r="1.5" fill="#77ADF8"/><circle cx="407.5" cy="313.5" r="1.5" fill="#77ADF8"/><circle cx="421.5" cy="313.5" r="1.5" fill="#77ADF8"/><circle cx="435.5" cy="313.5" r="1.5" fill="#77ADF8"/><circle cx="449.5" cy="313.5" r="1.5" fill="#77ADF8"/><circle cx="463.5" cy="313.5" r="1.5" fill="#77ADF8"/><circle cx="477.5" cy="313.5" r="1.5" fill="#77ADF8"/><circle cx="379.5" cy="369.5" r="1.5" fill="#77ADF8"/><circle cx="393.5" cy="369.5" r="1.5" fill="#77ADF8"/><circle cx="407.5" cy="369.5" r="1.5" fill="#77ADF8"/><circle cx="421.5" cy="369.5" r="1.5" fill="#77ADF8"/><circle cx="435.5" cy="369.5" r="1.5" fill="#77ADF8"/><circle cx="449.5" cy="369.5" r="1.5" fill="#77ADF8"/><circle cx="463.5" cy="369.5" r="1.5" fill="#77ADF8"/><circle cx="477.5" cy="369.5" r="1.5" fill="#77ADF8"/><path fill="#fff" d="M58 106.002A5.997 5.997 0 0 1 63.992 100h364.016a5.997 5.997 0 0 1 5.992 6.002v243.083a5.997 5.997 0 0 1-5.992 6.002H63.992A5.997 5.997 0 0 1 58 349.085V106.002Z"/><path fill="#BBD6FF" d="M58 106.002A5.997 5.997 0 0 1 63.992 100h364.016a5.997 5.997 0 0 1 5.992 6.002v15.005H58v-15.005Z"/><path fill="#D6E6FF" d="M58 113.246h375.984v18.986H58v-18.986Z"/><path fill="#fff" d="M93.262 118.544h326.176v8.831H93.262v-8.831Z"/><path fill="#EF4D35" d="M71.664 107.064a3.53 3.53 0 0 1-3.526 3.533 3.53 3.53 0 0 1-3.526-3.533 3.53 3.53 0 0 1 3.526-3.532 3.53 3.53 0 0 1 3.526 3.532Z"/><path fill="#FFCE31" d="M80.48 107.064a3.53 3.53 0 0 1-3.526 3.533 3.53 3.53 0 0 1-3.527-3.533 3.53 3.53 0 0 1 3.526-3.532 3.53 3.53 0 0 1 3.527 3.532Z"/><path fill="#1DB954" d="M89.295 107.064a3.53 3.53 0 0 1-3.526 3.533 3.53 3.53 0 0 1-3.526-3.533 3.53 3.53 0 0 1 3.526-3.532 3.53 3.53 0 0 1 3.526 3.532Z"/><rect width="103" height="55" x="83" y="153" fill="#E4F1FE" rx="12"/><circle cx="129" cy="167" r="9" fill="#9BC7E9"/><circle cx="106" cy="167" r="9" fill="#B2D8F5"/><rect width="100" height="54.541" x="308.191" y="153" fill="#E4F1FE" rx="12"/><rect width="100" height="54.541" x="195.596" y="153" fill="#E4F1FE" rx="12"/><path fill="#fff" d="M262.119 164.569h-28.923a2.066 2.066 0 0 0 0 4.132h28.923a2.066 2.066 0 0 0 0-4.132Zm-8.264 7.438h-20.659a2.066 2.066 0 0 0 0 4.131h20.659a2.065 2.065 0 1 0 0-4.131Zm4.958 10.743h-48.756a2.065 2.065 0 1 0 0 4.131h48.756a2.066 2.066 0 0 0 0-4.131Zm6.611 7.437h-55.367a2.066 2.066 0 0 0 0 4.132h55.367a2.066 2.066 0 0 0 0-4.132Z"/><circle cx="217" cy="167" r="9" fill="#B2D8F5"/><defs><filter id="a" width="488" height="399" x="0" y="0" color-interpolation-filters="sRGB" filterUnits="userSpaceOnUse"><feFlood flood-opacity="0" result="BackgroundImageFix"/><feColorMatrix in="SourceAlpha" result="hardAlpha" values="0 0 0 0 0 0 0 0 0 0 0 0 0 0 0 0 0 0 127 0"/><feOffset dx="1" dy="3"/><feGaussianBlur stdDeviation="4.5"/><feComposite in2="hardAlpha" operator="out"/><feColorMatrix values="0 0 0 0 0 0 0 0 0 0.478431 0 0 0 0 0.796078 0 0 0 0.12 0"/><feBlend in2="BackgroundImageFix" result="effect1_dropShadow_259_4680"/><feBlend in="SourceGraphic" in2="effect1_dropShadow_259_4680" result="shape"/></filter></defs></svg>