<svg xmlns="http://www.w3.org/2000/svg" width="110" height="110" fill="none"><g filter="url(#a)"><rect width="70" height="70" x="20" y="10" fill="url(#b)" rx="20"/></g><path fill="#fff" d="M42.367 47.42a5.752 5.752 0 0 0 4.078-1.69 5.74 5.74 0 0 0 1.69-4.077 5.747 5.747 0 0 0-1.69-4.079 5.747 5.747 0 0 0-4.078-1.687 5.748 5.748 0 0 0-4.077 1.687 5.748 5.748 0 0 0-1.69 4.08c0 1.591.645 3.033 1.69 4.076a5.748 5.748 0 0 0 4.077 1.69Zm-1.96-5.053c.34-.14.729.02.87.359.045.108.096.206.155.294.202.308.472.485.749.56.283.078.57.054.806-.044a.823.823 0 0 0 .26-.166.56.56 0 0 0 .156-.31.441.441 0 0 0-.07-.301.594.594 0 0 0-.083-.1c-.122-.12-.448-.195-.79-.277-.597-.14-1.232-.29-1.733-.806a1.774 1.774 0 0 1-.409-.669 1.904 1.904 0 0 1-.055-1.021 1.86 1.86 0 0 1 .522-.942 1.95 1.95 0 0 1 .744-.451c.053-.018.11-.035.17-.05v-.572a.667.667 0 0 1 1.333 0v.545c.106.024.213.055.313.093.56.206 1.03.609 1.242 1.24.018.05.035.106.05.167a.665.665 0 1 1-1.293.317c-.005-.018-.009-.038-.018-.06-.069-.204-.237-.342-.438-.417a1.354 1.354 0 0 0-.475-.077h-.061a1.59 1.59 0 0 0-.399.073.675.675 0 0 0-.244.144.548.548 0 0 0-.146.27.595.595 0 0 0 .014.313.473.473 0 0 0 .101.17c.228.235.669.34 1.08.436.53.124 1.028.242 1.415.62.11.104.197.213.27.324.248.379.33.801.275 1.207a1.87 1.87 0 0 1-.523 1.059c-.1.103-.21.195-.328.272a2.31 2.31 0 0 1-.836.339v.528a.667.667 0 0 1-1.333 0v-.608a2.633 2.633 0 0 1-1.385-1.078 3.07 3.07 0 0 1-.268-.512.668.668 0 0 1 .362-.869Zm-3.46 8.398a1.173 1.173 0 0 1 0-1.663c.214-.215.509-.348.832-.348h9.177c.324 0 .618.133.833.348a1.175 1.175 0 0 1 0 1.663c-.215.215-.51.347-.833.347h-9.178c-.322 0-.617-.132-.832-.347Zm8.374 3.355a8.231 8.231 0 0 0-.44.684h-7.103c-.323 0-.618-.133-.833-.348a1.174 1.174 0 0 1 0-1.663c.215-.215.51-.348.833-.348h9.193a7.66 7.66 0 0 0-1.65 1.674Zm-7.543 2.017h6.503a7.49 7.49 0 0 0-.264.998c-.088.45-.137.904-.144 1.36h-6.095c-.323 0-.618-.133-.833-.348a1.174 1.174 0 0 1 0-1.663 1.18 1.18 0 0 1 .833-.347ZM69.976 38.36c-1.761-2.423-4.226-4.466-7.038-5.833-.439.14-.92.25-1.427.326a11.33 11.33 0 0 1-1.652.12c-.574 0-1.13-.043-1.653-.12a9.173 9.173 0 0 1-1.426-.326 19.497 19.497 0 0 0-4.352 2.897 17.74 17.74 0 0 0-3.348 3.92c.108.316.194.64.26.97.081.438.126.886.126 1.34 0 1.116-.26 2.176-.724 3.122a7.155 7.155 0 0 1-1.761 2.27l.024.316.007.06a2.504 2.504 0 0 1 1.716.737 2.497 2.497 0 0 1 .29 3.203 7.804 7.804 0 0 1 3.736-.342 7.678 7.678 0 0 1 4.27 2.16 7.633 7.633 0 0 1 1.756 2.737 7.71 7.71 0 0 1 .489 2.569c.168.006.363.01.589.01 3.57 0 6.8-1.363 9.137-3.571 2.324-2.197 3.76-5.23 3.76-8.582.003-2.837-1.04-5.594-2.78-7.983Zm-6.89 9.797a2.511 2.511 0 0 1-.694 1.41c-.136.14-.284.262-.444.366a3.133 3.133 0 0 1-.504.268 3.59 3.59 0 0 1-.917.24v1.093a.667.667 0 0 1-1.333 0v-1.18l-.047-.014c-.793-.212-1.552-.706-2.104-1.547a4.578 4.578 0 0 1-.381-.722.664.664 0 0 1 .36-.868.663.663 0 0 1 .869.358c.077.184.166.35.265.501.355.542.837.86 1.336.995.5.135 1.016.093 1.44-.085.1-.042.196-.093.288-.153a1.26 1.26 0 0 0 .217-.177c.181-.186.299-.421.332-.663a.998.998 0 0 0-.16-.689 1.282 1.282 0 0 0-.172-.21c-.252-.246-.79-.372-1.36-.504-.854-.204-1.764-.42-2.456-1.128a2.321 2.321 0 0 1-.538-.886 2.537 2.537 0 0 1-.075-1.361c.1-.459.33-.9.695-1.254.264-.259.596-.467.997-.604a3.837 3.837 0 0 1 .495-.13v-1.14a.667.667 0 0 1 1.332 0v1.112c.24.035.476.093.7.177.756.28 1.389.82 1.677 1.666.022.071.044.146.064.228a.664.664 0 1 1-1.291.316.945.945 0 0 0-.035-.117c-.142-.42-.475-.695-.873-.844-.27-.1-.567-.143-.863-.14l-.045.003h-.009a2.69 2.69 0 0 0-.724.129 1.33 1.33 0 0 0-.498.297 1.147 1.147 0 0 0-.319.583c-.048.22-.038.449.034.653a.992.992 0 0 0 .232.387c.417.428 1.133.596 1.805.756.753.177 1.464.345 1.985.85.14.14.26.286.358.435.326.5.434 1.057.362 1.593Zm-7.739-21.725a1.11 1.11 0 0 1-.069-.677c.047-.22.162-.423.337-.581a.641.641 0 0 1 .789-.066l.483.31c.33.21.697.316 1.067.316v.003a1.97 1.97 0 0 0 1.065-.32l.489-.314a.644.644 0 0 1 .705 0l.489.315c.334.212.7.319 1.067.319a1.97 1.97 0 0 0 1.065-.32l.482-.31a.641.641 0 0 1 .79.066 1.093 1.093 0 0 1 .268 1.258l-2.122 4.913a8.205 8.205 0 0 1-.932.19c-.454.067-.946.104-1.46.104s-1.005-.037-1.46-.104a8 8 0 0 1-.93-.19l-2.123-4.912Zm-3.774 25.829c-1.637 0-3.271.62-4.511 1.86a6.358 6.358 0 0 0-1.858 4.508 6.36 6.36 0 0 0 1.858 4.51 6.359 6.359 0 0 0 4.51 1.86c1.635 0 3.27-.62 4.51-1.86a6.351 6.351 0 0 0 1.857-4.509 6.35 6.35 0 0 0-6.366-6.37Zm3.749 4.938-3.807 3.805a.663.663 0 0 1-.941 0l-2.753-2.751a.67.67 0 0 1 0-.944.67.67 0 0 1 .944 0l2.279 2.281 3.335-3.335a.667.667 0 1 1 .943.944Z"/><defs><linearGradient id="b" x1="20" x2="90" y1="10" y2="80" gradientUnits="userSpaceOnUse"><stop stop-color="#5CA1FE"/><stop offset="1" stop-color="#217BF4"/></linearGradient><filter id="a" width="110" height="110" x="0" y="0" color-interpolation-filters="sRGB" filterUnits="userSpaceOnUse"><feFlood flood-opacity="0" result="BackgroundImageFix"/><feColorMatrix in="SourceAlpha" result="hardAlpha" values="0 0 0 0 0 0 0 0 0 0 0 0 0 0 0 0 0 0 127 0"/><feMorphology in="SourceAlpha" radius="2" result="effect1_dropShadow_256_3402"/><feOffset dy="10"/><feGaussianBlur stdDeviation="11"/><feComposite in2="hardAlpha" operator="out"/><feColorMatrix values="0 0 0 0 0.427451 0 0 0 0 0.670588 0 0 0 0 1 0 0 0 0.36 0"/><feBlend in2="BackgroundImageFix" result="effect1_dropShadow_256_3402"/><feBlend in="SourceGraphic" in2="effect1_dropShadow_256_3402" result="shape"/></filter></defs></svg>