<svg xmlns="http://www.w3.org/2000/svg" width="80" height="80" fill="none"><path fill="url(#a)" d="M40 76.058c22.091 0 40-2.195 40-4.901H0c0 2.706 17.909 4.9 40 4.9Z"/><path fill="url(#b)" d="m25.632 12.607-3.672.849a6.083 6.083 0 0 0 5.035 2.664h2.309c-2.093 0-2.954-1.905-3.672-3.513Z"/><path fill="url(#c)" d="M24.506 10.03c0-3.362 1.435-6.088 4.798-6.088h-2.309a6.09 6.09 0 0 0-5.035 9.514h3.187c-.436-.976-.64-2.155-.64-3.425Z"/><path fill="url(#d)" d="m33.383 5.534-3.411 1.072c4.321 0 7.98 2.896 9.134 6.85l3.044.725c.735-3.961-4.445-8.647-8.767-8.647Z"/><path fill="url(#e)" d="M56.637 3.942h-2.31c-6.725 0-12.178 5.452-12.178 12.178h2.31c3.37-7.073 12.178-12.178 12.178-12.178Z"/><path fill="url(#f)" d="M57.304 13.456h3.935c4.65-3.002 2.425-7.266-1.251-7.266l-2.684.416a3.43 3.43 0 0 1 3.425 3.425 3.429 3.429 0 0 1-3.425 3.425Z"/><path fill="url(#g)" d="M3.91 71.157h11.284l4.442-46.253-15.727 5.08v41.173Z"/><path fill="url(#h)" d="M2.332 29.984h11.285l2.825-6.932-2.825-6.932H2.332v13.864Z"/><path fill="url(#i)" d="M13.616 16.12h61.685v13.864H13.616V16.12Z"/><path fill="url(#j)" d="M33.383 29.984h2.854l2.111-6.932-2.111-6.932h-2.854v13.864Z"/><path fill="url(#k)" d="M36.236 16.12h16.445v13.864H36.236V16.12Z"/><path fill="url(#l)" d="M73.723 71.157H52.188L42.15 68.469l-8.275 2.688h-18.68V29.985h58.529v41.172Z"/><path fill="url(#m)" d="M33.874 71.157h2.854l4.275-20.792-4.275-20.38h-2.854v41.172Z"/><path fill="url(#n)" d="M36.728 29.985h15.46v41.172h-15.46V29.985Z"/><path fill="url(#o)" d="M59.612 3.942h-2.976c-6.726 0-12.178 5.452-12.178 12.178h15.154a6.09 6.09 0 0 0 0-12.178Zm0 9.514h-12.11c1.155-3.954 4.813-6.85 9.134-6.85h2.976a3.43 3.43 0 0 1 3.426 3.425 3.43 3.43 0 0 1-3.425 3.425Z"/><path fill="url(#p)" d="M23.215 10.03a6.09 6.09 0 0 0 6.09 6.09h15.154c0-6.726-5.453-12.178-12.179-12.178h-2.976a6.09 6.09 0 0 0-6.09 6.089Zm2.664 0a3.429 3.429 0 0 1 3.425-3.424h2.976c4.322 0 7.98 2.896 9.135 6.85h-12.11a3.43 3.43 0 0 1-3.426-3.425Z"/><path fill="url(#q)" d="M59.612 3.942h-2.976c-6.726 0-12.178 5.452-12.178 12.178h15.154a6.09 6.09 0 0 0 0-12.178Zm0 9.514h-12.11c1.155-3.954 4.813-6.85 9.134-6.85h2.976a3.43 3.43 0 0 1 3.426 3.425 3.43 3.43 0 0 1-3.425 3.425Z"/><path fill="url(#r)" d="M23.215 10.03a6.09 6.09 0 0 0 6.09 6.09h15.154c0-6.726-5.453-12.178-12.179-12.178h-2.976a6.09 6.09 0 0 0-6.09 6.089Zm2.664 0a3.429 3.429 0 0 1 3.425-3.424h2.976c4.322 0 7.98 2.896 9.135 6.85h-12.11a3.43 3.43 0 0 1-3.426-3.425Z"/><defs><radialGradient id="a" cx="0" cy="0" r="1" gradientTransform="matrix(38.3831 0 0 4.61751 39.473 71.293)" gradientUnits="userSpaceOnUse"><stop stop-color="#E28086"/><stop offset=".014" stop-color="#E38389"/><stop offset=".339" stop-color="#F1BCC0"/><stop offset=".495" stop-color="#F6D3D5"/><stop offset=".888" stop-color="#fff"/></radialGradient><radialGradient id="b" cx="0" cy="0" r="1" gradientTransform="matrix(-9.12687 0 0 -6.95468 21.922 12.02)" gradientUnits="userSpaceOnUse"><stop stop-color="#E4989D"/><stop offset=".153" stop-color="#E39298"/><stop offset=".358" stop-color="#E18189"/><stop offset=".592" stop-color="#DD6570"/><stop offset=".608" stop-color="#DD636E"/><stop offset="1" stop-color="#B93333"/></radialGradient><radialGradient id="c" cx="0" cy="0" r="1" gradientTransform="matrix(-7.50766 0 0 -6.50914 21.594 5.692)" gradientUnits="userSpaceOnUse"><stop stop-color="#FBE2DD"/><stop offset=".606" stop-color="#EAB1B7"/><stop offset=".76" stop-color="#E9ADB3"/><stop offset=".919" stop-color="#E6A1A6"/><stop offset="1" stop-color="#E4989D"/></radialGradient><radialGradient id="d" cx="0" cy="0" r="1" gradientTransform="matrix(-10.943 0 0 -9.48755 34.176 16.82)" gradientUnits="userSpaceOnUse"><stop stop-color="#E4989D"/><stop offset=".153" stop-color="#E39298"/><stop offset=".358" stop-color="#E18189"/><stop offset=".592" stop-color="#DD6570"/><stop offset=".608" stop-color="#DD636E"/><stop offset="1" stop-color="#B93333"/></radialGradient><radialGradient id="e" cx="0" cy="0" r="1" gradientTransform="matrix(-11.4891 0 0 -9.3521 51.17 3.28)" gradientUnits="userSpaceOnUse"><stop stop-color="#FBE2DD"/><stop offset=".606" stop-color="#EAB1B7"/><stop offset=".76" stop-color="#E9ADB3"/><stop offset=".919" stop-color="#E6A1A6"/><stop offset="1" stop-color="#E4989D"/></radialGradient><radialGradient id="f" cx="0" cy="0" r="1" gradientTransform="matrix(-10.6895 0 0 -8.70128 62.171 14.98)" gradientUnits="userSpaceOnUse"><stop stop-color="#E4989D"/><stop offset=".153" stop-color="#E39298"/><stop offset=".358" stop-color="#E18189"/><stop offset=".592" stop-color="#DD6570"/><stop offset=".608" stop-color="#DD636E"/><stop offset="1" stop-color="#B93333"/></radialGradient><radialGradient id="g" cx="0" cy="0" r="1" gradientTransform="matrix(19.9217 0 0 28.9339 8.594 36.159)" gradientUnits="userSpaceOnUse"><stop offset=".013" stop-color="#FFFBE4"/><stop offset=".606" stop-color="#F9EFAF"/><stop offset=".721" stop-color="#F9EEAB"/><stop offset=".839" stop-color="#F8EC9E"/><stop offset=".96" stop-color="#F7E98A"/><stop offset="1" stop-color="#F6E781"/></radialGradient><radialGradient id="h" cx="0" cy="0" r="1" gradientTransform="matrix(17.8624 0 0 22.1153 7.676 16.248)" gradientUnits="userSpaceOnUse"><stop offset=".013" stop-color="#FFFBE4"/><stop offset=".606" stop-color="#F9EFAF"/><stop offset=".721" stop-color="#F9EEAB"/><stop offset=".839" stop-color="#F8EC9E"/><stop offset=".96" stop-color="#F7E98A"/><stop offset="1" stop-color="#F6E781"/></radialGradient><radialGradient id="i" cx="0" cy="0" r="1" gradientTransform="matrix(-52.8702 0 0 -29.3667 61.28 29.312)" gradientUnits="userSpaceOnUse"><stop stop-color="#F6E266"/><stop offset=".46" stop-color="#F4DD45"/><stop offset=".583" stop-color="#F2D340"/><stop offset=".791" stop-color="#ECB934"/><stop offset="1" stop-color="#E49824"/></radialGradient><radialGradient id="j" cx="0" cy="0" r="1" gradientTransform="matrix(10.444 0 0 11.5097 34.1 16.599)" gradientUnits="userSpaceOnUse"><stop stop-color="#FBE2DD"/><stop offset=".606" stop-color="#EAB1B7"/><stop offset=".76" stop-color="#E9ADB3"/><stop offset=".919" stop-color="#E6A1A6"/><stop offset="1" stop-color="#E4989D"/></radialGradient><radialGradient id="k" cx="0" cy="0" r="1" gradientTransform="matrix(-14.5822 0 0 -30.4099 48.959 29.312)" gradientUnits="userSpaceOnUse"><stop stop-color="#DD636E"/><stop offset=".032" stop-color="#DD606B"/><stop offset=".561" stop-color="#D82E3D"/><stop offset="1" stop-color="#8E2E2E"/></radialGradient><radialGradient id="l" cx="0" cy="0" r="1" gradientTransform="matrix(-50.1666 0 0 -42.8954 64.379 66.078)" gradientUnits="userSpaceOnUse"><stop stop-color="#F6E266"/><stop offset=".46" stop-color="#F4DD45"/><stop offset=".583" stop-color="#F2D340"/><stop offset=".791" stop-color="#ECB934"/><stop offset="1" stop-color="#E49824"/></radialGradient><radialGradient id="m" cx="0" cy="0" r="1" gradientTransform="matrix(18.1621 0 0 36.3242 33.264 59.798)" gradientUnits="userSpaceOnUse"><stop stop-color="#E4989D"/><stop offset=".153" stop-color="#E39298"/><stop offset=".358" stop-color="#E18189"/><stop offset=".592" stop-color="#DD6570"/><stop offset=".608" stop-color="#DD636E"/><stop offset="1" stop-color="#B93333"/></radialGradient><radialGradient id="n" cx="0" cy="0" r="1" gradientTransform="matrix(-16.4704 0 0 -52.3323 48.638 69.14)" gradientUnits="userSpaceOnUse"><stop stop-color="#DD636E"/><stop offset=".032" stop-color="#DD606B"/><stop offset=".561" stop-color="#D82E3D"/><stop offset="1" stop-color="#8E2E2E"/></radialGradient><radialGradient id="o" cx="0" cy="0" r="1" gradientTransform="matrix(-18.9778 0 0 -15.4479 62.837 14.188)" gradientUnits="userSpaceOnUse"><stop stop-color="#E4936B"/><stop offset=".377" stop-color="#E27D47"/><stop offset=".479" stop-color="#DF7344"/><stop offset=".651" stop-color="#D5593E"/><stop offset=".872" stop-color="#C72E33"/><stop offset=".919" stop-color="#C32430"/></radialGradient><radialGradient id="p" cx="0" cy="0" r="1" gradientTransform="matrix(18.9778 0 0 16.4538 38.631 16.372)" gradientUnits="userSpaceOnUse"><stop stop-color="#E4936B"/><stop offset=".377" stop-color="#E27D47"/><stop offset=".479" stop-color="#DF7344"/><stop offset=".651" stop-color="#D5593E"/><stop offset=".872" stop-color="#C72E33"/><stop offset=".919" stop-color="#C32430"/></radialGradient><radialGradient id="q" cx="0" cy="0" r="1" gradientTransform="matrix(-18.9778 0 0 -15.4479 62.837 14.188)" gradientUnits="userSpaceOnUse"><stop stop-color="#DD636E"/><stop offset=".032" stop-color="#DD606B"/><stop offset=".561" stop-color="#D82E3D"/><stop offset="1" stop-color="#8E2E2E"/></radialGradient><radialGradient id="r" cx="0" cy="0" r="1" gradientTransform="matrix(18.9778 0 0 16.4538 38.631 16.372)" gradientUnits="userSpaceOnUse"><stop stop-color="#DD636E"/><stop offset=".032" stop-color="#DD606B"/><stop offset=".561" stop-color="#D82E3D"/><stop offset="1" stop-color="#8E2E2E"/></radialGradient></defs></svg>