<svg xmlns="http://www.w3.org/2000/svg" width="110" height="110" fill="none"><g filter="url(#a)"><rect width="70" height="70" x="20" y="10" fill="url(#b)" rx="20"/></g><g clip-path="url(#c)"><path fill="#fff" fill-rule="evenodd" d="M62.05 54.631v-2.08c0-3.032-1.326-5.768-3.427-7.657a5.614 5.614 0 0 1 3.829-1.504c1.554 0 2.963.631 3.98 1.647a5.615 5.615 0 0 1 1.65 3.98 5.606 5.606 0 0 1-1.65 3.98 5.607 5.607 0 0 1-4.381 1.634Zm12.56-7.286-1.696-.551a.547.547 0 0 1-.372-.395 10.41 10.41 0 0 0-1.103-2.66.55.55 0 0 1-.018-.544l.811-1.59a.554.554 0 0 0-.104-.655l-1.605-1.608a.557.557 0 0 0-.656-.102l-1.59.81a.554.554 0 0 1-.544-.017 10.403 10.403 0 0 0-2.66-1.103.548.548 0 0 1-.394-.372l-.552-1.696a.557.557 0 0 0-.538-.39h-2.27a.557.557 0 0 0-.538.39l-.552 1.696a.546.546 0 0 1-.396.372 10.41 10.41 0 0 0-2.658 1.103.557.557 0 0 1-.544.018l-1.59-.81a.557.557 0 0 0-.656.101l-1.608 1.608a.557.557 0 0 0-.101.655l.37.727c1.676.212 3.228.833 4.557 1.754a6.903 6.903 0 0 1 4.85-1.987c1.911 0 3.64.775 4.892 2.027a6.897 6.897 0 0 1 2.027 4.892 6.89 6.89 0 0 1-2.027 4.892 6.89 6.89 0 0 1-5.293 2.016v4.27c0 .5-.14.97-.383 1.37h1.92a.56.56 0 0 0 .54-.39l.55-1.698a.555.555 0 0 1 .395-.372c.945-.244 1.84-.618 2.66-1.1a.55.55 0 0 1 .544-.019l1.59.811c.221.114.48.074.655-.104l1.606-1.605a.554.554 0 0 0 .104-.655l-.811-1.593a.544.544 0 0 1 .018-.542 10.31 10.31 0 0 0 1.1-2.66.553.553 0 0 1 .372-.394l1.699-.551a.557.557 0 0 0 .39-.539v-2.27a.559.559 0 0 0-.39-.54Zm-28.158 4.609 1.428 2.533 1.428-2.533-.709-8.413h-1.437l-.71 8.413Zm5.295-8.413h-1.854l.717 8.499h-.002a.645.645 0 0 1-.082.368l-2.084 3.696a.643.643 0 0 1-1.123.004l-2.056-3.648a.644.644 0 0 1-.114-.421l.717-8.5h-1.853C39.056 43.542 35 47.596 35 52.552v7.643c0 .753.618 1.37 1.373 1.37h4.279v-5.396a.644.644 0 1 1 1.289 0v5.397h11.878v-5.397a.646.646 0 0 1 1.291 0v5.397h4.28c.753 0 1.37-.618 1.37-1.371V52.55c0-4.956-4.054-9.01-9.013-9.01Zm-3.867-2.38c3.504 0 6.363-2.86 6.363-6.363 0-3.506-2.86-6.363-6.363-6.363-3.503 0-6.362 2.857-6.362 6.363 0 3.503 2.859 6.362 6.362 6.362Z" clip-rule="evenodd"/></g><defs><linearGradient id="b" x1="20" x2="90" y1="10" y2="80" gradientUnits="userSpaceOnUse"><stop stop-color="#5CA1FE"/><stop offset="1" stop-color="#217BF4"/></linearGradient><clipPath id="c"><path fill="#fff" d="M35 25h40v40H35z"/></clipPath><filter id="a" width="110" height="110" x="0" y="0" color-interpolation-filters="sRGB" filterUnits="userSpaceOnUse"><feFlood flood-opacity="0" result="BackgroundImageFix"/><feColorMatrix in="SourceAlpha" result="hardAlpha" values="0 0 0 0 0 0 0 0 0 0 0 0 0 0 0 0 0 0 127 0"/><feMorphology in="SourceAlpha" radius="2" result="effect1_dropShadow_245_2500"/><feOffset dy="10"/><feGaussianBlur stdDeviation="11"/><feComposite in2="hardAlpha" operator="out"/><feColorMatrix values="0 0 0 0 0.427451 0 0 0 0 0.670588 0 0 0 0 1 0 0 0 0.36 0"/><feBlend in2="BackgroundImageFix" result="effect1_dropShadow_245_2500"/><feBlend in="SourceGraphic" in2="effect1_dropShadow_245_2500" result="shape"/></filter></defs></svg>