<svg xmlns="http://www.w3.org/2000/svg" width="110" height="110" fill="none"><g filter="url(#a)"><rect width="70" height="70" x="20" y="10" fill="url(#b)" rx="20"/></g><path fill="#fff" fill-rule="evenodd" d="M50.715 39.949h6.19v3.083c.892-1.773 3.178-3.367 6.613-3.367 6.585 0 8.149 3.53 8.149 10.007v11.995H65v-10.52c0-3.688-.892-5.768-3.162-5.768-3.148 0-4.456 2.241-4.456 5.766v10.522h-6.667V39.949ZM39.283 61.383h6.667V39.665h-6.667v21.718Zm7.622-28.8a4.216 4.216 0 0 1-1.255 3.004 4.288 4.288 0 0 1-3.033 1.246 4.317 4.317 0 0 1-3.03-1.244 4.248 4.248 0 0 1-1.254-3.005c0-1.129.45-2.209 1.255-3.006a4.31 4.31 0 0 1 6.062 0 4.23 4.23 0 0 1 1.255 3.006Z" clip-rule="evenodd"/><defs><linearGradient id="b" x1="20" x2="90" y1="10" y2="80" gradientUnits="userSpaceOnUse"><stop stop-color="#5CA1FE"/><stop offset="1" stop-color="#217BF4"/></linearGradient><filter id="a" width="110" height="110" x="0" y="0" color-interpolation-filters="sRGB" filterUnits="userSpaceOnUse"><feFlood flood-opacity="0" result="BackgroundImageFix"/><feColorMatrix in="SourceAlpha" result="hardAlpha" values="0 0 0 0 0 0 0 0 0 0 0 0 0 0 0 0 0 0 127 0"/><feMorphology in="SourceAlpha" radius="2" result="effect1_dropShadow_256_3414"/><feOffset dy="10"/><feGaussianBlur stdDeviation="11"/><feComposite in2="hardAlpha" operator="out"/><feColorMatrix values="0 0 0 0 0.427451 0 0 0 0 0.670588 0 0 0 0 1 0 0 0 0.36 0"/><feBlend in2="BackgroundImageFix" result="effect1_dropShadow_256_3414"/><feBlend in="SourceGraphic" in2="effect1_dropShadow_256_3414" result="shape"/></filter></defs></svg>