<svg xmlns="http://www.w3.org/2000/svg" width="47" height="30" fill="none"><path stroke="url(#a)" stroke-width="6.123" d="M26.434 15.224c0 6.215-5.16 11.36-11.66 11.36-6.499 0-11.66-5.145-11.66-11.36 0-6.214 5.161-11.36 11.66-11.36 6.5 0 11.66 5.146 11.66 11.36Z"/><path fill="url(#b)" d="M31.789 29.197c8.13 0 14.721-6.456 14.721-14.421H31.817v5.978h5.9c-5.928 5.61-14.693.595-14.551-5.978.107-4.958 4.17-8.415 8.651-8.415 2.865 0 5.077 1.275 6.58 3.003l4.373-4.193A14.82 14.82 0 0 0 31.79.354c-8.13 0-14.722 6.457-14.722 14.422 0 7.965 6.591 14.421 14.722 14.421Z"/><g clip-path="url(#c)"><path fill="url(#d)" fill-rule="evenodd" d="M23.61 26.767a14.58 14.58 0 0 0 4.108-4.66c-2.232-1.207-3.945-3.323-4.42-5.793-.343 2.508-1.86 4.717-4.053 6.01a14.635 14.635 0 0 0 4.365 4.443ZM18.84 7.913c2.303 1.197 3.944 3.373 4.402 5.885.355-2.71 1.922-4.888 4.043-6.17a14.638 14.638 0 0 0-4.33-4.388 14.579 14.579 0 0 0-4.115 4.673Z" clip-rule="evenodd"/></g><defs><linearGradient id="a" x1=".053" x2="29.496" y1="15.253" y2="15.253" gradientUnits="userSpaceOnUse"><stop stop-color="#7F7F7F"/><stop offset="1" stop-color="#fff"/></linearGradient><linearGradient id="b" x1="17.067" x2="46.51" y1="14.804" y2="14.804" gradientUnits="userSpaceOnUse"><stop stop-color="#959595"/><stop offset="1" stop-color="#E0E0E0"/></linearGradient><linearGradient id="d" x1="18.788" x2="28.776" y1="7.444" y2="7.444" gradientUnits="userSpaceOnUse"><stop stop-color="#D6D6D6"/><stop offset="1" stop-color="#F9F9F9"/></linearGradient><clipPath id="c"><path fill="#fff" d="M18.265 2.676h10.041v12.807h-10.04z"/></clipPath></defs></svg>