<svg xmlns="http://www.w3.org/2000/svg" width="84" height="35" fill="none"><path fill="#8F8F8F" d="M25.732 4.629v9.351h-.979c-.234 0-.381-.114-.443-.342l-.13-1.006c-.405.45-.86.813-1.366 1.09-.504.27-1.083.406-1.735.406-.51 0-.963-.083-1.357-.25a2.737 2.737 0 0 1-.979-.72 3.093 3.093 0 0 1-.6-1.117 5.1 5.1 0 0 1-.194-1.449V4.63h1.644v5.963c0 .708.16 1.255.48 1.643.326.388.821.582 1.486.582.486 0 .938-.114 1.357-.342a4.375 4.375 0 0 0 1.172-.96V4.63h1.644Zm5.845 9.499c-.738 0-1.308-.207-1.708-.619-.393-.412-.59-1.006-.59-1.782V6.004h-1.127a.38.38 0 0 1-.249-.083c-.068-.062-.101-.154-.101-.277V4.99l1.532-.194.378-2.89a.391.391 0 0 1 .12-.221.37.37 0 0 1 .259-.092h.83v3.221h2.706v1.191h-2.705v5.613c0 .394.095.686.286.877.19.19.437.286.738.286.173 0 .32-.022.443-.065.13-.049.24-.101.333-.157a3.46 3.46 0 0 0 .23-.147c.068-.05.127-.074.176-.074.086 0 .163.052.23.157l.48.784a3.122 3.122 0 0 1-1.024.628c-.4.148-.812.222-1.237.222Zm5.676-7.625c.295-.64.658-1.139 1.089-1.496.43-.363.957-.545 1.578-.545.197 0 .385.022.564.065.184.043.347.11.489.203l-.12 1.228c-.037.154-.13.23-.277.23-.086 0-.212-.018-.379-.055a2.607 2.607 0 0 0-.563-.055c-.295 0-.56.043-.794.13a1.87 1.87 0 0 0-.618.387 2.742 2.742 0 0 0-.49.628 5.62 5.62 0 0 0-.387.849v5.908h-1.652V4.629h.941c.179 0 .302.033.37.101.067.068.113.185.138.351l.11 1.422Zm11.414 1.781c0-.381-.055-.729-.166-1.043a2.212 2.212 0 0 0-.47-.821 1.987 1.987 0 0 0-.749-.536 2.487 2.487 0 0 0-1.006-.194c-.788 0-1.412.231-1.874.693-.455.455-.738 1.089-.849 1.901h5.114Zm1.33 4.385a3.21 3.21 0 0 1-.73.646 4.646 4.646 0 0 1-.914.443c-.32.117-.652.204-.997.259a5.823 5.823 0 0 1-1.024.092 4.851 4.851 0 0 1-1.791-.323 4.057 4.057 0 0 1-1.413-.96c-.394-.425-.701-.948-.923-1.57-.221-.62-.332-1.335-.332-2.14 0-.653.098-1.263.295-1.829a4.317 4.317 0 0 1 .868-1.468 3.894 3.894 0 0 1 1.375-.978c.542-.24 1.151-.36 1.828-.36.56 0 1.077.095 1.551.286.48.185.892.456 1.237.812.351.351.625.788.822 1.311.197.517.295 1.108.295 1.773 0 .258-.027.43-.083.517-.055.086-.16.129-.314.129h-6.25c.02.59.1 1.105.24 1.542.148.436.351.803.61 1.098.258.29.566.508.923.655a3.23 3.23 0 0 0 1.2.213c.412 0 .766-.046 1.062-.139a5.32 5.32 0 0 0 1.31-.618c.148-.099.274-.148.379-.148.135 0 .24.052.314.157l.462.6ZM33.836 30.68a.43.43 0 0 1 .325.146l.882.966a6.287 6.287 0 0 1-2.257 1.69c-.882.4-1.946.6-3.192.6-1.092 0-2.082-.19-2.971-.568a6.6 6.6 0 0 1-2.268-1.585c-.623-.68-1.106-1.491-1.449-2.436-.343-.945-.514-1.984-.514-3.118s.178-2.174.535-3.118a7.227 7.227 0 0 1 1.523-2.436 6.855 6.855 0 0 1 2.33-1.586c.91-.377 1.915-.566 3.014-.566 1.07 0 2.022.174 2.855.524.833.35 1.558.816 2.173 1.397l-.734 1.04a.609.609 0 0 1-.19.188.486.486 0 0 1-.283.074c-.133 0-.29-.067-.472-.2a5.759 5.759 0 0 0-.704-.44 5.186 5.186 0 0 0-1.07-.452c-.428-.133-.96-.2-1.596-.2-.75 0-1.435.133-2.058.4a4.517 4.517 0 0 0-1.617 1.133c-.448.49-.798 1.096-1.05 1.817-.245.713-.367 1.522-.367 2.425 0 .917.129 1.732.388 2.446.259.714.616 1.32 1.07 1.816.456.497.991.875 1.607 1.134.616.26 1.281.389 1.995.389a8.32 8.32 0 0 0 1.165-.074c.35-.056.669-.136.956-.241.294-.105.57-.238.83-.4a5.82 5.82 0 0 0 .766-.598.707.707 0 0 1 .178-.115.404.404 0 0 1 .2-.053ZM39.6 18.415v15.497h-2.058V18.417H39.6Zm10.62 8.977c0-.406-.06-.78-.179-1.123a2.486 2.486 0 0 0-.504-.893 2.314 2.314 0 0 0-.819-.588 2.769 2.769 0 0 0-1.112-.21c-.861 0-1.54.249-2.037.746-.49.497-.802 1.186-.935 2.068h5.586Zm1.69 4.998c-.252.294-.542.55-.871.766-.33.21-.68.382-1.05.515a6.348 6.348 0 0 1-1.155.294c-.392.063-.78.094-1.165.094a5.6 5.6 0 0 1-2.048-.367 4.696 4.696 0 0 1-1.627-1.092c-.455-.483-.812-1.078-1.071-1.785-.252-.714-.378-1.533-.378-2.457 0-.742.116-1.431.346-2.068.232-.644.56-1.204.988-1.68a4.63 4.63 0 0 1 1.585-1.123c.623-.273 1.323-.41 2.1-.41.65 0 1.249.109 1.795.326.553.21 1.029.518 1.428.924.399.405.71.906.934 1.5.231.596.347 1.275.347 2.038 0 .315-.035.528-.105.64-.07.105-.2.158-.389.158h-6.992c.02.636.112 1.193.273 1.669.16.469.381.86.661 1.176.287.315.627.55 1.019.703.392.154.83.231 1.312.231.455 0 .847-.052 1.176-.157a5.83 5.83 0 0 0 .86-.336c.246-.126.449-.242.61-.347.168-.105.315-.157.44-.157a.45.45 0 0 1 .39.189l.587.756Zm4.92-7.098c.343-.7.756-1.249 1.239-1.648.483-.399 1.064-.598 1.743-.598.23 0 .448.028.65.084.21.049.393.126.547.23l-.137 1.544c-.049.189-.164.283-.346.283-.098 0-.245-.017-.441-.052a3.003 3.003 0 0 0-.63-.063c-.33 0-.62.049-.872.147-.252.09-.48.23-.682.42-.196.182-.371.41-.525.682a6.51 6.51 0 0 0-.43.914v6.677h-2.048V23.246h1.176c.224 0 .375.042.452.126.083.077.143.217.178.42l.126 1.501Zm8.435-6.877v9.061h.483a.92.92 0 0 0 .368-.063.864.864 0 0 0 .304-.252l3.192-3.517a.98.98 0 0 1 .325-.294.88.88 0 0 1 .452-.105h1.868l-3.769 4.126a2.46 2.46 0 0 1-.65.599c.132.09.248.196.346.315a4.4 4.4 0 0 1 .304.388l4.011 5.24h-1.837c-.168 0-.315-.029-.441-.085a.83.83 0 0 1-.326-.304L66.6 29.24c-.106-.161-.21-.262-.315-.305-.105-.049-.263-.073-.473-.073h-.546v5.05h-2.047V18.417h2.047Zm6.61-12.123a.736.736 0 0 1-.147.157.332.332 0 0 1-.204.056.562.562 0 0 1-.304-.111 4.412 4.412 0 0 0-.416-.259 2.938 2.938 0 0 0-.6-.249 2.708 2.708 0 0 0-.867-.12c-.462 0-.868.083-1.219.25a2.35 2.35 0 0 0-.886.7c-.234.309-.413.68-.536 1.118a5.677 5.677 0 0 0-.175 1.468c0 .566.065 1.07.194 1.514.13.436.31.806.544 1.107.24.296.527.524.859.684.339.153.717.23 1.135.23.4 0 .73-.046.988-.138.259-.099.471-.206.637-.323.172-.117.314-.222.425-.314a.537.537 0 0 1 .341-.148.36.36 0 0 1 .314.157l.462.6a3.278 3.278 0 0 1-.692.646c-.259.179-.539.33-.84.453a4.636 4.636 0 0 1-.933.258 5.943 5.943 0 0 1-.997.083c-.585 0-1.13-.107-1.634-.323a3.752 3.752 0 0 1-1.302-.932 4.44 4.44 0 0 1-.867-1.514c-.21-.597-.314-1.277-.314-2.04 0-.696.095-1.339.286-1.93.197-.59.48-1.098.85-1.523.375-.43.833-.766 1.375-1.006.547-.24 1.175-.36 1.883-.36.659 0 1.237.108 1.736.323.504.21.95.508 1.338.895l-.434.591Zm4.33-.415c.4-.425.844-.763 1.33-1.016.486-.252 1.046-.378 1.68-.378.51 0 .96.086 1.348.258.393.167.72.407.978.72.265.308.465.68.6 1.117.135.437.203.92.203 1.45v5.954h-1.652V8.028c0-.708-.163-1.256-.49-1.643-.32-.394-.809-.591-1.467-.591a2.8 2.8 0 0 0-1.367.35 4.53 4.53 0 0 0-1.163.951v6.887h-1.652V.384h1.652v5.493ZM58.853 8.096a2.663 2.663 0 0 0-.492-.045c-.307 0-.596.067-.864.201a2.259 2.259 0 0 0-.7.544 2.708 2.708 0 0 0-.462.79 2.501 2.501 0 0 0-.171.916c0 .318.067.566.2.745.14.174.341.26.604.26.13 0 .259-.02.388-.059.134-.04.26-.11.38-.209a1.62 1.62 0 0 0 .327-.41c.1-.168.182-.38.246-.632l.544-2.101Zm.872 1.907c-.08.318-.12.579-.12.782.005.199.038.358.097.477a.49.49 0 0 0 .254.238.968.968 0 0 0 .372.067c.209 0 .405-.064.589-.193a1.76 1.76 0 0 0 .491-.56c.14-.238.248-.52.328-.848a4.32 4.32 0 0 0 .127-1.073c0-.646-.102-1.214-.306-1.706a3.287 3.287 0 0 0-.842-1.23 3.493 3.493 0 0 0-1.296-.744 5.064 5.064 0 0 0-1.639-.253 4.41 4.41 0 0 0-1.817.372 4.508 4.508 0 0 0-1.453 1.006 4.708 4.708 0 0 0-.961 1.512 5.084 5.084 0 0 0-.343 1.877c0 .815.127 1.532.38 2.153a4.396 4.396 0 0 0 1.043 1.55c.442.412.961.722 1.557.93.601.21 1.25.314 1.944.314.383 0 .74-.023 1.073-.067.333-.04.638-.097.916-.172a5.52 5.52 0 0 0 .76-.245 4.47 4.47 0 0 0 .611-.291c.13-.074.243-.097.343-.067.1.03.171.104.216.223l.253.663a7.152 7.152 0 0 1-1.81.827c-.69.214-1.477.32-2.362.32-.899 0-1.73-.14-2.495-.424a5.767 5.767 0 0 1-1.99-1.222 5.585 5.585 0 0 1-1.31-1.93c-.313-.759-.47-1.613-.47-2.562 0-.531.067-1.048.201-1.55.14-.5.336-.97.59-1.407a6.044 6.044 0 0 1 2.107-2.16 5.807 5.807 0 0 1 1.416-.611 5.698 5.698 0 0 1 1.601-.224c.706 0 1.381.12 2.027.358.65.233 1.224.57 1.72 1.013.502.437.902.973 1.2 1.609.298.63.447 1.343.447 2.138 0 .531-.08 1.03-.239 1.497a3.722 3.722 0 0 1-.655 1.207 3.115 3.115 0 0 1-.991.812c-.377.194-.79.29-1.237.29a1.72 1.72 0 0 1-.908-.238c-.264-.159-.445-.415-.544-.767-.293.357-.604.613-.931.767a2.474 2.474 0 0 1-1.066.231c-.313 0-.586-.055-.82-.164a1.72 1.72 0 0 1-.58-.447 2.04 2.04 0 0 1-.35-.678 3.136 3.136 0 0 1-.112-.856c0-.283.035-.569.104-.857.075-.293.184-.574.328-.842a3.63 3.63 0 0 1 .536-.76 3.45 3.45 0 0 1 .76-.618c.293-.179.621-.318.983-.417a4.41 4.41 0 0 1 1.207-.157c.388 0 .718.03.991.09s.537.144.79.253l-.715 2.764Z"/><g clip-path="url(#a)"><path fill="#D8D8D8" stroke="#8F8F8F" stroke-width="1.137" d="M16.687 8.473c0 4.365-3.543 7.904-7.914 7.904-4.37 0-7.913-3.54-7.913-7.904C.86 4.108 4.402.569 8.773.569c4.372 0 7.914 3.54 7.914 7.904Z"/><path fill="#5E5E5E" d="M9.667 7.58a2.544 2.544 0 0 0-3.504-.087l-.092.087-1.438 1.437a2.539 2.539 0 0 0 1.703 4.333 2.545 2.545 0 0 0 1.8-.653l.092-.087 1.08-1.079a.508.508 0 0 0-.672-.76l-.048.042-1.079 1.078a1.527 1.527 0 0 1-2.606-1.002 1.523 1.523 0 0 1 .38-1.08l.069-.073L6.79 8.299a1.526 1.526 0 0 1 2.158 0 .509.509 0 0 0 .72-.719Zm3.237-3.233A2.544 2.544 0 0 0 9.4 4.26l-.092.087-1.08 1.079a.508.508 0 0 0 .672.76l.048-.042 1.079-1.078a1.527 1.527 0 0 1 2.599 1.003c.02.394-.113.781-.373 1.079l-.068.073-1.44 1.437a1.526 1.526 0 0 1-2.157 0 .509.509 0 0 0-.72.718 2.545 2.545 0 0 0 3.505.088l.093-.088 1.438-1.437a2.539 2.539 0 0 0 0-3.592Z"/></g><defs><clipPath id="a"><path fill="#fff" d="M17.258.001H.293v16.946h16.965z"/></clipPath></defs></svg>