<svg xmlns="http://www.w3.org/2000/svg" width="65" height="13" fill="none"><g clip-path="url(#a)"><g clip-path="url(#b)"><path fill="#787878" d="M64.838 5.16h-4.652L58.744.65l-1.442 4.51H52.65l3.758 2.782-1.422 4.49 3.758-2.784 3.758 2.783-1.442-4.51 3.778-2.762Z"/><path fill="#FFCE31" d="M60.807 5.16h-.62L58.743.65l-1.442 4.51H52.65l3.758 2.782-1.422 4.49 3.758-2.784 2.063 1.532V5.159Z"/></g><g clip-path="url(#c)"><path fill="#FFCE31" d="M12.594 5.119H7.942L6.5.609 5.058 5.12H.406l3.758 2.783-1.422 4.489L6.5 9.608l3.758 2.783-1.442-4.51 3.778-2.762Z"/></g><g clip-path="url(#d)"><path fill="#FFCE31" d="M25.594 5.119h-4.652L19.5.609l-1.442 4.51h-4.652l3.758 2.783-1.422 4.489L19.5 9.608l3.758 2.783-1.442-4.51 3.778-2.762Z"/></g><g clip-path="url(#e)"><path fill="#FFCE31" d="M38.594 5.119h-4.652L32.5.609l-1.442 4.51h-4.652l3.758 2.783-1.422 4.489L32.5 9.608l3.758 2.783-1.442-4.51 3.778-2.762Z"/></g><g clip-path="url(#f)"><path fill="#FFCE31" d="M51.594 5.119h-4.652L45.5.609l-1.442 4.51h-4.652l3.758 2.783-1.422 4.489L45.5 9.608l3.758 2.783-1.442-4.51 3.778-2.762Z"/></g></g><defs><clipPath id="a"><path fill="#fff" d="M0 0h65v13H0z"/></clipPath><clipPath id="b"><path fill="#fff" d="M52 0h13v13H52z"/></clipPath><clipPath id="c"><path fill="#fff" d="M0 0h13v13H0z"/></clipPath><clipPath id="d"><path fill="#fff" d="M13 0h13v13H13z"/></clipPath><clipPath id="e"><path fill="#fff" d="M26 0h13v13H26z"/></clipPath><clipPath id="f"><path fill="#fff" d="M39 0h13v13H39z"/></clipPath></defs></svg>