<svg xmlns="http://www.w3.org/2000/svg" width="205" height="26" fill="none"><g clip-path="url(#a)"><path fill="#C2C2C2" d="M24.055 17.58C8.738 22.37 7.32 6.19 14.667 2.48 6.782 1.997.995 11.205 5.533 18.6c4.208 6.857 14.722 6.319 18.522-1.02Z"/><ellipse cx="12.253" cy="2.457" stroke="#999" stroke-width=".908" rx="12.253" ry="2.457" transform="rotate(-35.219 33.026 10.483) skewX(.06)"/><path fill="#C2C2C2" d="M5.533 18.6C.995 11.205 6.782 1.997 14.667 2.48c-4.743 2.396-5.833 9.988-1.889 13.78L5.533 18.6Z"/></g><path fill="#8F8F8F" d="M38.092 22.373c-1.31 0-2.491-.228-3.544-.684a6.693 6.693 0 0 1-2.587-1.952c-.671-.854-1.098-1.865-1.28-3.034l3.108-.473c.266 1.061.809 1.882 1.63 2.462.829.58 1.782.87 2.86.87a5.38 5.38 0 0 0 1.803-.298c.563-.199 1.02-.489 1.367-.87.357-.382.535-.85.535-1.405 0-.25-.041-.477-.124-.684a1.627 1.627 0 0 0-.373-.572 2.307 2.307 0 0 0-.622-.448 4.232 4.232 0 0 0-.87-.36l-4.626-1.369c-.398-.116-.83-.269-1.294-.46a5.574 5.574 0 0 1-1.305-.808 4.16 4.16 0 0 1-1.008-1.318c-.256-.539-.385-1.202-.385-1.99 0-1.152.29-2.118.87-2.897.59-.788 1.377-1.376 2.363-1.766.995-.39 2.098-.58 3.308-.572 1.227.008 2.321.22 3.283.634a6.236 6.236 0 0 1 2.412 1.779c.647.779 1.103 1.72 1.368 2.822l-3.22.56c-.133-.63-.39-1.165-.772-1.604a3.597 3.597 0 0 0-1.38-1.02 4.644 4.644 0 0 0-3.395-.1c-.505.183-.916.448-1.23.796-.308.349-.46.755-.46 1.22 0 .438.132.8.397 1.081.265.274.593.493.982.66.398.157.8.29 1.207.397l3.208.895c.44.116.933.274 1.48.473a6.722 6.722 0 0 1 1.579.833c.506.357.92.825 1.243 1.405.332.58.498 1.318.498 2.214 0 .928-.195 1.745-.585 2.45a5.13 5.13 0 0 1-1.554 1.74 7.11 7.11 0 0 1-2.25 1.045 9.825 9.825 0 0 1-2.637.348ZM48.058 22V4.093h11.565v2.81h-8.568v4.415h7.076v2.81h-7.076v5.062h8.568V22H48.058Zm14.797 0V4.093h3.034l8.307 12.622V4.093h3.034V22h-3.034L65.89 9.378V22h-3.034Zm22.403 0V6.904h-5.795v-2.81h14.586v2.81h-5.794V22h-2.997Zm11.028 0V4.093h7.399c.174 0 .398.009.672.025.273.008.526.033.758.075 1.037.157 1.891.501 2.562 1.032a4.729 4.729 0 0 1 1.505 2.014c.331.805.497 1.7.497 2.686 0 1.46-.369 2.715-1.107 3.768-.737 1.045-1.869 1.691-3.394 1.94l-1.281.112h-4.614V22h-2.997Zm10.284 0-3.531-7.287 3.046-.671 3.88 7.958h-3.395Zm-7.287-9.053h4.278c.166 0 .352-.008.56-.025.207-.016.398-.05.572-.1.497-.123.887-.343 1.169-.658.29-.315.493-.672.609-1.07.124-.398.186-.787.186-1.169 0-.38-.062-.77-.186-1.168a2.653 2.653 0 0 0-.609-1.082c-.282-.315-.672-.535-1.169-.66a2.435 2.435 0 0 0-.572-.086 7.105 7.105 0 0 0-.56-.025h-4.278v6.043ZM116.966 22v-7.337l-6.093-10.57h3.494l4.116 7.138 4.103-7.138h3.495L120 14.663V22h-3.034Zm15.083 0V4.093h11.565v2.81h-8.568v4.415h7.076v2.81h-7.076v5.062h8.568V22h-11.565Zm21.987.373c-1.79 0-3.324-.39-4.601-1.169-1.276-.787-2.259-1.882-2.947-3.283-.68-1.4-1.019-3.026-1.019-4.874 0-1.849.339-3.474 1.019-4.875.688-1.401 1.671-2.491 2.947-3.27 1.277-.788 2.811-1.182 4.601-1.182 2.065 0 3.785.518 5.161 1.555 1.376 1.028 2.342 2.416 2.897 4.165l-3.021.834c-.348-1.17-.941-2.081-1.779-2.736-.837-.663-1.923-.995-3.258-.995-1.202 0-2.205.27-3.009.808-.796.54-1.397 1.298-1.803 2.276-.398.97-.601 2.11-.609 3.42 0 1.31.199 2.454.597 3.432.406.97 1.011 1.724 1.815 2.263.804.539 1.807.808 3.009.808 1.335 0 2.421-.331 3.258-.995.838-.663 1.431-1.575 1.779-2.735l3.021.833c-.555 1.75-1.521 3.142-2.897 4.178-1.376 1.028-3.096 1.542-5.161 1.542Zm18.859 0c-1.79 0-3.324-.39-4.601-1.169-1.277-.787-2.259-1.882-2.947-3.283-.68-1.4-1.02-3.026-1.02-4.874 0-1.849.34-3.474 1.02-4.875.688-1.401 1.67-2.491 2.947-3.27 1.277-.788 2.811-1.182 4.601-1.182 1.791 0 3.325.394 4.601 1.182 1.285.779 2.268 1.869 2.947 3.27.688 1.401 1.032 3.026 1.032 4.875 0 1.848-.344 3.473-1.032 4.874-.679 1.401-1.662 2.496-2.947 3.283-1.276.78-2.81 1.17-4.601 1.17Zm0-2.823c1.202.009 2.201-.257 2.997-.796.804-.538 1.405-1.297 1.803-2.275.406-.978.609-2.122.609-3.432s-.203-2.446-.609-3.408c-.398-.97-.999-1.724-1.803-2.263-.796-.539-1.795-.816-2.997-.833-1.202-.008-2.201.257-2.997.796-.796.539-1.397 1.297-1.803 2.276-.398.978-.597 2.122-.597 3.432s.199 2.45.597 3.42c.398.961.995 1.711 1.791 2.25.804.539 1.807.817 3.009.833ZM184.448 22V4.093h2.699l6.192 12.684 6.193-12.684h2.698V22h-2.798V10.522L193.936 22h-1.194l-5.484-11.478V22h-2.81Z"/><defs><clipPath id="a"><path fill="#fff" d="M0 .987h24.053v24.027H0z"/></clipPath></defs></svg>