<svg xmlns="http://www.w3.org/2000/svg" width="381" height="643" fill="none"><rect width="353" height="579" x="28" y="64" fill="#E9EFFC" rx="10"/><path fill="#F5FAFA" d="M42 82h326v545H42z"/><rect width="312" height="105" x="48.5" y="136.5" stroke="#EFF2F7" rx="9.5"/><g filter="url(#a)"><rect width="70" height="70" x="66" y="154" fill="#0F8CE9" rx="10"/></g><path fill="#DBE5FA" d="M117.945 169.213a1.254 1.254 0 0 1 .555 1.037V189a1.246 1.246 0 0 1-.785 1.16l-.465-1.16.465 1.16-.008.003-.015.007-.057.023c-.329.13-.66.255-.993.374-.66.238-1.577.558-2.617.876-2.04.63-4.698 1.307-6.775 1.307-2.118 0-3.87-.7-5.395-1.312l-.07-.025c-1.585-.638-2.935-1.163-4.535-1.163-1.75 0-4.095.575-6.093 1.193a48.87 48.87 0 0 0-2.657.912v15.395a1.25 1.25 0 1 1-2.5 0v-37.5a1.25 1.25 0 0 1 2.5 0v.705a54.08 54.08 0 0 1 1.975-.65c2.04-.625 4.7-1.305 6.775-1.305 2.1 0 3.81.692 5.302 1.297l.108.046c1.555.627 2.91 1.157 4.59 1.157 1.75 0 4.095-.575 6.092-1.192a48.868 48.868 0 0 0 3.373-1.191l.047-.017.01-.005h.003"/><rect width="190" height="10" x="166" y="211" fill="#DBE5FA" rx="5"/><rect width="92" height="10" x="166" y="211" fill="#2196F3" rx="5"/><rect width="104" height="6" x="166" y="189" fill="#DBE5FA" rx="3"/><rect width="190" height="16" x="166" y="157" fill="#DBE5FA" rx="8"/><rect width="312" height="105" x="48.5" y="388.5" stroke="#EFF2F7" rx="9.5"/><g filter="url(#b)"><rect width="70" height="70" x="66" y="406" fill="#2DC8A8" rx="10"/></g><mask id="c" width="40" height="40" x="81" y="421" maskUnits="userSpaceOnUse" style="mask-type:alpha"><path fill="#D9D9D9" d="M81 421h40v40H81z"/></mask><g mask="url(#c)"><path fill="#DEF8ED" d="M91.833 445.958v-1.666h-4.166v-3.334H96v-3.333h-6.667c-.472 0-.868-.159-1.188-.478a1.617 1.617 0 0 1-.478-1.189v-6.666c0-.472.16-.869.478-1.189a1.62 1.62 0 0 1 1.188-.478h2.5v-1.667h3.334v1.667h4.166v3.333H91v3.334h6.667c.472 0 .868.159 1.188.478.319.32.478.716.478 1.188v6.667c0 .472-.159.868-.478 1.188-.32.319-.716.479-1.188.479h-2.5v1.666h-3.334Zm12.417 10-7.083-7.083 2.333-2.333 4.75 4.75 9.417-9.417 2.333 2.333-11.75 11.75Z"/></g><rect width="190" height="10" x="166" y="463" fill="#DEF8ED" rx="5"/><rect width="92" height="10" x="166" y="463" fill="#2DC8A8" rx="5"/><rect width="104" height="6" x="166" y="441" fill="#DEF8ED" rx="3"/><rect width="190" height="16" x="166" y="409" fill="#DEF8ED" rx="8"/><rect width="312" height="105" x="48.5" y="514.5" stroke="#EFF2F7" rx="9.5"/><g filter="url(#d)"><rect width="70" height="70" x="66" y="532" fill="#FAAD13" rx="10"/></g><path fill="#DEF8ED" d="M96.264 551c-4.192 0-7.6 3.408-7.6 7.6 0 4.112 3.216 7.44 7.408 7.584a1.29 1.29 0 0 1 .352 0h.112a7.58 7.58 0 0 0 7.328-7.584c0-4.192-3.408-7.6-7.6-7.6Zm8.128 19.44c-4.464-2.976-11.744-2.976-16.24 0-2.032 1.36-3.152 3.2-3.152 5.168s1.12 3.792 3.136 5.136c2.24 1.504 5.184 2.256 8.128 2.256s5.888-.752 8.128-2.256c2.016-1.36 3.136-3.184 3.136-5.168-.016-1.968-1.12-3.792-3.136-5.136Zm9.456-10.896c.256 3.104-1.952 5.824-5.008 6.192h-.08c-.096 0-.192 0-.272.032-1.552.08-2.976-.416-4.048-1.328 1.648-1.472 2.592-3.68 2.4-6.08a7.425 7.425 0 0 0-1.232-3.488 5.719 5.719 0 0 1 2.032-.56c3.136-.272 5.936 2.064 6.208 5.232Z"/><path fill="#DEF8ED" d="M117.048 574.344c-.128 1.552-1.12 2.896-2.784 3.808-1.6.88-3.616 1.296-5.616 1.248 1.152-1.04 1.824-2.336 1.952-3.712.16-1.984-.784-3.888-2.672-5.408-1.072-.848-2.32-1.52-3.68-2.016 3.536-1.024 7.984-.336 10.72 1.872 1.472 1.184 2.224 2.672 2.08 4.208Z"/><rect width="190" height="10" x="166" y="589" fill="#FFF2D9" rx="5"/><rect width="92" height="10" x="166" y="589" fill="#F90" rx="5"/><rect width="104" height="6" x="166" y="567" fill="#FFF2D9" rx="3"/><rect width="190" height="16" x="166" y="535" fill="#FFF2D9" rx="8"/><g filter="url(#e)"><rect width="101" height="32" x="6" y="539.03" fill="#fff" rx="16" transform="rotate(-20.294 6 539.03)"/><path fill="#183B56" d="m30.194 550.104-1.665-4.503.896-.331 1.665 4.503-.896.331Zm-2.47-1.139-.33-.892 4.504-1.665.33.892-4.503 1.665Zm7.188-7.057 2.522 6.821-1.032.382-2.14-5.788-.04.014-1.239 1.67-.364-.986 1.29-1.742 1.003-.371Zm1.938-.717 1.25-.462 4.132 4.5.08-.03.21-6.105 1.25-.462 2.522 6.821-.98.362-1.825-4.936-.063.024-.19 5.67-.813.3-3.834-4.185-.063.023 1.826 4.94-.98.362-2.522-6.822Zm13.422 2.791-2.522-6.821 4.23-1.564.328.886-3.201 1.183.769 2.079 2.897-1.072.327.883-2.898 1.071 1.1 2.975-1.03.38Zm7.234-2.557c-.48.177-.939.222-1.378.134a2.366 2.366 0 0 1-1.174-.614c-.343-.323-.613-.748-.808-1.276-.197-.531-.27-1.032-.219-1.502a2.36 2.36 0 0 1 .49-1.234c.277-.352.655-.617 1.134-.794.48-.177.94-.222 1.378-.135.439.088.83.294 1.175.618.345.325.615.752.811 1.283.196.528.268 1.027.216 1.495a2.373 2.373 0 0 1-.491 1.231c-.277.352-.654.616-1.134.794Zm-.306-.838c.31-.114.538-.292.682-.532.143-.24.213-.514.21-.823a2.78 2.78 0 0 0-.184-.958 2.763 2.763 0 0 0-.482-.844c-.2-.24-.433-.405-.698-.496-.266-.091-.555-.079-.866.036-.313.116-.542.295-.687.538-.142.242-.213.52-.21.832.003.309.065.627.185.953.122.329.282.612.48.849.201.236.434.398.7.487.267.088.557.074.87-.042Zm2.238-7.748 2.522 6.821-.996.369-2.522-6.822.996-.368Zm2.335-.864 2.523 6.822-.996.368-2.523-6.821.996-.369Zm6.056 5.633c-.48.177-.94.222-1.378.134a2.36 2.36 0 0 1-1.174-.615c-.344-.322-.613-.747-.809-1.276-.196-.53-.269-1.031-.218-1.501.05-.471.214-.882.49-1.234s.654-.617 1.134-.794c.48-.178.939-.222 1.378-.135.438.088.83.294 1.175.618.344.325.615.752.81 1.283.196.528.268 1.027.217 1.495a2.376 2.376 0 0 1-.492 1.231c-.276.352-.654.616-1.133.794Zm-.306-.838c.31-.115.538-.292.681-.532a1.54 1.54 0 0 0 .21-.824 2.785 2.785 0 0 0-.183-.958 2.77 2.77 0 0 0-.483-.843 1.56 1.56 0 0 0-.698-.496c-.266-.091-.554-.079-.865.036-.313.116-.542.295-.687.538a1.586 1.586 0 0 0-.211.832c.003.309.065.627.186.953.121.329.282.612.48.849.201.236.434.398.7.487.266.088.557.074.87-.042Zm4.717-.911-3.397-4.559 1.03-.381 2.391 3.386.05-.018-.383-4.129 1.029-.381 2.382 3.371.05-.018-.387-4.109 1.029-.381.39 5.672-1.016.376-2.405-3.31-.077.028.327 4.078-1.013.375Zm8.718-3.107c-.504.187-.978.24-1.421.159a2.339 2.339 0 0 1-1.179-.606c-.341-.323-.61-.749-.806-1.28-.194-.524-.267-1.022-.22-1.494.05-.473.21-.887.48-1.241.273-.356.647-.622 1.122-.798a2.7 2.7 0 0 1 .892-.167c.306-.004.605.056.896.18.29.125.559.327.804.608.244.278.452.649.623 1.113l.131.353-4.067 1.504-.276-.746 3.091-1.143a1.57 1.57 0 0 0-.417-.637 1.294 1.294 0 0 0-.628-.317 1.334 1.334 0 0 0-.738.073c-.28.103-.499.262-.657.477-.156.212-.25.449-.282.71-.03.259.001.516.095.771l.216.583c.126.342.294.611.502.806.211.195.449.315.713.362.264.043.541.012.832-.096.189-.07.351-.16.487-.271a1.143 1.143 0 0 0 .423-.894l1.005-.179c.027.305-.019.599-.137.88a2.1 2.1 0 0 1-.55.752 2.89 2.89 0 0 1-.934.538Zm3.262-1.323-1.892-5.116.963-.356.3.813.054-.02a1.32 1.32 0 0 1 .252-.832 1.51 1.51 0 0 1 .718-.538 4.888 4.888 0 0 1 .431-.133l.353.953c-.044.004-.12.018-.227.042a2.114 2.114 0 0 0-.315.09 1.387 1.387 0 0 0-.574.383 1.187 1.187 0 0 0-.222 1.221l1.155 3.125-.996.368Zm6.003-6.616-.843.494a1.13 1.13 0 0 0-.302-.263.95.95 0 0 0-.421-.136 1.261 1.261 0 0 0-.553.091c-.282.104-.494.255-.636.451-.143.194-.178.39-.105.588.063.17.178.285.343.342.165.058.4.068.707.03l.882-.114c.511-.065.924-.027 1.239.114.314.141.538.393.672.754.114.307.126.613.037.918a1.86 1.86 0 0 1-.53.832 2.911 2.911 0 0 1-1.013.606c-.573.212-1.086.263-1.538.152-.453-.112-.805-.38-1.054-.803l.908-.502a.982.982 0 0 0 .58.433c.234.057.5.031.8-.08.327-.121.563-.285.708-.493.144-.21.18-.414.107-.611a.559.559 0 0 0-.329-.337c-.158-.065-.37-.08-.634-.045l-.936.13c-.518.068-.935.025-1.251-.128-.315-.154-.54-.413-.674-.777a1.375 1.375 0 0 1-.04-.886c.085-.289.253-.552.504-.788.25-.239.567-.43.95-.572.554-.204 1.033-.245 1.44-.123.405.12.732.361.982.723Z"/></g><mask id="f" width="21" height="21" x="82" y="502" maskUnits="userSpaceOnUse" style="mask-type:alpha"><path fill="#FF4E39" d="m82.18 507.734 15.007-5.549 5.549 15.008-15.008 5.548z"/></mask><g mask="url(#f)"><path fill="#FF4E39" d="m94.538 518.091-1.207-.478c-2.176-.854-3.945-1.642-5.308-2.364s-2.266-1.683-2.709-2.881c-.362-.98-.336-1.919.078-2.819.413-.899 1.11-1.53 2.09-1.892a3.805 3.805 0 0 1 1.693-.226 3.97 3.97 0 0 1 1.606.499 3.973 3.973 0 0 1 .895-1.424 3.81 3.81 0 0 1 1.434-.929c.98-.363 1.919-.337 2.818.077.9.414 1.53 1.111 1.892 2.09.443 1.199.382 2.515-.183 3.95s-1.396 3.185-2.493 5.249l-.606 1.148Zm-.624-1.688c.99-1.906 1.764-3.519 2.324-4.84.56-1.32.67-2.439.332-3.356-.232-.626-.633-1.07-1.204-1.332-.57-.263-1.169-.279-1.794-.048-.49.181-.892.487-1.207.917-.315.43-.471.888-.47 1.373l-1.188.44c-.314-.37-.73-.616-1.25-.738a2.574 2.574 0 0 0-1.513.089c-.625.231-1.07.632-1.332 1.203-.263.571-.278 1.169-.047 1.794.339.918 1.15 1.695 2.436 2.334 1.284.639 2.921 1.36 4.913 2.164Z"/></g><mask id="g" width="6" height="6" x="78" y="506" maskUnits="userSpaceOnUse" style="mask-type:alpha"><path fill="#FF4E39" d="m78.403 508.351 3.426-2.065 2.065 3.426-3.426 2.065z"/></mask><g mask="url(#g)"><path fill="#FF4E39" d="m81.923 510.316-.319-.061a13.427 13.427 0 0 1-1.414-.332c-.368-.114-.635-.307-.8-.581a.888.888 0 0 1-.113-.696.888.888 0 0 1 .425-.562.998.998 0 0 1 .823-.088.99.99 0 0 1 .461-.687.894.894 0 0 1 1.259.312c.165.274.211.6.14.979a13.29 13.29 0 0 1-.367 1.406l-.095.31Zm-.232-.386c.153-.514.268-.946.344-1.297.076-.35.05-.63-.076-.84a.564.564 0 0 0-.358-.27.565.565 0 0 0-.442.072.64.64 0 0 0-.254.282.567.567 0 0 0-.051.359l-.271.163a.563.563 0 0 0-.342-.122.643.643 0 0 0-.367.092.567.567 0 0 0-.198.801c.126.209.361.362.707.459.345.097.781.197 1.308.301Z"/></g><mask id="h" width="6" height="6" x="80" y="499" maskUnits="userSpaceOnUse" style="mask-type:alpha"><path fill="#FF4E39" d="m80.943 500.024 3.979-.41.41 3.979-3.98.41z"/></mask><g mask="url(#h)"><path fill="#FF4E39" d="m83.291 503.301-.263-.191a13.152 13.152 0 0 1-1.138-.903c-.285-.26-.444-.548-.476-.866a.889.889 0 0 1 .194-.678.889.889 0 0 1 .624-.328.986.986 0 0 1 .782.272.992.992 0 0 1 .305-.29.958.958 0 0 1 .405-.135.883.883 0 0 1 .677.194.887.887 0 0 1 .329.623c.032.318-.064.633-.29.945a13.08 13.08 0 0 1-.93 1.116l-.219.241Zm-.046-.448c.358-.4.646-.742.864-1.027.218-.285.314-.549.289-.792a.566.566 0 0 0-.64-.521.638.638 0 0 0-.35.147.57.57 0 0 0-.198.303l-.316.033a.57.57 0 0 0-.256-.257.645.645 0 0 0-.372-.072.566.566 0 0 0-.52.64c.024.243.173.482.444.716.271.235.623.511 1.055.83Z"/></g><rect width="347" height="105" x="20.5" y="262.5" fill="#fff" stroke="#EFF2F7" rx="9.5"/><g filter="url(#i)"><rect width="70" height="70" x="38" y="280" fill="#fff" rx="10"/></g><g fill="#2196F3" clip-path="url(#j)"><path d="M79.95 311.553h-13.9a1.428 1.428 0 1 0 0 2.856v.952a1.429 1.429 0 1 0 2.856 0v-.952h8.188v.952a1.429 1.429 0 1 0 2.856 0v-.952a1.428 1.428 0 1 0 0-2.856ZM73 304.888a2.856 2.856 0 0 0-2.857 2.856h5.713A2.857 2.857 0 0 0 73 304.888Z"/><path d="M73 295c-11.046 0-20 8.954-20 20s8.954 20 20 20 20-8.954 20-20-8.954-20-20-20Zm12.187 28.55a2.856 2.856 0 0 1-2.856 2.856H63.669a2.856 2.856 0 0 1-2.857-2.856v-12.949a2.857 2.857 0 0 1 2.857-2.857h3.618a5.713 5.713 0 0 1 11.426 0h3.618a2.857 2.857 0 0 1 2.856 2.857v12.949Z"/></g><rect width="228" height="10" x="138" y="337" fill="#DBE5FA" rx="5"/><rect width="163.2" height="10" x="138" y="337" fill="#2196F3" rx="5"/><rect width="124.8" height="6" x="138" y="315" fill="#DBE5FA" rx="3"/><rect width="228" height="16" x="138" y="283" fill="#DBE5FA" rx="8"/><g clip-path="url(#k)"><g clip-path="url(#l)" filter="url(#m)"><rect width="303" height="113" x="49" fill="#fff" rx="6"/></g><path fill="#323C47" d="M90.176 34.818 88.486 45h-1.412l-3.932-7.467h-.09L81.804 45h-1.536l1.69-10.182h1.422l3.938 7.477h.094l1.243-7.477h1.521Zm5.796 7.015.746-4.47h1.491L96.937 45h-1.462l.224-1.322h-.08a2.952 2.952 0 0 1-1.014 1.019c-.434.268-.938.402-1.511.402-.491 0-.907-.107-1.248-.323-.338-.219-.579-.542-.721-.97-.143-.427-.163-.955-.06-1.585l.816-4.857h1.486l-.78 4.678c-.083.52-.006.935.233 1.243.239.308.587.462 1.044.462.278 0 .567-.07.865-.209.299-.139.562-.35.79-.631.233-.282.383-.64.453-1.074ZM98.94 45l1.273-7.636h1.426l-.208 1.242h.094c.232-.42.547-.748.945-.984a2.611 2.611 0 0 1 1.362-.358c.504 0 .91.12 1.218.358.312.239.515.567.611.984h.08a2.66 2.66 0 0 1 1.029-.979 3.038 3.038 0 0 1 1.487-.363c.686 0 1.213.219 1.581.656.371.435.483 1.088.338 1.96L109.32 45h-1.492l.835-4.981c.083-.52.004-.895-.238-1.124-.242-.232-.559-.348-.95-.348-.484 0-.885.149-1.203.447a1.907 1.907 0 0 0-.587 1.139l-.82 4.867h-1.477l.851-5.076c.066-.418-.01-.75-.229-1-.216-.251-.53-.377-.945-.377-.281 0-.555.074-.82.224a2.135 2.135 0 0 0-1.034 1.521L100.425 45h-1.486Zm12.487 0 1.691-10.182h1.486l-.621 3.784h.089c.113-.16.267-.343.463-.552.198-.21.455-.391.77-.547.315-.16.709-.239 1.183-.239.617 0 1.14.156 1.571.467.431.312.736.761.915 1.348.179.587.201 1.292.065 2.118-.136.825-.391 1.533-.766 2.123-.371.586-.823 1.039-1.357 1.357a3.338 3.338 0 0 1-1.725.472c-.464 0-.831-.078-1.099-.233a1.722 1.722 0 0 1-.597-.547 3.844 3.844 0 0 1-.293-.557h-.124l-.2 1.188h-1.452Zm2.093-3.818c-.086.537-.086 1.007 0 1.412.09.404.264.72.522.95.262.225.605.337 1.029.337.445 0 .836-.117 1.174-.353.338-.238.616-.561.835-.97a4.45 4.45 0 0 0 .457-1.376c.08-.504.078-.956-.005-1.357-.082-.402-.255-.718-.517-.95-.258-.232-.611-.348-1.059-.348-.43 0-.813.111-1.148.333a2.57 2.57 0 0 0-.83.93 4.29 4.29 0 0 0-.458 1.392Zm9.823 3.972c-.749 0-1.369-.16-1.859-.482a2.564 2.564 0 0 1-1.025-1.367c-.195-.59-.227-1.281-.094-2.074.129-.782.389-1.471.78-2.068a4.303 4.303 0 0 1 1.462-1.397 3.856 3.856 0 0 1 1.944-.502c.431 0 .837.072 1.218.214.385.142.711.366.979.671.269.305.455.701.557 1.188.106.484.103 1.073-.01 1.765l-.084.527h-6.075l.174-1.113h4.613c.07-.392.052-.738-.055-1.04a1.405 1.405 0 0 0-.546-.72c-.256-.176-.577-.264-.965-.264a2.12 2.12 0 0 0-1.114.313 2.902 2.902 0 0 0-.865.8 2.446 2.446 0 0 0-.432.995l-.174 1.02c-.086.556-.071 1.004.045 1.342.119.338.328.583.626.735.298.153.671.23 1.119.23.288 0 .555-.04.8-.12.249-.083.469-.204.661-.363.193-.163.353-.365.483-.607l1.362.254a3.215 3.215 0 0 1-.786 1.089 3.704 3.704 0 0 1-1.208.72 4.418 4.418 0 0 1-1.531.254Zm4.973-.154 1.272-7.636h1.437l-.204 1.213h.08c.205-.411.505-.734.9-.97a2.397 2.397 0 0 1 1.263-.358 6.911 6.911 0 0 1 .626.035l-.239 1.422a2.387 2.387 0 0 0-.308-.055 3 3 0 0 0-.462-.035c-.348 0-.671.075-.97.224-.298.146-.548.35-.75.612a1.98 1.98 0 0 0-.393.885L129.801 45h-1.486Zm12.357.154c-.726 0-1.333-.166-1.82-.497-.487-.335-.83-.802-1.029-1.402-.196-.603-.229-1.304-.1-2.103.126-.782.38-1.465.761-2.048a4.116 4.116 0 0 1 1.442-1.358 3.923 3.923 0 0 1 1.934-.482c.726 0 1.331.168 1.814.502.488.335.831.804 1.03 1.407.198.603.233 1.306.104 2.108-.126.776-.383 1.455-.771 2.039a4.129 4.129 0 0 1-1.441 1.352 3.884 3.884 0 0 1-1.924.482Zm.084-1.248a2.1 2.1 0 0 0 1.248-.378c.358-.252.65-.586.875-1.004.225-.418.38-.875.462-1.372a3.7 3.7 0 0 0-.005-1.318c-.076-.4-.242-.722-.497-.964s-.61-.363-1.064-.363c-.477 0-.896.128-1.257.383-.358.252-.65.588-.875 1.01-.223.42-.373.88-.453 1.376a3.828 3.828 0 0 0 0 1.318c.076.398.242.716.497.954.255.239.612.358 1.069.358Zm10.007-6.542-.194 1.193h-4.316l.194-1.193h4.316ZM146.358 45l1.422-8.521c.073-.478.24-.874.502-1.188a2.42 2.42 0 0 1 .949-.711 2.928 2.928 0 0 1 1.164-.24c.298 0 .548.026.751.075.205.047.354.09.447.13l-.542 1.203a7.128 7.128 0 0 0-.253-.07 1.415 1.415 0 0 0-.388-.044c-.362 0-.635.089-.821.268-.182.179-.304.438-.367.776L147.844 45h-1.486Zm8.371 0 1.273-7.636h1.486L156.215 45h-1.486Zm2.327-8.83a.911.911 0 0 1-.657-.258.79.79 0 0 1-.243-.627.878.878 0 0 1 .308-.626.963.963 0 0 1 .671-.263.88.88 0 0 1 .651.263.795.795 0 0 1 .249.627.89.89 0 0 1-.308.626.963.963 0 0 1-.671.258Zm3.396 4.296L159.707 45h-1.487l1.273-7.636h1.427l-.209 1.242h.094c.242-.407.572-.732.99-.974.421-.245.918-.368 1.491-.368.517 0 .951.11 1.303.328.354.216.605.537.75.965.15.427.173.956.07 1.586L164.594 45h-1.487l.781-4.678c.089-.554.016-.986-.219-1.298-.232-.315-.602-.472-1.109-.472a2.015 2.015 0 0 0-1.7.88c-.199.285-.335.63-.408 1.034Zm8.979 4.683c-.62 0-1.145-.157-1.576-.472-.427-.318-.731-.77-.91-1.357-.175-.59-.195-1.298-.059-2.123.139-.826.396-1.532.77-2.118.375-.587.829-1.036 1.362-1.348a3.367 3.367 0 0 1 1.726-.467c.474 0 .841.08 1.103.239.265.156.461.338.587.547.126.209.22.393.283.552h.085l.631-3.784h1.487L173.229 45h-1.451l.203-1.188h-.124a4.86 4.86 0 0 1-.482.557 2.785 2.785 0 0 1-.776.547c-.314.155-.704.233-1.168.233Zm.502-1.268a2.02 2.02 0 0 0 1.149-.338c.341-.228.624-.545.85-.95.228-.404.388-.874.477-1.411.09-.53.088-.995-.005-1.392-.093-.398-.272-.708-.537-.93-.265-.222-.615-.333-1.049-.333-.447 0-.837.116-1.168.348a2.642 2.642 0 0 0-.816.95 4.527 4.527 0 0 0-.437 1.357c-.086.51-.09.97-.01 1.377.08.408.247.73.502.97.255.235.603.352 1.044.352Zm10.777-2.048.746-4.47h1.492L181.675 45h-1.462l.224-1.322h-.08a2.942 2.942 0 0 1-1.014 1.019c-.434.268-.938.402-1.511.402-.491 0-.907-.107-1.248-.323-.338-.219-.578-.542-.721-.97-.142-.427-.162-.955-.06-1.585l.816-4.857h1.486l-.78 4.678c-.083.52-.005.935.233 1.243.239.308.587.462 1.044.462.279 0 .567-.07.865-.209.299-.139.562-.35.791-.631.232-.282.383-.64.452-1.074Zm9.649-2.605-1.387.239a1.432 1.432 0 0 0-.184-.498.979.979 0 0 0-.413-.377c-.185-.1-.432-.15-.74-.15-.428 0-.803.098-1.124.294-.318.195-.501.444-.547.745-.043.246.015.445.174.597.159.15.439.274.84.373l1.174.278c.676.163 1.16.416 1.451.761.295.341.398.786.309 1.332a2.34 2.34 0 0 1-.597 1.209 3.241 3.241 0 0 1-1.223.825 4.436 4.436 0 0 1-1.661.298c-.868 0-1.544-.184-2.028-.552-.484-.368-.732-.888-.746-1.56l1.472-.22c.026.375.161.658.403.85.245.19.585.284 1.019.284.497.003.913-.101 1.248-.313.334-.212.525-.47.571-.77.04-.236-.013-.432-.159-.587-.142-.156-.394-.276-.755-.358l-1.233-.284c-.69-.162-1.177-.424-1.462-.785-.285-.362-.381-.816-.288-1.363.073-.447.261-.836.566-1.168a3.116 3.116 0 0 1 1.169-.78c.47-.19.991-.284 1.561-.284.832 0 1.456.18 1.874.537.418.355.656.83.716 1.427Zm5.656-1.864-.193 1.193h-4.172l.194-1.193h4.171Zm-2.754-1.83h1.487l-1.203 7.224c-.047.288-.039.505.024.651a.53.53 0 0 0 .289.293c.132.05.28.075.442.075.12 0 .224-.008.313-.025l.214-.04.08 1.228c-.1.034-.234.067-.403.1a3.08 3.08 0 0 1-.607.06 2.383 2.383 0 0 1-1.058-.21 1.484 1.484 0 0 1-.706-.675c-.156-.305-.194-.688-.115-1.149l1.243-7.532ZM196.387 45l1.273-7.636h1.437l-.204 1.213h.079a2.32 2.32 0 0 1 .9-.97 2.4 2.4 0 0 1 1.263-.358 6.911 6.911 0 0 1 .626.035l-.238 1.422a2.412 2.412 0 0 0-.309-.055 3 3 0 0 0-.462-.035c-.348 0-.671.075-.969.224-.299.146-.549.35-.751.612a1.99 1.99 0 0 0-.393.885L197.874 45h-1.487Zm6.105 2.864c-.225 0-.426-.019-.601-.055a1.782 1.782 0 0 1-.393-.11l.567-1.218c.261.073.495.102.701.085.208-.017.404-.103.586-.259.183-.155.368-.4.557-.735l.278-.502-1.496-7.706h1.531l.945 5.94h.079l2.924-5.94h1.655l-4.579 8.645c-.215.411-.46.753-.735 1.024a2.755 2.755 0 0 1-.915.622 2.85 2.85 0 0 1-1.104.209Z"/><path fill="#4DA1FF" d="M80.68 82v-1.91l5.905-6.118a32.67 32.67 0 0 0 1.56-1.748c.415-.505.724-.985.929-1.44.204-.455.307-.937.307-1.449 0-.58-.137-1.08-.41-1.5a2.674 2.674 0 0 0-1.116-.98 3.55 3.55 0 0 0-1.594-.35c-.624 0-1.17.129-1.636.384a2.628 2.628 0 0 0-1.074 1.083c-.25.466-.375 1.011-.375 1.636h-2.514c0-1.063.244-1.992.733-2.787a4.979 4.979 0 0 1 2.011-1.85c.853-.443 1.821-.664 2.907-.664 1.096 0 2.062.219 2.897.656.841.432 1.498 1.023 1.97 1.773.47.744.706 1.585.706 2.522 0 .648-.122 1.282-.366 1.901-.239.62-.656 1.31-1.253 2.071-.596.756-1.426 1.673-2.489 2.753l-3.468 3.63v.129h7.858V82H80.679Zm18.067-2.386-.128.929c-.085.681-.23 1.392-.434 2.13a32.886 32.886 0 0 1-.622 2.071c-.21.637-.384 1.142-.52 1.517h-1.807c.074-.352.176-.83.307-1.431.13-.597.258-1.265.383-2.003a26.36 26.36 0 0 0 .281-2.259l.086-.954h2.454Zm8.877 2.625c-1.222 0-2.301-.21-3.239-.631-.932-.42-1.662-1-2.19-1.739-.529-.738-.79-1.58-.784-2.522a4.439 4.439 0 0 1 1.721-3.597 3.933 3.933 0 0 1 1.79-.801v-.102a3.524 3.524 0 0 1-2.088-1.398c-.523-.722-.781-1.551-.776-2.489-.005-.892.23-1.687.708-2.386.483-.705 1.145-1.259 1.986-1.662.84-.404 1.798-.605 2.872-.605 1.062 0 2.011.204 2.846.614.841.403 1.503.957 1.986 1.661.483.7.727 1.492.733 2.378-.006.938-.273 1.767-.801 2.489a3.555 3.555 0 0 1-2.063 1.398v.102c.654.114 1.242.38 1.765.801.528.415.948.935 1.261 1.56.318.619.48 1.298.486 2.037-.006.943-.273 1.784-.801 2.522-.529.739-1.262 1.319-2.199 1.739-.932.42-2.003.63-3.213.63Zm0-2.157c.721 0 1.346-.119 1.875-.358.528-.244.937-.582 1.227-1.014.29-.437.437-.949.443-1.534-.006-.608-.165-1.145-.477-1.61a3.192 3.192 0 0 0-1.253-1.1c-.528-.267-1.134-.4-1.815-.4-.688 0-1.299.133-1.833.4a3.175 3.175 0 0 0-1.261 1.1c-.307.465-.457 1.002-.452 1.61-.005.585.134 1.097.418 1.534.29.432.702.77 1.236 1.014.534.24 1.164.358 1.892.358Zm0-8.122c.579 0 1.093-.116 1.542-.35a2.647 2.647 0 0 0 1.057-.97c.261-.416.395-.901.401-1.458-.006-.546-.137-1.023-.392-1.432-.25-.41-.6-.724-1.049-.946-.449-.227-.968-.34-1.559-.34-.603 0-1.131.113-1.586.34a2.495 2.495 0 0 0-1.048.946c-.25.41-.372.886-.366 1.432-.006.557.119 1.042.375 1.457.255.415.608.739 1.056.972.455.233.978.35 1.569.35ZM117.478 82l7.619-15.068v-.128h-8.812v-2.258h11.54v2.335L120.231 82h-2.753Zm13.31 0v-1.91l5.907-6.118c.63-.665 1.15-1.248 1.559-1.748.415-.505.725-.985.929-1.44.205-.455.307-.937.307-1.449 0-.58-.136-1.08-.409-1.5a2.678 2.678 0 0 0-1.116-.98 3.553 3.553 0 0 0-1.594-.35c-.625 0-1.171.129-1.637.384a2.632 2.632 0 0 0-1.073 1.083c-.25.466-.375 1.011-.375 1.636h-2.515c0-1.063.245-1.992.733-2.787a4.978 4.978 0 0 1 2.012-1.85c.852-.443 1.821-.664 2.906-.664 1.097 0 2.062.219 2.898.656.841.432 1.497 1.023 1.968 1.773.472.744.708 1.585.708 2.522 0 .648-.122 1.282-.367 1.901-.238.62-.656 1.31-1.252 2.071-.597.756-1.427 1.673-2.489 2.753l-3.469 3.63v.129h7.858V82h-11.489Z"/><path fill="#323C47" fill-opacity=".8" d="M153.074 78.5v-7.636h1.173V78.5h-1.173Zm.597-8.91a.835.835 0 0 1-.592-.233.752.752 0 0 1-.244-.561.75.75 0 0 1 .244-.562.835.835 0 0 1 .592-.234c.228 0 .424.078.586.234a.743.743 0 0 1 .249.562.743.743 0 0 1-.249.561.816.816 0 0 1-.586.234Zm3.899 4.316V78.5h-1.174v-7.636h1.134v1.193h.099c.179-.388.451-.7.816-.935.364-.239.835-.358 1.411-.358.517 0 .97.106 1.358.318.387.21.689.527.905.955.215.424.323.961.323 1.61V78.5h-1.174v-4.773c0-.6-.155-1.067-.467-1.402-.312-.338-.739-.507-1.283-.507-.374 0-.709.081-1.004.244a1.74 1.74 0 0 0-.691.71c-.169.312-.253.69-.253 1.134Zm13.2 4.773a3.1 3.1 0 0 1-1.317-.273 2.258 2.258 0 0 1-.94-.8c-.232-.352-.348-.776-.348-1.274 0-.437.086-.792.259-1.063.172-.276.402-.491.691-.647.288-.156.606-.272.954-.348.352-.08.705-.142 1.059-.189.464-.06.84-.104 1.129-.134.292-.033.504-.088.636-.164.136-.076.204-.209.204-.398v-.04c0-.49-.134-.871-.403-1.143-.265-.272-.668-.408-1.208-.408-.56 0-.999.123-1.317.368-.318.246-.542.507-.671.786l-1.114-.398c.199-.464.464-.825.795-1.084.335-.262.7-.444 1.094-.547a4.546 4.546 0 0 1 1.173-.159c.246 0 .527.03.846.09.321.056.631.174.929.353.302.179.552.449.751.81.199.361.298.845.298 1.452V78.5h-1.173v-1.034h-.06a2.064 2.064 0 0 1-.397.532c-.186.189-.433.35-.741.482-.308.133-.685.199-1.129.199Zm.179-1.054c.464 0 .855-.091 1.174-.273a1.86 1.86 0 0 0 .974-1.616v-1.074c-.05.06-.159.114-.328.164a5.554 5.554 0 0 1-.577.124 26.387 26.387 0 0 1-1.123.15c-.305.04-.59.104-.855.193a1.479 1.479 0 0 0-.637.393c-.159.172-.238.408-.238.706 0 .408.15.716.452.925.305.205.691.308 1.158.308Zm10.275-2.247v-4.514h1.174V78.5h-1.174v-1.293h-.079a2.511 2.511 0 0 1-.835.99c-.378.268-.856.402-1.432.402a2.55 2.55 0 0 1-1.273-.313 2.192 2.192 0 0 1-.875-.954c-.212-.428-.318-.966-.318-1.616v-4.852h1.173v4.772c0 .557.156 1.001.467 1.333.315.331.716.497 1.204.497.291 0 .588-.075.89-.224.304-.149.56-.378.765-.686.209-.308.313-.7.313-1.178Zm6.644-4.514v.994h-3.958v-.994h3.958Zm-2.804-1.83h1.173v7.278c0 .332.048.58.144.746.1.163.226.272.378.328.156.053.32.08.492.08.129 0 .235-.007.318-.02l.199-.04.239 1.054c-.08.03-.191.06-.333.09-.143.033-.323.05-.542.05-.332 0-.656-.072-.975-.214a1.942 1.942 0 0 1-.785-.652c-.206-.291-.308-.66-.308-1.103v-7.597Zm7.589 9.625c-.69 0-1.294-.164-1.815-.492a3.346 3.346 0 0 1-1.213-1.377c-.288-.59-.432-1.28-.432-2.068 0-.796.144-1.49.432-2.084a3.34 3.34 0 0 1 1.213-1.382c.521-.328 1.125-.492 1.815-.492.689 0 1.292.164 1.809.492.521.329.925.79 1.214 1.382.291.594.437 1.288.437 2.084 0 .788-.146 1.478-.437 2.068a3.3 3.3 0 0 1-1.214 1.377c-.517.328-1.12.492-1.809.492Zm0-1.054c.523 0 .954-.134 1.292-.403a2.37 2.37 0 0 0 .751-1.058c.163-.438.244-.912.244-1.422 0-.51-.081-.986-.244-1.427a2.402 2.402 0 0 0-.751-1.07c-.338-.27-.769-.407-1.292-.407-.524 0-.955.136-1.293.408a2.41 2.41 0 0 0-.751 1.069 4.1 4.1 0 0 0-.243 1.427c0 .51.081.984.243 1.422.163.437.413.79.751 1.058.338.269.769.403 1.293.403Zm5.251.895v-7.636h1.134v1.193h.099a1.92 1.92 0 0 1 .771-.95c.354-.228.78-.343 1.277-.343.504 0 .923.115 1.258.343.338.226.602.542.791.95h.079c.196-.395.489-.708.88-.94.391-.235.86-.353 1.407-.353.683 0 1.241.214 1.675.642.435.424.652 1.085.652 1.983V78.5h-1.174v-5.11c0-.564-.154-.967-.462-1.209a1.711 1.711 0 0 0-1.089-.363c-.537 0-.953.163-1.248.487-.295.322-.442.73-.442 1.223V78.5h-1.193v-5.23c0-.434-.141-.784-.423-1.05-.282-.268-.644-.402-1.089-.402-.304 0-.59.081-.855.244a1.834 1.834 0 0 0-.636.676 1.997 1.997 0 0 0-.239.99V78.5h-1.173Zm15.27.16c-.689 0-1.294-.165-1.814-.493a3.34 3.34 0 0 1-1.213-1.377c-.289-.59-.433-1.28-.433-2.068 0-.796.144-1.49.433-2.084a3.333 3.333 0 0 1 1.213-1.382c.52-.328 1.125-.492 1.814-.492.69 0 1.293.164 1.81.492.52.329.925.79 1.213 1.382.292.594.438 1.288.438 2.084 0 .788-.146 1.478-.438 2.068a3.298 3.298 0 0 1-1.213 1.377c-.517.328-1.12.492-1.81.492Zm0-1.055c.524 0 .955-.134 1.293-.403a2.38 2.38 0 0 0 .751-1.058c.162-.438.243-.912.243-1.422 0-.51-.081-.986-.243-1.427a2.41 2.41 0 0 0-.751-1.07c-.338-.27-.769-.407-1.293-.407-.523 0-.954.136-1.292.408a2.402 2.402 0 0 0-.751 1.069 4.1 4.1 0 0 0-.244 1.427c0 .51.082.984.244 1.422.162.437.413.79.751 1.058.338.269.769.403 1.292.403Zm8.573-6.741v.994h-3.958v-.994h3.958Zm-2.804-1.83h1.173v7.278c0 .332.048.58.144.746a.744.744 0 0 0 .378.328c.156.053.32.08.492.08.129 0 .235-.007.318-.02l.199-.04.239 1.054c-.08.03-.191.06-.333.09-.143.033-.324.05-.542.05a2.37 2.37 0 0 1-.975-.214 1.936 1.936 0 0 1-.785-.652c-.206-.291-.308-.66-.308-1.103v-7.597Zm4.568 9.466v-7.636h1.174V78.5h-1.174Zm.597-8.91a.835.835 0 0 1-.592-.233.751.751 0 0 1-.243-.561c0-.22.081-.407.243-.562a.835.835 0 0 1 .592-.234c.229 0 .424.078.587.234a.746.746 0 0 1 .248.562.745.745 0 0 1-.248.561.818.818 0 0 1-.587.234Zm8.97 1.274-2.824 7.636h-1.193l-2.824-7.636h1.273l2.108 6.085h.079l2.108-6.085h1.273Zm4.477 7.795c-.736 0-1.371-.162-1.904-.487a3.27 3.27 0 0 1-1.228-1.372c-.285-.59-.428-1.276-.428-2.058 0-.783.143-1.472.428-2.069.288-.6.689-1.067 1.203-1.402.517-.338 1.12-.507 1.81-.507.397 0 .79.067 1.178.2.388.132.741.347 1.059.645.318.295.572.687.761 1.174.188.487.283 1.087.283 1.8v.496h-5.886v-1.014h4.693c0-.43-.086-.815-.259-1.153a1.948 1.948 0 0 0-.726-.8c-.311-.196-.679-.294-1.103-.294-.468 0-.872.116-1.213.348a2.289 2.289 0 0 0-.781.895 2.632 2.632 0 0 0-.273 1.183v.677c0 .576.099 1.065.298 1.466.202.398.482.701.84.91.358.205.774.308 1.248.308.308 0 .587-.043.835-.13a1.77 1.77 0 0 0 .651-.397c.183-.179.324-.4.423-.666l1.134.318a2.51 2.51 0 0 1-.602 1.014c-.282.289-.63.514-1.044.677-.414.158-.88.238-1.397.238Z"/><path fill="#D0D7DD" fill-opacity=".727" fill-rule="evenodd" d="M320.54 43c-1.398 0-2.532-1.119-2.532-2.5s1.134-2.5 2.532-2.5c1.399 0 2.532 1.119 2.532 2.5s-1.133 2.5-2.532 2.5Zm-8.968 0a2.507 2.507 0 0 1-2.515-2.5c0-1.381 1.126-2.5 2.515-2.5a2.507 2.507 0 0 1 2.515 2.5c0 1.381-1.126 2.5-2.515 2.5Zm-8.968 0c-1.399 0-2.532-1.119-2.532-2.5s1.133-2.5 2.532-2.5c1.398 0 2.532 1.119 2.532 2.5s-1.134 2.5-2.532 2.5Z" clip-rule="evenodd"/></g><defs><filter id="a" width="88" height="88" x="57" y="149" color-interpolation-filters="sRGB" filterUnits="userSpaceOnUse"><feFlood flood-opacity="0" result="BackgroundImageFix"/><feColorMatrix in="SourceAlpha" result="hardAlpha" values="0 0 0 0 0 0 0 0 0 0 0 0 0 0 0 0 0 0 127 0"/><feOffset dy="4"/><feGaussianBlur stdDeviation="4.5"/><feComposite in2="hardAlpha" operator="out"/><feColorMatrix values="0 0 0 0 0 0 0 0 0 0 0 0 0 0 0 0 0 0 0.05 0"/><feBlend in2="BackgroundImageFix" result="effect1_dropShadow_239_1105"/><feBlend in="SourceGraphic" in2="effect1_dropShadow_239_1105" result="shape"/></filter><filter id="b" width="88" height="88" x="57" y="401" color-interpolation-filters="sRGB" filterUnits="userSpaceOnUse"><feFlood flood-opacity="0" result="BackgroundImageFix"/><feColorMatrix in="SourceAlpha" result="hardAlpha" values="0 0 0 0 0 0 0 0 0 0 0 0 0 0 0 0 0 0 127 0"/><feOffset dy="4"/><feGaussianBlur stdDeviation="4.5"/><feComposite in2="hardAlpha" operator="out"/><feColorMatrix values="0 0 0 0 0 0 0 0 0 0 0 0 0 0 0 0 0 0 0.05 0"/><feBlend in2="BackgroundImageFix" result="effect1_dropShadow_239_1105"/><feBlend in="SourceGraphic" in2="effect1_dropShadow_239_1105" result="shape"/></filter><filter id="d" width="88" height="88" x="57" y="527" color-interpolation-filters="sRGB" filterUnits="userSpaceOnUse"><feFlood flood-opacity="0" result="BackgroundImageFix"/><feColorMatrix in="SourceAlpha" result="hardAlpha" values="0 0 0 0 0 0 0 0 0 0 0 0 0 0 0 0 0 0 127 0"/><feOffset dy="4"/><feGaussianBlur stdDeviation="4.5"/><feComposite in2="hardAlpha" operator="out"/><feColorMatrix values="0 0 0 0 0 0 0 0 0 0 0 0 0 0 0 0 0 0 0.05 0"/><feBlend in2="BackgroundImageFix" result="effect1_dropShadow_239_1105"/><feBlend in="SourceGraphic" in2="effect1_dropShadow_239_1105" result="shape"/></filter><filter id="e" width="137.829" height="97.043" x="-4" y="494" color-interpolation-filters="sRGB" filterUnits="userSpaceOnUse"><feFlood flood-opacity="0" result="BackgroundImageFix"/><feColorMatrix in="SourceAlpha" result="hardAlpha" values="0 0 0 0 0 0 0 0 0 0 0 0 0 0 0 0 0 0 127 0"/><feOffset dx="6" dy="6"/><feGaussianBlur stdDeviation="8"/><feColorMatrix values="0 0 0 0 0 0 0 0 0 0 0 0 0 0 0 0 0 0 0.1 0"/><feBlend in2="BackgroundImageFix" result="effect1_dropShadow_239_1105"/><feBlend in="SourceGraphic" in2="effect1_dropShadow_239_1105" result="shape"/></filter><filter id="i" width="88" height="88" x="29" y="275" color-interpolation-filters="sRGB" filterUnits="userSpaceOnUse"><feFlood flood-opacity="0" result="BackgroundImageFix"/><feColorMatrix in="SourceAlpha" result="hardAlpha" values="0 0 0 0 0 0 0 0 0 0 0 0 0 0 0 0 0 0 127 0"/><feOffset dy="4"/><feGaussianBlur stdDeviation="4.5"/><feComposite in2="hardAlpha" operator="out"/><feColorMatrix values="0 0 0 0 0 0 0 0 0 0 0 0 0 0 0 0 0 0 0.05 0"/><feBlend in2="BackgroundImageFix" result="effect1_dropShadow_239_1105"/><feBlend in="SourceGraphic" in2="effect1_dropShadow_239_1105" result="shape"/></filter><filter id="m" width="321" height="131" x="40" y="-5" color-interpolation-filters="sRGB" filterUnits="userSpaceOnUse"><feFlood flood-opacity="0" result="BackgroundImageFix"/><feColorMatrix in="SourceAlpha" result="hardAlpha" values="0 0 0 0 0 0 0 0 0 0 0 0 0 0 0 0 0 0 127 0"/><feOffset dy="4"/><feGaussianBlur stdDeviation="4.5"/><feColorMatrix values="0 0 0 0 0 0 0 0 0 0 0 0 0 0 0 0 0 0 0.02 0"/><feBlend in2="BackgroundImageFix" result="effect1_dropShadow_239_1105"/><feBlend in="SourceGraphic" in2="effect1_dropShadow_239_1105" result="shape"/></filter><clipPath id="j"><path fill="#fff" d="M53 295h40v40H53z"/></clipPath><clipPath id="k"><path fill="#fff" d="M49 0h303v113H49z"/></clipPath><clipPath id="l"><path fill="#fff" d="M49 0h303v113H49z"/></clipPath></defs></svg>