<svg xmlns="http://www.w3.org/2000/svg" width="151" height="26" fill="none"><path fill="#C2C2C2" d="M23.79 2.567a.85.85 0 1 0-1.203-1.202l1.203 1.202Zm-8.884 2.487a.85.85 0 0 0-1.702 0h1.702Zm5.332 6.806a.85.85 0 1 0 0-1.7v1.7Zm-6.183-.908h-.851.85Zm8.532-9.587L13.55 10.39l1.203 1.202 9.037-9.026-1.203-1.202Zm-7.681 9.587V5.054h-1.702v5.898h1.702Zm-.851.908h6.183v-1.7h-6.183v1.7Zm-.505-1.469c.5-.5 1.356-.146 1.356.561h-1.702c0 .808.978 1.212 1.55.641l-1.204-1.202ZM.675 23.451a.85.85 0 1 0 1.204 1.202L.675 23.451Zm8.885-2.487a.85.85 0 0 0 1.701 0H9.56Zm-5.333-6.806a.85.85 0 1 0 0 1.7v-1.7Zm6.184.908h.85-.85Zm-8.532 9.587 9.036-9.027-1.203-1.202-9.037 9.027 1.204 1.202Zm7.68-9.587v5.898h1.703v-5.898H9.56Zm.852-.908H4.227v1.7h6.184v-1.7Zm.504 1.468c-.5.5-1.355.146-1.355-.56h1.701c0-.808-.977-1.213-1.549-.642l1.203 1.202Z"/><path fill="#8F8F8F" d="M44.64 21.5h-3.848c-.25 0-.456-.06-.615-.182a1.42 1.42 0 0 1-.364-.433l-3.325-5.807a2.3 2.3 0 0 1-.205.433l-3.097 5.374a2.447 2.447 0 0 1-.376.421.805.805 0 0 1-.558.194h-3.598l5.34-8.54-5.135-8.05h3.849c.25 0 .432.035.546.103.122.06.228.167.319.319l3.302 5.59a3.48 3.48 0 0 1 .125-.284c.053-.091.11-.186.17-.285l2.893-4.964c.106-.167.216-.289.33-.365a.821.821 0 0 1 .444-.113h3.69l-5.204 7.89L44.64 21.5Zm11.26-3.074V21.5h-9.998V4.91h3.849v13.516h6.148Zm7.136-5.716c.523 0 .968-.065 1.332-.194a2.47 2.47 0 0 0 .91-.557c.236-.236.407-.509.513-.82.106-.319.16-.66.16-1.025 0-.729-.24-1.298-.718-1.708-.47-.41-1.203-.615-2.197-.615h-1.549v4.919h1.549Zm8.175 8.79h-3.484c-.645 0-1.108-.243-1.39-.729l-2.755-4.816a1.279 1.279 0 0 0-.432-.444c-.16-.099-.387-.148-.683-.148h-.98V21.5H57.64V4.91h5.397c1.2 0 2.22.126 3.063.376.85.243 1.54.585 2.072 1.025.539.44.93.96 1.173 1.56.243.6.364 1.252.364 1.958a5.26 5.26 0 0 1-.216 1.526 4.787 4.787 0 0 1-.638 1.332c-.28.403-.63.763-1.047 1.082-.41.319-.885.58-1.424.786.25.129.486.292.706.49.22.189.418.417.592.682l3.53 5.773ZM96.07 4.91V21.5h-3.394v-9.541c0-.22.004-.46.012-.718.015-.258.038-.52.068-.785l-4.406 8.528a1.436 1.436 0 0 1-.558.603c-.228.137-.49.205-.786.205h-.524c-.296 0-.561-.068-.797-.205a1.461 1.461 0 0 1-.546-.603l-4.406-8.551c.022.273.041.543.056.808.016.258.023.497.023.718V21.5H77.42V4.91h2.938c.167 0 .311.004.432.012.13.008.243.03.342.068a.682.682 0 0 1 .262.183c.083.075.163.185.239.33l4.27 8.414c.151.288.296.588.432.9.145.31.281.63.41.956.13-.334.262-.66.399-.98.144-.318.296-.622.455-.91l4.259-8.38c.075-.145.151-.255.227-.33a.784.784 0 0 1 .274-.183 1.11 1.11 0 0 1 .33-.068 7.65 7.65 0 0 1 .444-.011h2.937Zm6.853 2.961v3.871h5.215v2.847h-5.215v3.95h6.809V21.5h-10.68V4.91h10.68v2.961h-6.809ZM126.93 13.2c0 1.199-.209 2.307-.626 3.324a7.777 7.777 0 0 1-1.742 2.63c-.752.737-1.659 1.314-2.721 1.731-1.056.41-2.228.615-3.519.615h-6.444V4.91h6.444c1.291 0 2.463.21 3.519.627 1.062.417 1.969.994 2.721 1.73a7.632 7.632 0 0 1 1.742 2.63c.417 1.01.626 2.11.626 3.303Zm-3.94 0c0-.82-.106-1.56-.318-2.22-.213-.661-.52-1.219-.923-1.674a3.839 3.839 0 0 0-1.457-1.06c-.577-.25-1.233-.375-1.97-.375h-2.573V18.54h2.573c.737 0 1.393-.122 1.97-.365a4.007 4.007 0 0 0 1.457-1.059c.403-.463.71-1.024.923-1.685.212-.66.318-1.404.318-2.231Zm9.855 8.3h-3.871V4.91h3.871V21.5Zm11.74-6.342-1.537-4.543a19.9 19.9 0 0 1-.365-1.013 33.54 33.54 0 0 1-.387-1.276 18.028 18.028 0 0 1-.728 2.312l-1.526 4.52h4.543ZM150.7 21.5h-2.983c-.334 0-.603-.076-.808-.228a1.524 1.524 0 0 1-.467-.603l-.979-2.892h-6.308l-.979 2.892a1.414 1.414 0 0 1-.456.58c-.212.168-.478.251-.797.251h-3.006l6.422-16.59h3.939L150.7 21.5Z"/></svg>