<svg xmlns="http://www.w3.org/2000/svg" width="17" height="17" fill="none"><g clip-path="url(#a)"><path fill="#2AD352" d="M8.5 0A8.5 8.5 0 0 0 0 8.5 8.5 8.5 0 1 0 8.5 0Z"/><path fill="#74DA7F" d="M0 8.5a8.462 8.462 0 0 0 1.012 4.025A9.252 9.252 0 0 0 12.492.993 8.462 8.462 0 0 0 8.5 0 8.5 8.5 0 0 0 0 8.5Z"/><path fill="#fff" d="m13.348 7.092-5.11 5.365a1.498 1.498 0 0 1-1.078.465h-.006a1.499 1.499 0 0 1-1.076-.456L3.367 9.675a1.499 1.499 0 1 1 2.15-2.087L7.144 9.26l4.034-4.236a1.498 1.498 0 1 1 2.17 2.067Z"/></g><defs><clipPath id="a"><path fill="#fff" d="M0 0h17v17H0z"/></clipPath></defs></svg>