<svg xmlns="http://www.w3.org/2000/svg" width="110" height="110" fill="none"><g filter="url(#a)"><rect width="70" height="70" x="20" y="10" fill="url(#b)" rx="20"/></g><path fill="#fff" d="M36.6 59.706c0 .585.474 1.059 1.059 1.059H71.54c.585 0 1.059-.474 1.059-1.06V39.589h-36v20.118Zm19.06-15.883c0-.585.474-1.058 1.059-1.058h8.47c.586 0 1.059.473 1.059 1.059v12.705c0 .586-.474 1.06-1.059 1.06h-8.47a1.058 1.058 0 0 1-1.06-1.06V43.823Zm-12.706 0c0-.585.474-1.058 1.059-1.058h8.47c.586 0 1.06.473 1.06 1.059v4.235c0 .585-.474 1.059-1.06 1.059h-8.47a1.058 1.058 0 0 1-1.059-1.06v-4.234Zm1.059 7.412h8.47a1.058 1.058 0 1 1 0 2.118h-8.47a1.058 1.058 0 1 1 0-2.118Zm0 4.236h8.47a1.058 1.058 0 1 1 0 2.117h-8.47a1.058 1.058 0 1 1 0-2.117ZM64.13 44.882h-6.352v10.589h6.352V44.882Zm-12.705 0H45.07V47h6.353v-2.118ZM71.54 29H37.66c-.585 0-1.059.474-1.059 1.059v7.412h36v-7.412c0-.585-.474-1.059-1.059-1.059Zm-29.647 5.294a1.059 1.059 0 1 1 0-2.118 1.059 1.059 0 0 1 0 2.118Zm4.236 0a1.059 1.059 0 1 1 0-2.118 1.059 1.059 0 0 1 0 2.118Zm4.235 0a1.059 1.059 0 1 1 0-2.118 1.059 1.059 0 0 1 0 2.118Zm16.941 0h-8.47a1.058 1.058 0 1 1 0-2.117h8.47a1.058 1.058 0 1 1 0 2.117Z"/><defs><linearGradient id="b" x1="20" x2="90" y1="10" y2="80" gradientUnits="userSpaceOnUse"><stop stop-color="#5CA1FE"/><stop offset="1" stop-color="#217BF4"/></linearGradient><filter id="a" width="110" height="110" x="0" y="0" color-interpolation-filters="sRGB" filterUnits="userSpaceOnUse"><feFlood flood-opacity="0" result="BackgroundImageFix"/><feColorMatrix in="SourceAlpha" result="hardAlpha" values="0 0 0 0 0 0 0 0 0 0 0 0 0 0 0 0 0 0 127 0"/><feMorphology in="SourceAlpha" radius="2" result="effect1_dropShadow_256_3408"/><feOffset dy="10"/><feGaussianBlur stdDeviation="11"/><feComposite in2="hardAlpha" operator="out"/><feColorMatrix values="0 0 0 0 0.427451 0 0 0 0 0.670588 0 0 0 0 1 0 0 0 0.36 0"/><feBlend in2="BackgroundImageFix" result="effect1_dropShadow_256_3408"/><feBlend in="SourceGraphic" in2="effect1_dropShadow_256_3408" result="shape"/></filter></defs></svg>