<svg xmlns="http://www.w3.org/2000/svg" width="110" height="110" fill="none"><g filter="url(#a)"><rect width="70" height="70" x="20" y="10" fill="url(#b)" rx="20"/></g><path fill="#fff" d="M67.397 32.602C53.58 19.118 31.43 34.695 39.496 52.238c.232.464.292.995.168 1.498l-2.141 7.973a.633.633 0 0 0 .768.768l7.973-2.141a2.184 2.184 0 0 1 1.498.168c17.554 8.08 33.118-14.13 19.635-27.902Z"/><path fill="#3F8EF9" d="M55.75 57.34c-1.982 0-3.74-.271-5.274-.814-1.528-.537-2.816-1.33-3.864-2.378-1.048-1.042-1.844-2.32-2.388-3.836-.543-1.514-.815-3.243-.815-5.187 0-1.892.275-3.592.825-5.1.55-1.509 1.349-2.794 2.397-3.855 1.055-1.067 2.336-1.882 3.845-2.445 1.508-.562 3.221-.844 5.14-.844 1.834 0 3.45.288 4.85.863 1.4.576 2.577 1.365 3.529 2.369a10.045 10.045 0 0 1 2.167 3.451c.486 1.298.729 2.669.729 4.114 0 1.01-.064 1.997-.192 2.962a9.525 9.525 0 0 1-.71 2.608 4.44 4.44 0 0 1-1.476 1.86c-.64.46-1.47.7-2.493.72a5.045 5.045 0 0 1-1.582-.192 3.228 3.228 0 0 1-1.304-.71 2.096 2.096 0 0 1-.652-1.266h-.115c-.154.378-.41.73-.767 1.055-.358.32-.815.575-1.371.767-.55.186-1.19.262-1.918.23-.805-.032-1.53-.214-2.176-.546a4.985 4.985 0 0 1-1.66-1.38c-.453-.589-.801-1.286-1.044-2.091-.243-.805-.365-1.7-.365-2.685 0-.946.138-1.793.413-2.54a6.12 6.12 0 0 1 1.121-1.947c.48-.55 1.03-.984 1.65-1.304a5.76 5.76 0 0 1 1.965-.604 5.883 5.883 0 0 1 1.85.058c.563.115 1.03.29 1.4.527.378.236.614.495.71.777h.125v-1.074h2.358V47.8c0 .505.131.934.393 1.285.269.352.65.528 1.142.528.581 0 1.035-.215 1.361-.643.332-.428.566-1.087.7-1.975.14-.889.21-2.026.21-3.413 0-.972-.13-1.886-.392-2.742a7.66 7.66 0 0 0-1.141-2.34 7.405 7.405 0 0 0-1.841-1.812 8.611 8.611 0 0 0-2.493-1.17c-.927-.275-1.953-.412-3.078-.412-1.527 0-2.886.236-4.075.71-1.189.466-2.192 1.14-3.01 2.022-.812.883-1.429 1.94-1.85 3.174-.416 1.227-.624 2.605-.624 4.133 0 1.591.214 3.004.642 4.237.429 1.228 1.061 2.263 1.899 3.107.837.844 1.873 1.483 3.106 1.918 1.234.44 2.656.661 4.267.661.716 0 1.419-.064 2.11-.192a16.54 16.54 0 0 0 1.84-.421c.544-.154.95-.279 1.218-.374l.671 2.1c-.396.185-.924.367-1.582.546-.652.179-1.361.326-2.129.441-.76.115-1.511.173-2.253.173Zm-.883-7.977c.831 0 1.5-.166 2.004-.498.511-.333.879-.828 1.103-1.486.23-.665.345-1.496.345-2.493-.007-.972-.131-1.745-.374-2.32-.236-.582-.607-.998-1.112-1.247-.499-.256-1.141-.384-1.927-.384-.723 0-1.34.176-1.851.528a3.377 3.377 0 0 0-1.16 1.428c-.262.601-.396 1.27-.403 2.004a7.61 7.61 0 0 0 .326 2.186c.218.678.57 1.228 1.055 1.65.492.421 1.157.632 1.994.632Z"/><defs><linearGradient id="b" x1="20" x2="90" y1="10" y2="80" gradientUnits="userSpaceOnUse"><stop stop-color="#5CA1FE"/><stop offset="1" stop-color="#217BF4"/></linearGradient><filter id="a" width="110" height="110" x="0" y="0" color-interpolation-filters="sRGB" filterUnits="userSpaceOnUse"><feFlood flood-opacity="0" result="BackgroundImageFix"/><feColorMatrix in="SourceAlpha" result="hardAlpha" values="0 0 0 0 0 0 0 0 0 0 0 0 0 0 0 0 0 0 127 0"/><feMorphology in="SourceAlpha" radius="2" result="effect1_dropShadow_245_2493"/><feOffset dy="10"/><feGaussianBlur stdDeviation="11"/><feComposite in2="hardAlpha" operator="out"/><feColorMatrix values="0 0 0 0 0.427451 0 0 0 0 0.670588 0 0 0 0 1 0 0 0 0.36 0"/><feBlend in2="BackgroundImageFix" result="effect1_dropShadow_245_2493"/><feBlend in="SourceGraphic" in2="effect1_dropShadow_245_2493" result="shape"/></filter></defs></svg>