<svg xmlns="http://www.w3.org/2000/svg" width="229" height="229" fill="none"><g filter="url(#a)"><path fill="#DFECF6" d="M109.575 212.181c57.278 0 103.711-46.425 103.711-103.694 0-57.268-46.433-103.693-103.711-103.693-57.279 0-103.712 46.425-103.712 103.693 0 57.269 46.433 103.694 103.712 103.694Z"/></g><path fill="#00A23A" d="M59.671 100.795H160.35v63.301c0 4.948-4.017 8.967-8.968 8.967H68.637c-4.949 0-8.968-4.016-8.968-8.967v-63.301h.002Z"/><g filter="url(#b)"><path fill="#fff" d="M162.416 163.235H57.606c-5.005 0-8.932-4.76-8.485-10.286l.397-4.827.053-.66.036-.47.462-5.69.771-9.459 3.878-47.766h110.591l5.594 68.869c.445 5.526-3.478 10.286-8.485 10.286l-.002.003Z"/></g><path fill="#0085F7" d="M165.304 84.08H54.712V63.87c0-5.174 4.197-9.37 9.371-9.37h91.85c5.175 0 9.371 4.196 9.371 9.37v20.21Z"/><path fill="#6CB3FF" d="M85.68 42.964h-4.56a3.022 3.022 0 0 0-3.022 3.021v16.956a3.022 3.022 0 0 0 3.022 3.021h4.56a3.022 3.022 0 0 0 3.022-3.021V45.985a3.022 3.022 0 0 0-3.022-3.021Zm48.663 0h4.559a3.022 3.022 0 0 1 3.022 3.021v16.956a3.022 3.022 0 0 1-3.022 3.021h-4.559a3.022 3.022 0 0 1-3.022-3.021V45.985a3.022 3.022 0 0 1 3.022-3.021Z"/><path fill="#0085F7" d="M111.383 143.754c-7.941 0-15.385-4.251-19.426-11.094l3.982-2.351c3.214 5.441 9.131 8.821 15.444 8.821 9.882 0 17.921-8.04 17.921-17.918s-8.041-17.918-17.921-17.918c-9.88 0-17.921 8.04-17.921 17.918h-4.626c0-12.429 10.115-22.542 22.547-22.542 12.431 0 22.546 10.113 22.546 22.542 0 12.43-10.115 22.542-22.546 22.542Z"/><path fill="#0085F7" d="m90.616 123.917-7.9-10.834 3.74-2.725 5.246 7.198 7.34-5.046 2.62 3.81-11.046 7.597Z"/><defs><filter id="a" width="227.423" height="227.387" x=".863" y=".794" color-interpolation-filters="sRGB" filterUnits="userSpaceOnUse"><feFlood flood-opacity="0" result="BackgroundImageFix"/><feColorMatrix in="SourceAlpha" result="hardAlpha" values="0 0 0 0 0 0 0 0 0 0 0 0 0 0 0 0 0 0 127 0"/><feOffset dx="5" dy="6"/><feGaussianBlur stdDeviation="5"/><feComposite in2="hardAlpha" operator="out"/><feColorMatrix values="0 0 0 0 0.0509804 0 0 0 0 0.223529 0 0 0 0 0.482353 0 0 0 0.19 0"/><feBlend in2="BackgroundImageFix" result="effect1_dropShadow_331_1098"/><feBlend in="SourceGraphic" in2="effect1_dropShadow_331_1098" result="shape"/></filter><filter id="b" width="123.851" height="84.158" x="48.086" y="84.077" color-interpolation-filters="sRGB" filterUnits="userSpaceOnUse"><feFlood flood-opacity="0" result="BackgroundImageFix"/><feColorMatrix in="SourceAlpha" result="hardAlpha" values="0 0 0 0 0 0 0 0 0 0 0 0 0 0 0 0 0 0 127 0"/><feOffset dy="4"/><feGaussianBlur stdDeviation=".5"/><feComposite in2="hardAlpha" operator="out"/><feColorMatrix values="0 0 0 0 0.491667 0 0 0 0 0.374896 0 0 0 0 0.374896 0 0 0 0.25 0"/><feBlend in2="BackgroundImageFix" result="effect1_dropShadow_331_1098"/><feBlend in="SourceGraphic" in2="effect1_dropShadow_331_1098" result="shape"/></filter></defs></svg>