<svg width="1108" height="394" viewBox="0 0 1108 394" fill="none" xmlns="http://www.w3.org/2000/svg">
<g opacity="0.9" filter="url(#filter0_d_174_2008)">
<rect x="14" y="9" width="1080" height="366" rx="15" fill="url(#paint0_linear_174_2008)"/>
</g>
<mask id="mask0_174_2008" style="mask-type:alpha" maskUnits="userSpaceOnUse" x="14" y="9" width="1080" height="366">
<rect x="14" y="9" width="1080" height="366" rx="15" fill="#4A3AFF"/>
</mask>
<g mask="url(#mask0_174_2008)">
<ellipse cx="923.911" cy="373.286" rx="92.4849" ry="84.8212" transform="rotate(90 923.911 373.286)" fill="white" fill-opacity="0.1"/>
<path d="M1094 279C1046.9 279 1009.92 237.164 1009.92 185.802C1009.92 134.439 1046.89 92.5 1094 92.5C1094 137.698 1094 138.138 1094 189.5C1094 240.862 1094 242.198 1094 279Z" fill="white" fill-opacity="0.1"/>
<path opacity="0.1" d="M848 9.00003C848 20.0311 849.979 30.9541 853.823 41.1454C857.668 51.3368 863.303 60.5969 870.406 68.397C877.51 76.1971 885.943 82.3845 895.225 86.6059C904.506 90.8273 914.454 93 924.5 93C934.546 93 944.494 90.8273 953.775 86.6059C963.057 82.3845 971.49 76.1971 978.594 68.397C985.697 60.5968 991.332 51.3368 995.177 41.1454C999.021 30.9541 1001 20.031 1001 9L924.5 9.00003L848 9.00003Z" fill="white"/>
<path opacity="0.1" d="M753.387 278.965C764.632 278.965 775.766 276.55 786.155 271.858C796.544 267.166 805.983 260.289 813.934 251.619C821.885 242.95 828.193 232.658 832.496 221.33C836.799 210.003 839.014 197.862 839.014 185.602C839.014 173.341 836.799 161.201 832.496 149.873C828.193 138.546 821.885 128.254 813.934 119.584C805.983 110.915 796.544 104.038 786.155 99.3456C775.766 94.6537 764.632 92.2388 753.387 92.2388L753.387 185.602L753.387 278.965Z" fill="white"/>
<rect opacity="0.2" x="1010.29" y="92.2979" width="186.664" height="171.198" transform="rotate(90 1010.29 92.2979)" fill="white"/>
<path d="M1094 278.962V374.5L1009.28 465.627L1009.28 278.963L1094 278.962Z" fill="white" fill-opacity="0.15"/>
<path d="M1009 92L1054.28 37.5926L1094 -13L1094 92L1009 92Z" fill="white" fill-opacity="0.15"/>
<path opacity="0.1" d="M351.377 194.295L185.376 375.294L185.376 194.295L351.377 194.295Z" fill="white"/>
<rect opacity="0.2" x="185.334" y="7.63184" width="186.664" height="171.198" transform="rotate(90 185.334 7.63184)" fill="white"/>
</g>
<path d="M550.504 303.808H548.68V289.184H550.504V303.808Z" fill="#CFCFCF"/>
<path d="M397.992 301H396.312L392.508 295.252V301H390.828V292.612H392.508L396.312 298.372V292.612H397.992V301ZM402.844 301.108C402.204 301.108 401.628 300.968 401.116 300.688C400.604 300.4 400.2 299.996 399.904 299.476C399.616 298.956 399.472 298.356 399.472 297.676C399.472 296.996 399.62 296.396 399.916 295.876C400.22 295.356 400.632 294.956 401.152 294.676C401.672 294.388 402.252 294.244 402.892 294.244C403.532 294.244 404.112 294.388 404.632 294.676C405.152 294.956 405.56 295.356 405.856 295.876C406.16 296.396 406.312 296.996 406.312 297.676C406.312 298.356 406.156 298.956 405.844 299.476C405.54 299.996 405.124 300.4 404.596 300.688C404.076 300.968 403.492 301.108 402.844 301.108ZM402.844 299.644C403.148 299.644 403.432 299.572 403.696 299.428C403.968 299.276 404.184 299.052 404.344 298.756C404.504 298.46 404.584 298.1 404.584 297.676C404.584 297.044 404.416 296.56 404.08 296.224C403.752 295.88 403.348 295.708 402.868 295.708C402.388 295.708 401.984 295.88 401.656 296.224C401.336 296.56 401.176 297.044 401.176 297.676C401.176 298.308 401.332 298.796 401.644 299.14C401.964 299.476 402.364 299.644 402.844 299.644ZM410.452 297.676C410.452 296.988 410.592 296.388 410.872 295.876C411.152 295.356 411.54 294.956 412.036 294.676C412.532 294.388 413.1 294.244 413.74 294.244C414.564 294.244 415.244 294.452 415.78 294.868C416.324 295.276 416.688 295.852 416.872 296.596H415.06C414.964 296.308 414.8 296.084 414.568 295.924C414.344 295.756 414.064 295.672 413.728 295.672C413.248 295.672 412.868 295.848 412.588 296.2C412.308 296.544 412.168 297.036 412.168 297.676C412.168 298.308 412.308 298.8 412.588 299.152C412.868 299.496 413.248 299.668 413.728 299.668C414.408 299.668 414.852 299.364 415.06 298.756H416.872C416.688 299.476 416.324 300.048 415.78 300.472C415.236 300.896 414.556 301.108 413.74 301.108C413.1 301.108 412.532 300.968 412.036 300.688C411.54 300.4 411.152 300 410.872 299.488C410.592 298.968 410.452 298.364 410.452 297.676ZM420.023 295.384C420.239 295.032 420.519 294.756 420.863 294.556C421.215 294.356 421.615 294.256 422.063 294.256V296.02H421.619C421.091 296.02 420.691 296.144 420.419 296.392C420.155 296.64 420.023 297.072 420.023 297.688V301H418.343V294.352H420.023V295.384ZM429.614 297.532C429.614 297.772 429.598 297.988 429.566 298.18H424.706C424.746 298.66 424.914 299.036 425.21 299.308C425.506 299.58 425.87 299.716 426.302 299.716C426.926 299.716 427.37 299.448 427.634 298.912H429.446C429.254 299.552 428.886 300.08 428.342 300.496C427.798 300.904 427.13 301.108 426.338 301.108C425.698 301.108 425.122 300.968 424.61 300.688C424.106 300.4 423.71 299.996 423.422 299.476C423.142 298.956 423.002 298.356 423.002 297.676C423.002 296.988 423.142 296.384 423.422 295.864C423.702 295.344 424.094 294.944 424.598 294.664C425.102 294.384 425.682 294.244 426.338 294.244C426.97 294.244 427.534 294.38 428.03 294.652C428.534 294.924 428.922 295.312 429.194 295.816C429.474 296.312 429.614 296.884 429.614 297.532ZM427.874 297.052C427.866 296.62 427.71 296.276 427.406 296.02C427.102 295.756 426.73 295.624 426.29 295.624C425.874 295.624 425.522 295.752 425.234 296.008C424.954 296.256 424.782 296.604 424.718 297.052H427.874ZM430.648 297.652C430.648 296.98 430.78 296.384 431.044 295.864C431.316 295.344 431.684 294.944 432.148 294.664C432.612 294.384 433.128 294.244 433.696 294.244C434.128 294.244 434.54 294.34 434.932 294.532C435.324 294.716 435.636 294.964 435.868 295.276V292.12H437.572V301H435.868V300.016C435.66 300.344 435.368 300.608 434.992 300.808C434.616 301.008 434.18 301.108 433.684 301.108C433.124 301.108 432.612 300.964 432.148 300.676C431.684 300.388 431.316 299.984 431.044 299.464C430.78 298.936 430.648 298.332 430.648 297.652ZM435.88 297.676C435.88 297.268 435.8 296.92 435.64 296.632C435.48 296.336 435.264 296.112 434.992 295.96C434.72 295.8 434.428 295.72 434.116 295.72C433.804 295.72 433.516 295.796 433.252 295.948C432.988 296.1 432.772 296.324 432.604 296.62C432.444 296.908 432.364 297.252 432.364 297.652C432.364 298.052 432.444 298.404 432.604 298.708C432.772 299.004 432.988 299.232 433.252 299.392C433.524 299.552 433.812 299.632 434.116 299.632C434.428 299.632 434.72 299.556 434.992 299.404C435.264 299.244 435.48 299.02 435.64 298.732C435.8 298.436 435.88 298.084 435.88 297.676ZM440.305 293.56C440.009 293.56 439.761 293.468 439.561 293.284C439.369 293.092 439.273 292.856 439.273 292.576C439.273 292.296 439.369 292.064 439.561 291.88C439.761 291.688 440.009 291.592 440.305 291.592C440.601 291.592 440.845 291.688 441.037 291.88C441.237 292.064 441.337 292.296 441.337 292.576C441.337 292.856 441.237 293.092 441.037 293.284C440.845 293.468 440.601 293.56 440.305 293.56ZM441.133 294.352V301H439.453V294.352H441.133ZM444.989 295.732V298.948C444.989 299.172 445.041 299.336 445.145 299.44C445.257 299.536 445.441 299.584 445.697 299.584H446.477V301H445.421C444.005 301 443.297 300.312 443.297 298.936V295.732H442.505V294.352H443.297V292.708H444.989V294.352H446.477V295.732H444.989ZM450.593 297.676C450.593 296.988 450.733 296.388 451.013 295.876C451.293 295.356 451.681 294.956 452.177 294.676C452.673 294.388 453.241 294.244 453.881 294.244C454.705 294.244 455.385 294.452 455.921 294.868C456.465 295.276 456.829 295.852 457.013 296.596H455.201C455.105 296.308 454.941 296.084 454.709 295.924C454.485 295.756 454.205 295.672 453.869 295.672C453.389 295.672 453.009 295.848 452.729 296.2C452.449 296.544 452.309 297.036 452.309 297.676C452.309 298.308 452.449 298.8 452.729 299.152C453.009 299.496 453.389 299.668 453.869 299.668C454.549 299.668 454.993 299.364 455.201 298.756H457.013C456.829 299.476 456.465 300.048 455.921 300.472C455.377 300.896 454.697 301.108 453.881 301.108C453.241 301.108 452.673 300.968 452.177 300.688C451.681 300.4 451.293 300 451.013 299.488C450.733 298.968 450.593 298.364 450.593 297.676ZM458.052 297.652C458.052 296.98 458.184 296.384 458.448 295.864C458.72 295.344 459.084 294.944 459.54 294.664C460.004 294.384 460.52 294.244 461.088 294.244C461.584 294.244 462.016 294.344 462.384 294.544C462.76 294.744 463.06 294.996 463.284 295.3V294.352H464.976V301H463.284V300.028C463.068 300.34 462.768 300.6 462.384 300.808C462.008 301.008 461.572 301.108 461.076 301.108C460.516 301.108 460.004 300.964 459.54 300.676C459.084 300.388 458.72 299.984 458.448 299.464C458.184 298.936 458.052 298.332 458.052 297.652ZM463.284 297.676C463.284 297.268 463.204 296.92 463.044 296.632C462.884 296.336 462.668 296.112 462.396 295.96C462.124 295.8 461.832 295.72 461.52 295.72C461.208 295.72 460.92 295.796 460.656 295.948C460.392 296.1 460.176 296.324 460.008 296.62C459.848 296.908 459.768 297.252 459.768 297.652C459.768 298.052 459.848 298.404 460.008 298.708C460.176 299.004 460.392 299.232 460.656 299.392C460.928 299.552 461.216 299.632 461.52 299.632C461.832 299.632 462.124 299.556 462.396 299.404C462.668 299.244 462.884 299.02 463.044 298.732C463.204 298.436 463.284 298.084 463.284 297.676ZM468.536 295.384C468.752 295.032 469.032 294.756 469.376 294.556C469.728 294.356 470.128 294.256 470.576 294.256V296.02H470.132C469.604 296.02 469.204 296.144 468.932 296.392C468.668 296.64 468.536 297.072 468.536 297.688V301H466.856V294.352H468.536V295.384ZM471.516 297.652C471.516 296.98 471.648 296.384 471.912 295.864C472.184 295.344 472.552 294.944 473.016 294.664C473.48 294.384 473.996 294.244 474.564 294.244C474.996 294.244 475.408 294.34 475.8 294.532C476.192 294.716 476.504 294.964 476.736 295.276V292.12H478.44V301H476.736V300.016C476.528 300.344 476.236 300.608 475.86 300.808C475.484 301.008 475.048 301.108 474.552 301.108C473.992 301.108 473.48 300.964 473.016 300.676C472.552 300.388 472.184 299.984 471.912 299.464C471.648 298.936 471.516 298.332 471.516 297.652ZM476.748 297.676C476.748 297.268 476.668 296.92 476.508 296.632C476.348 296.336 476.132 296.112 475.86 295.96C475.588 295.8 475.296 295.72 474.984 295.72C474.672 295.72 474.384 295.796 474.12 295.948C473.856 296.1 473.64 296.324 473.472 296.62C473.312 296.908 473.232 297.252 473.232 297.652C473.232 298.052 473.312 298.404 473.472 298.708C473.64 299.004 473.856 299.232 474.12 299.392C474.392 299.552 474.68 299.632 474.984 299.632C475.296 299.632 475.588 299.556 475.86 299.404C476.132 299.244 476.348 299.02 476.508 298.732C476.668 298.436 476.748 298.084 476.748 297.676ZM485.1 295.384C485.316 295.032 485.596 294.756 485.94 294.556C486.292 294.356 486.692 294.256 487.14 294.256V296.02H486.696C486.168 296.02 485.768 296.144 485.496 296.392C485.232 296.64 485.1 297.072 485.1 297.688V301H483.42V294.352H485.1V295.384ZM494.692 297.532C494.692 297.772 494.676 297.988 494.644 298.18H489.784C489.824 298.66 489.992 299.036 490.288 299.308C490.584 299.58 490.948 299.716 491.38 299.716C492.004 299.716 492.448 299.448 492.712 298.912H494.524C494.332 299.552 493.964 300.08 493.42 300.496C492.876 300.904 492.208 301.108 491.416 301.108C490.776 301.108 490.2 300.968 489.688 300.688C489.184 300.4 488.788 299.996 488.5 299.476C488.22 298.956 488.08 298.356 488.08 297.676C488.08 296.988 488.22 296.384 488.5 295.864C488.78 295.344 489.172 294.944 489.676 294.664C490.18 294.384 490.76 294.244 491.416 294.244C492.048 294.244 492.612 294.38 493.108 294.652C493.612 294.924 494 295.312 494.272 295.816C494.552 296.312 494.692 296.884 494.692 297.532ZM492.952 297.052C492.944 296.62 492.788 296.276 492.484 296.02C492.18 295.756 491.808 295.624 491.368 295.624C490.952 295.624 490.6 295.752 490.312 296.008C490.032 296.256 489.86 296.604 489.796 297.052H492.952ZM495.726 297.664C495.726 297 495.862 296.412 496.134 295.9C496.414 295.38 496.79 294.976 497.262 294.688C497.734 294.4 498.254 294.256 498.822 294.256C499.294 294.256 499.71 294.348 500.07 294.532C500.438 294.708 500.734 294.936 500.958 295.216V294.352H502.65V304.168H500.958V300.088C500.734 300.376 500.434 300.616 500.058 300.808C499.682 301 499.258 301.096 498.786 301.096C498.226 301.096 497.71 300.952 497.238 300.664C496.774 300.368 496.406 299.96 496.134 299.44C495.862 298.92 495.726 298.328 495.726 297.664ZM500.958 297.676C500.958 297.268 500.874 296.916 500.706 296.62C500.538 296.324 500.318 296.1 500.046 295.948C499.782 295.796 499.498 295.72 499.194 295.72C498.898 295.72 498.614 295.796 498.342 295.948C498.078 296.1 497.862 296.324 497.694 296.62C497.526 296.908 497.442 297.256 497.442 297.664C497.442 298.072 497.526 298.428 497.694 298.732C497.862 299.028 498.078 299.252 498.342 299.404C498.614 299.556 498.898 299.632 499.194 299.632C499.498 299.632 499.782 299.556 500.046 299.404C500.318 299.252 500.538 299.028 500.706 298.732C500.874 298.436 500.958 298.084 500.958 297.676ZM510.807 294.352V301H509.115V300.16C508.899 300.448 508.615 300.676 508.263 300.844C507.919 301.004 507.543 301.084 507.135 301.084C506.615 301.084 506.155 300.976 505.755 300.76C505.355 300.536 505.039 300.212 504.807 299.788C504.583 299.356 504.471 298.844 504.471 298.252V294.352H506.151V298.012C506.151 298.54 506.283 298.948 506.547 299.236C506.811 299.516 507.171 299.656 507.627 299.656C508.091 299.656 508.455 299.516 508.719 299.236C508.983 298.948 509.115 298.54 509.115 298.012V294.352H510.807ZM513.556 293.56C513.26 293.56 513.012 293.468 512.812 293.284C512.62 293.092 512.524 292.856 512.524 292.576C512.524 292.296 512.62 292.064 512.812 291.88C513.012 291.688 513.26 291.592 513.556 291.592C513.852 291.592 514.096 291.688 514.288 291.88C514.488 292.064 514.588 292.296 514.588 292.576C514.588 292.856 514.488 293.092 514.288 293.284C514.096 293.468 513.852 293.56 513.556 293.56ZM514.384 294.352V301H512.704V294.352H514.384ZM517.964 295.384C518.18 295.032 518.46 294.756 518.804 294.556C519.156 294.356 519.556 294.256 520.004 294.256V296.02H519.56C519.032 296.02 518.632 296.144 518.36 296.392C518.096 296.64 517.964 297.072 517.964 297.688V301H516.284V294.352H517.964V295.384ZM527.556 297.532C527.556 297.772 527.54 297.988 527.508 298.18H522.648C522.688 298.66 522.856 299.036 523.152 299.308C523.448 299.58 523.812 299.716 524.244 299.716C524.868 299.716 525.312 299.448 525.576 298.912H527.388C527.196 299.552 526.828 300.08 526.284 300.496C525.74 300.904 525.072 301.108 524.28 301.108C523.64 301.108 523.064 300.968 522.552 300.688C522.048 300.4 521.652 299.996 521.364 299.476C521.084 298.956 520.944 298.356 520.944 297.676C520.944 296.988 521.084 296.384 521.364 295.864C521.644 295.344 522.036 294.944 522.54 294.664C523.044 294.384 523.624 294.244 524.28 294.244C524.912 294.244 525.476 294.38 525.972 294.652C526.476 294.924 526.864 295.312 527.136 295.816C527.416 296.312 527.556 296.884 527.556 297.532ZM525.816 297.052C525.808 296.62 525.652 296.276 525.348 296.02C525.044 295.756 524.672 295.624 524.232 295.624C523.816 295.624 523.464 295.752 523.176 296.008C522.896 296.256 522.724 296.604 522.66 297.052H525.816ZM528.59 297.652C528.59 296.98 528.722 296.384 528.986 295.864C529.258 295.344 529.626 294.944 530.09 294.664C530.554 294.384 531.07 294.244 531.638 294.244C532.07 294.244 532.482 294.34 532.874 294.532C533.266 294.716 533.578 294.964 533.81 295.276V292.12H535.514V301H533.81V300.016C533.602 300.344 533.31 300.608 532.934 300.808C532.558 301.008 532.122 301.108 531.626 301.108C531.066 301.108 530.554 300.964 530.09 300.676C529.626 300.388 529.258 299.984 528.986 299.464C528.722 298.936 528.59 298.332 528.59 297.652ZM533.822 297.676C533.822 297.268 533.742 296.92 533.582 296.632C533.422 296.336 533.206 296.112 532.934 295.96C532.662 295.8 532.37 295.72 532.058 295.72C531.746 295.72 531.458 295.796 531.194 295.948C530.93 296.1 530.714 296.324 530.546 296.62C530.386 296.908 530.306 297.252 530.306 297.652C530.306 298.052 530.386 298.404 530.546 298.708C530.714 299.004 530.93 299.232 531.194 299.392C531.466 299.552 531.754 299.632 532.058 299.632C532.37 299.632 532.662 299.556 532.934 299.404C533.206 299.244 533.422 299.02 533.582 298.732C533.742 298.436 533.822 298.084 533.822 297.676Z" fill="white"/>
<path d="M377.9 292H368.1C367.543 292 367.009 292.221 366.615 292.615C366.221 293.009 366 293.543 366 294.1V300.4C366 300.957 366.221 301.491 366.615 301.885C367.009 302.279 367.543 302.5 368.1 302.5H377.9C378.457 302.5 378.991 302.279 379.385 301.885C379.779 301.491 380 300.957 380 300.4V294.1C380 293.543 379.779 293.009 379.385 292.615C378.991 292.221 378.457 292 377.9 292ZM378.6 300.4C378.6 300.586 378.526 300.764 378.395 300.895C378.264 301.026 378.086 301.1 377.9 301.1H368.1C367.914 301.1 367.736 301.026 367.605 300.895C367.474 300.764 367.4 300.586 367.4 300.4V296.2H378.6V300.4ZM378.6 294.8H367.4V294.1C367.4 293.914 367.474 293.736 367.605 293.605C367.736 293.474 367.914 293.4 368.1 293.4H377.9C378.086 293.4 378.264 293.474 378.395 293.605C378.526 293.736 378.6 293.914 378.6 294.1V294.8Z" fill="white"/>
<path d="M638.564 299.296V297.976L642.488 292.36H644.444V297.832H645.5V299.296H644.444V301H642.764V299.296H638.564ZM642.872 294.16L640.412 297.832H642.872V294.16ZM647.746 301.084C647.442 301.084 647.19 300.992 646.99 300.808C646.798 300.616 646.702 300.38 646.702 300.1C646.702 299.82 646.798 299.588 646.99 299.404C647.19 299.212 647.442 299.116 647.746 299.116C648.042 299.116 648.286 299.212 648.478 299.404C648.67 299.588 648.766 299.82 648.766 300.1C648.766 300.38 648.67 300.616 648.478 300.808C648.286 300.992 648.042 301.084 647.746 301.084ZM651.631 296.368C650.831 295.952 650.431 295.308 650.431 294.436C650.431 294.004 650.539 293.612 650.755 293.26C650.979 292.9 651.311 292.616 651.751 292.408C652.199 292.192 652.743 292.084 653.383 292.084C654.023 292.084 654.563 292.192 655.003 292.408C655.451 292.616 655.783 292.9 655.999 293.26C656.223 293.612 656.335 294.004 656.335 294.436C656.335 294.876 656.227 295.264 656.011 295.6C655.795 295.928 655.507 296.184 655.147 296.368C655.587 296.56 655.931 296.84 656.179 297.208C656.427 297.576 656.551 298.012 656.551 298.516C656.551 299.06 656.411 299.536 656.131 299.944C655.859 300.344 655.483 300.652 655.003 300.868C654.523 301.084 653.983 301.192 653.383 301.192C652.783 301.192 652.243 301.084 651.763 300.868C651.291 300.652 650.915 300.344 650.635 299.944C650.363 299.536 650.227 299.06 650.227 298.516C650.227 298.012 650.351 297.576 650.599 297.208C650.847 296.832 651.191 296.552 651.631 296.368ZM654.703 294.676C654.703 294.284 654.583 293.98 654.343 293.764C654.111 293.548 653.791 293.44 653.383 293.44C652.983 293.44 652.663 293.548 652.423 293.764C652.191 293.98 652.075 294.288 652.075 294.688C652.075 295.048 652.195 295.336 652.435 295.552C652.683 295.768 652.999 295.876 653.383 295.876C653.767 295.876 654.083 295.768 654.331 295.552C654.579 295.328 654.703 295.036 654.703 294.676ZM653.383 297.1C652.927 297.1 652.555 297.216 652.267 297.448C651.987 297.68 651.847 298.012 651.847 298.444C651.847 298.844 651.983 299.172 652.255 299.428C652.535 299.676 652.911 299.8 653.383 299.8C653.855 299.8 654.227 299.672 654.499 299.416C654.771 299.16 654.907 298.836 654.907 298.444C654.907 298.02 654.767 297.692 654.487 297.46C654.207 297.22 653.839 297.1 653.383 297.1ZM662.81 289.636L659.57 303.172H657.926L661.166 289.636H662.81ZM670.074 293.704H666.186V295.756C666.354 295.548 666.594 295.38 666.906 295.252C667.218 295.116 667.55 295.048 667.902 295.048C668.542 295.048 669.066 295.188 669.474 295.468C669.882 295.748 670.178 296.108 670.362 296.548C670.546 296.98 670.638 297.444 670.638 297.94C670.638 298.86 670.374 299.6 669.846 300.16C669.326 300.72 668.582 301 667.614 301C666.702 301 665.974 300.772 665.43 300.316C664.886 299.86 664.578 299.264 664.506 298.528H666.138C666.21 298.848 666.37 299.104 666.618 299.296C666.874 299.488 667.198 299.584 667.59 299.584C668.062 299.584 668.418 299.436 668.658 299.14C668.898 298.844 669.018 298.452 669.018 297.964C669.018 297.468 668.894 297.092 668.646 296.836C668.406 296.572 668.05 296.44 667.578 296.44C667.242 296.44 666.962 296.524 666.738 296.692C666.514 296.86 666.354 297.084 666.258 297.364H664.65V292.228H670.074V293.704ZM681.28 295.144C681.088 294.792 680.824 294.524 680.488 294.34C680.152 294.156 679.76 294.064 679.312 294.064C678.816 294.064 678.376 294.176 677.992 294.4C677.608 294.624 677.308 294.944 677.092 295.36C676.876 295.776 676.768 296.256 676.768 296.8C676.768 297.36 676.876 297.848 677.092 298.264C677.316 298.68 677.624 299 678.016 299.224C678.408 299.448 678.864 299.56 679.384 299.56C680.024 299.56 680.548 299.392 680.956 299.056C681.364 298.712 681.632 298.236 681.76 297.628H678.88V296.344H683.416V297.808C683.304 298.392 683.064 298.932 682.696 299.428C682.328 299.924 681.852 300.324 681.268 300.628C680.692 300.924 680.044 301.072 679.324 301.072C678.516 301.072 677.784 300.892 677.128 300.532C676.48 300.164 675.968 299.656 675.592 299.008C675.224 298.36 675.04 297.624 675.04 296.8C675.04 295.976 675.224 295.24 675.592 294.592C675.968 293.936 676.48 293.428 677.128 293.068C677.784 292.7 678.512 292.516 679.312 292.516C680.256 292.516 681.076 292.748 681.772 293.212C682.468 293.668 682.948 294.312 683.212 295.144H681.28ZM685.235 299.104C686.003 298.464 686.615 297.932 687.071 297.508C687.527 297.076 687.907 296.628 688.211 296.164C688.515 295.7 688.667 295.244 688.667 294.796C688.667 294.388 688.571 294.068 688.379 293.836C688.187 293.604 687.891 293.488 687.491 293.488C687.091 293.488 686.783 293.624 686.567 293.896C686.351 294.16 686.239 294.524 686.231 294.988H684.599C684.631 294.028 684.915 293.3 685.451 292.804C685.995 292.308 686.683 292.06 687.515 292.06C688.427 292.06 689.127 292.304 689.615 292.792C690.103 293.272 690.347 293.908 690.347 294.7C690.347 295.324 690.179 295.92 689.843 296.488C689.507 297.056 689.123 297.552 688.691 297.976C688.259 298.392 687.695 298.896 686.999 299.488H690.539V300.88H684.611V299.632L685.235 299.104ZM699.449 301L697.601 297.736H696.809V301H695.129V292.624H698.273C698.921 292.624 699.473 292.74 699.929 292.972C700.385 293.196 700.725 293.504 700.949 293.896C701.181 294.28 701.297 294.712 701.297 295.192C701.297 295.744 701.137 296.244 700.817 296.692C700.497 297.132 700.021 297.436 699.389 297.604L701.393 301H699.449ZM696.809 296.476H698.213C698.669 296.476 699.009 296.368 699.233 296.152C699.457 295.928 699.569 295.62 699.569 295.228C699.569 294.844 699.457 294.548 699.233 294.34C699.009 294.124 698.669 294.016 698.213 294.016H696.809V296.476ZM702.624 297.652C702.624 296.98 702.756 296.384 703.02 295.864C703.292 295.344 703.656 294.944 704.112 294.664C704.576 294.384 705.092 294.244 705.66 294.244C706.156 294.244 706.588 294.344 706.956 294.544C707.332 294.744 707.632 294.996 707.856 295.3V294.352H709.548V301H707.856V300.028C707.64 300.34 707.34 300.6 706.956 300.808C706.58 301.008 706.144 301.108 705.648 301.108C705.088 301.108 704.576 300.964 704.112 300.676C703.656 300.388 703.292 299.984 703.02 299.464C702.756 298.936 702.624 298.332 702.624 297.652ZM707.856 297.676C707.856 297.268 707.776 296.92 707.616 296.632C707.456 296.336 707.24 296.112 706.968 295.96C706.696 295.8 706.404 295.72 706.092 295.72C705.78 295.72 705.492 295.796 705.228 295.948C704.964 296.1 704.748 296.324 704.58 296.62C704.42 296.908 704.34 297.252 704.34 297.652C704.34 298.052 704.42 298.404 704.58 298.708C704.748 299.004 704.964 299.232 705.228 299.392C705.5 299.552 705.788 299.632 706.092 299.632C706.404 299.632 706.696 299.556 706.968 299.404C707.24 299.244 707.456 299.02 707.616 298.732C707.776 298.436 707.856 298.084 707.856 297.676ZM713.385 295.732V298.948C713.385 299.172 713.437 299.336 713.541 299.44C713.653 299.536 713.837 299.584 714.093 299.584H714.873V301H713.817C712.401 301 711.693 300.312 711.693 298.936V295.732H710.901V294.352H711.693V292.708H713.385V294.352H714.873V295.732H713.385ZM717.173 293.56C716.877 293.56 716.629 293.468 716.429 293.284C716.237 293.092 716.141 292.856 716.141 292.576C716.141 292.296 716.237 292.064 716.429 291.88C716.629 291.688 716.877 291.592 717.173 291.592C717.469 291.592 717.713 291.688 717.905 291.88C718.105 292.064 718.205 292.296 718.205 292.576C718.205 292.856 718.105 293.092 717.905 293.284C717.713 293.468 717.469 293.56 717.173 293.56ZM718.001 294.352V301H716.321V294.352H718.001ZM723.585 294.256C724.377 294.256 725.017 294.508 725.505 295.012C725.993 295.508 726.237 296.204 726.237 297.1V301H724.557V297.328C724.557 296.8 724.425 296.396 724.161 296.116C723.897 295.828 723.537 295.684 723.081 295.684C722.617 295.684 722.249 295.828 721.977 296.116C721.713 296.396 721.581 296.8 721.581 297.328V301H719.901V294.352H721.581V295.18C721.805 294.892 722.089 294.668 722.433 294.508C722.785 294.34 723.169 294.256 723.585 294.256ZM730.679 294.244C731.175 294.244 731.611 294.344 731.987 294.544C732.363 294.736 732.659 294.988 732.875 295.3V294.352H734.567V301.048C734.567 301.664 734.443 302.212 734.195 302.692C733.947 303.18 733.575 303.564 733.079 303.844C732.583 304.132 731.983 304.276 731.279 304.276C730.335 304.276 729.559 304.056 728.951 303.616C728.351 303.176 728.011 302.576 727.931 301.816H729.599C729.687 302.12 729.875 302.36 730.163 302.536C730.459 302.72 730.815 302.812 731.231 302.812C731.719 302.812 732.115 302.664 732.419 302.368C732.723 302.08 732.875 301.64 732.875 301.048V300.016C732.659 300.328 732.359 300.588 731.975 300.796C731.599 301.004 731.167 301.108 730.679 301.108C730.119 301.108 729.607 300.964 729.143 300.676C728.679 300.388 728.311 299.984 728.039 299.464C727.775 298.936 727.643 298.332 727.643 297.652C727.643 296.98 727.775 296.384 728.039 295.864C728.311 295.344 728.675 294.944 729.131 294.664C729.595 294.384 730.111 294.244 730.679 294.244ZM732.875 297.676C732.875 297.268 732.795 296.92 732.635 296.632C732.475 296.336 732.259 296.112 731.987 295.96C731.715 295.8 731.423 295.72 731.111 295.72C730.799 295.72 730.511 295.796 730.247 295.948C729.983 296.1 729.767 296.324 729.599 296.62C729.439 296.908 729.359 297.252 729.359 297.652C729.359 298.052 729.439 298.404 729.599 298.708C729.767 299.004 729.983 299.232 730.247 299.392C730.519 299.552 730.807 299.632 731.111 299.632C731.423 299.632 731.715 299.556 731.987 299.404C732.259 299.244 732.475 299.02 732.635 298.732C732.795 298.436 732.875 298.084 732.875 297.676ZM738.992 301.108C738.448 301.108 737.96 301.012 737.528 300.82C737.096 300.62 736.752 300.352 736.496 300.016C736.248 299.68 736.112 299.308 736.088 298.9H737.78C737.812 299.156 737.936 299.368 738.152 299.536C738.376 299.704 738.652 299.788 738.98 299.788C739.3 299.788 739.548 299.724 739.724 299.596C739.908 299.468 740 299.304 740 299.104C740 298.888 739.888 298.728 739.664 298.624C739.448 298.512 739.1 298.392 738.62 298.264C738.124 298.144 737.716 298.02 737.396 297.892C737.084 297.764 736.812 297.568 736.58 297.304C736.356 297.04 736.244 296.684 736.244 296.236C736.244 295.868 736.348 295.532 736.556 295.228C736.772 294.924 737.076 294.684 737.468 294.508C737.868 294.332 738.336 294.244 738.872 294.244C739.664 294.244 740.296 294.444 740.768 294.844C741.24 295.236 741.5 295.768 741.548 296.44H739.94C739.916 296.176 739.804 295.968 739.604 295.816C739.412 295.656 739.152 295.576 738.824 295.576C738.52 295.576 738.284 295.632 738.116 295.744C737.956 295.856 737.876 296.012 737.876 296.212C737.876 296.436 737.988 296.608 738.212 296.728C738.436 296.84 738.784 296.956 739.256 297.076C739.736 297.196 740.132 297.32 740.444 297.448C740.756 297.576 741.024 297.776 741.248 298.048C741.48 298.312 741.6 298.664 741.608 299.104C741.608 299.488 741.5 299.832 741.284 300.136C741.076 300.44 740.772 300.68 740.372 300.856C739.98 301.024 739.52 301.108 738.992 301.108Z" fill="white"/>
<g clip-path="url(#clip0_174_2008)">
<g clip-path="url(#clip1_174_2008)">
<path d="M627.838 295.16H623.186L621.744 290.65L620.302 295.16H615.65L619.408 297.943L617.986 302.432L621.744 299.649L625.502 302.432L624.06 297.922L627.838 295.16Z" fill="#C7C7C7"/>
<path d="M623.807 295.16H623.186L621.744 290.65L620.302 295.16H615.65L619.408 297.943L617.986 302.432L621.744 299.649L623.807 301.18V297.943V295.16Z" fill="#FFC200"/>
</g>
<g clip-path="url(#clip2_174_2008)">
<path d="M575.594 295.119H570.942L569.5 290.609L568.058 295.119H563.406L567.164 297.902L565.742 302.391L569.5 299.608L573.258 302.391L571.816 297.881L575.594 295.119Z" fill="#FFC200"/>
</g>
<g clip-path="url(#clip3_174_2008)">
<path d="M588.594 295.119H583.942L582.5 290.609L581.058 295.119H576.406L580.164 297.902L578.742 302.391L582.5 299.608L586.258 302.391L584.816 297.881L588.594 295.119Z" fill="#FFC200"/>
</g>
<g clip-path="url(#clip4_174_2008)">
<path d="M601.594 295.119H596.942L595.5 290.609L594.058 295.119H589.406L593.164 297.902L591.742 302.391L595.5 299.608L599.258 302.391L597.816 297.881L601.594 295.119Z" fill="#FFC200"/>
</g>
<g clip-path="url(#clip5_174_2008)">
<path d="M614.594 295.119H609.942L608.5 290.609L607.058 295.119H602.406L606.164 297.902L604.742 302.391L608.5 299.608L612.258 302.391L610.816 297.881L614.594 295.119Z" fill="#FFC200"/>
</g>
</g>
<rect x="466" y="227" width="175" height="38" rx="5" fill="#0084FF"/>
<path d="M500.248 244.08C499.96 243.525 499.56 243.109 499.048 242.832C498.536 242.544 497.944 242.4 497.272 242.4C496.536 242.4 495.88 242.565 495.304 242.896C494.728 243.227 494.275 243.696 493.944 244.304C493.624 244.912 493.464 245.616 493.464 246.416C493.464 247.216 493.624 247.925 493.944 248.544C494.275 249.152 494.728 249.621 495.304 249.952C495.88 250.283 496.536 250.448 497.272 250.448C498.264 250.448 499.069 250.171 499.688 249.616C500.307 249.061 500.685 248.309 500.824 247.36H496.648V245.904H502.776V247.328C502.659 248.192 502.349 248.987 501.848 249.712C501.357 250.437 500.712 251.019 499.912 251.456C499.123 251.883 498.243 252.096 497.272 252.096C496.227 252.096 495.272 251.856 494.408 251.376C493.544 250.885 492.856 250.208 492.344 249.344C491.843 248.48 491.592 247.504 491.592 246.416C491.592 245.328 491.843 244.352 492.344 243.488C492.856 242.624 493.544 241.952 494.408 241.472C495.283 240.981 496.237 240.736 497.272 240.736C498.456 240.736 499.507 241.029 500.424 241.616C501.352 242.192 502.024 243.013 502.44 244.08H500.248ZM506.399 244.464C506.666 244.016 507.018 243.669 507.455 243.424C507.903 243.168 508.431 243.04 509.039 243.04V244.928H508.575C507.86 244.928 507.316 245.109 506.943 245.472C506.58 245.835 506.399 246.464 506.399 247.36V252H504.575V243.184H506.399V244.464ZM510.108 247.552C510.108 246.667 510.289 245.883 510.652 245.2C511.025 244.517 511.526 243.989 512.156 243.616C512.796 243.232 513.5 243.04 514.268 243.04C514.961 243.04 515.564 243.179 516.076 243.456C516.598 243.723 517.014 244.059 517.324 244.464V243.184H519.164V252H517.324V250.688C517.014 251.104 516.593 251.451 516.06 251.728C515.526 252.005 514.918 252.144 514.236 252.144C513.478 252.144 512.785 251.952 512.156 251.568C511.526 251.173 511.025 250.629 510.652 249.936C510.289 249.232 510.108 248.437 510.108 247.552ZM517.324 247.584C517.324 246.976 517.196 246.448 516.94 246C516.694 245.552 516.369 245.211 515.964 244.976C515.558 244.741 515.121 244.624 514.652 244.624C514.182 244.624 513.745 244.741 513.34 244.976C512.934 245.2 512.604 245.536 512.348 245.984C512.102 246.421 511.98 246.944 511.98 247.552C511.98 248.16 512.102 248.693 512.348 249.152C512.604 249.611 512.934 249.963 513.34 250.208C513.756 250.443 514.193 250.56 514.652 250.56C515.121 250.56 515.558 250.443 515.964 250.208C516.369 249.973 516.694 249.632 516.94 249.184C517.196 248.725 517.324 248.192 517.324 247.584ZM523.383 244.496C523.693 244.069 524.114 243.723 524.647 243.456C525.191 243.179 525.794 243.04 526.455 243.04C527.234 243.04 527.938 243.227 528.567 243.6C529.197 243.973 529.693 244.507 530.055 245.2C530.418 245.883 530.599 246.667 530.599 247.552C530.599 248.437 530.418 249.232 530.055 249.936C529.693 250.629 529.191 251.173 528.551 251.568C527.922 251.952 527.223 252.144 526.455 252.144C525.773 252.144 525.165 252.011 524.631 251.744C524.109 251.477 523.693 251.136 523.383 250.72V252H521.559V240.16H523.383V244.496ZM528.743 247.552C528.743 246.944 528.615 246.421 528.359 245.984C528.114 245.536 527.783 245.2 527.367 244.976C526.962 244.741 526.525 244.624 526.055 244.624C525.597 244.624 525.159 244.741 524.743 244.976C524.338 245.211 524.007 245.552 523.751 246C523.506 246.448 523.383 246.976 523.383 247.584C523.383 248.192 523.506 248.725 523.751 249.184C524.007 249.632 524.338 249.973 524.743 250.208C525.159 250.443 525.597 250.56 526.055 250.56C526.525 250.56 526.962 250.443 527.367 250.208C527.783 249.963 528.114 249.611 528.359 249.152C528.615 248.693 528.743 248.16 528.743 247.552ZM540.255 244.672H538.623V252H536.783V244.672H535.743V243.184H536.783V242.56C536.783 241.547 537.05 240.811 537.583 240.352C538.127 239.883 538.975 239.648 540.127 239.648V241.168C539.573 241.168 539.183 241.275 538.959 241.488C538.735 241.691 538.623 242.048 538.623 242.56V243.184H540.255V244.672ZM543.696 244.464C543.963 244.016 544.315 243.669 544.752 243.424C545.2 243.168 545.728 243.04 546.336 243.04V244.928H545.872C545.157 244.928 544.613 245.109 544.24 245.472C543.877 245.835 543.696 246.464 543.696 247.36V252H541.872V243.184H543.696V244.464ZM556.093 247.376C556.093 247.707 556.071 248.005 556.029 248.272H549.293C549.346 248.976 549.607 249.541 550.077 249.968C550.546 250.395 551.122 250.608 551.805 250.608C552.786 250.608 553.479 250.197 553.885 249.376H555.852C555.586 250.187 555.101 250.853 554.397 251.376C553.703 251.888 552.839 252.144 551.805 252.144C550.962 252.144 550.205 251.957 549.533 251.584C548.871 251.2 548.349 250.667 547.965 249.984C547.591 249.291 547.405 248.491 547.405 247.584C547.405 246.677 547.586 245.883 547.949 245.2C548.322 244.507 548.839 243.973 549.501 243.6C550.173 243.227 550.941 243.04 551.805 243.04C552.637 243.04 553.378 243.221 554.029 243.584C554.679 243.947 555.186 244.459 555.549 245.12C555.911 245.771 556.093 246.523 556.093 247.376ZM554.189 246.8C554.178 246.128 553.938 245.589 553.469 245.184C552.999 244.779 552.418 244.576 551.725 244.576C551.095 244.576 550.557 244.779 550.109 245.184C549.661 245.579 549.394 246.117 549.309 246.8H554.189ZM565.968 247.376C565.968 247.707 565.946 248.005 565.904 248.272H559.168C559.221 248.976 559.482 249.541 559.952 249.968C560.421 250.395 560.997 250.608 561.68 250.608C562.661 250.608 563.354 250.197 563.76 249.376H565.727C565.461 250.187 564.976 250.853 564.272 251.376C563.578 251.888 562.714 252.144 561.68 252.144C560.837 252.144 560.08 251.957 559.408 251.584C558.746 251.2 558.224 250.667 557.84 249.984C557.466 249.291 557.28 248.491 557.28 247.584C557.28 246.677 557.461 245.883 557.824 245.2C558.197 244.507 558.714 243.973 559.376 243.6C560.048 243.227 560.816 243.04 561.68 243.04C562.512 243.04 563.253 243.221 563.904 243.584C564.554 243.947 565.061 244.459 565.424 245.12C565.786 245.771 565.968 246.523 565.968 247.376ZM564.064 246.8C564.053 246.128 563.813 245.589 563.344 245.184C562.874 244.779 562.293 244.576 561.6 244.576C560.97 244.576 560.432 244.779 559.984 245.184C559.536 245.579 559.269 246.117 559.184 246.8H564.064ZM573.743 240.16V252H571.919V240.16H573.743ZM584.218 247.376C584.218 247.707 584.196 248.005 584.154 248.272H577.418C577.471 248.976 577.732 249.541 578.202 249.968C578.671 250.395 579.247 250.608 579.93 250.608C580.911 250.608 581.604 250.197 582.01 249.376H583.977C583.711 250.187 583.226 250.853 582.522 251.376C581.828 251.888 580.964 252.144 579.93 252.144C579.087 252.144 578.33 251.957 577.658 251.584C576.996 251.2 576.474 250.667 576.09 249.984C575.716 249.291 575.53 248.491 575.53 247.584C575.53 246.677 575.711 245.883 576.074 245.2C576.447 244.507 576.964 243.973 577.626 243.6C578.298 243.227 579.066 243.04 579.93 243.04C580.762 243.04 581.503 243.221 582.154 243.584C582.804 243.947 583.311 244.459 583.674 245.12C584.036 245.771 584.218 246.523 584.218 247.376ZM582.314 246.8C582.303 246.128 582.063 245.589 581.594 245.184C581.124 244.779 580.543 244.576 579.85 244.576C579.22 244.576 578.682 244.779 578.234 245.184C577.786 245.579 577.519 246.117 577.434 246.8H582.314ZM585.405 247.552C585.405 246.667 585.586 245.883 585.949 245.2C586.322 244.517 586.823 243.989 587.453 243.616C588.093 243.232 588.797 243.04 589.565 243.04C590.258 243.04 590.861 243.179 591.373 243.456C591.895 243.723 592.311 244.059 592.621 244.464V243.184H594.461V252H592.621V250.688C592.311 251.104 591.89 251.451 591.357 251.728C590.823 252.005 590.215 252.144 589.533 252.144C588.775 252.144 588.082 251.952 587.453 251.568C586.823 251.173 586.322 250.629 585.949 249.936C585.586 249.232 585.405 248.437 585.405 247.552ZM592.621 247.584C592.621 246.976 592.493 246.448 592.237 246C591.991 245.552 591.666 245.211 591.261 244.976C590.855 244.741 590.418 244.624 589.949 244.624C589.479 244.624 589.042 244.741 588.637 244.976C588.231 245.2 587.901 245.536 587.645 245.984C587.399 246.421 587.277 246.944 587.277 247.552C587.277 248.16 587.399 248.693 587.645 249.152C587.901 249.611 588.231 249.963 588.637 250.208C589.053 250.443 589.49 250.56 589.949 250.56C590.418 250.56 590.855 250.443 591.261 250.208C591.666 249.973 591.991 249.632 592.237 249.184C592.493 248.725 592.621 248.192 592.621 247.584ZM596.248 247.552C596.248 246.667 596.43 245.883 596.792 245.2C597.166 244.517 597.667 243.989 598.296 243.616C598.936 243.232 599.646 243.04 600.424 243.04C601 243.04 601.566 243.168 602.12 243.424C602.686 243.669 603.134 244 603.464 244.416V240.16H605.304V252H603.464V250.672C603.166 251.099 602.75 251.451 602.216 251.728C601.694 252.005 601.091 252.144 600.408 252.144C599.64 252.144 598.936 251.952 598.296 251.568C597.667 251.173 597.166 250.629 596.792 249.936C596.43 249.232 596.248 248.437 596.248 247.552ZM603.464 247.584C603.464 246.976 603.336 246.448 603.08 246C602.835 245.552 602.51 245.211 602.104 244.976C601.699 244.741 601.262 244.624 600.792 244.624C600.323 244.624 599.886 244.741 599.48 244.976C599.075 245.2 598.744 245.536 598.488 245.984C598.243 246.421 598.12 246.944 598.12 247.552C598.12 248.16 598.243 248.693 598.488 249.152C598.744 249.611 599.075 249.963 599.48 250.208C599.896 250.443 600.334 250.56 600.792 250.56C601.262 250.56 601.699 250.443 602.104 250.208C602.51 249.973 602.835 249.632 603.08 249.184C603.336 248.725 603.464 248.192 603.464 247.584ZM610.9 252.144C610.207 252.144 609.583 252.021 609.028 251.776C608.484 251.52 608.052 251.179 607.732 250.752C607.412 250.315 607.241 249.829 607.22 249.296H609.108C609.14 249.669 609.316 249.984 609.636 250.24C609.967 250.485 610.377 250.608 610.868 250.608C611.38 250.608 611.775 250.512 612.052 250.32C612.34 250.117 612.484 249.861 612.484 249.552C612.484 249.221 612.324 248.976 612.004 248.816C611.695 248.656 611.199 248.48 610.516 248.288C609.855 248.107 609.316 247.931 608.9 247.76C608.484 247.589 608.121 247.328 607.812 246.976C607.513 246.624 607.364 246.16 607.364 245.584C607.364 245.115 607.503 244.688 607.78 244.304C608.057 243.909 608.452 243.6 608.964 243.376C609.487 243.152 610.084 243.04 610.756 243.04C611.759 243.04 612.564 243.296 613.172 243.808C613.791 244.309 614.121 244.997 614.164 245.872H612.34C612.308 245.477 612.148 245.163 611.86 244.928C611.572 244.693 611.183 244.576 610.692 244.576C610.212 244.576 609.844 244.667 609.588 244.848C609.332 245.029 609.204 245.269 609.204 245.568C609.204 245.803 609.289 246 609.46 246.16C609.631 246.32 609.839 246.448 610.084 246.544C610.329 246.629 610.692 246.741 611.172 246.88C611.812 247.051 612.335 247.227 612.74 247.408C613.156 247.579 613.513 247.835 613.812 248.176C614.111 248.517 614.265 248.971 614.276 249.536C614.276 250.037 614.137 250.485 613.86 250.88C613.583 251.275 613.188 251.584 612.676 251.808C612.175 252.032 611.583 252.144 610.9 252.144Z" fill="white"/>
<path d="M422.128 174.04V176.3H418.408V188H415.608V176.3H411.888V174.04H422.128ZM426.971 178.64C427.331 178.053 427.798 177.593 428.371 177.26C428.958 176.927 429.624 176.76 430.371 176.76V179.7H429.631C428.751 179.7 428.084 179.907 427.631 180.32C427.191 180.733 426.971 181.453 426.971 182.48V188H424.171V176.92H426.971V178.64ZM442.857 176.92L435.997 193.24H433.017L435.417 187.72L430.977 176.92H434.117L436.977 184.66L439.877 176.92H442.857ZM457.052 180.84C457.839 180.987 458.485 181.38 458.992 182.02C459.499 182.66 459.752 183.393 459.752 184.22C459.752 184.967 459.565 185.627 459.192 186.2C458.832 186.76 458.305 187.2 457.612 187.52C456.919 187.84 456.099 188 455.152 188H449.132V174.04H454.892C455.839 174.04 456.652 174.193 457.332 174.5C458.025 174.807 458.545 175.233 458.892 175.78C459.252 176.327 459.432 176.947 459.432 177.64C459.432 178.453 459.212 179.133 458.772 179.68C458.345 180.227 457.772 180.613 457.052 180.84ZM451.932 179.8H454.492C455.159 179.8 455.672 179.653 456.032 179.36C456.392 179.053 456.572 178.62 456.572 178.06C456.572 177.5 456.392 177.067 456.032 176.76C455.672 176.453 455.159 176.3 454.492 176.3H451.932V179.8ZM454.752 185.72C455.432 185.72 455.959 185.56 456.332 185.24C456.719 184.92 456.912 184.467 456.912 183.88C456.912 183.28 456.712 182.813 456.312 182.48C455.912 182.133 455.372 181.96 454.692 181.96H451.932V185.72H454.752ZM464.784 178.64C465.144 178.053 465.61 177.593 466.184 177.26C466.77 176.927 467.437 176.76 468.184 176.76V179.7H467.444C466.564 179.7 465.897 179.907 465.444 180.32C465.004 180.733 464.784 181.453 464.784 182.48V188H461.984V176.92H464.784V178.64ZM469.349 182.42C469.349 181.3 469.569 180.307 470.009 179.44C470.463 178.573 471.069 177.907 471.829 177.44C472.603 176.973 473.463 176.74 474.409 176.74C475.236 176.74 475.956 176.907 476.569 177.24C477.196 177.573 477.696 177.993 478.069 178.5V176.92H480.889V188H478.069V186.38C477.709 186.9 477.209 187.333 476.569 187.68C475.943 188.013 475.216 188.18 474.389 188.18C473.456 188.18 472.603 187.94 471.829 187.46C471.069 186.98 470.463 186.307 470.009 185.44C469.569 184.56 469.349 183.553 469.349 182.42ZM478.069 182.46C478.069 181.78 477.936 181.2 477.669 180.72C477.403 180.227 477.043 179.853 476.589 179.6C476.136 179.333 475.649 179.2 475.129 179.2C474.609 179.2 474.129 179.327 473.689 179.58C473.249 179.833 472.889 180.207 472.609 180.7C472.343 181.18 472.209 181.753 472.209 182.42C472.209 183.087 472.343 183.673 472.609 184.18C472.889 184.673 473.249 185.053 473.689 185.32C474.143 185.587 474.623 185.72 475.129 185.72C475.649 185.72 476.136 185.593 476.589 185.34C477.043 185.073 477.403 184.7 477.669 184.22C477.936 183.727 478.069 183.14 478.069 182.46ZM489.764 176.76C491.084 176.76 492.151 177.18 492.964 178.02C493.777 178.847 494.184 180.007 494.184 181.5V188H491.384V181.88C491.384 181 491.164 180.327 490.724 179.86C490.284 179.38 489.684 179.14 488.924 179.14C488.151 179.14 487.537 179.38 487.084 179.86C486.644 180.327 486.424 181 486.424 181.88V188H483.624V176.92H486.424V178.3C486.797 177.82 487.271 177.447 487.844 177.18C488.431 176.9 489.071 176.76 489.764 176.76ZM496.127 182.42C496.127 181.3 496.347 180.307 496.787 179.44C497.24 178.573 497.853 177.907 498.627 177.44C499.4 176.973 500.26 176.74 501.207 176.74C501.927 176.74 502.613 176.9 503.267 177.22C503.92 177.527 504.44 177.94 504.827 178.46V173.2H507.667V188H504.827V186.36C504.48 186.907 503.993 187.347 503.367 187.68C502.74 188.013 502.013 188.18 501.187 188.18C500.253 188.18 499.4 187.94 498.627 187.46C497.853 186.98 497.24 186.307 496.787 185.44C496.347 184.56 496.127 183.553 496.127 182.42ZM504.847 182.46C504.847 181.78 504.713 181.2 504.447 180.72C504.18 180.227 503.82 179.853 503.367 179.6C502.913 179.333 502.427 179.2 501.907 179.2C501.387 179.2 500.907 179.327 500.467 179.58C500.027 179.833 499.667 180.207 499.387 180.7C499.12 181.18 498.987 181.753 498.987 182.42C498.987 183.087 499.12 183.673 499.387 184.18C499.667 184.673 500.027 185.053 500.467 185.32C500.92 185.587 501.4 185.72 501.907 185.72C502.427 185.72 502.913 185.593 503.367 185.34C503.82 185.073 504.18 184.7 504.447 184.22C504.713 183.727 504.847 183.14 504.847 182.46ZM522.341 188H519.541L513.201 178.42V188H510.401V174.02H513.201L519.541 183.62V174.02H522.341V188ZM524.389 182.42C524.389 181.3 524.609 180.307 525.049 179.44C525.502 178.573 526.109 177.907 526.869 177.44C527.642 176.973 528.502 176.74 529.449 176.74C530.275 176.74 530.995 176.907 531.609 177.24C532.235 177.573 532.735 177.993 533.109 178.5V176.92H535.929V188H533.109V186.38C532.749 186.9 532.249 187.333 531.609 187.68C530.982 188.013 530.255 188.18 529.429 188.18C528.495 188.18 527.642 187.94 526.869 187.46C526.109 186.98 525.502 186.307 525.049 185.44C524.609 184.56 524.389 183.553 524.389 182.42ZM533.109 182.46C533.109 181.78 532.975 181.2 532.709 180.72C532.442 180.227 532.082 179.853 531.629 179.6C531.175 179.333 530.689 179.2 530.169 179.2C529.649 179.2 529.169 179.327 528.729 179.58C528.289 179.833 527.929 180.207 527.649 180.7C527.382 181.18 527.249 181.753 527.249 182.42C527.249 183.087 527.382 183.673 527.649 184.18C527.929 184.673 528.289 185.053 528.729 185.32C529.182 185.587 529.662 185.72 530.169 185.72C530.689 185.72 531.175 185.593 531.629 185.34C532.082 185.073 532.442 184.7 532.709 184.22C532.975 183.727 533.109 183.14 533.109 182.46ZM543.283 185.42L546.083 176.92H549.063L544.963 188H541.563L537.483 176.92H540.483L543.283 185.42ZM560.481 179.22H558.541V188H555.701V179.22H554.441V176.92H555.701V176.36C555.701 175 556.088 174 556.861 173.36C557.635 172.72 558.801 172.42 560.361 172.46V174.82C559.681 174.807 559.208 174.92 558.941 175.16C558.675 175.4 558.541 175.833 558.541 176.46V176.92H560.481V179.22ZM567.216 188.18C566.149 188.18 565.189 187.947 564.336 187.48C563.483 187 562.809 186.327 562.316 185.46C561.836 184.593 561.596 183.593 561.596 182.46C561.596 181.327 561.843 180.327 562.336 179.46C562.843 178.593 563.529 177.927 564.396 177.46C565.263 176.98 566.229 176.74 567.296 176.74C568.363 176.74 569.329 176.98 570.196 177.46C571.063 177.927 571.743 178.593 572.236 179.46C572.743 180.327 572.996 181.327 572.996 182.46C572.996 183.593 572.736 184.593 572.216 185.46C571.709 186.327 571.016 187 570.136 187.48C569.269 187.947 568.296 188.18 567.216 188.18ZM567.216 185.74C567.723 185.74 568.196 185.62 568.636 185.38C569.089 185.127 569.449 184.753 569.716 184.26C569.983 183.767 570.116 183.167 570.116 182.46C570.116 181.407 569.836 180.6 569.276 180.04C568.729 179.467 568.056 179.18 567.256 179.18C566.456 179.18 565.783 179.467 565.236 180.04C564.703 180.6 564.436 181.407 564.436 182.46C564.436 183.513 564.696 184.327 565.216 184.9C565.749 185.46 566.416 185.74 567.216 185.74ZM577.85 178.64C578.21 178.053 578.677 177.593 579.25 177.26C579.837 176.927 580.503 176.76 581.25 176.76V179.7H580.51C579.63 179.7 578.963 179.907 578.51 180.32C578.07 180.733 577.85 181.453 577.85 182.48V188H575.05V176.92H577.85V178.64ZM592.981 179.22H591.041V188H588.201V179.22H586.941V176.92H588.201V176.36C588.201 175 588.588 174 589.361 173.36C590.135 172.72 591.301 172.42 592.861 172.46V174.82C592.181 174.807 591.708 174.92 591.441 175.16C591.175 175.4 591.041 175.833 591.041 176.46V176.92H592.981V179.22ZM597.596 178.64C597.956 178.053 598.423 177.593 598.996 177.26C599.583 176.927 600.249 176.76 600.996 176.76V179.7H600.256C599.376 179.7 598.709 179.907 598.256 180.32C597.816 180.733 597.596 181.453 597.596 182.48V188H594.796V176.92H597.596V178.64ZM613.182 182.22C613.182 182.62 613.155 182.98 613.102 183.3H605.002C605.069 184.1 605.349 184.727 605.842 185.18C606.335 185.633 606.942 185.86 607.662 185.86C608.702 185.86 609.442 185.413 609.882 184.52H612.902C612.582 185.587 611.969 186.467 611.062 187.16C610.155 187.84 609.042 188.18 607.722 188.18C606.655 188.18 605.695 187.947 604.842 187.48C604.002 187 603.342 186.327 602.862 185.46C602.395 184.593 602.162 183.593 602.162 182.46C602.162 181.313 602.395 180.307 602.862 179.44C603.329 178.573 603.982 177.907 604.822 177.44C605.662 176.973 606.629 176.74 607.722 176.74C608.775 176.74 609.715 176.967 610.542 177.42C611.382 177.873 612.029 178.52 612.482 179.36C612.949 180.187 613.182 181.14 613.182 182.22ZM610.282 181.42C610.269 180.7 610.009 180.127 609.502 179.7C608.995 179.26 608.375 179.04 607.642 179.04C606.949 179.04 606.362 179.253 605.882 179.68C605.415 180.093 605.129 180.673 605.022 181.42H610.282ZM625.526 182.22C625.526 182.62 625.499 182.98 625.446 183.3H617.346C617.412 184.1 617.692 184.727 618.186 185.18C618.679 185.633 619.286 185.86 620.006 185.86C621.046 185.86 621.786 185.413 622.226 184.52H625.246C624.926 185.587 624.312 186.467 623.406 187.16C622.499 187.84 621.386 188.18 620.066 188.18C618.999 188.18 618.039 187.947 617.186 187.48C616.346 187 615.686 186.327 615.206 185.46C614.739 184.593 614.506 183.593 614.506 182.46C614.506 181.313 614.739 180.307 615.206 179.44C615.672 178.573 616.326 177.907 617.166 177.44C618.006 176.973 618.972 176.74 620.066 176.74C621.119 176.74 622.059 176.967 622.886 177.42C623.726 177.873 624.372 178.52 624.826 179.36C625.292 180.187 625.526 181.14 625.526 182.22ZM622.626 181.42C622.612 180.7 622.352 180.127 621.846 179.7C621.339 179.26 620.719 179.04 619.986 179.04C619.292 179.04 618.706 179.253 618.226 179.68C617.759 180.093 617.472 180.673 617.366 181.42H622.626ZM635.595 179.22V184.58C635.595 184.953 635.682 185.227 635.855 185.4C636.042 185.56 636.348 185.64 636.775 185.64H638.075V188H636.315C633.955 188 632.775 186.853 632.775 184.56V179.22H631.455V176.92H632.775V174.18H635.595V176.92H638.075V179.22H635.595ZM645.009 188.18C643.942 188.18 642.982 187.947 642.129 187.48C641.276 187 640.602 186.327 640.109 185.46C639.629 184.593 639.389 183.593 639.389 182.46C639.389 181.327 639.636 180.327 640.129 179.46C640.636 178.593 641.322 177.927 642.189 177.46C643.056 176.98 644.022 176.74 645.089 176.74C646.156 176.74 647.122 176.98 647.989 177.46C648.856 177.927 649.536 178.593 650.029 179.46C650.536 180.327 650.789 181.327 650.789 182.46C650.789 183.593 650.529 184.593 650.009 185.46C649.502 186.327 648.809 187 647.929 187.48C647.062 187.947 646.089 188.18 645.009 188.18ZM645.009 185.74C645.516 185.74 645.989 185.62 646.429 185.38C646.882 185.127 647.242 184.753 647.509 184.26C647.776 183.767 647.909 183.167 647.909 182.46C647.909 181.407 647.629 180.6 647.069 180.04C646.522 179.467 645.849 179.18 645.049 179.18C644.249 179.18 643.576 179.467 643.029 180.04C642.496 180.6 642.229 181.407 642.229 182.46C642.229 183.513 642.489 184.327 643.009 184.9C643.542 185.46 644.209 185.74 645.009 185.74ZM652.123 182.42C652.123 181.3 652.343 180.307 652.783 179.44C653.236 178.573 653.85 177.907 654.623 177.44C655.396 176.973 656.256 176.74 657.203 176.74C657.923 176.74 658.61 176.9 659.263 177.22C659.916 177.527 660.436 177.94 660.823 178.46V173.2H663.663V188H660.823V186.36C660.476 186.907 659.99 187.347 659.363 187.68C658.736 188.013 658.01 188.18 657.183 188.18C656.25 188.18 655.396 187.94 654.623 187.46C653.85 186.98 653.236 186.307 652.783 185.44C652.343 184.56 652.123 183.553 652.123 182.42ZM660.843 182.46C660.843 181.78 660.71 181.2 660.443 180.72C660.176 180.227 659.816 179.853 659.363 179.6C658.91 179.333 658.423 179.2 657.903 179.2C657.383 179.2 656.903 179.327 656.463 179.58C656.023 179.833 655.663 180.207 655.383 180.7C655.116 181.18 654.983 181.753 654.983 182.42C654.983 183.087 655.116 183.673 655.383 184.18C655.663 184.673 656.023 185.053 656.463 185.32C656.916 185.587 657.396 185.72 657.903 185.72C658.423 185.72 658.91 185.593 659.363 185.34C659.816 185.073 660.176 184.7 660.443 184.22C660.71 183.727 660.843 183.14 660.843 182.46ZM665.678 182.42C665.678 181.3 665.898 180.307 666.338 179.44C666.791 178.573 667.398 177.907 668.158 177.44C668.931 176.973 669.791 176.74 670.738 176.74C671.564 176.74 672.284 176.907 672.898 177.24C673.524 177.573 674.024 177.993 674.398 178.5V176.92H677.218V188H674.398V186.38C674.038 186.9 673.538 187.333 672.898 187.68C672.271 188.013 671.544 188.18 670.718 188.18C669.784 188.18 668.931 187.94 668.158 187.46C667.398 186.98 666.791 186.307 666.338 185.44C665.898 184.56 665.678 183.553 665.678 182.42ZM674.398 182.46C674.398 181.78 674.264 181.2 673.998 180.72C673.731 180.227 673.371 179.853 672.918 179.6C672.464 179.333 671.978 179.2 671.458 179.2C670.938 179.2 670.458 179.327 670.018 179.58C669.578 179.833 669.218 180.207 668.938 180.7C668.671 181.18 668.538 181.753 668.538 182.42C668.538 183.087 668.671 183.673 668.938 184.18C669.218 184.673 669.578 185.053 670.018 185.32C670.471 185.587 670.951 185.72 671.458 185.72C671.978 185.72 672.464 185.593 672.918 185.34C673.371 185.073 673.731 184.7 673.998 184.22C674.264 183.727 674.398 183.14 674.398 182.46ZM690.552 176.92L683.692 193.24H680.712L683.112 187.72L678.672 176.92H681.812L684.672 184.66L687.572 176.92H690.552ZM695.682 173.8L695.362 183.46H693.002L692.662 173.8H695.682ZM694.242 188.14C693.735 188.14 693.315 187.987 692.982 187.68C692.662 187.36 692.502 186.967 692.502 186.5C692.502 186.033 692.662 185.647 692.982 185.34C693.315 185.02 693.735 184.86 694.242 184.86C694.735 184.86 695.142 185.02 695.462 185.34C695.782 185.647 695.942 186.033 695.942 186.5C695.942 186.967 695.782 187.36 695.462 187.68C695.142 187.987 694.735 188.14 694.242 188.14Z" fill="#F2F2F2"/>
<path d="M260.507 102.92L253.187 131H244.907L240.427 112.52L235.787 131H227.507L220.387 102.92H227.707L231.747 123.36L236.747 102.92H244.267L249.067 123.36L253.147 102.92H260.507ZM262.577 119.8C262.577 117.507 263.004 115.493 263.857 113.76C264.737 112.027 265.924 110.693 267.417 109.76C268.91 108.827 270.577 108.36 272.417 108.36C273.99 108.36 275.364 108.68 276.537 109.32C277.737 109.96 278.657 110.8 279.297 111.84V108.68H286.137V131H279.297V127.84C278.63 128.88 277.697 129.72 276.497 130.36C275.324 131 273.95 131.32 272.377 131.32C270.564 131.32 268.91 130.853 267.417 129.92C265.924 128.96 264.737 127.613 263.857 125.88C263.004 124.12 262.577 122.093 262.577 119.8ZM279.297 119.84C279.297 118.133 278.817 116.787 277.857 115.8C276.924 114.813 275.777 114.32 274.417 114.32C273.057 114.32 271.897 114.813 270.937 115.8C270.004 116.76 269.537 118.093 269.537 119.8C269.537 121.507 270.004 122.867 270.937 123.88C271.897 124.867 273.057 125.36 274.417 125.36C275.777 125.36 276.924 124.867 277.857 123.88C278.817 122.893 279.297 121.547 279.297 119.84ZM304.685 108.44C307.299 108.44 309.379 109.293 310.925 111C312.499 112.68 313.285 115 313.285 117.96V131H306.485V118.88C306.485 117.387 306.099 116.227 305.325 115.4C304.552 114.573 303.512 114.16 302.205 114.16C300.899 114.16 299.859 114.573 299.085 115.4C298.312 116.227 297.925 117.387 297.925 118.88V131H291.085V108.68H297.925V111.64C298.619 110.653 299.552 109.88 300.725 109.32C301.899 108.733 303.219 108.44 304.685 108.44ZM330.479 125.2V131H326.999C324.519 131 322.585 130.4 321.199 129.2C319.812 127.973 319.119 125.987 319.119 123.24V114.36H316.399V108.68H319.119V103.24H325.959V108.68H330.439V114.36H325.959V123.32C325.959 123.987 326.119 124.467 326.439 124.76C326.759 125.053 327.292 125.2 328.039 125.2H330.479ZM355.205 125.2V131H351.725C349.245 131 347.312 130.4 345.925 129.2C344.538 127.973 343.845 125.987 343.845 123.24V114.36H341.125V108.68H343.845V103.24H350.685V108.68H355.165V114.36H350.685V123.32C350.685 123.987 350.845 124.467 351.165 124.76C351.485 125.053 352.018 125.2 352.765 125.2H355.205ZM369.175 131.32C366.988 131.32 365.015 130.853 363.255 129.92C361.522 128.987 360.148 127.653 359.135 125.92C358.148 124.187 357.655 122.16 357.655 119.84C357.655 117.547 358.162 115.533 359.175 113.8C360.188 112.04 361.575 110.693 363.335 109.76C365.095 108.827 367.068 108.36 369.255 108.36C371.442 108.36 373.415 108.827 375.175 109.76C376.935 110.693 378.322 112.04 379.335 113.8C380.348 115.533 380.855 117.547 380.855 119.84C380.855 122.133 380.335 124.16 379.295 125.92C378.282 127.653 376.882 128.987 375.095 129.92C373.335 130.853 371.362 131.32 369.175 131.32ZM369.175 125.4C370.482 125.4 371.588 124.92 372.495 123.96C373.428 123 373.895 121.627 373.895 119.84C373.895 118.053 373.442 116.68 372.535 115.72C371.655 114.76 370.562 114.28 369.255 114.28C367.922 114.28 366.815 114.76 365.935 115.72C365.055 116.653 364.615 118.027 364.615 119.84C364.615 121.627 365.042 123 365.895 123.96C366.775 124.92 367.868 125.4 369.175 125.4ZM402.04 131.32C400.094 131.32 398.36 130.987 396.84 130.32C395.32 129.653 394.12 128.747 393.24 127.6C392.36 126.427 391.867 125.12 391.76 123.68H398.52C398.6 124.453 398.96 125.08 399.6 125.56C400.24 126.04 401.027 126.28 401.96 126.28C402.814 126.28 403.467 126.12 403.92 125.8C404.4 125.453 404.64 125.013 404.64 124.48C404.64 123.84 404.307 123.373 403.64 123.08C402.974 122.76 401.894 122.413 400.4 122.04C398.8 121.667 397.467 121.28 396.4 120.88C395.334 120.453 394.414 119.8 393.64 118.92C392.867 118.013 392.48 116.8 392.48 115.28C392.48 114 392.827 112.84 393.52 111.8C394.24 110.733 395.28 109.893 396.64 109.28C398.027 108.667 399.667 108.36 401.56 108.36C404.36 108.36 406.56 109.053 408.16 110.44C409.787 111.827 410.72 113.667 410.96 115.96H404.64C404.534 115.187 404.187 114.573 403.6 114.12C403.04 113.667 402.294 113.44 401.36 113.44C400.56 113.44 399.947 113.6 399.52 113.92C399.094 114.213 398.88 114.627 398.88 115.16C398.88 115.8 399.214 116.28 399.88 116.6C400.574 116.92 401.64 117.24 403.08 117.56C404.734 117.987 406.08 118.413 407.12 118.84C408.16 119.24 409.067 119.907 409.84 120.84C410.64 121.747 411.054 122.973 411.08 124.52C411.08 125.827 410.707 127 409.96 128.04C409.24 129.053 408.187 129.853 406.8 130.44C405.44 131.027 403.854 131.32 402.04 131.32ZM436.305 119.48C436.305 120.12 436.265 120.787 436.185 121.48H420.705C420.812 122.867 421.252 123.933 422.025 124.68C422.825 125.4 423.798 125.76 424.945 125.76C426.652 125.76 427.838 125.04 428.505 123.6H435.785C435.412 125.067 434.732 126.387 433.745 127.56C432.785 128.733 431.572 129.653 430.105 130.32C428.638 130.987 426.998 131.32 425.185 131.32C422.998 131.32 421.052 130.853 419.345 129.92C417.638 128.987 416.305 127.653 415.345 125.92C414.385 124.187 413.905 122.16 413.905 119.84C413.905 117.52 414.372 115.493 415.305 113.76C416.265 112.027 417.598 110.693 419.305 109.76C421.012 108.827 422.972 108.36 425.185 108.36C427.345 108.36 429.265 108.813 430.945 109.72C432.625 110.627 433.932 111.92 434.865 113.6C435.825 115.28 436.305 117.24 436.305 119.48ZM429.305 117.68C429.305 116.507 428.905 115.573 428.105 114.88C427.305 114.187 426.305 113.84 425.105 113.84C423.958 113.84 422.985 114.173 422.185 114.84C421.412 115.507 420.932 116.453 420.745 117.68H429.305ZM460.954 119.48C460.954 120.12 460.914 120.787 460.834 121.48H445.354C445.46 122.867 445.9 123.933 446.674 124.68C447.474 125.4 448.447 125.76 449.594 125.76C451.3 125.76 452.487 125.04 453.154 123.6H460.434C460.06 125.067 459.38 126.387 458.394 127.56C457.434 128.733 456.22 129.653 454.754 130.32C453.287 130.987 451.647 131.32 449.834 131.32C447.647 131.32 445.7 130.853 443.994 129.92C442.287 128.987 440.954 127.653 439.994 125.92C439.034 124.187 438.554 122.16 438.554 119.84C438.554 117.52 439.02 115.493 439.954 113.76C440.914 112.027 442.247 110.693 443.954 109.76C445.66 108.827 447.62 108.36 449.834 108.36C451.994 108.36 453.914 108.813 455.594 109.72C457.274 110.627 458.58 111.92 459.514 113.6C460.474 115.28 460.954 117.24 460.954 119.48ZM453.954 117.68C453.954 116.507 453.554 115.573 452.754 114.88C451.954 114.187 450.954 113.84 449.754 113.84C448.607 113.84 447.634 114.173 446.834 114.84C446.06 115.507 445.58 116.453 445.394 117.68H453.954ZM490.039 116.6C491.665 116.947 492.972 117.76 493.959 119.04C494.945 120.293 495.439 121.733 495.439 123.36C495.439 125.707 494.612 127.573 492.959 128.96C491.332 130.32 489.052 131 486.119 131H473.039V102.92H485.679C488.532 102.92 490.759 103.573 492.359 104.88C493.985 106.187 494.799 107.96 494.799 110.2C494.799 111.853 494.359 113.227 493.479 114.32C492.625 115.413 491.479 116.173 490.039 116.6ZM479.879 114.28H484.359C485.479 114.28 486.332 114.04 486.919 113.56C487.532 113.053 487.839 112.32 487.839 111.36C487.839 110.4 487.532 109.667 486.919 109.16C486.332 108.653 485.479 108.4 484.359 108.4H479.879V114.28ZM484.919 125.48C486.065 125.48 486.945 125.227 487.559 124.72C488.199 124.187 488.519 123.427 488.519 122.44C488.519 121.453 488.185 120.68 487.519 120.12C486.879 119.56 485.985 119.28 484.839 119.28H479.879V125.48H484.919ZM506.246 112.4C507.046 111.173 508.046 110.213 509.246 109.52C510.446 108.8 511.779 108.44 513.246 108.44V115.68H511.366C509.659 115.68 508.379 116.053 507.526 116.8C506.672 117.52 506.246 118.8 506.246 120.64V131H499.406V108.68H506.246V112.4ZM515.155 119.8C515.155 117.507 515.582 115.493 516.435 113.76C517.315 112.027 518.502 110.693 519.995 109.76C521.488 108.827 523.155 108.36 524.995 108.36C526.568 108.36 527.942 108.68 529.115 109.32C530.315 109.96 531.235 110.8 531.875 111.84V108.68H538.715V131H531.875V127.84C531.208 128.88 530.275 129.72 529.075 130.36C527.902 131 526.528 131.32 524.955 131.32C523.142 131.32 521.488 130.853 519.995 129.92C518.502 128.96 517.315 127.613 516.435 125.88C515.582 124.12 515.155 122.093 515.155 119.8ZM531.875 119.84C531.875 118.133 531.395 116.787 530.435 115.8C529.502 114.813 528.355 114.32 526.995 114.32C525.635 114.32 524.475 114.813 523.515 115.8C522.582 116.76 522.115 118.093 522.115 119.8C522.115 121.507 522.582 122.867 523.515 123.88C524.475 124.867 525.635 125.36 526.995 125.36C528.355 125.36 529.502 124.867 530.435 123.88C531.395 122.893 531.875 121.547 531.875 119.84ZM557.264 108.44C559.877 108.44 561.957 109.293 563.504 111C565.077 112.68 565.864 115 565.864 117.96V131H559.064V118.88C559.064 117.387 558.677 116.227 557.904 115.4C557.13 114.573 556.09 114.16 554.784 114.16C553.477 114.16 552.437 114.573 551.664 115.4C550.89 116.227 550.504 117.387 550.504 118.88V131H543.664V108.68H550.504V111.64C551.197 110.653 552.13 109.88 553.304 109.32C554.477 108.733 555.797 108.44 557.264 108.44ZM569.257 119.8C569.257 117.507 569.683 115.493 570.537 113.76C571.417 112.027 572.603 110.693 574.097 109.76C575.59 108.827 577.257 108.36 579.097 108.36C580.563 108.36 581.897 108.667 583.097 109.28C584.323 109.893 585.283 110.72 585.977 111.76V101.4H592.817V131H585.977V127.8C585.337 128.867 584.417 129.72 583.217 130.36C582.043 131 580.67 131.32 579.097 131.32C577.257 131.32 575.59 130.853 574.097 129.92C572.603 128.96 571.417 127.613 570.537 125.88C569.683 124.12 569.257 122.093 569.257 119.8ZM585.977 119.84C585.977 118.133 585.497 116.787 584.537 115.8C583.603 114.813 582.457 114.32 581.097 114.32C579.737 114.32 578.577 114.813 577.617 115.8C576.683 116.76 576.217 118.093 576.217 119.8C576.217 121.507 576.683 122.867 577.617 123.88C578.577 124.867 579.737 125.36 581.097 125.36C582.457 125.36 583.603 124.867 584.537 123.88C585.497 122.893 585.977 121.547 585.977 119.84ZM622.885 131H616.045L604.605 113.68V131H597.765V102.92H604.605L616.045 120.32V102.92H622.885V131ZM626.483 119.8C626.483 117.507 626.91 115.493 627.763 113.76C628.643 112.027 629.83 110.693 631.323 109.76C632.817 108.827 634.483 108.36 636.323 108.36C637.897 108.36 639.27 108.68 640.443 109.32C641.643 109.96 642.563 110.8 643.203 111.84V108.68H650.043V131H643.203V127.84C642.537 128.88 641.603 129.72 640.403 130.36C639.23 131 637.857 131.32 636.283 131.32C634.47 131.32 632.817 130.853 631.323 129.92C629.83 128.96 628.643 127.613 627.763 125.88C626.91 124.12 626.483 122.093 626.483 119.8ZM643.203 119.84C643.203 118.133 642.723 116.787 641.763 115.8C640.83 114.813 639.683 114.32 638.323 114.32C636.963 114.32 635.803 114.813 634.843 115.8C633.91 116.76 633.443 118.093 633.443 119.8C633.443 121.507 633.91 122.867 634.843 123.88C635.803 124.867 636.963 125.36 638.323 125.36C639.683 125.36 640.83 124.867 641.763 123.88C642.723 122.893 643.203 121.547 643.203 119.84ZM665.032 124.6L669.872 108.68H677.152L669.232 131H660.792L652.872 108.68H660.192L665.032 124.6ZM691.947 106.36C690.747 106.36 689.761 106.013 688.987 105.32C688.241 104.6 687.867 103.72 687.867 102.68C687.867 101.613 688.241 100.733 688.987 100.04C689.761 99.32 690.747 98.96 691.947 98.96C693.121 98.96 694.081 99.32 694.827 100.04C695.601 100.733 695.987 101.613 695.987 102.68C695.987 103.72 695.601 104.6 694.827 105.32C694.081 106.013 693.121 106.36 691.947 106.36ZM695.347 108.68V131H688.507V108.68H695.347ZM713.904 108.44C716.518 108.44 718.598 109.293 720.144 111C721.718 112.68 722.504 115 722.504 117.96V131H715.704V118.88C715.704 117.387 715.318 116.227 714.544 115.4C713.771 114.573 712.731 114.16 711.424 114.16C710.118 114.16 709.078 114.573 708.304 115.4C707.531 116.227 707.144 117.387 707.144 118.88V131H700.304V108.68H707.144V111.64C707.838 110.653 708.771 109.88 709.944 109.32C711.118 108.733 712.438 108.44 713.904 108.44ZM734.374 119.8C734.374 117.507 734.801 115.493 735.654 113.76C736.534 112.027 737.721 110.693 739.214 109.76C740.707 108.827 742.374 108.36 744.214 108.36C745.787 108.36 747.161 108.68 748.334 109.32C749.534 109.96 750.454 110.8 751.094 111.84V108.68H757.934V131H751.094V127.84C750.427 128.88 749.494 129.72 748.294 130.36C747.121 131 745.747 131.32 744.174 131.32C742.361 131.32 740.707 130.853 739.214 129.92C737.721 128.96 736.534 127.613 735.654 125.88C734.801 124.12 734.374 122.093 734.374 119.8ZM751.094 119.84C751.094 118.133 750.614 116.787 749.654 115.8C748.721 114.813 747.574 114.32 746.214 114.32C744.854 114.32 743.694 114.813 742.734 115.8C741.801 116.76 741.334 118.093 741.334 119.8C741.334 121.507 741.801 122.867 742.734 123.88C743.694 124.867 744.854 125.36 746.214 125.36C747.574 125.36 748.721 124.867 749.654 123.88C750.614 122.893 751.094 121.547 751.094 119.84ZM761.522 119.84C761.522 117.52 761.989 115.493 762.922 113.76C763.882 112.027 765.202 110.693 766.882 109.76C768.589 108.827 770.536 108.36 772.722 108.36C775.522 108.36 777.856 109.093 779.722 110.56C781.616 112.027 782.856 114.093 783.442 116.76H776.162C775.549 115.053 774.362 114.2 772.602 114.2C771.349 114.2 770.349 114.693 769.602 115.68C768.856 116.64 768.482 118.027 768.482 119.84C768.482 121.653 768.856 123.053 769.602 124.04C770.349 125 771.349 125.48 772.602 125.48C774.362 125.48 775.549 124.627 776.162 122.92H783.442C782.856 125.533 781.616 127.587 779.722 129.08C777.829 130.573 775.496 131.32 772.722 131.32C770.536 131.32 768.589 130.853 766.882 129.92C765.202 128.987 763.882 127.653 762.922 125.92C761.989 124.187 761.522 122.16 761.522 119.84ZM799.541 125.2V131H796.061C793.581 131 791.648 130.4 790.261 129.2C788.874 127.973 788.181 125.987 788.181 123.24V114.36H785.461V108.68H788.181V103.24H795.021V108.68H799.501V114.36H795.021V123.32C795.021 123.987 795.181 124.467 795.501 124.76C795.821 125.053 796.354 125.2 797.101 125.2H799.541ZM806.791 106.36C805.591 106.36 804.604 106.013 803.831 105.32C803.084 104.6 802.711 103.72 802.711 102.68C802.711 101.613 803.084 100.733 803.831 100.04C804.604 99.32 805.591 98.96 806.791 98.96C807.964 98.96 808.924 99.32 809.671 100.04C810.444 100.733 810.831 101.613 810.831 102.68C810.831 103.72 810.444 104.6 809.671 105.32C808.924 106.013 807.964 106.36 806.791 106.36ZM810.191 108.68V131H803.351V108.68H810.191ZM825.308 131.32C823.121 131.32 821.148 130.853 819.388 129.92C817.655 128.987 816.281 127.653 815.268 125.92C814.281 124.187 813.788 122.16 813.788 119.84C813.788 117.547 814.295 115.533 815.308 113.8C816.321 112.04 817.708 110.693 819.468 109.76C821.228 108.827 823.201 108.36 825.388 108.36C827.575 108.36 829.548 108.827 831.308 109.76C833.068 110.693 834.455 112.04 835.468 113.8C836.481 115.533 836.988 117.547 836.988 119.84C836.988 122.133 836.468 124.16 835.428 125.92C834.415 127.653 833.015 128.987 831.228 129.92C829.468 130.853 827.495 131.32 825.308 131.32ZM825.308 125.4C826.615 125.4 827.721 124.92 828.628 123.96C829.561 123 830.028 121.627 830.028 119.84C830.028 118.053 829.575 116.68 828.668 115.72C827.788 114.76 826.695 114.28 825.388 114.28C824.055 114.28 822.948 114.76 822.068 115.72C821.188 116.653 820.748 118.027 820.748 119.84C820.748 121.627 821.175 123 822.028 123.96C822.908 124.92 824.001 125.4 825.308 125.4ZM854.217 108.44C856.83 108.44 858.91 109.293 860.457 111C862.03 112.68 862.817 115 862.817 117.96V131H856.017V118.88C856.017 117.387 855.63 116.227 854.857 115.4C854.083 114.573 853.043 114.16 851.737 114.16C850.43 114.16 849.39 114.573 848.617 115.4C847.843 116.227 847.457 117.387 847.457 118.88V131H840.617V108.68H847.457V111.64C848.15 110.653 849.083 109.88 850.257 109.32C851.43 108.733 852.75 108.44 854.217 108.44ZM875.77 101.36C878.623 101.36 880.903 102.107 882.61 103.6C884.343 105.093 885.21 107.2 885.21 109.92C885.21 112.427 884.383 114.387 882.73 115.8C881.103 117.187 878.943 117.893 876.25 117.92L876.05 120.92H870.05L869.85 113.48H872.25C874.303 113.48 875.863 113.227 876.93 112.72C878.023 112.213 878.57 111.293 878.57 109.96C878.57 109.027 878.317 108.293 877.81 107.76C877.303 107.227 876.597 106.96 875.69 106.96C874.73 106.96 873.983 107.24 873.45 107.8C872.917 108.333 872.65 109.067 872.65 110H866.21C866.157 108.373 866.49 106.907 867.21 105.6C867.957 104.293 869.05 103.267 870.49 102.52C871.957 101.747 873.717 101.36 875.77 101.36ZM873.13 131.32C871.93 131.32 870.943 130.973 870.17 130.28C869.423 129.56 869.05 128.68 869.05 127.64C869.05 126.573 869.423 125.68 870.17 124.96C870.943 124.24 871.93 123.88 873.13 123.88C874.303 123.88 875.263 124.24 876.01 124.96C876.783 125.68 877.17 126.573 877.17 127.64C877.17 128.68 876.783 129.56 876.01 130.28C875.263 130.973 874.303 131.32 873.13 131.32Z" fill="white"/>
<defs>
<filter id="filter0_d_174_2008" x="0" y="0" width="1108" height="394" filterUnits="userSpaceOnUse" color-interpolation-filters="sRGB">
<feFlood flood-opacity="0" result="BackgroundImageFix"/>
<feColorMatrix in="SourceAlpha" type="matrix" values="0 0 0 0 0 0 0 0 0 0 0 0 0 0 0 0 0 0 127 0" result="hardAlpha"/>
<feOffset dy="5"/>
<feGaussianBlur stdDeviation="7"/>
<feColorMatrix type="matrix" values="0 0 0 0 0.0323264 0 0 0 0 0.0598209 0 0 0 0 0.204167 0 0 0 0.04 0"/>
<feBlend mode="normal" in2="BackgroundImageFix" result="effect1_dropShadow_174_2008"/>
<feBlend mode="normal" in="SourceGraphic" in2="effect1_dropShadow_174_2008" result="shape"/>
</filter>
<linearGradient id="paint0_linear_174_2008" x1="553.936" y1="-85.9238" x2="553.936" y2="483.619" gradientUnits="userSpaceOnUse">
<stop stop-color="#18B7E7"/>
<stop offset="0.461979" stop-color="#3C42DB"/>
<stop offset="1" stop-color="#0B0029"/>
</linearGradient>
<clipPath id="clip0_174_2008">
<rect width="65" height="13" fill="white" transform="translate(563 290)"/>
</clipPath>
<clipPath id="clip1_174_2008">
<rect width="13" height="13" fill="white" transform="translate(615 290)"/>
</clipPath>
<clipPath id="clip2_174_2008">
<rect width="13" height="13" fill="white" transform="translate(563 290)"/>
</clipPath>
<clipPath id="clip3_174_2008">
<rect width="13" height="13" fill="white" transform="translate(576 290)"/>
</clipPath>
<clipPath id="clip4_174_2008">
<rect width="13" height="13" fill="white" transform="translate(589 290)"/>
</clipPath>
<clipPath id="clip5_174_2008">
<rect width="13" height="13" fill="white" transform="translate(602 290)"/>
</clipPath>
</defs>
</svg>
