<svg xmlns="http://www.w3.org/2000/svg" width="110" height="110" fill="none"><g filter="url(#a)"><rect width="70" height="70" x="20" y="10" fill="url(#b)" rx="20"/></g><path fill="#fff" d="M38.281 37.778v-1.25c0-.688.563-1.25 1.25-1.25h3.75c.688 0 1.25.562 1.25 1.25v1.25c.005.695-.58 1.249-1.25 1.25-.028-.016-4.24.042-4.062-.044a1.247 1.247 0 0 1-.938-1.206Zm1.25 2.5c-.106 0-.212-.006-.312-.025v5.856h4.375v-5.856c.002.05-3.943.016-4.063.025Zm1.883-6.25a.624.624 0 0 0 .625-.624v-.625c0-.69.56-1.25 1.25-1.25h4.375a1.877 1.877 0 0 0 1.875-1.875 1.877 1.877 0 0 0-1.875-1.875h-3.75a.625.625 0 0 0 0 1.25h3.75a.626.626 0 0 1 0 1.25H43.29a2.503 2.503 0 0 0-2.5 2.5v.625c0 .345.28.625.625.625ZM72.5 43.673v18.55h-7.813V47.14l7.813-3.468Zm-2.9 15.33h-2.012c-.822.012-.822 1.235 0 1.25H69.6c.822-.015.82-1.238 0-1.25Zm0-3.224h-2.012c-.822.016-.82 1.234 0 1.25H69.6c.821-.016.82-1.235 0-1.25Zm0-3.225h-2.012c-.823.015-.82 1.239 0 1.25H69.6c.821-.011.821-1.235 0-1.25Zm0-3.219h-2.012c-.822.016-.82 1.234 0 1.25H69.6c.821-.016.82-1.234 0-1.25ZM55.625 47.14l7.813-3.468v18.55h-7.813V47.14Zm2.9 3.444h2.013c.82-.016.82-1.234 0-1.25h-2.013c-.821.016-.82 1.234 0 1.25Zm0 3.219h2.013c.82-.011.82-1.235 0-1.25h-2.013c-.822.015-.82 1.239 0 1.25Zm0 3.225h2.013c.82-.016.82-1.235 0-1.25h-2.013c-.821.016-.82 1.234 0 1.25Zm0 3.225h2.013c.822-.016.82-1.239 0-1.25h-2.013c-.821.011-.821 1.234 0 1.25ZM46.563 47.14l7.812-3.468v18.55h-7.813V47.14Zm2.9 3.444h2.012c.821-.016.82-1.234 0-1.25h-2.013c-.82.016-.82 1.234 0 1.25Zm0 3.219h2.012c.821-.011.821-1.235 0-1.25h-2.013c-.822.015-.82 1.239 0 1.25Zm0 3.225h2.012c.821-.016.82-1.235 0-1.25h-2.013c-.82.016-.82 1.234 0 1.25Zm0 3.225h2.012c.822-.016.82-1.239 0-1.25h-2.013c-.82.011-.82 1.234 0 1.25Zm-4.15-12.269v14.238H37.5V47.984c0-.345.28-.625.625-.625h6.563c.345 0 .624.28.624.625Zm-1.438 8.15a.623.623 0 0 0-.625-.625h-3.688a.623.623 0 0 0-.624.625v4.025c0 .35.274.625.624.625h3.688c.35 0 .625-.275.625-.625v-4.025Zm0-6.712a.623.623 0 0 0-.625-.625h-3.688a.623.623 0 0 0-.624.625v4.025c0 .35.274.625.624.625h3.688c.35 0 .625-.275.625-.625v-4.025Zm-3.688 10.112h2.438V56.76h-2.438v2.775Zm0-6.712h2.438v-2.775h-2.438v2.775Z"/><defs><linearGradient id="b" x1="20" x2="90" y1="10" y2="80" gradientUnits="userSpaceOnUse"><stop stop-color="#5CA1FE"/><stop offset="1" stop-color="#217BF4"/></linearGradient><filter id="a" width="110" height="110" x="0" y="0" color-interpolation-filters="sRGB" filterUnits="userSpaceOnUse"><feFlood flood-opacity="0" result="BackgroundImageFix"/><feColorMatrix in="SourceAlpha" result="hardAlpha" values="0 0 0 0 0 0 0 0 0 0 0 0 0 0 0 0 0 0 127 0"/><feMorphology in="SourceAlpha" radius="2" result="effect1_dropShadow_245_2461"/><feOffset dy="10"/><feGaussianBlur stdDeviation="11"/><feComposite in2="hardAlpha" operator="out"/><feColorMatrix values="0 0 0 0 0.427451 0 0 0 0 0.670588 0 0 0 0 1 0 0 0 0.36 0"/><feBlend in2="BackgroundImageFix" result="effect1_dropShadow_245_2461"/><feBlend in="SourceGraphic" in2="effect1_dropShadow_245_2461" result="shape"/></filter></defs></svg>