<svg xmlns="http://www.w3.org/2000/svg" data-name="Layer 1" viewBox="0 0 190.5 30"><path d="M12.43 0 0 29.25l12.43-7.6Zm0 0 11.82 29.25-11.82-7.6Z" style="fill:#0d2052"/><path d="M30.12 29.25 42.55 0 30.12 7.6Zm0 0L18.29 0l11.83 7.6Z" style="fill:#0085ff"/><path d="M63.59 15.66a5 5 0 0 1 .32 5.78 5.22 5.22 0 0 1-2.23 1.88 7.88 7.88 0 0 1-3.39.69h-7.78V4.54h7.42a8 8 0 0 1 3.42.67A5 5 0 0 1 63.5 7a4.59 4.59 0 0 1 .73 2.53 4.34 4.34 0 0 1-.9 2.8 5.21 5.21 0 0 1-2.4 1.67 4.3 4.3 0 0 1 2.66 1.66Zm-9.89-2.94h3.95A3.8 3.8 0 0 0 60.1 12a2.49 2.49 0 0 0 .9-2.06 2.54 2.54 0 0 0-.88-2.06 3.7 3.7 0 0 0-2.45-.74H53.7Zm6.86 7.9a2.71 2.71 0 0 0 .92-2.18 2.83 2.83 0 0 0-1-2.27 3.86 3.86 0 0 0-2.6-.84H53.7v6.07H58a3.81 3.81 0 0 0 2.56-.79ZM73.21 9A5.51 5.51 0 0 1 76 8.32v3.3h-.81a3.89 3.89 0 0 0-2.84 1 4.55 4.55 0 0 0-1 3.3V24h-3.2V8.57h3.19v2.24A5 5 0 0 1 73.21 9Zm5.59 3.1a7 7 0 0 1 6.31-3.78A6.74 6.74 0 0 1 88.3 9a6.45 6.45 0 0 1 2.17 1.78V8.57h3.22V24h-3.22v-2.3a6.34 6.34 0 0 1-2.21 1.82 7.16 7.16 0 0 1-6.83-.29 7.25 7.25 0 0 1-2.62-2.86 8.79 8.79 0 0 1-1-4.16 8.54 8.54 0 0 1 .99-4.11Zm11 1.4a4.62 4.62 0 0 0-1.72-1.79 4.51 4.51 0 0 0-2.3-.62 4.53 4.53 0 0 0-4 2.37 5.51 5.51 0 0 0-.66 2.76 5.75 5.75 0 0 0 .66 2.8 4.64 4.64 0 0 0 1.74 1.83 4.51 4.51 0 0 0 4.58 0 4.59 4.59 0 0 0 1.72-1.8 5.67 5.67 0 0 0 .66-2.79 5.59 5.59 0 0 0-.67-2.76Zm19.13-4.42a5.38 5.38 0 0 1 2.25 2.24 7.37 7.37 0 0 1 .82 3.58V24h-3.16v-8.62a4.48 4.48 0 0 0-1-3.18 3.69 3.69 0 0 0-2.84-1.11 3.73 3.73 0 0 0-2.84 1.11 4.44 4.44 0 0 0-1 3.18V24h-3.27V8.57h3.19v1.76a5.29 5.29 0 0 1 2-1.48 6.4 6.4 0 0 1 2.59-.53 6.92 6.92 0 0 1 3.26.76ZM116 12.1a7 7 0 0 1 6.34-3.78 7.24 7.24 0 0 1 3 .66 6.11 6.11 0 0 1 2.34 1.75V3.28h3.22V24h-3.22v-2.32a6 6 0 0 1-2.17 1.85 6.72 6.72 0 0 1-3.18.73 6.9 6.9 0 0 1-3.68-1 7.22 7.22 0 0 1-2.65-2.89 8.79 8.79 0 0 1-1-4.16 8.54 8.54 0 0 1 1-4.11Zm11 1.4a4.62 4.62 0 0 0-1.72-1.79 4.51 4.51 0 0 0-2.3-.62 4.53 4.53 0 0 0-4 2.37 5.51 5.51 0 0 0-.66 2.76 5.75 5.75 0 0 0 .66 2.8 4.64 4.64 0 0 0 1.74 1.83 4.51 4.51 0 0 0 4.58 0 4.59 4.59 0 0 0 1.72-1.8 5.67 5.67 0 0 0 .66-2.79 5.59 5.59 0 0 0-.68-2.76ZM151 24h-3.19l-9.6-14.53V24H135V4.51h3.19l9.6 14.5V4.51H151Zm4.13-11.9a7 7 0 0 1 6.31-3.78 6.74 6.74 0 0 1 3.18.71 6.45 6.45 0 0 1 2.17 1.78V8.57H170V24h-3.22v-2.3a6.34 6.34 0 0 1-2.21 1.82 7.16 7.16 0 0 1-6.83-.29 7.25 7.25 0 0 1-2.62-2.86 8.79 8.79 0 0 1-1-4.16 8.54 8.54 0 0 1 1.01-4.11Zm11 1.4a4.62 4.62 0 0 0-1.72-1.79 4.51 4.51 0 0 0-2.3-.62 4.53 4.53 0 0 0-4 2.37 5.51 5.51 0 0 0-.66 2.76 5.75 5.75 0 0 0 .66 2.8 4.64 4.64 0 0 0 1.74 1.83 4.51 4.51 0 0 0 4.58 0 4.59 4.59 0 0 0 1.72-1.8 5.67 5.67 0 0 0 .66-2.79 5.59 5.59 0 0 0-.67-2.76Zm14.05 7.64 4.37-12.57h3.39L182.05 24h-3.81l-5.85-15.43h3.42Z"/></svg>