<svg xmlns="http://www.w3.org/2000/svg" width="110" height="110" fill="none"><g filter="url(#a)"><rect width="70" height="70" x="20" y="10" fill="url(#b)" rx="20"/></g><path fill="#fff" fill-rule="evenodd" d="M63.303 50.33a2.767 2.767 0 0 1 3.463.113l4.05 3.45a2.738 2.738 0 0 1 .847 2.955l-.263.832a2.843 2.843 0 0 1-.368.763 58.801 58.801 0 0 1-8.576-7.483l.847-.63ZM41.524 27.803l.833-.263a2.87 2.87 0 0 1 .86-.133 2.734 2.734 0 0 1 2.096.981l3.45 4.05a2.766 2.766 0 0 1 .113 3.463l-.63.847a58.86 58.86 0 0 1-7.483-8.576c.235-.16.49-.283.761-.369Zm-1.606 1.33c-1.981 3.663-2.8 6.207-2.432 7.56a.342.342 0 0 1 .008.04C39.329 47.504 51.7 59.877 62.47 61.711a.425.425 0 0 1 .04.01c1.353.366 3.897-.453 7.561-2.434.127-.07.249-.146.365-.231a59.643 59.643 0 0 1-8.664-7.587l-.396.294a3.57 3.57 0 0 1-4.255.055 31.01 31.01 0 0 1-9.735-9.735 3.572 3.572 0 0 1 .055-4.255l.295-.396a59.53 59.53 0 0 1-7.587-8.663 2.87 2.87 0 0 0-.232.366ZM59.35 42.648v-1.096a4.238 4.238 0 1 1 8.478 0v1.096a8.198 8.198 0 0 1-8.478 0Zm1.981-8.666a2.258 2.258 0 1 1 4.517 0 2.258 2.258 0 0 1-4.517 0Zm7.343 8.079v-.509a5.093 5.093 0 0 0-3.58-4.858 3.104 3.104 0 1 0-3.01 0 5.095 5.095 0 0 0-3.58 4.858v.509a8.211 8.211 0 1 1 10.17 0Z" clip-rule="evenodd"/><g clip-path="url(#c)"><rect width="17" height="17" x="55" y="27" fill="#fff" rx="8.5"/><circle cx="63.5" cy="34.5" r="2.875" stroke="#408FFA" stroke-width="1.25"/><circle cx="63.5" cy="42.5" r="4.875" stroke="#408FFA" stroke-width="1.25"/></g><defs><linearGradient id="b" x1="20" x2="90" y1="10" y2="80" gradientUnits="userSpaceOnUse"><stop stop-color="#5CA1FE"/><stop offset="1" stop-color="#217BF4"/></linearGradient><clipPath id="c"><rect width="17" height="17" x="55" y="27" fill="#fff" rx="8.5"/></clipPath><filter id="a" width="110" height="110" x="0" y="0" color-interpolation-filters="sRGB" filterUnits="userSpaceOnUse"><feFlood flood-opacity="0" result="BackgroundImageFix"/><feColorMatrix in="SourceAlpha" result="hardAlpha" values="0 0 0 0 0 0 0 0 0 0 0 0 0 0 0 0 0 0 127 0"/><feMorphology in="SourceAlpha" radius="2" result="effect1_dropShadow_245_2484"/><feOffset dy="10"/><feGaussianBlur stdDeviation="11"/><feComposite in2="hardAlpha" operator="out"/><feColorMatrix values="0 0 0 0 0.427451 0 0 0 0 0.670588 0 0 0 0 1 0 0 0 0.36 0"/><feBlend in2="BackgroundImageFix" result="effect1_dropShadow_245_2484"/><feBlend in="SourceGraphic" in2="effect1_dropShadow_245_2484" result="shape"/></filter></defs></svg>