<svg xmlns="http://www.w3.org/2000/svg" width="361" height="415" fill="none"><rect width="353" height="351" x="8" y="64" fill="#E9EFFC" rx="10"/><path fill="#F5FAFA" d="M22 82h326v314H22z"/><rect width="312" height="105" x="28.5" y="136.5" stroke="#EFF2F7" rx="9.5"/><g filter="url(#a)"><rect width="70" height="70" x="46" y="154" fill="#FAAD13" rx="10"/></g><path fill="#FFF2D9" d="M97.945 169.213a1.248 1.248 0 0 1 .555 1.037V189a1.247 1.247 0 0 1-.785 1.16L97.25 189l.465 1.16-.008.003-.015.007-.057.023c-.329.13-.66.255-.993.374-.66.238-1.577.558-2.617.876-2.04.63-4.698 1.307-6.775 1.307-2.118 0-3.87-.7-5.395-1.312l-.07-.025c-1.585-.638-2.935-1.163-4.535-1.163-1.75 0-4.095.575-6.093 1.193-.894.278-1.78.583-2.657.912v15.395a1.25 1.25 0 0 1-2.5 0v-37.5a1.25 1.25 0 0 1 2.5 0v.705a54.08 54.08 0 0 1 1.975-.65c2.04-.625 4.7-1.305 6.775-1.305 2.1 0 3.81.692 5.302 1.297l.108.046c1.555.627 2.91 1.157 4.59 1.157 1.75 0 4.095-.575 6.092-1.192a49.06 49.06 0 0 0 3.373-1.191l.047-.017.01-.005h.003"/><rect width="190" height="10" x="146" y="211" fill="#DBE5FA" rx="5"/><rect width="92" height="10" x="146" y="211" fill="#2196F3" rx="5"/><rect width="104" height="6" x="146" y="189" fill="#DBE5FA" rx="3"/><rect width="190" height="16" x="146" y="157" fill="#DBE5FA" rx="8"/><rect width="347" height="105" x=".5" y="262.5" fill="#fff" stroke="#EFF2F7" rx="9.5"/><g filter="url(#b)"><rect width="70" height="70" x="18" y="280" fill="#fff" rx="10"/></g><g fill="#FAAD13" clip-path="url(#c)"><path d="M59.95 311.553h-13.9a1.428 1.428 0 1 0 0 2.856v.952a1.429 1.429 0 1 0 2.856 0v-.952h8.188v.952a1.429 1.429 0 1 0 2.856 0v-.952a1.428 1.428 0 1 0 0-2.856ZM53 304.888a2.856 2.856 0 0 0-2.857 2.856h5.713A2.856 2.856 0 0 0 53 304.888Z"/><path d="M53 295c-11.046 0-20 8.954-20 20s8.954 20 20 20 20-8.954 20-20-8.954-20-20-20Zm12.187 28.55a2.857 2.857 0 0 1-2.856 2.856H43.669a2.856 2.856 0 0 1-2.857-2.856v-12.949a2.857 2.857 0 0 1 2.857-2.857h3.618a5.713 5.713 0 0 1 11.426 0h3.618a2.857 2.857 0 0 1 2.856 2.857v12.949Z"/></g><rect width="228" height="10" x="118" y="337" fill="#DBE5FA" rx="5"/><rect width="163.2" height="10" x="118" y="337" fill="#2196F3" rx="5"/><rect width="124.8" height="6" x="118" y="315" fill="#DBE5FA" rx="3"/><rect width="228" height="16" x="118" y="283" fill="#DBE5FA" rx="8"/><g clip-path="url(#d)"><g clip-path="url(#e)" filter="url(#f)"><rect width="303" height="113" x="29" fill="#fff" rx="6"/></g><path fill="#323C47" d="M70.176 34.818 68.486 45h-1.412l-3.932-7.467h-.09L61.804 45h-1.536l1.69-10.182h1.422l3.938 7.477h.094l1.243-7.477h1.521Zm5.796 7.015.746-4.47h1.491L76.936 45h-1.461l.224-1.322h-.08a2.953 2.953 0 0 1-1.014 1.019c-.434.268-.938.402-1.512.402-.49 0-.906-.107-1.248-.323-.338-.219-.578-.542-.72-.97-.143-.427-.163-.955-.06-1.585l.815-4.857h1.487l-.78 4.678c-.084.52-.006.935.233 1.243.239.308.587.462 1.044.462.278 0 .567-.07.865-.209.298-.139.562-.35.79-.631.233-.282.383-.64.453-1.074ZM78.939 45l1.273-7.636h1.426l-.209 1.242h.095c.232-.42.547-.748.945-.984a2.612 2.612 0 0 1 1.362-.358c.504 0 .91.12 1.218.358.311.239.515.567.611.984h.08a2.663 2.663 0 0 1 1.029-.979c.44-.242.936-.363 1.486-.363.687 0 1.214.219 1.582.656.37.435.483 1.088.338 1.96L89.319 45h-1.491l.835-4.981c.083-.52.004-.895-.238-1.124-.242-.232-.559-.348-.95-.348-.484 0-.885.149-1.203.447a1.905 1.905 0 0 0-.587 1.139L84.865 45h-1.477l.85-5.076c.067-.418-.01-.75-.228-1-.216-.251-.53-.377-.945-.377-.281 0-.555.074-.82.224a2.08 2.08 0 0 0-.671.616 2.144 2.144 0 0 0-.363.905L80.425 45H78.94Zm12.487 0 1.69-10.182h1.487l-.621 3.784h.089a5.42 5.42 0 0 1 .462-.552 2.71 2.71 0 0 1 .771-.547c.315-.16.71-.239 1.183-.239.617 0 1.14.156 1.571.467.431.312.736.761.915 1.348.179.587.2 1.292.065 2.118-.136.825-.391 1.533-.766 2.123-.371.586-.824 1.039-1.357 1.357a3.336 3.336 0 0 1-1.725.472c-.464 0-.83-.078-1.1-.233a1.716 1.716 0 0 1-.596-.547 3.859 3.859 0 0 1-.293-.557h-.124l-.2 1.188h-1.45Zm2.093-3.818c-.086.537-.086 1.007 0 1.412.09.404.264.72.522.95.262.225.605.337 1.03.337.444 0 .835-.117 1.173-.353.338-.238.616-.561.835-.97.219-.407.371-.866.457-1.376.08-.504.078-.956-.005-1.357-.083-.402-.255-.718-.517-.95-.258-.232-.611-.348-1.059-.348-.43 0-.813.111-1.148.333a2.579 2.579 0 0 0-.83.93 4.3 4.3 0 0 0-.458 1.392Zm9.823 3.972c-.749 0-1.369-.16-1.86-.482a2.567 2.567 0 0 1-1.024-1.367c-.195-.59-.227-1.281-.094-2.074.129-.782.389-1.471.78-2.068a4.294 4.294 0 0 1 1.462-1.397 3.856 3.856 0 0 1 1.944-.502c.431 0 .837.072 1.218.214.384.142.711.366.979.671.269.305.454.701.557 1.188.106.484.103 1.073-.01 1.765l-.084.527h-6.076l.174-1.113h4.614c.07-.392.051-.738-.055-1.04a1.405 1.405 0 0 0-.546-.72c-.256-.176-.577-.264-.965-.264a2.12 2.12 0 0 0-1.114.313 2.902 2.902 0 0 0-.865.8 2.433 2.433 0 0 0-.432.995l-.174 1.02c-.086.556-.071 1.004.045 1.342.119.338.328.583.626.735.298.153.671.23 1.119.23.288 0 .555-.04.8-.12.249-.083.469-.204.661-.363.192-.163.353-.365.482-.607l1.363.254a3.215 3.215 0 0 1-.786 1.089 3.704 3.704 0 0 1-1.208.72 4.418 4.418 0 0 1-1.531.254Zm4.973-.154 1.272-7.636h1.437l-.204 1.213h.08c.205-.411.505-.734.9-.97a2.397 2.397 0 0 1 1.263-.358 6.911 6.911 0 0 1 .626.035l-.239 1.422a2.387 2.387 0 0 0-.308-.055 3 3 0 0 0-.462-.035c-.348 0-.671.075-.97.224-.298.146-.548.35-.75.612a1.969 1.969 0 0 0-.393.885L109.801 45h-1.486Zm12.357.154c-.726 0-1.333-.166-1.82-.497-.487-.335-.83-.802-1.029-1.402-.196-.603-.229-1.304-.1-2.103.126-.782.38-1.465.761-2.048a4.116 4.116 0 0 1 1.442-1.358 3.92 3.92 0 0 1 1.934-.482c.726 0 1.33.168 1.814.502.488.335.831.804 1.029 1.407.199.603.234 1.306.105 2.108-.126.776-.383 1.455-.771 2.039a4.129 4.129 0 0 1-1.441 1.352 3.884 3.884 0 0 1-1.924.482Zm.084-1.248a2.1 2.1 0 0 0 1.248-.378c.358-.252.65-.586.875-1.004.225-.418.379-.875.462-1.372a3.7 3.7 0 0 0-.005-1.318c-.076-.4-.242-.722-.497-.964s-.61-.363-1.064-.363c-.477 0-.896.128-1.258.383a2.864 2.864 0 0 0-.875 1.01c-.222.42-.372.88-.452 1.376a3.828 3.828 0 0 0 0 1.318c.076.398.242.716.497.954.255.239.612.358 1.069.358Zm10.007-6.542-.194 1.193h-4.316l.194-1.193h4.316ZM126.358 45l1.422-8.521c.073-.478.24-.874.502-1.188a2.42 2.42 0 0 1 .949-.711 2.928 2.928 0 0 1 1.164-.24c.298 0 .548.026.75.075.206.047.355.09.448.13l-.542 1.203a6.698 6.698 0 0 0-.254-.07 1.407 1.407 0 0 0-.387-.044c-.362 0-.635.089-.821.268-.182.179-.305.438-.368.776L127.844 45h-1.486Zm8.371 0 1.272-7.636h1.487L136.215 45h-1.486Zm2.326-8.83a.91.91 0 0 1-.656-.258.79.79 0 0 1-.243-.627.878.878 0 0 1 .308-.626.963.963 0 0 1 .671-.263c.258 0 .476.087.651.263a.795.795 0 0 1 .249.627.89.89 0 0 1-.308.626.964.964 0 0 1-.672.258Zm3.397 4.296L139.707 45h-1.487l1.273-7.636h1.427l-.209 1.242h.094c.242-.407.572-.732.99-.974.421-.245.918-.368 1.491-.368.517 0 .951.11 1.303.328.354.216.604.537.75.965.149.427.173.956.07 1.586L144.594 45h-1.487l.781-4.678c.089-.554.016-.986-.219-1.298-.232-.315-.602-.472-1.109-.472a2.015 2.015 0 0 0-1.7.88c-.199.285-.335.63-.408 1.034Zm8.979 4.683c-.62 0-1.145-.157-1.576-.472-.428-.318-.731-.77-.91-1.357-.176-.59-.195-1.298-.06-2.123.14-.826.397-1.532.771-2.118.375-.587.829-1.036 1.362-1.348a3.366 3.366 0 0 1 1.725-.467c.474 0 .842.08 1.104.239.265.156.461.338.587.547.126.209.22.393.283.552h.085l.631-3.784h1.487L153.229 45h-1.451l.203-1.188h-.124a4.86 4.86 0 0 1-.482.557 2.785 2.785 0 0 1-.776.547c-.315.155-.704.233-1.168.233Zm.502-1.268c.428 0 .81-.112 1.149-.338.341-.228.624-.545.85-.95.228-.404.387-.874.477-1.411.089-.53.088-.995-.005-1.392-.093-.398-.272-.708-.537-.93-.265-.222-.615-.333-1.049-.333-.447 0-.837.116-1.168.348a2.632 2.632 0 0 0-.816.95 4.527 4.527 0 0 0-.437 1.357c-.086.51-.09.97-.01 1.377.079.408.247.73.502.97.255.235.603.352 1.044.352Zm10.777-2.048.746-4.47h1.491L161.675 45h-1.462l.224-1.322h-.08a2.942 2.942 0 0 1-1.014 1.019c-.434.268-.938.402-1.511.402-.491 0-.907-.107-1.248-.323-.338-.219-.579-.542-.721-.97-.143-.427-.162-.955-.06-1.585l.816-4.857h1.486l-.78 4.678c-.083.52-.005.935.233 1.243.239.308.587.462 1.044.462.279 0 .567-.07.865-.209.299-.139.562-.35.791-.631.232-.282.383-.64.452-1.074Zm9.649-2.605-1.387.239a1.432 1.432 0 0 0-.184-.498.979.979 0 0 0-.413-.377c-.185-.1-.432-.15-.741-.15-.427 0-.802.098-1.123.294-.318.195-.501.444-.547.745-.043.246.015.445.174.597.159.15.439.274.84.373l1.173.278c.677.163 1.161.416 1.452.761.295.341.398.786.308 1.332a2.33 2.33 0 0 1-.596 1.209 3.241 3.241 0 0 1-1.223.825 4.436 4.436 0 0 1-1.661.298c-.868 0-1.544-.184-2.028-.552-.484-.368-.733-.888-.746-1.56l1.472-.22c.026.375.16.658.402.85.246.19.585.284 1.02.284.497.003.913-.101 1.247-.313.335-.212.526-.47.572-.77.04-.236-.013-.432-.159-.587-.142-.156-.394-.276-.756-.358l-1.233-.284c-.689-.162-1.176-.424-1.461-.785-.285-.362-.381-.816-.289-1.363.073-.447.262-.836.567-1.168a3.108 3.108 0 0 1 1.169-.78c.47-.19.991-.284 1.561-.284.832 0 1.456.18 1.874.537.418.355.656.83.716 1.427Zm5.656-1.864-.194 1.193h-4.171l.194-1.193h4.171Zm-2.754-1.83h1.487l-1.204 7.224c-.046.288-.038.505.025.651a.53.53 0 0 0 .289.293c.132.05.28.075.442.075.119 0 .224-.008.313-.025l.214-.04.08 1.228c-.1.034-.234.067-.403.1a3.08 3.08 0 0 1-.607.06 2.39 2.39 0 0 1-1.059-.21 1.493 1.493 0 0 1-.706-.675c-.155-.305-.193-.688-.114-1.149l1.243-7.532ZM176.387 45l1.273-7.636h1.436l-.203 1.213h.079a2.32 2.32 0 0 1 .9-.97 2.397 2.397 0 0 1 1.263-.358 6.911 6.911 0 0 1 .626.035l-.238 1.422a2.448 2.448 0 0 0-.309-.055 3 3 0 0 0-.462-.035c-.348 0-.671.075-.969.224-.299.146-.549.35-.751.612a1.99 1.99 0 0 0-.393.885L177.873 45h-1.486Zm6.105 2.864a3.02 3.02 0 0 1-.602-.055 1.787 1.787 0 0 1-.392-.11l.566-1.218c.262.073.496.102.701.085.209-.017.405-.103.587-.259.182-.155.368-.4.557-.735l.278-.502-1.496-7.706h1.531l.945 5.94h.079l2.924-5.94h1.655l-4.579 8.645a4.07 4.07 0 0 1-.736 1.024 2.741 2.741 0 0 1-.914.622 2.85 2.85 0 0 1-1.104.209Z"/><path fill="#4DA1FF" d="M66.756 82.239c-1.17 0-2.216-.202-3.137-.606-.914-.403-1.639-.962-2.173-1.678-.528-.722-.813-1.557-.852-2.506h2.676c.034.517.207.966.52 1.347.318.374.733.664 1.244.869.511.204 1.08.307 1.705.307.687 0 1.295-.12 1.823-.358.535-.239.952-.571 1.253-.998.302-.431.452-.928.452-1.491 0-.585-.15-1.1-.452-1.543-.295-.448-.73-.8-1.304-1.056-.568-.256-1.255-.384-2.062-.384h-1.475v-2.148h1.475c.648 0 1.216-.116 1.704-.35a2.79 2.79 0 0 0 1.16-.97c.278-.421.417-.913.417-1.475 0-.54-.122-1.009-.366-1.406a2.462 2.462 0 0 0-1.023-.946c-.438-.228-.955-.341-1.551-.341-.568 0-1.1.105-1.594.315-.489.205-.886.5-1.193.886-.307.381-.472.839-.495 1.373H60.96c.029-.944.307-1.773.835-2.49.535-.715 1.24-1.275 2.114-1.678.875-.404 1.847-.605 2.915-.605 1.12 0 2.085.219 2.898.656.818.432 1.449 1.009 1.892 1.73.448.722.67 1.511.664 2.37.006.977-.267 1.806-.818 2.488-.545.682-1.272 1.14-2.182 1.372v.137c1.16.176 2.057.636 2.694 1.38.642.745.96 1.668.954 2.77a4.31 4.31 0 0 1-.801 2.583c-.534.761-1.264 1.36-2.19 1.798-.927.432-1.986.648-3.18.648Zm12.225-2.625-.127.929a14.93 14.93 0 0 1-.435 2.13 32.821 32.821 0 0 1-.622 2.071c-.21.637-.384 1.142-.52 1.517H75.47c.074-.352.176-.83.307-1.431.13-.597.258-1.265.383-2.003a26.36 26.36 0 0 0 .282-2.259l.085-.954h2.454Zm9.158-15.307a6.753 6.753 0 0 1 2.301.426c.756.278 1.438.733 2.046 1.364.613.63 1.102 1.483 1.466 2.556.369 1.069.556 2.398.562 3.989 0 1.529-.153 2.89-.46 4.082-.307 1.188-.747 2.19-1.321 3.009-.568.818-1.259 1.44-2.071 1.866-.813.427-1.727.64-2.744.64-1.04 0-1.964-.205-2.77-.614a5.276 5.276 0 0 1-1.969-1.696c-.506-.727-.821-1.563-.946-2.506h2.6c.17.75.516 1.358 1.04 1.824.528.46 1.21.69 2.045.69 1.278 0 2.275-.556 2.991-1.67.716-1.12 1.077-2.682 1.082-4.688h-.136c-.295.49-.665.91-1.108 1.262a4.985 4.985 0 0 1-1.474.818 5.194 5.194 0 0 1-1.747.29 5.233 5.233 0 0 1-2.745-.742 5.468 5.468 0 0 1-1.969-2.036c-.488-.864-.733-1.85-.733-2.958 0-1.102.25-2.102.75-3a5.596 5.596 0 0 1 2.114-2.13c.91-.529 1.975-.787 3.196-.776Zm.009 2.216c-.665 0-1.264.165-1.799.494a3.5 3.5 0 0 0-1.252 1.321 3.72 3.72 0 0 0-.46 1.841c0 .676.147 1.29.442 1.84.302.546.71.981 1.228 1.305.522.318 1.12.477 1.79.477.5 0 .966-.097 1.397-.29.432-.193.81-.46 1.134-.8.324-.347.576-.74.758-1.177.182-.437.273-.898.273-1.38a3.62 3.62 0 0 0-.46-1.79 3.585 3.585 0 0 0-1.245-1.33 3.263 3.263 0 0 0-1.806-.511Zm16.067-1.977V82h-2.642V67.187h-.102l-4.176 2.728v-2.523l4.355-2.846h2.565ZM108.937 82v-1.91l5.906-6.118a32.515 32.515 0 0 0 1.56-1.748c.414-.505.724-.985.929-1.44.204-.455.306-.937.306-1.449 0-.58-.136-1.08-.409-1.5a2.666 2.666 0 0 0-1.116-.98 3.553 3.553 0 0 0-1.594-.35c-.625 0-1.17.129-1.636.384a2.628 2.628 0 0 0-1.074 1.083c-.25.466-.375 1.011-.375 1.636h-2.514c0-1.063.244-1.992.733-2.787a4.976 4.976 0 0 1 2.011-1.85c.852-.443 1.821-.664 2.906-.664 1.097 0 2.063.219 2.898.656.841.432 1.497 1.023 1.969 1.773.471.744.707 1.585.707 2.522 0 .648-.122 1.282-.366 1.901-.239.62-.657 1.31-1.253 2.071-.597.756-1.426 1.673-2.489 2.753l-3.469 3.63v.129h7.858V82h-11.488Z"/><path fill="#323C47" fill-opacity=".8" d="M131.074 78.5v-7.636h1.173V78.5h-1.173Zm.596-8.91a.834.834 0 0 1-.591-.233.749.749 0 0 1-.244-.561c0-.22.081-.407.244-.562a.834.834 0 0 1 .591-.234c.229 0 .425.078.587.234a.743.743 0 0 1 .249.562.743.743 0 0 1-.249.561.817.817 0 0 1-.587.234Zm3.899 4.316V78.5h-1.173v-7.636h1.134v1.193h.099c.179-.388.451-.7.815-.935.365-.239.836-.358 1.412-.358.517 0 .97.106 1.358.318.387.21.689.527.904.955.216.424.324.961.324 1.61V78.5h-1.174v-4.773c0-.6-.155-1.067-.467-1.402-.312-.338-.739-.507-1.283-.507-.374 0-.709.081-1.004.244a1.74 1.74 0 0 0-.691.71c-.169.312-.254.69-.254 1.134Zm14.355-3.042v.994h-4.117v-.994h4.117ZM147.04 78.5v-8.69c0-.438.103-.802.308-1.094.206-.292.473-.51.801-.656a2.527 2.527 0 0 1 1.039-.22c.288 0 .524.024.706.07.182.047.318.09.407.13l-.338 1.014a5.404 5.404 0 0 0-.248-.075 1.513 1.513 0 0 0-.408-.044c-.388 0-.668.097-.84.293-.169.196-.254.482-.254.86V78.5h-1.173Zm6.556.179c-.483 0-.923-.091-1.317-.273a2.264 2.264 0 0 1-.94-.8c-.232-.352-.348-.776-.348-1.274 0-.437.086-.792.259-1.063.172-.276.403-.491.691-.647.288-.156.606-.272.954-.348.352-.08.705-.142 1.059-.189.464-.06.841-.104 1.129-.134.292-.033.504-.088.636-.164.136-.076.204-.209.204-.398v-.04c0-.49-.134-.871-.403-1.143-.265-.272-.667-.408-1.208-.408-.56 0-.999.123-1.317.368-.318.246-.542.507-.671.786l-1.114-.398c.199-.464.464-.825.796-1.084a2.974 2.974 0 0 1 1.093-.547 4.547 4.547 0 0 1 1.174-.159c.245 0 .527.03.845.09.321.056.631.174.929.353.302.179.552.449.751.81.199.361.298.845.298 1.452V78.5h-1.173v-1.034h-.06a2.064 2.064 0 0 1-.397.532c-.186.189-.433.35-.741.482-.308.133-.684.199-1.129.199Zm.179-1.054c.464 0 .856-.091 1.174-.273a1.87 1.87 0 0 0 .726-.706c.165-.289.248-.592.248-.91v-1.074c-.05.06-.159.114-.328.164a5.554 5.554 0 0 1-.577.124 26.387 26.387 0 0 1-1.123.15c-.305.04-.59.104-.855.193a1.479 1.479 0 0 0-.637.393c-.159.172-.238.408-.238.706 0 .408.15.716.452.925.305.205.691.308 1.158.308Zm10.872-5.051-1.054.298a1.955 1.955 0 0 0-.293-.512 1.43 1.43 0 0 0-.517-.418c-.219-.109-.499-.164-.841-.164-.467 0-.856.108-1.168.324-.308.212-.462.482-.462.81 0 .292.106.522.318.691.212.169.544.31.994.423l1.134.278c.683.166 1.191.42 1.526.76.335.339.502.775.502 1.308 0 .438-.126.829-.378 1.174-.248.344-.596.616-1.044.815-.447.199-.967.298-1.561.298-.779 0-1.423-.169-1.934-.507-.51-.338-.833-.832-.969-1.481l1.113-.279c.107.411.307.72.602.925.298.205.688.308 1.168.308.547 0 .981-.116 1.303-.348.325-.235.487-.517.487-.845a.89.89 0 0 0-.278-.666c-.186-.183-.471-.319-.855-.408l-1.273-.298c-.699-.166-1.213-.423-1.541-.77-.325-.352-.488-.791-.488-1.318 0-.431.121-.812.363-1.144a2.477 2.477 0 0 1 1-.78 3.508 3.508 0 0 1 1.441-.284c.756 0 1.349.166 1.78.497.434.332.743.77.925 1.313Zm5.226-1.71v.994h-3.957v-.994h3.957Zm-2.804-1.83h1.174v7.278c0 .332.048.58.144.746a.744.744 0 0 0 .378.328c.156.053.32.08.492.08.129 0 .235-.007.318-.02l.199-.04.239 1.054c-.08.03-.191.06-.333.09-.143.033-.324.05-.542.05a2.37 2.37 0 0 1-.975-.214 1.93 1.93 0 0 1-.785-.652c-.206-.291-.309-.66-.309-1.103v-7.597Zm11.907 1.83v.994h-4.116v-.994h4.116Zm-2.883 7.636v-8.69c0-.438.103-.802.308-1.094.206-.292.472-.51.801-.656a2.527 2.527 0 0 1 1.039-.22c.288 0 .523.024.706.07.182.047.318.09.407.13l-.338 1.014a5.821 5.821 0 0 0-.248-.075 1.513 1.513 0 0 0-.408-.044c-.388 0-.668.097-.84.293-.169.196-.254.482-.254.86V78.5h-1.173Zm6.556.179a3.1 3.1 0 0 1-1.317-.273 2.258 2.258 0 0 1-.94-.8c-.232-.352-.348-.776-.348-1.274 0-.437.086-.792.259-1.063.172-.276.402-.491.691-.647.288-.156.606-.272.954-.348.351-.08.704-.142 1.059-.189.464-.06.84-.104 1.129-.134.291-.033.503-.088.636-.164.136-.076.204-.209.204-.398v-.04c0-.49-.134-.871-.403-1.143-.265-.272-.668-.408-1.208-.408-.56 0-.999.123-1.317.368-.319.246-.542.507-.672.786l-1.113-.398c.199-.464.464-.825.795-1.084.335-.262.7-.444 1.094-.547a4.546 4.546 0 0 1 1.173-.159c.246 0 .527.03.845.09.322.056.632.174.93.353.302.179.552.449.751.81.199.361.298.845.298 1.452V78.5h-1.173v-1.034h-.06a2.047 2.047 0 0 1-.398.532c-.185.189-.432.35-.74.482-.309.133-.685.199-1.129.199Zm.179-1.054c.464 0 .855-.091 1.173-.273a1.863 1.863 0 0 0 .975-1.616v-1.074c-.05.06-.159.114-.328.164a5.554 5.554 0 0 1-.577.124 26.387 26.387 0 0 1-1.124.15 4.55 4.55 0 0 0-.855.193 1.47 1.47 0 0 0-.636.393c-.159.172-.239.408-.239.706 0 .408.151.716.453.925.305.205.691.308 1.158.308Zm10.872-5.051-1.054.298a1.96 1.96 0 0 0-.294-.512 1.413 1.413 0 0 0-.517-.418c-.218-.109-.498-.164-.84-.164-.467 0-.857.108-1.168.324-.308.212-.462.482-.462.81 0 .292.106.522.318.691.212.169.543.31.994.423l1.134.278c.682.166 1.191.42 1.526.76.335.339.502.775.502 1.308 0 .438-.126.829-.378 1.174-.248.344-.596.616-1.044.815-.447.199-.968.298-1.561.298-.779 0-1.424-.169-1.934-.507-.51-.338-.834-.832-.969-1.481l1.113-.279c.106.411.307.72.602.925.298.205.688.308 1.168.308.547 0 .981-.116 1.303-.348.324-.235.487-.517.487-.845a.887.887 0 0 0-.279-.666c-.185-.183-.47-.319-.855-.408l-1.272-.298c-.7-.166-1.213-.423-1.542-.77-.324-.352-.487-.791-.487-1.318 0-.431.121-.812.363-1.144.245-.331.579-.591.999-.78a3.513 3.513 0 0 1 1.442-.284c.756 0 1.349.166 1.78.497.434.332.742.77.925 1.313Zm3.078 1.332V78.5h-1.173V68.318h1.173v3.739h.1c.179-.395.447-.708.805-.94.362-.235.842-.353 1.442-.353.52 0 .976.105 1.367.313.391.206.695.522.91.95.219.424.328.965.328 1.62V78.5h-1.173v-4.773c0-.606-.158-1.075-.472-1.407-.312-.334-.745-.502-1.298-.502-.385 0-.729.081-1.034.244-.302.162-.54.4-.716.71-.172.312-.259.69-.259 1.134Zm7.099 4.594v-7.636h1.173V78.5h-1.173Zm.596-8.91a.831.831 0 0 1-.591-.233.749.749 0 0 1-.244-.561c0-.22.081-.407.244-.562a.831.831 0 0 1 .591-.234c.229 0 .424.078.587.234a.742.742 0 0 1 .248.562.742.742 0 0 1-.248.561.818.818 0 0 1-.587.234Zm5.828 9.07c-.689 0-1.294-.165-1.814-.493a3.342 3.342 0 0 1-1.214-1.377c-.288-.59-.432-1.28-.432-2.068 0-.796.144-1.49.432-2.084a3.342 3.342 0 0 1 1.214-1.382c.52-.328 1.125-.492 1.814-.492.69 0 1.293.164 1.81.492.52.329.925.79 1.213 1.382.292.594.437 1.288.437 2.084 0 .788-.145 1.478-.437 2.068a3.298 3.298 0 0 1-1.213 1.377c-.517.328-1.12.492-1.81.492Zm0-1.055c.524 0 .955-.134 1.293-.403a2.37 2.37 0 0 0 .75-1.058c.163-.438.244-.912.244-1.422 0-.51-.081-.986-.244-1.427a2.4 2.4 0 0 0-.75-1.07c-.338-.27-.769-.407-1.293-.407-.524 0-.954.136-1.292.408a2.394 2.394 0 0 0-.751 1.069c-.163.44-.244.916-.244 1.427 0 .51.081.984.244 1.422.162.437.412.79.751 1.058.338.269.768.403 1.292.403Zm6.425-3.699V78.5h-1.174v-7.636h1.134v1.193h.099c.179-.388.451-.7.816-.935.364-.239.835-.358 1.412-.358.517 0 .969.106 1.357.318.388.21.689.527.905.955.215.424.323.961.323 1.61V78.5h-1.173v-4.773c0-.6-.156-1.067-.468-1.402-.311-.338-.739-.507-1.282-.507-.375 0-.71.081-1.005.244-.291.162-.522.4-.691.71-.169.312-.253.69-.253 1.134Z"/><path fill="#D0D7DD" fill-opacity=".727" fill-rule="evenodd" d="M300.54 43c-1.398 0-2.532-1.119-2.532-2.5s1.134-2.5 2.532-2.5c1.399 0 2.532 1.119 2.532 2.5s-1.133 2.5-2.532 2.5Zm-8.968 0a2.507 2.507 0 0 1-2.515-2.5c0-1.381 1.125-2.5 2.515-2.5a2.507 2.507 0 0 1 2.515 2.5c0 1.381-1.126 2.5-2.515 2.5Zm-8.968 0c-1.399 0-2.532-1.119-2.532-2.5s1.133-2.5 2.532-2.5c1.398 0 2.532 1.119 2.532 2.5s-1.134 2.5-2.532 2.5Z" clip-rule="evenodd"/></g><defs><clipPath id="c"><path fill="#fff" d="M33 295h40v40H33z"/></clipPath><clipPath id="d"><path fill="#fff" d="M29 0h303v113H29z"/></clipPath><clipPath id="e"><path fill="#fff" d="M29 0h303v113H29z"/></clipPath><filter id="a" width="88" height="88" x="37" y="149" color-interpolation-filters="sRGB" filterUnits="userSpaceOnUse"><feFlood flood-opacity="0" result="BackgroundImageFix"/><feColorMatrix in="SourceAlpha" result="hardAlpha" values="0 0 0 0 0 0 0 0 0 0 0 0 0 0 0 0 0 0 127 0"/><feOffset dy="4"/><feGaussianBlur stdDeviation="4.5"/><feComposite in2="hardAlpha" operator="out"/><feColorMatrix values="0 0 0 0 0 0 0 0 0 0 0 0 0 0 0 0 0 0 0.05 0"/><feBlend in2="BackgroundImageFix" result="effect1_dropShadow_239_1405"/><feBlend in="SourceGraphic" in2="effect1_dropShadow_239_1405" result="shape"/></filter><filter id="b" width="88" height="88" x="9" y="275" color-interpolation-filters="sRGB" filterUnits="userSpaceOnUse"><feFlood flood-opacity="0" result="BackgroundImageFix"/><feColorMatrix in="SourceAlpha" result="hardAlpha" values="0 0 0 0 0 0 0 0 0 0 0 0 0 0 0 0 0 0 127 0"/><feOffset dy="4"/><feGaussianBlur stdDeviation="4.5"/><feComposite in2="hardAlpha" operator="out"/><feColorMatrix values="0 0 0 0 0 0 0 0 0 0 0 0 0 0 0 0 0 0 0.05 0"/><feBlend in2="BackgroundImageFix" result="effect1_dropShadow_239_1405"/><feBlend in="SourceGraphic" in2="effect1_dropShadow_239_1405" result="shape"/></filter><filter id="f" width="321" height="131" x="20" y="-5" color-interpolation-filters="sRGB" filterUnits="userSpaceOnUse"><feFlood flood-opacity="0" result="BackgroundImageFix"/><feColorMatrix in="SourceAlpha" result="hardAlpha" values="0 0 0 0 0 0 0 0 0 0 0 0 0 0 0 0 0 0 127 0"/><feOffset dy="4"/><feGaussianBlur stdDeviation="4.5"/><feColorMatrix values="0 0 0 0 0 0 0 0 0 0 0 0 0 0 0 0 0 0 0.02 0"/><feBlend in2="BackgroundImageFix" result="effect1_dropShadow_239_1405"/><feBlend in="SourceGraphic" in2="effect1_dropShadow_239_1405" result="shape"/></filter></defs></svg>