<svg width="50" height="50" viewBox="0 0 50 50" fill="none" xmlns="http://www.w3.org/2000/svg">
<path d="M24.998 -0.0078125C11.198 -0.0078125 -0.00195312 11.1922 -0.00195312 24.9922C-0.00195312 38.7922 11.198 49.9922 24.998 49.9922C38.798 49.9922 49.998 38.7922 49.998 24.9922C49.998 11.1922 38.798 -0.0078125 24.998 -0.0078125ZM16.873 29.1922C16.548 30.2672 15.323 30.7672 14.323 30.3172C13.473 29.9172 13.048 28.9672 13.323 28.0672C13.623 27.0422 13.773 25.9922 13.748 24.9672C13.723 23.9422 13.598 22.9672 13.323 22.0172C13.073 21.1172 13.473 20.1422 14.323 19.7672C15.373 19.2922 16.598 19.8672 16.923 20.9922C17.298 22.2672 17.473 23.5672 17.498 24.9172C17.498 26.3172 17.298 27.7672 16.873 29.1922ZM24.723 33.1672C24.298 34.1922 23.048 34.5922 22.073 34.0422C21.248 33.5672 20.923 32.5672 21.273 31.6922C22.098 29.7672 22.498 27.6172 22.498 25.2922C22.498 22.8922 22.048 20.5672 21.173 18.3422C20.823 17.4422 21.223 16.4422 22.073 15.9922C23.048 15.4922 24.248 15.9422 24.648 16.9672C25.698 19.6172 26.223 22.4172 26.223 25.2922C26.273 28.1172 25.748 30.7672 24.723 33.1672ZM32.498 36.4922C32.073 37.4922 30.898 37.9422 29.948 37.4672C29.073 37.0422 28.648 35.9922 29.023 35.0922C30.498 31.6172 31.248 28.2172 31.248 24.9422C31.248 21.6672 30.498 18.3172 29.048 14.9172C28.648 14.0172 29.073 12.9672 29.948 12.5422C30.923 12.0422 32.073 12.4922 32.498 13.4922C34.148 17.3422 34.998 21.1922 34.998 24.9422C34.998 28.6922 34.148 32.5922 32.498 36.4922Z" fill="white"/>
</svg>
