<svg width="50" height="40" viewBox="0 0 50 40" fill="none" xmlns="http://www.w3.org/2000/svg">
<path d="M37.498 30C36.123 30 34.998 28.875 34.998 27.5H14.998C14.998 28.875 13.873 30 12.498 30C11.123 30 9.99805 28.875 9.99805 27.5H-0.00195312V35C-0.00195312 37.75 2.24805 40 4.99805 40H44.998C47.748 40 49.998 37.75 49.998 35V27.5H39.998C39.998 28.875 38.873 30 37.498 30Z" fill="white"/>
<path d="M44.998 10.0078H37.498V5.00781C37.498 2.25781 35.248 0.0078125 32.498 0.0078125H17.498C14.748 0.0078125 12.498 2.25781 12.498 5.00781V10.0078H4.99805C2.24805 10.0078 -0.00195312 12.2578 -0.00195312 15.0078V25.0078H9.99805V22.5078C9.99805 21.1328 11.123 20.0078 12.498 20.0078C13.873 20.0078 14.998 21.1328 14.998 22.5078V25.0078H34.998V22.5078C34.998 21.1328 36.123 20.0078 37.498 20.0078C38.873 20.0078 39.998 21.1328 39.998 22.5078V25.0078H49.998V15.0078C49.998 12.2578 47.748 10.0078 44.998 10.0078ZM32.498 10.0078H17.498V5.00781H32.498V10.0078Z" fill="white"/>
</svg>
